<svg width="117" height="135" viewBox="0 0 117 135" fill="none" xmlns="http://www.w3.org/2000/svg">
  <g clip-path="url(#clip0_600_253)">
    <path
      d="M0 101.101V33.9346C0 33.794 0.0703548 33.6885 0.175887 33.6181L58.3241 0.03517C58.4296 -0.0351608 58.5704 -0.0351608 58.6759 0.03517L116.824 33.583C116.93 33.6533 117 33.7588 117 33.8995V101.065C117 101.206 116.93 101.312 116.824 101.382L58.6759 134.965C58.5704 135.035 58.4296 135.035 58.3241 134.965L0.175887 101.382C0.0703548 101.312 0 101.206 0 101.101ZM38.871 56.2998C38.9062 56.2647 38.9765 56.2998 39.0117 56.335C39.0117 56.335 39.0117 56.3701 39.0117 56.4053V101.241C39.0117 101.276 39.0469 101.312 39.0469 101.347L58.2889 112.424C58.3241 112.459 58.3945 112.424 58.4296 112.389C58.4296 112.389 58.4296 112.353 58.4296 112.318V45.0469C58.4296 45.0117 58.4648 44.9766 58.5 44.9414L77.8124 33.794C77.8476 33.7588 77.8827 33.6885 77.8476 33.6533L77.8124 33.6181L58.5352 22.5059C58.5 22.4707 58.4648 22.4707 58.4296 22.5059L19.6642 44.8711C19.629 44.9062 19.5938 44.9414 19.5938 44.9766V67.2363C19.5938 67.3066 19.629 67.3418 19.6993 67.3418C19.7345 67.3418 19.7345 67.3418 19.7697 67.3418L38.871 56.2998ZM77.9531 101.065C77.9531 101.136 78.0234 101.206 78.0938 101.206C78.129 101.206 78.129 101.206 78.1642 101.171L97.4765 90.0234C97.5117 89.9883 97.5469 89.9531 97.5469 89.8828V45.1524C97.5469 45.0821 97.4765 45.0117 97.4062 45.0117C97.371 45.0117 97.371 45.0117 97.3358 45.0469L78.0235 56.1943C77.9883 56.2295 77.9531 56.2647 77.9531 56.335V101.065Z"
      fill="url(#paint0_linear_600_253)" />
  </g>
  <defs>
    <linearGradient id="paint0_linear_600_253" x1="0.0864358" y1="0.0416828" x2="64.9896" y2="82.8489"
      gradientUnits="userSpaceOnUse">
      <stop stop-color="#E3E3E2" />
      <stop offset="1" stop-color="#B1B1B1" />
    </linearGradient>
    <clipPath id="clip0_600_253">
      <rect width="117" height="135" fill="white" />
    </clipPath>
  </defs>
</svg>