<svg xmlns="http://www.w3.org/2000/svg" xmlns:xlink="http://www.w3.org/1999/xlink" width="40.884" height="40.884" viewBox="0 0 40.884 40.884">
  <defs>
    <clipPath id="clip-path">
      <circle id="椭圆_1189" data-name="椭圆 1189" cx="17" cy="17" r="17" transform="translate(1365 1617)" fill="#fff" stroke="#707070" stroke-width="1"/>
    </clipPath>
  </defs>
  <g id="组_4446" data-name="组 4446" transform="translate(-1471 -1452)">
    <g id="组_4432" data-name="组 4432" transform="translate(160 -97)">
      <path id="路径_13715" data-name="路径 13715" d="M446.437,49.2a18.743,18.743,0,1,1-18.745,18.743A18.765,18.765,0,0,1,446.437,49.2m0-1.7a20.442,20.442,0,1,0,20.441,20.442A20.442,20.442,0,0,0,446.437,47.5Z" transform="translate(885.006 1501.499)" fill="#6e77a3"/>
      <g id="蒙版组_120" data-name="蒙版组 120" transform="translate(-51 -67)" clip-path="url(#clip-path)">
        <g id="组_4429" data-name="组 4429" transform="translate(-145.039 1092.653)">
          <path id="路径_13716" data-name="路径 13716" d="M1519.3,532.347h.219a5.888,5.888,0,0,1,3.283,2.621,3.315,3.315,0,0,1,1.594-.655,17.651,17.651,0,0,1,4.745-.12,4.5,4.5,0,0,1,2.421.759.85.85,0,0,0,.078-.084,5.9,5.9,0,0,1,3.155-2.521h.274a1.448,1.448,0,0,0,.041.183,5.552,5.552,0,0,1,.021,4.061.345.345,0,0,0,.094.289,4.543,4.543,0,0,1,1.273,2.375,14.642,14.642,0,0,1,.252,4.625,6.065,6.065,0,0,1-2.509,4.376,8.3,8.3,0,0,1-3.153,1.39c-.4.092-.814.156-1.224.233a5.042,5.042,0,0,1,.821,2.806c.008,1.879,0,3.759,0,5.638v.289h-7.009v-3.444c-.545.045-1.062.121-1.578.125a4.62,4.62,0,0,1-4.394-2.49,8.511,8.511,0,0,0-2.517-3.376c-.077-.051-.1-.179-.153-.271a.92.92,0,0,1,.3-.152,2.679,2.679,0,0,1,2.164.636,5.261,5.261,0,0,1,.919,1.107,4.156,4.156,0,0,0,5.012,1.856.333.333,0,0,0,.272-.337,4.389,4.389,0,0,1,.825-2.39c-.114-.022-.208-.044-.3-.057a9.585,9.585,0,0,1-2.6-.714,6.3,6.3,0,0,1-4.029-5.5,15.959,15.959,0,0,1,.146-3.656,5.038,5.038,0,0,1,1.467-3.131.326.326,0,0,0,.02-.282,5.057,5.057,0,0,1-.259-2.9C1519.059,533.2,1519.191,532.777,1519.3,532.347Z" transform="translate(0 0)" fill="#6e77a3"/>
        </g>
      </g>
    </g>
  </g>
</svg>
