<svg xmlns="http://www.w3.org/2000/svg" width="60" height="60" viewBox="0 0 60 60">
  <g id="Group_1818" data-name="Group 1818" transform="translate(-3311 -4678)">
    <g id="Group_1794" data-name="Group 1794" transform="translate(51 -271)">
      <path id="Path_6317" data-name="Path 6317" d="M456,49.994A27.507,27.507,0,1,1,428.486,77.5,27.538,27.538,0,0,1,456,49.994m0-2.493a30,30,0,1,0,30,30,30,30,0,0,0-30-30Z" transform="translate(2834.006 4901.499)" fill="#6e77a3"/>
      <g id="Group_1767" data-name="Group 1767" transform="translate(3272.8 4964.2)">
        <path id="Path_6318" data-name="Path 6318" d="M463.759,52.324a14.031,14.031,0,0,1-4.586,1.848,7.031,7.031,0,0,0-5.268-2.406,7.422,7.422,0,0,0-7.214,7.613,8.224,8.224,0,0,0,.184,1.731A20.159,20.159,0,0,1,432,53.162a7.884,7.884,0,0,0-.979,3.826,7.719,7.719,0,0,0,3.211,6.331,6.914,6.914,0,0,1-3.268-.95v.1a7.529,7.529,0,0,0,5.791,7.462,6.954,6.954,0,0,1-3.261.131,7.289,7.289,0,0,0,6.741,5.285,14.024,14.024,0,0,1-8.963,3.254,13.868,13.868,0,0,1-1.724-.106,19.692,19.692,0,0,0,11.065,3.416c13.277,0,20.533-11.592,20.533-21.646,0-.329,0-.661-.018-.986a15.1,15.1,0,0,0,3.6-3.939,13.664,13.664,0,0,1-4.144,1.2A7.565,7.565,0,0,0,463.759,52.324Z" transform="translate(-429.55 -51.766)" fill="#6e77a3"/>
      </g>
    </g>
  </g>
</svg>
