<svg xmlns="http://www.w3.org/2000/svg" width="40.884" height="40.884" viewBox="0 0 40.884 40.884">
  <g id="组_4443" data-name="组 4443" transform="translate(-1539 -1524)">
    <g id="组_4427" data-name="组 4427" transform="translate(1550.988 1531)">
      <path id="路径_13710" data-name="路径 13710" d="M1605.966,947.591l-.172-.172.007.008-.007-.007,0,0h0l-.074.068v.044l-.022-.024-.109.109-.043.681.174-.175v.008l.4-.4-.145-.146h0Z" transform="translate(-1594.705 -926.954)" fill="#2e2fff"/>
      <path id="路径_13711" data-name="路径 13711" d="M1553.341,819.652a8.61,8.61,0,0,0-14.78-6.006l-2.536,2.542c-.112.1-.22.211-.321.315l-2.375,2.387.306.33a8.189,8.189,0,0,1,1.772-1.155l.035-.017,1.2-1.2a7.709,7.709,0,0,1,11.02,10.757l-1.332,1.337-.016.034a8.182,8.182,0,0,1-1.294,1.931l.327.309,2.4-2.4c.2-.183.395-.385.576-.59l2.041-2.05a8.7,8.7,0,0,0,.913-.916l.346-.348-.034-.039A8.641,8.641,0,0,0,1553.341,819.652Zm-2.841,2.841a8.627,8.627,0,0,0-11.34-8.173l.042-.042a7.71,7.71,0,0,1,11.449,10.312l-.055.065a7.917,7.917,0,0,1-.551.581A8.622,8.622,0,0,0,1550.5,822.492Z" transform="translate(-1533.33 -811.041)" fill="#2e2fff"/>
    </g>
    <path id="路径_13712" data-name="路径 13712" d="M1522.039,849.279a8.629,8.629,0,0,0-2.129,16.992l0,5.932,7.775-7.775a8.628,8.628,0,0,0-5.651-15.148Zm-.011,5.995v7.883l-2.266-1.307v-5.269l-2.267,1.309v-2.617l4.533-2.617,2.266,1.308Zm4.554,5.26-2.275,1.313V856.6l2.275-1.315Z" transform="translate(34.59 687.459)" fill="#2e2fff"/>
    <path id="路径_13714" data-name="路径 13714" d="M446.437,49.2a18.743,18.743,0,1,1-18.745,18.743A18.765,18.765,0,0,1,446.437,49.2m0-1.7a20.442,20.442,0,1,0,20.441,20.442A20.442,20.442,0,0,0,446.437,47.5Z" transform="translate(1113.006 1476.499)" fill="#2e2fff"/>
  </g>
</svg>
