<svg id="Group_1780" data-name="Group 1780" xmlns="http://www.w3.org/2000/svg" width="60" height="60" viewBox="0 0 60 60">
  <g id="Group_1773" data-name="Group 1773" transform="translate(15.2 16)">
    <rect id="Rectangle_2378" data-name="Rectangle 2378" width="6.246" height="19.769" transform="translate(0 8.325)" fill="#3351ff"/>
    <circle id="Ellipse_388" data-name="Ellipse 388" cx="3.122" cy="3.122" r="3.122" transform="translate(0.001)" fill="#3351ff"/>
    <path id="Path_6322" data-name="Path 6322" d="M510.228,62.911c0-5.2-1.124-9.188-7.207-9.188a6.316,6.316,0,0,0-5.684,3.114h-.082V54.2h-5.764V73.49H497.5V63.948c0-2.514.477-4.953,3.6-4.953,3.079,0,3.123,2.877,3.123,5.117V73.49h6Z" transform="translate(-481.08 -45.398)" fill="#3351ff"/>
  </g>
  <path id="Path_6331" data-name="Path 6331" d="M456,49.994A27.507,27.507,0,1,1,428.486,77.5,27.538,27.538,0,0,1,456,49.994m0-2.493a30,30,0,1,0,30,30,30,30,0,0,0-30-30Z" transform="translate(-425.994 -47.501)" fill="#3351ff"/>
</svg>
