<svg xmlns="http://www.w3.org/2000/svg" width="60" height="60" viewBox="0 0 60 60">
  <g id="Group_1835" data-name="Group 1835" transform="translate(-4475 -5235)">
    <path id="Path_6334" data-name="Path 6334" d="M456,49.994A27.507,27.507,0,1,1,428.486,77.5,27.538,27.538,0,0,1,456,49.994m0-2.493a30,30,0,1,0,30,30,30,30,0,0,0-30-30Z" transform="translate(4049.006 5187.499)" fill="#3351ff"/>
    <path id="reddit" d="M33.522,14.346a4.209,4.209,0,0,0-3.012,1.283,20.222,20.222,0,0,0-10.9-3.413l2.2-10.07,7.013,1.6a3.147,3.147,0,0,0,3.116,3.164,3.2,3.2,0,1,0-2.806-4.633L21.386.533a.742.742,0,0,0-.876.574l-2.418,11.1A20.472,20.472,0,0,0,7.255,15.662,4.2,4.2,0,0,0,4.2,14.346a4.256,4.256,0,0,0-1.82,8.077,9.164,9.164,0,0,0-.207,1.993c0,6.761,7.506,12.239,16.723,12.239,9.256,0,16.762-5.478,16.762-12.239a7.837,7.837,0,0,0-.245-2.026,4.257,4.257,0,0,0-1.891-8.044ZM8.8,22.85a3.137,3.137,0,1,1,3.156,3.164A3.168,3.168,0,0,1,8.8,22.85Zm17.038,7.542c-2.894,2.936-11.06,2.936-13.956,0a.762.762,0,1,1,1.05-1.105c2.21,2.3,9.542,2.339,11.848,0a.765.765,0,0,1,1.058,1.105Zm-.064-4.372a3.183,3.183,0,1,1,3.156-3.161A3.144,3.144,0,0,1,25.779,26.021Z" transform="translate(4486.2 5246.5)" fill="#3351ff"/>
  </g>
</svg>
