<svg xmlns="http://www.w3.org/2000/svg" width="60" height="60" viewBox="0 0 60 60">
  <g id="Group_1836" data-name="Group 1836" transform="translate(-4604 -5235)">
    <path id="Path_6333" data-name="Path 6333" d="M456,49.994A27.507,27.507,0,1,1,428.486,77.5,27.538,27.538,0,0,1,456,49.994m0-2.493a30,30,0,1,0,30,30,30,30,0,0,0-30-30Z" transform="translate(4178.006 5187.499)" fill="#3351ff"/>
    <g id="slack" transform="translate(4615.2 5246.2)">
      <path id="Path_6227" data-name="Path 6227" d="M10.2,12.651a3.883,3.883,0,0,0-3.883,3.883v9.713a3.883,3.883,0,1,0,7.766,0V16.534A3.885,3.885,0,0,0,10.2,12.651Z" transform="translate(3.412 6.836)" fill="#3351ff"/>
      <path id="Path_6228" data-name="Path 6228" d="M.019,16.535a3.886,3.886,0,0,0,7.772,0V12.649H3.9A3.887,3.887,0,0,0,.019,16.535Z" transform="translate(0.007 6.835)" fill="#3351ff"/>
      <path id="Path_6229" data-name="Path 6229" d="M10.211,0h0a3.886,3.886,0,0,0,0,7.772h3.883V3.877A3.88,3.88,0,0,0,10.211,0Z" transform="translate(3.411 0.001)" fill="#3351ff"/>
      <path id="Path_6230" data-name="Path 6230" d="M3.888,14.1h9.731a3.886,3.886,0,1,0,0-7.772H3.888a3.886,3.886,0,0,0,0,7.772Z" transform="translate(-0.002 3.418)" fill="#3351ff"/>
      <path id="Path_6231" data-name="Path 6231" d="M22.817,6.323A3.878,3.878,0,0,0,18.939,10.2v3.894h3.883a3.886,3.886,0,0,0,0-7.772Z" transform="translate(10.228 3.417)" fill="#3351ff"/>
      <path id="Path_6232" data-name="Path 6232" d="M12.641,3.884v9.742a3.883,3.883,0,1,0,7.766,0V3.884a3.883,3.883,0,0,0-7.766,0Z" transform="translate(6.826 0.002)" fill="#3351ff"/>
      <g id="Group_1625" data-name="Group 1625" transform="translate(19.462 19.484)">
        <path id="Path_6233" data-name="Path 6233" d="M20.406,22.838a3.883,3.883,0,0,0-3.883-3.883H12.64v3.886a3.883,3.883,0,0,0,7.766,0Z" transform="translate(-12.637 -9.242)" fill="#3351ff"/>
        <path id="Path_6234" data-name="Path 6234" d="M26.255,12.649H16.524a3.886,3.886,0,1,0,0,7.772h9.731a3.886,3.886,0,1,0,0-7.772Z" transform="translate(-12.638 -12.649)" fill="#3351ff"/>
      </g>
    </g>
  </g>
</svg>
