<svg xmlns="http://www.w3.org/2000/svg" width="40.884" height="40.884" viewBox="0 0 40.884 40.884">
  <g id="组_4442" data-name="组 4442" transform="translate(-1471 -1524)">
    <g id="so-icon" transform="translate(1482 1532)">
      <path id="路径_13573" data-name="路径 13573" d="M39.508,76.947V70.6h2.107v8.454H22.6V70.6h2.107v6.347Z" transform="translate(-22.6 -55.842)" fill="#2e2fff"/>
      <path id="路径_13574" data-name="路径 13574" d="M38.219,29.537,48.561,31.7,49,29.62,38.657,27.458Zm1.368-4.925,9.576,4.46.876-1.915L40.462,22.67l-.876,1.943Zm2.654-4.706,8.126,6.758,1.341-1.614-8.126-6.758ZM47.494,14.9l-1.7,1.259L52.09,24.64l1.7-1.259ZM38,34.353H48.561V32.246H38Z" transform="translate(-33.787 -14.9)" fill="#2e2fff"/>
    </g>
    <path id="路径_13713" data-name="路径 13713" d="M446.437,49.2a18.743,18.743,0,1,1-18.745,18.743A18.765,18.765,0,0,1,446.437,49.2m0-1.7a20.442,20.442,0,1,0,20.441,20.442A20.442,20.442,0,0,0,446.437,47.5Z" transform="translate(1045.006 1476.499)" fill="#2e2fff"/>
  </g>
</svg>
