<svg xmlns="http://www.w3.org/2000/svg" width="60" height="60" viewBox="0 0 60 60">
  <g id="Group_1843" data-name="Group 1843" transform="translate(-3991 -5135)">
    <g id="Group_1842" data-name="Group 1842">
      <path id="Path_6337" data-name="Path 6337" d="M672.862-142.926l-4.4,8.622c-1.159,2.364-2.133,4.265-3.106,6.443h-.029c-.973-2.178-1.947-4.079-3.106-6.443l-4.4-8.622h-4.3L663.1-123.92v12.238h4.479V-123.92l9.581-19.006Z" transform="translate(3355.483 5293.926)" fill="#6e77a3"/>
      <path id="Path_6338" data-name="Path 6338" d="M456,49.994A27.507,27.507,0,1,1,428.486,77.5,27.538,27.538,0,0,1,456,49.994m0-2.493a30,30,0,1,0,30,30,30,30,0,0,0-30-30Z" transform="translate(3565.006 5087.499)" fill="#6e77a3"/>
    </g>
  </g>
</svg>
