<svg xmlns="http://www.w3.org/2000/svg" width="60" height="60" viewBox="0 0 60 60">
  <g id="Group_1837" data-name="Group 1837" transform="translate(-4732 -5135)">
    <g id="Group_1833" data-name="Group 1833">
      <path id="Path_6236" data-name="Path 6236" d="M35.258,3.944A4.51,4.51,0,0,0,32.085.771C29.268,0,18,0,18,0S6.731,0,3.914.742a4.6,4.6,0,0,0-3.173,3.2A47.527,47.527,0,0,0,0,12.6s0,5.871.741,8.659a4.511,4.511,0,0,0,3.173,3.173c2.847.771,14.086.771,14.086.771s11.268,0,14.086-.742a4.51,4.51,0,0,0,3.173-3.173A47.528,47.528,0,0,0,36,12.633S36.03,6.761,35.258,3.944Zm0,0" transform="translate(4744 5152)" fill="#6e77a3"/>
      <path id="Path_6237" data-name="Path 6237" d="M204.969,113.278l9.37-5.4-9.37-5.4Zm0,0" transform="translate(4553.443 5056.425)" fill="#f7f8f9"/>
      <path id="Path_6332" data-name="Path 6332" d="M456,49.994A27.507,27.507,0,1,1,428.486,77.5,27.538,27.538,0,0,1,456,49.994m0-2.493a30,30,0,1,0,30,30,30,30,0,0,0-30-30Z" transform="translate(4306.006 5087.499)" fill="#6e77a3"/>
    </g>
  </g>
</svg>
