<svg width="32" height="36" viewBox="0 0 32 36" fill="none" xmlns="http://www.w3.org/2000/svg">
<g clip-path="url(#clip0_789_1367)">
<path d="M0 26.9605V9.04959C0 9.01208 0.0187549 8.98395 0.0468872 8.96519L15.5478 0.00973267C15.5759 -0.00902222 15.6134 -0.00902222 15.6416 0.00973267L31.1425 8.95581C31.1706 8.97457 31.1894 9.0027 31.1894 9.04021V26.9511C31.1894 26.9886 31.1706 27.0168 31.1425 27.0355L15.6416 35.991C15.6134 36.0097 15.5759 36.0097 15.5478 35.991L0.0468872 27.0355C0.0187549 27.0168 0 26.9886 0 26.9605Z" fill="#DC150B"/>
<path d="M10.3808 15.0336C10.3714 15.0242 10.3527 15.0149 10.3433 15.0242L5.25136 17.9688H5.2326C5.21384 17.9688 5.20447 17.9594 5.20447 17.9406V12.0047C5.20447 11.9953 5.21384 11.986 5.22322 11.9766L5.22322 11.9766L15.5572 6.01253C15.5665 6.00315 15.5759 6.00315 15.5853 6.01253L20.7241 8.9758L20.7335 8.98518C20.7429 8.99455 20.7335 9.01331 20.7241 9.02268L15.5759 11.9953C15.5665 12.0047 15.5572 12.0141 15.5572 12.0235V29.9625V29.9813C15.5478 29.9906 15.529 30 15.5197 29.9906L10.3902 27.0368C10.3902 27.0274 10.3808 27.018 10.3808 27.0086V15.0524V15.0336Z" fill="white"/>
<path d="M20.7992 26.9992C20.7804 26.9992 20.7616 26.9805 20.7616 26.9617V15.0336C20.7616 15.0149 20.771 15.0055 20.7804 14.9961L25.9286 12.0235L25.9286 12.0235C25.938 12.0141 25.938 12.0141 25.9474 12.0141C25.9661 12.0141 25.9849 12.0328 25.9849 12.0516V23.9797C25.9849 23.9985 25.9755 24.0078 25.9661 24.0172L20.8179 26.9899C20.8085 26.9992 20.8085 26.9992 20.7992 26.9992Z" fill="white"/>
</g>
<defs>
<clipPath id="clip0_789_1367">
<rect width="31.1894" height="36" fill="white"/>
</clipPath>
</defs>
</svg>
