<svg width="152" height="36" viewBox="0 0 152 36" fill="none" xmlns="http://www.w3.org/2000/svg">
<g clip-path="url(#clip0_789_1365)">
<path d="M0 26.9605V9.04959C0 9.01208 0.0187549 8.98395 0.0468872 8.96519L15.5478 0.00973267C15.5759 -0.00902222 15.6134 -0.00902222 15.6416 0.00973267L31.1425 8.95581C31.1706 8.97457 31.1894 9.0027 31.1894 9.04021V26.9511C31.1894 26.9886 31.1706 27.0168 31.1425 27.0355L15.6416 35.991C15.6134 36.0097 15.5759 36.0097 15.5478 35.991L0.0468872 27.0355C0.0187549 27.0168 0 26.9886 0 26.9605Z" fill="#DC150B"/>
<path d="M10.3808 15.0336C10.3714 15.0242 10.3527 15.0149 10.3433 15.0242L5.25136 17.9688H5.2326C5.21384 17.9688 5.20447 17.9594 5.20447 17.9406V12.0047C5.20447 11.9953 5.21384 11.986 5.22322 11.9766L5.22322 11.9766L15.5572 6.01253C15.5665 6.00315 15.5759 6.00315 15.5853 6.01253L20.7241 8.9758L20.7335 8.98518C20.7429 8.99455 20.7335 9.01331 20.7241 9.02268L15.5759 11.9953C15.5665 12.0047 15.5572 12.0141 15.5572 12.0235V29.9625V29.9813C15.5478 29.9906 15.529 30 15.5197 29.9906L10.3902 27.0368C10.3902 27.0274 10.3808 27.018 10.3808 27.0086V15.0524V15.0336Z" fill="white"/>
<path d="M20.7992 26.9992C20.7804 26.9992 20.7616 26.9805 20.7616 26.9617V15.0336C20.7616 15.0149 20.771 15.0055 20.7804 14.9961L25.9286 12.0235L25.9286 12.0235C25.938 12.0141 25.938 12.0141 25.9474 12.0141C25.9661 12.0141 25.9849 12.0328 25.9849 12.0516V23.9797C25.9849 23.9985 25.9755 24.0078 25.9661 24.0172L20.8179 26.9899C20.8085 26.9992 20.8085 26.9992 20.7992 26.9992Z" fill="white"/>
</g>
<path d="M37.1894 12.4971H42.0242V26.9998H45.4248V12.4971H50.2596V9.37683H37.1894V12.4971Z" fill="black"/>
<path d="M53.6372 9C53.1197 9 52.6672 9.18709 52.2887 9.55826C51.9102 9.92943 51.7151 10.3941 51.7151 10.9373C51.7151 11.4503 51.9073 11.8999 52.2858 12.2802C52.6643 12.6574 53.1167 12.8505 53.6342 12.8505C54.1517 12.8505 54.5775 12.6574 54.9501 12.2802C55.3227 11.903 55.509 11.4503 55.509 10.9373C55.509 10.3941 55.3257 9.93245 54.9619 9.56128C54.5982 9.19011 54.1517 9.00302 53.6372 9.00302V9Z" fill="black"/>
<path d="M55.2895 14.3592H51.9864V27H55.2895V14.3592Z" fill="black"/>
<path d="M64.3322 9.37683H58.2613V26.9998H64.3322C66.9492 26.9998 69.028 26.2031 70.5124 24.6309C71.9939 23.0587 72.748 20.8921 72.748 18.1883C72.748 15.4845 71.9969 13.2967 70.5124 11.7336C69.028 10.1705 66.9492 9.37683 64.3322 9.37683ZM61.6619 12.4971H64.2109C65.9024 12.4971 67.1798 12.998 68.0137 13.9847C68.8506 14.9775 69.2734 16.3566 69.2734 18.0857C69.2734 19.8148 68.8476 21.2512 68.0108 22.3013C67.1769 23.3454 65.8994 23.8765 64.208 23.8765H61.659V12.494L61.6619 12.4971Z" fill="black"/>
<path d="M86.5964 19.1388C86.0346 18.4418 85.3663 17.9409 84.6152 17.6512V17.621C86.1883 16.8424 86.9838 15.566 86.9838 13.8278C86.9838 12.479 86.5461 11.3866 85.6856 10.5839C84.8251 9.78421 83.5566 9.37683 81.9154 9.37683H74.7948V26.9998H81.8681C83.6068 26.9998 84.9907 26.5652 85.9784 25.7082C86.972 24.8482 87.4747 23.6261 87.4747 22.075C87.4747 20.8468 87.179 19.8601 86.5994 19.1388H86.5964ZM78.1185 16.5256V12.1953H81.4718C82.1105 12.1953 82.628 12.3884 83.0095 12.7686C83.388 13.1489 83.5802 13.68 83.5802 14.3499C83.5802 15.0198 83.3909 15.5569 83.0184 15.9432C82.6458 16.3294 82.1105 16.5256 81.4216 16.5256H78.1156H78.1185ZM83.9972 21.8245C83.9972 22.5276 83.7872 23.101 83.3762 23.5295C82.9651 23.958 82.356 24.1753 81.5724 24.1753H78.1215V19.3471H81.5724C82.3235 19.3471 82.9237 19.5794 83.3525 20.0411C83.7813 20.5028 84.0001 21.1033 84.0001 21.8215L83.9972 21.8245Z" fill="black"/>
<path d="M97.3306 26.5V9.7H102.299C107.771 9.7 111.083 12.868 111.083 18.1C111.083 23.332 107.771 26.5 102.299 26.5H97.3306ZM102.299 24.364C106.331 24.364 108.659 22.06 108.659 18.1C108.659 14.14 106.331 11.836 102.299 11.836H99.7066V24.364H102.299ZM118.968 26.764C115.464 26.764 112.824 24.052 112.824 20.5C112.824 16.948 115.464 14.236 118.968 14.236C122.472 14.236 125.112 16.948 125.112 20.5C125.112 24.052 122.472 26.764 118.968 26.764ZM118.968 24.628C121.152 24.628 122.736 22.876 122.736 20.5C122.736 18.124 121.152 16.372 118.968 16.372C116.784 16.372 115.2 18.124 115.2 20.5C115.2 22.876 116.784 24.628 118.968 24.628ZM132.772 26.764C129.22 26.764 126.7 24.124 126.7 20.5C126.7 16.876 129.22 14.236 132.772 14.236C135.652 14.236 137.884 15.964 138.244 18.532H135.844C135.532 17.236 134.332 16.372 132.772 16.372C130.588 16.372 129.076 18.076 129.076 20.5C129.076 22.9 130.588 24.628 132.772 24.628C134.332 24.628 135.532 23.764 135.844 22.468H138.244C137.884 25.036 135.652 26.764 132.772 26.764ZM144.557 26.764C141.677 26.764 139.781 25.108 139.709 22.732H142.085C142.229 23.956 142.973 24.724 144.581 24.724C145.733 24.724 146.765 24.34 146.765 23.332C146.765 22.588 146.333 22.06 145.157 21.7L143.333 21.172C141.173 20.548 140.093 19.3 140.093 17.716C140.093 15.604 141.965 14.236 144.413 14.236C146.885 14.236 148.685 15.7 148.829 17.74H146.453C146.285 16.828 145.445 16.204 144.341 16.204C143.261 16.204 142.469 16.804 142.469 17.716C142.469 18.412 142.925 18.868 144.245 19.228L146.069 19.732C148.109 20.308 149.141 21.556 149.141 23.188C149.141 25.396 147.197 26.764 144.557 26.764Z" fill="black"/>
<defs>
<clipPath id="clip0_789_1365">
<rect width="31.1894" height="36" fill="white"/>
</clipPath>
</defs>
</svg>
