<svg width="165" height="36" viewBox="0 0 165 36" fill="none" xmlns="http://www.w3.org/2000/svg">
<g clip-path="url(#clip0_22_2744)">
<path d="M0 26.9604V9.04953C0 9.01202 0.0187549 8.98388 0.0468872 8.96513L15.5478 0.00967163C15.5759 -0.00908325 15.6134 -0.00908325 15.6416 0.00967163L31.1425 8.95575C31.1706 8.97451 31.1894 9.00264 31.1894 9.04015V26.9511C31.1894 26.9886 31.1706 27.0167 31.1425 27.0355L15.6416 35.9909C15.6134 36.0097 15.5759 36.0097 15.5478 35.9909L0.0468872 27.0355C0.0187549 27.0167 0 26.9886 0 26.9604Z" fill="#DC150B"/>
<path d="M10.3809 15.0335C10.3716 15.0241 10.3528 15.0147 10.3434 15.0241L5.25148 17.9686H5.23272C5.21397 17.9686 5.20459 17.9593 5.20459 17.9405V12.0046C5.20459 11.9952 5.21397 11.9858 5.22334 11.9765L5.22334 11.9765L15.5573 6.0124C15.5667 6.00303 15.576 6.00303 15.5854 6.0124L20.7243 8.97568L20.7336 8.98505C20.743 8.99443 20.7336 9.01319 20.7243 9.02256L15.576 11.9952C15.5667 12.0046 15.5573 12.014 15.5573 12.0233V29.9624V29.9811C15.5479 29.9905 15.5292 29.9999 15.5198 29.9905L10.3903 27.0366C10.3903 27.0273 10.3809 27.0179 10.3809 27.0085V15.0523V15.0335Z" fill="white"/>
<path d="M20.7993 26.9991C20.7805 26.9991 20.7618 26.9804 20.7618 26.9616V15.0335C20.7618 15.0147 20.7711 15.0054 20.7805 14.996L25.9287 12.0233L25.9287 12.0233C25.9381 12.014 25.9381 12.014 25.9475 12.014C25.9662 12.014 25.985 12.0327 25.985 12.0515V23.9796C25.985 23.9983 25.9756 24.0077 25.9662 24.0171L20.818 26.9897C20.8087 26.9991 20.8087 26.9991 20.7993 26.9991Z" fill="white"/>
</g>
<path d="M37.1895 12.4971H42.0243V26.9998H45.4249V12.4971H50.2597V9.37683H37.1895V12.4971Z" fill="black"/>
<path d="M53.6372 9C53.1197 9 52.6673 9.18709 52.2888 9.55826C51.9103 9.92943 51.7151 10.3941 51.7151 10.9373C51.7151 11.4503 51.9073 11.8999 52.2858 12.2802C52.6644 12.6574 53.1168 12.8505 53.6343 12.8505C54.1518 12.8505 54.5776 12.6574 54.9502 12.2802C55.3228 11.903 55.509 11.4503 55.509 10.9373C55.509 10.3941 55.3257 9.93245 54.962 9.56128C54.5983 9.19011 54.1518 9.00302 53.6372 9.00302V9Z" fill="black"/>
<path d="M55.2895 14.3592H51.9865V27H55.2895V14.3592Z" fill="black"/>
<path d="M64.3322 9.37683H58.2614V26.9998H64.3322C66.9492 26.9998 69.028 26.2031 70.5125 24.6309C71.994 23.0587 72.748 20.8921 72.748 18.1883C72.748 15.4845 71.9969 13.2967 70.5125 11.7336C69.028 10.1705 66.9492 9.37683 64.3322 9.37683ZM61.662 12.4971H64.211C65.9024 12.4971 67.1799 12.998 68.0138 13.9847C68.8506 14.9775 69.2735 16.3566 69.2735 18.0857C69.2735 19.8148 68.8477 21.2512 68.0108 22.3013C67.1769 23.3454 65.8995 23.8765 64.208 23.8765H61.659V12.494L61.662 12.4971Z" fill="black"/>
<path d="M86.5965 19.1388C86.0346 18.4418 85.3663 17.9409 84.6152 17.6512V17.621C86.1884 16.8424 86.9838 15.566 86.9838 13.8278C86.9838 12.479 86.5462 11.3866 85.6857 10.5839C84.8252 9.78421 83.5566 9.37683 81.9154 9.37683H74.7948V26.9998H81.8681C83.6069 26.9998 84.9908 26.5652 85.9784 25.7082C86.972 24.8482 87.4747 23.6261 87.4747 22.075C87.4747 20.8468 87.179 19.8601 86.5994 19.1388H86.5965ZM78.1186 16.5256V12.1953H81.4719C82.1106 12.1953 82.6281 12.3884 83.0096 12.7686C83.3881 13.1489 83.5803 13.68 83.5803 14.3499C83.5803 15.0198 83.391 15.5569 83.0184 15.9432C82.6458 16.3294 82.1106 16.5256 81.4216 16.5256H78.1156H78.1186ZM83.9972 21.8245C83.9972 22.5276 83.7873 23.101 83.3762 23.5295C82.9652 23.958 82.356 24.1753 81.5724 24.1753H78.1215V19.3471H81.5724C82.3235 19.3471 82.9238 19.5794 83.3526 20.0411C83.7813 20.5028 84.0002 21.1033 84.0002 21.8215L83.9972 21.8245Z" fill="black"/>
<path d="M97.3305 26.5V9.7H102.298C107.77 9.7 111.082 12.868 111.082 18.1C111.082 23.332 107.77 26.5 102.298 26.5H97.3305ZM102.298 24.364C106.33 24.364 108.658 22.06 108.658 18.1C108.658 14.14 106.33 11.836 102.298 11.836H99.7065V24.364H102.298ZM122.079 26.764C117.111 26.764 113.511 23.14 113.511 18.1C113.511 13.06 117.111 9.436 122.079 9.436C127.047 9.436 130.647 13.06 130.647 18.1C130.647 23.14 127.047 26.764 122.079 26.764ZM122.079 24.58C125.679 24.58 128.223 21.916 128.223 18.1C128.223 14.284 125.679 11.62 122.079 11.62C118.455 11.62 115.935 14.284 115.935 18.1C115.935 21.916 118.455 24.58 122.079 24.58ZM141.195 26.764C136.347 26.764 133.059 23.14 133.059 18.124C133.059 13.18 136.443 9.436 141.195 9.436C144.867 9.436 147.867 11.62 148.515 14.932H146.091C145.323 12.748 143.523 11.62 141.195 11.62C137.691 11.62 135.483 14.164 135.483 18.1C135.483 21.772 137.523 24.58 141.195 24.58C143.499 24.58 145.371 23.524 146.115 21.268H148.539C147.915 24.628 144.915 26.764 141.195 26.764ZM156.396 26.764C153.036 26.764 150.612 24.796 150.42 21.7H152.94C153.228 23.572 154.5 24.58 156.396 24.58C158.196 24.58 159.708 23.692 159.708 22.084C159.708 20.836 158.844 19.876 156.972 19.276L154.836 18.58C152.268 17.74 150.996 16.06 150.996 13.996C150.996 11.236 153.3 9.436 156.276 9.436C159.252 9.436 161.7 11.452 161.82 14.02H159.3C159.132 12.628 157.908 11.62 156.276 11.62C154.692 11.62 153.42 12.58 153.42 13.996C153.42 15.124 154.188 15.892 156.036 16.492L157.86 17.068C160.74 17.98 162.132 19.876 162.132 22.084C162.132 25.036 159.564 26.764 156.396 26.764Z" fill="#DC150B"/>
<defs>
<clipPath id="clip0_22_2744">
<rect width="31.1894" height="36" fill="white"/>
</clipPath>
</defs>
</svg>
