<svg width="422" height="288" viewBox="0 0 422 289" fill="none" xmlns="http://www.w3.org/2000/svg">
<path d="M85 144L1 192L85 240M85 144L169 192M85 144V240M85 144L169 96M169 192L85 240M169 192L253 144M169 192V96M169 192L253 240M169 192V288M85 240L169 288M169 96L253 144M169 96L253 48M253 144L337 96M253 144V48M253 144L337 192M253 144V240M253 240L169 288M253 240L337 192M253 48L337 96M337 96L421 144L337 192M337 96V192" stroke="#DC150B"/>
<path d="M85 48L169 0L253 48L169 96L85 48Z" fill="#FB655D"/>
<path d="M169 96L85 48V144L169 96Z" fill="#9F0800"/>
<path d="M253 144L169 96V192L253 144Z" fill="#DC150B"/>
<path d="M169 96L85 144L169 192V96Z" fill="#9F0800"/>
<path d="M253 48L169 96L253 144V48Z" fill="#DC150B"/>
<path d="M288 111.429L336 84L384 111.429L336 138.857L288 111.429Z" fill="#50DBD9"/>
<path d="M336 138.857L288 111.429V166.286L336 138.857Z" fill="#0F5353"/>
<path d="M384 166.286L336 138.857V193.714L384 166.286Z" fill="#1AA8A8"/>
<path d="M336 138.857L288 166.286L336 193.714V138.857Z" fill="#0F5353"/>
<path d="M384 111.429L336 138.857L384 166.286V111.429Z" fill="#1AA8A8"/>
<path d="M37 158.429L85 131L133 158.429L85 185.857L37 158.429Z" fill="#509DEA"/>
<path d="M85 185.857L37 158.429V213.286L85 185.857Z" fill="#10487B"/>
<path d="M133 213.286L85 185.857V240.714L133 213.286Z" fill="#2C80CE"/>
<path d="M85 185.857L37 213.286L85 240.714V185.857Z" fill="#10487B"/>
<path d="M133 158.429L85 185.857L133 213.286V158.429Z" fill="#2C80CE"/>
<path d="M205 158.429L253 131L301 158.429L253 185.857L205 158.429Z" fill="#D8A5F1"/>
<path d="M253 185.857L205 158.429V213.286L253 185.857Z" fill="#4B1C5F"/>
<path d="M301 213.286L253 185.857V240.714L301 213.286Z" fill="#9E4EC4"/>
<path d="M253 185.857L205 213.286L253 240.714V185.857Z" fill="#4B1C5F"/>
<path d="M301 158.429L253 185.857L301 213.286V158.429Z" fill="#9E4EC4"/>
</svg>
