<svg width="258" height="260" viewBox="0 0 258 260" fill="none" xmlns="http://www.w3.org/2000/svg">
<rect width="258" height="259.029" rx="8" fill="#F9F4FA"/>
<path d="M26.2957 16H30.2787V33.5352H26.2957V26.4209H20.008V33.5352H16V16H20.008V22.8638H26.2957V16Z" fill="#200B28"/>
<path d="M46.8518 16V19.6573H42.1173V33.5352H38.1593V19.6573H33.4499V16H46.8518Z" fill="#200B28"/>
<path d="M59.8028 33.5352L58.7256 30.0282H52.3378L51.2606 33.5352H47.0522L52.939 16H58.1495L64.0363 33.5352H59.8028ZM53.415 26.6213H57.6485L55.6946 20.2836H55.3689L53.415 26.6213Z" fill="#200B28"/>
<path d="M73.8126 16C75.7665 16 77.2862 16.5344 78.3717 17.6032C79.4572 18.672 80 20.0832 80 21.8367C80 23.657 79.4572 25.0933 78.3717 26.1454C77.2862 27.1808 75.7498 27.6985 73.7625 27.6985H70.7063V33.5352H66.8736V16H73.8126ZM73.512 24.1413C74.347 24.1413 74.9649 23.9326 75.3657 23.5151C75.7832 23.0976 75.9919 22.5381 75.9919 21.8367C75.9919 21.1687 75.7832 20.626 75.3657 20.2085C74.9482 19.7742 74.347 19.5571 73.5621 19.5571H70.7063V24.1413H73.512Z" fill="#200B28"/>
<path d="M23.4625 45.1143C23.4625 46.0568 23.1272 46.7807 22.4568 47.286C21.796 47.7815 20.9167 48.0293 19.8187 48.0293C18.6332 48.0293 17.7004 47.6989 17.0203 47.0382C16.3401 46.3775 16 45.5127 16 44.4438H18.2591C18.2591 44.9491 18.3952 45.3475 18.6672 45.639C18.949 45.9208 19.3571 46.0617 19.8916 46.0617C20.2414 46.0617 20.528 45.9791 20.7515 45.8139C20.9847 45.6487 21.1013 45.4106 21.1013 45.0997C21.1013 44.7693 20.9604 44.5021 20.6786 44.2981C20.4065 44.094 19.9256 43.8657 19.2357 43.613C18.3126 43.273 17.5935 42.8697 17.0786 42.4033C16.5636 41.9369 16.3061 41.315 16.3061 40.5377C16.3061 39.6049 16.6219 38.8713 17.2535 38.3368C17.8948 37.8024 18.7061 37.5352 19.6875 37.5352C20.7661 37.5352 21.6211 37.8413 22.2527 38.4534C22.8843 39.0559 23.2001 39.8041 23.2001 40.698H21.0867C21.0576 40.3385 20.9215 40.047 20.6786 39.8235C20.4454 39.6 20.1199 39.4883 19.7021 39.4883C19.3814 39.4883 19.1191 39.566 18.915 39.7215C18.7207 39.877 18.6235 40.0907 18.6235 40.3628C18.6235 40.6349 18.745 40.8729 18.9879 41.077C19.2308 41.2713 19.6632 41.4948 20.2851 41.7474C21.3636 42.1847 22.1604 42.6414 22.6754 43.1175C23.2001 43.5936 23.4625 44.2592 23.4625 45.1143Z" fill="#200B28"/>
<path d="M34.8308 37.681V43.5402C34.8308 45.0463 34.4324 46.1734 33.6357 46.9216C32.8486 47.6601 31.8235 48.0293 30.5603 48.0293C29.2874 48.0293 28.2526 47.6601 27.4558 46.9216C26.659 46.1734 26.2607 45.0463 26.2607 43.5402V37.681H28.6801V43.6713C28.6801 44.3224 28.8453 44.8471 29.1757 45.2455C29.506 45.6341 29.9724 45.8285 30.5749 45.8285C31.1676 45.8285 31.6194 45.6341 31.9304 45.2455C32.251 44.8471 32.4113 44.3224 32.4113 43.6713V37.681H34.8308Z" fill="#200B28"/>
<path d="M49.3887 37.681V47.8835H47.1587V41.4851H46.9693L44.8704 47.009H42.6696L40.5708 41.4851H40.3813V47.8835H38.1513V37.681H41.1246L43.6899 44.0649H43.8793L46.4008 37.681H49.3887Z" fill="#200B28"/>
<path d="M63.9126 37.681V47.8835H61.6826V41.4851H61.4931L59.3943 47.009H57.1935L55.0947 41.4851H54.9052V47.8835H52.6752V37.681H55.6485L58.2137 44.0649H58.4032L60.9247 37.681H63.9126Z" fill="#200B28"/>
<path d="M69.6185 37.681V47.8835H67.1991V37.681H69.6185Z" fill="#200B28"/>
<path d="M80 37.681V39.8089H77.2453V47.8835H74.9424V39.8089H72.2023V37.681H80Z" fill="#200B28"/>
<path d="M18.9802 55.6874C18.7199 55.8387 18.5327 55.9537 18.4184 56.0323C18.3042 56.111 18.1963 56.2048 18.0947 56.3137C17.9995 56.4166 17.936 56.5255 17.9043 56.6405H20.4274V57.9385H16V57.4574C16 56.3984 16.5237 55.5603 17.571 54.9431C18.1931 54.5739 18.5581 54.3409 18.666 54.2441C18.8437 54.0928 18.9326 53.9385 18.9326 53.7812C18.9326 53.6239 18.8723 53.4968 18.7517 53.3999C18.6374 53.3031 18.4819 53.2547 18.2851 53.2547C18.0566 53.2547 17.8757 53.3273 17.7424 53.4726C17.6155 53.6178 17.5488 53.8084 17.5425 54.0444H16.0095C16.0095 53.5301 16.2063 53.0671 16.5998 52.6556C16.9997 52.2381 17.5742 52.0293 18.3232 52.0293C18.9516 52.0293 19.4658 52.1866 19.8657 52.5013C20.2719 52.8099 20.475 53.2487 20.475 53.8175C20.475 54.1927 20.3512 54.5255 20.1037 54.816C19.8561 55.1004 19.4816 55.3909 18.9802 55.6874Z" fill="#200B28"/>
<path d="M37.984 58.0293C37.2096 58.0293 36.597 57.7721 36.1464 57.2577C35.6957 56.7434 35.4704 55.999 35.4704 55.0248C35.4704 54.0505 35.6925 53.3092 36.1368 52.8009C36.5875 52.2865 37.2001 52.0293 37.9745 52.0293C38.7425 52.0293 39.3455 52.2865 39.7835 52.8009C40.2278 53.3092 40.45 54.0535 40.45 55.0338C40.45 56.0142 40.231 56.7585 39.793 57.2668C39.3551 57.7751 38.752 58.0293 37.984 58.0293ZM37.984 56.7313C38.2569 56.7313 38.4569 56.5981 38.5838 56.3319C38.7171 56.0656 38.7838 55.636 38.7838 55.0429C38.7838 54.4378 38.7171 54.0021 38.5838 53.7358C38.4505 53.4635 38.2474 53.3273 37.9745 53.3273C37.4159 53.3273 37.1366 53.8962 37.1366 55.0338C37.1366 56.1655 37.4191 56.7313 37.984 56.7313Z" fill="#200B28"/>
<path d="M58.4137 55.6874C58.1534 55.8387 57.9662 55.9537 57.8519 56.0323C57.7377 56.111 57.6298 56.2048 57.5282 56.3137C57.433 56.4166 57.3695 56.5255 57.3378 56.6405H59.8609V57.9385H55.4335V57.4574C55.4335 56.3984 55.9572 55.5603 57.0045 54.9431C57.6266 54.5739 57.9916 54.3409 58.0995 54.2441C58.2772 54.0928 58.3661 53.9385 58.3661 53.7812C58.3661 53.6239 58.3058 53.4968 58.1852 53.3999C58.0709 53.3031 57.9154 53.2547 57.7186 53.2547C57.4901 53.2547 57.3092 53.3273 57.1759 53.4726C57.049 53.6178 56.9823 53.8084 56.976 54.0444H55.443C55.443 53.5301 55.6398 53.0671 56.0334 52.6556C56.4333 52.2381 57.0077 52.0293 57.7567 52.0293C58.3851 52.0293 58.8993 52.1866 59.2992 52.5013C59.7054 52.8099 59.9085 53.2487 59.9085 53.8175C59.9085 54.1927 59.7848 54.5255 59.5372 54.816C59.2896 55.1004 58.9151 55.3909 58.4137 55.6874Z" fill="#200B28"/>
<path d="M80 55.5785V56.7676H78.9431V57.9385H77.534V56.7676H74.649V56.0232L77.2959 52.1201H78.9431V55.5785H80ZM76.42 55.5785H77.534V53.881H77.4102L76.42 55.5785Z" fill="#200B28"/>
<path d="M40.608 75.6293H43.904L39.488 98.0293H34.592L30.4 81.9333H30.112L25.92 98.0293H21.024L16.608 75.6293H19.968L23.488 93.7733H23.776L28.064 77.2293H32.448L36.736 93.7733H37.024L40.608 75.6293ZM55.2163 81.7093C57.1363 81.7093 58.6403 82.296 59.7283 83.4693C60.8163 84.6426 61.3603 86.296 61.3603 88.4293V98.0293H58.0003V89.5493C58.0003 88.0346 57.6483 86.872 56.9443 86.0613C56.2616 85.2293 55.2803 84.8133 54.0003 84.8133C52.9549 84.8133 52.0483 85.1973 51.2803 85.9653C50.5336 86.7333 50.1603 87.8106 50.1603 89.1973V98.0293H46.7043V75.3093H50.1603V83.8853H50.4803C50.9496 83.3093 51.5896 82.808 52.4003 82.3813C53.2323 81.9333 54.1709 81.7093 55.2163 81.7093ZM77.906 93.7733C77.906 94.3493 78.0127 94.7546 78.226 94.9893C78.4607 95.2026 78.8233 95.3093 79.314 95.3093V98.0293H78.706C76.9567 98.0293 75.8793 97.3253 75.474 95.9173C74.13 97.5386 72.2953 98.3493 69.97 98.3493C68.3487 98.3493 67.026 97.9546 66.002 97.1653C64.9993 96.376 64.498 95.256 64.498 93.8053C64.498 90.648 66.898 88.8773 71.698 88.4933L74.738 88.2693V87.8853C74.738 86.776 74.4607 85.9013 73.906 85.2613C73.3727 84.6 72.6153 84.2693 71.634 84.2693C70.6313 84.2693 69.8527 84.5573 69.298 85.1333C68.7647 85.7093 68.4447 86.392 68.338 87.1813H65.202C65.3513 85.5813 65.9913 84.2693 67.122 83.2453C68.2527 82.2213 69.746 81.7093 71.602 81.7093C73.4793 81.7093 74.994 82.2746 76.146 83.4053C77.3193 84.5146 77.906 86.0826 77.906 88.1093V93.7733ZM70.354 95.6933C71.5273 95.6933 72.5513 95.32 73.426 94.5733C74.3007 93.8266 74.738 92.792 74.738 91.4693V90.6373L72.306 90.8293C69.298 91.064 67.794 91.992 67.794 93.6133C67.794 94.296 68.0287 94.8186 68.498 95.1813C68.9887 95.5226 69.6073 95.6933 70.354 95.6933ZM90.1978 97.5813C89.3444 98.0933 88.4058 98.3493 87.3818 98.3493C84.5444 98.3493 83.1258 96.824 83.1258 93.7733V84.7173H79.9898V82.2853H80.9498C82.6138 82.2853 83.4458 81.5386 83.4458 80.0453V77.9973H86.4218V82.0293H90.2938V84.7173H86.4218V93.4533C86.4218 94.776 86.9444 95.4373 87.9898 95.4373C88.4804 95.4373 88.9498 95.288 89.3978 94.9893L90.1978 97.5813ZM94.7633 74.3173C95.4033 74.3173 95.9046 74.5733 96.2673 75.0853C96.6299 75.576 96.8113 76.2266 96.8113 77.0373C96.8113 78.2106 96.4913 79.2453 95.8513 80.1413C95.2326 81.016 94.5073 81.6666 93.6753 82.0933L92.9713 81.1973C94.1446 80.216 94.7419 79.256 94.7633 78.3173C94.2513 78.3813 93.7926 78.232 93.3873 77.8693C93.0033 77.5066 92.8113 77.0053 92.8113 76.3653C92.8113 75.7466 92.9926 75.256 93.3553 74.8933C93.7179 74.5093 94.1873 74.3173 94.7633 74.3173ZM109.635 93.8053C109.635 95.2346 109.07 96.3546 107.939 97.1653C106.808 97.9546 105.368 98.3493 103.619 98.3493C101.678 98.3493 100.12 97.8373 98.947 96.8133C97.7737 95.7893 97.1657 94.456 97.123 92.8133H100.323C100.344 93.7946 100.686 94.5306 101.347 95.0213C102.03 95.512 102.808 95.7573 103.683 95.7573C104.451 95.7573 105.091 95.5866 105.603 95.2453C106.115 94.904 106.371 94.424 106.371 93.8053C106.371 93.1226 106.072 92.5786 105.475 92.1733C104.878 91.768 104.003 91.3946 102.851 91.0533C102.296 90.904 101.806 90.7546 101.379 90.6053C100.974 90.4346 100.515 90.2213 100.003 89.9653C99.5123 89.688 99.107 89.4 98.787 89.1013C98.467 88.7813 98.1897 88.3866 97.955 87.9173C97.7417 87.4266 97.635 86.904 97.635 86.3493C97.635 84.9626 98.179 83.8426 99.267 82.9893C100.355 82.136 101.731 81.7093 103.395 81.7093C105.144 81.7093 106.542 82.1786 107.587 83.1173C108.632 84.056 109.187 85.208 109.251 86.5733H106.147C106.104 85.8906 105.816 85.336 105.283 84.9093C104.75 84.4826 104.078 84.2693 103.267 84.2693C102.606 84.2693 102.051 84.44 101.603 84.7813C101.155 85.1013 100.931 85.5493 100.931 86.1253C100.931 86.7226 101.187 87.2133 101.699 87.5973C102.232 87.96 103.086 88.3226 104.259 88.6853C105.987 89.1973 107.31 89.8373 108.227 90.6053C109.166 91.3733 109.635 92.44 109.635 93.8053ZM136.556 75.6293H139.884V98.0293H136.364L125.324 81.6453H125.036V98.0293H121.708V75.6293H125.42L136.236 91.9173H136.556V75.6293ZM150.773 81.7093C153.055 81.7093 154.911 82.4773 156.341 84.0133C157.77 85.5493 158.389 87.8213 158.197 90.8293H146.229C146.357 92.3013 146.826 93.464 147.637 94.3173C148.447 95.1493 149.589 95.5653 151.061 95.5653C151.957 95.5653 152.757 95.3733 153.461 94.9893C154.186 94.584 154.709 93.9973 155.029 93.2293H158.197C157.813 94.8506 156.959 96.1093 155.637 97.0053C154.314 97.9013 152.778 98.3493 151.029 98.3493C148.575 98.3493 146.634 97.592 145.205 96.0773C143.775 94.5413 143.061 92.504 143.061 89.9653C143.061 87.5546 143.786 85.5813 145.237 84.0453C146.709 82.488 148.554 81.7093 150.773 81.7093ZM146.357 88.3653H155.125C155.082 87.256 154.677 86.3173 153.909 85.5493C153.141 84.76 152.127 84.3653 150.869 84.3653C149.695 84.3653 148.703 84.728 147.893 85.4533C147.103 86.1573 146.591 87.128 146.357 88.3653ZM170.724 98.0293L167.108 92.2373H166.82L163.108 98.0293H159.332L164.58 89.7413L159.748 82.0293H163.492L166.788 87.2773H167.076L170.34 82.0293H174.084L169.284 89.7413L174.532 98.0293H170.724ZM185.698 97.5813C184.844 98.0933 183.906 98.3493 182.882 98.3493C180.044 98.3493 178.626 96.824 178.626 93.7733V84.7173H175.49V82.2853H176.45C178.114 82.2853 178.946 81.5386 178.946 80.0453V77.9973H181.922V82.0293H185.794V84.7173H181.922V93.4533C181.922 94.776 182.444 95.4373 183.49 95.4373C183.98 95.4373 184.45 95.288 184.898 94.9893L185.698 97.5813ZM202.448 80.3973V82.0293H206.544V84.7173H202.448V98.0293H199.184V84.7173H196.24V82.0293H199.184V80.0773C199.184 78.6053 199.6 77.4426 200.432 76.5893C201.285 75.736 202.373 75.3093 203.696 75.3093C205.232 75.3093 206.384 75.6933 207.152 76.4613L206.096 78.9893C205.541 78.4773 204.922 78.2213 204.24 78.2213C203.045 78.2213 202.448 78.9466 202.448 80.3973ZM216.222 98.3493C213.875 98.3493 211.913 97.56 210.334 95.9813C208.777 94.4026 207.998 92.408 207.998 89.9973C207.998 87.608 208.777 85.6346 210.334 84.0773C211.891 82.4986 213.843 81.7093 216.19 81.7093C218.537 81.7093 220.499 82.4986 222.078 84.0773C223.657 85.6346 224.446 87.6186 224.446 90.0293C224.446 92.44 223.667 94.4346 222.11 96.0133C220.553 97.5706 218.59 98.3493 216.222 98.3493ZM212.67 93.8693C213.587 94.8933 214.771 95.4053 216.222 95.4053C217.673 95.4053 218.846 94.8933 219.742 93.8693C220.659 92.824 221.118 91.544 221.118 90.0293C221.118 88.536 220.659 87.2666 219.742 86.2213C218.825 85.176 217.641 84.6533 216.19 84.6533C214.761 84.6533 213.587 85.176 212.67 86.2213C211.774 87.2453 211.326 88.5146 211.326 90.0293C211.326 91.544 211.774 92.824 212.67 93.8693ZM235.584 81.7093H236.64V85.0373C236.256 84.9306 235.776 84.8773 235.2 84.8773C233.962 84.8773 232.917 85.3253 232.064 86.2213C231.21 87.096 230.784 88.4186 230.784 90.1893V98.0293H227.392V82.0293H229.984L230.496 84.2693H230.784C231.936 82.5626 233.536 81.7093 235.584 81.7093ZM33.408 127.301C33.408 129.264 32.704 130.768 31.296 131.813C29.9093 132.837 28.0853 133.349 25.824 133.349C23.2427 133.349 21.2373 132.677 19.808 131.333C18.4 129.989 17.6747 128.229 17.632 126.053H21.088C21.1307 127.355 21.536 128.4 22.304 129.189C23.0933 129.957 24.2773 130.341 25.856 130.341C27.0507 130.341 28.0213 130.085 28.768 129.573C29.5147 129.061 29.888 128.304 29.888 127.301C29.888 126.341 29.5147 125.541 28.768 124.901C28.0427 124.261 26.752 123.632 24.896 123.013C22.8053 122.309 21.184 121.477 20.032 120.517C18.88 119.536 18.304 118.213 18.304 116.549C18.304 114.651 18.9653 113.136 20.288 112.005C21.632 110.875 23.3387 110.309 25.408 110.309C27.712 110.309 29.536 110.96 30.88 112.261C32.224 113.563 32.9173 115.141 32.96 116.997H29.728C29.664 115.995 29.2693 115.131 28.544 114.405C27.8187 113.68 26.7733 113.317 25.408 113.317C24.32 113.317 23.4453 113.605 22.784 114.181C22.1227 114.736 21.792 115.451 21.792 116.325C21.792 117.2 22.144 117.915 22.848 118.469C23.5733 119.024 24.7893 119.6 26.496 120.197C28.8213 121.029 30.5493 121.989 31.68 123.077C32.832 124.144 33.408 125.552 33.408 127.301ZM54.0438 134.373C54.3424 134.373 54.6304 134.341 54.9078 134.277C55.2064 134.235 55.4731 134.16 55.7078 134.053C55.9638 133.947 56.1558 133.851 56.2838 133.765C56.4118 133.701 56.5824 133.595 56.7958 133.445C57.0091 133.317 57.1264 133.243 57.1478 133.221L58.7478 135.461C58.3638 135.867 57.7558 136.251 56.9238 136.613C56.0918 136.976 55.1851 137.157 54.2038 137.157C52.5824 137.157 51.1958 136.816 50.0438 136.133C48.8918 135.451 48.0704 134.523 47.5798 133.349C44.3798 133.328 41.7238 132.219 39.6118 130.021C37.5211 127.824 36.4758 125.093 36.4758 121.829C36.4758 118.544 37.5318 115.803 39.6438 113.605C41.7771 111.408 44.4438 110.309 47.6438 110.309C50.8224 110.309 53.4678 111.408 55.5798 113.605C57.7131 115.803 58.7798 118.544 58.7798 121.829C58.7798 124.517 58.0438 126.864 56.5718 128.869C55.1211 130.875 53.2118 132.219 50.8438 132.901C51.4411 133.883 52.5078 134.373 54.0438 134.373ZM42.2038 116.005C40.7744 117.563 40.0598 119.504 40.0598 121.829C40.0598 124.155 40.7744 126.107 42.2038 127.685C43.6544 129.243 45.4678 130.021 47.6438 130.021C49.8198 130.021 51.6224 129.243 53.0518 127.685C54.4811 126.107 55.1958 124.155 55.1958 121.829C55.1958 119.504 54.4704 117.563 53.0198 116.005C51.5904 114.427 49.7984 113.637 47.6438 113.637C45.4678 113.637 43.6544 114.427 42.2038 116.005ZM66.6053 129.701H77.9013V133.029H62.9893V110.629H66.6053V129.701ZM103.053 110.309C107.063 110.309 110.413 111.557 113.101 114.053C115.789 116.549 117.133 119.845 117.133 123.941C117.133 126.608 116.599 128.709 115.533 130.245C114.487 131.781 113.058 132.549 111.245 132.549C109.133 132.549 107.799 131.568 107.245 129.605C106.839 130.416 106.21 131.099 105.357 131.653C104.503 132.208 103.437 132.485 102.157 132.485C100.301 132.485 98.7328 131.803 97.4528 130.437C96.1941 129.051 95.5648 127.237 95.5648 124.997C95.5648 122.672 96.1941 120.773 97.4528 119.301C98.7328 117.829 100.311 117.093 102.189 117.093C103.277 117.093 104.215 117.328 105.005 117.797C105.815 118.267 106.413 118.885 106.797 119.653H107.085L107.693 117.349H109.357V127.493C109.357 128.283 109.538 128.891 109.901 129.317C110.285 129.744 110.775 129.957 111.373 129.957C112.183 129.957 112.866 129.456 113.421 128.453C113.997 127.451 114.285 126.043 114.285 124.229C114.285 120.688 113.25 117.925 111.181 115.941C109.111 113.957 106.381 112.965 102.989 112.965C99.8528 112.965 97.2288 114.085 95.1168 116.325C93.0048 118.565 91.9488 121.499 91.9488 125.125C91.9488 127.387 92.4821 129.403 93.5488 131.173C94.6368 132.923 96.0554 134.245 97.8048 135.141C99.5541 136.059 101.463 136.517 103.533 136.517C105.922 136.517 108.087 135.877 110.029 134.597L111.149 136.805C109.079 138.32 106.477 139.077 103.341 139.077C100.802 139.077 98.4661 138.533 96.3328 137.445C94.1994 136.379 92.4608 134.768 91.1168 132.613C89.7728 130.459 89.1008 127.963 89.1008 125.125C89.1008 122.139 89.7621 119.504 91.0848 117.221C92.4074 114.917 94.1141 113.189 96.2048 112.037C98.2954 110.885 100.578 110.309 103.053 110.309ZM102.605 129.669C103.821 129.669 104.77 129.232 105.453 128.357C106.157 127.483 106.509 126.352 106.509 124.965C106.509 123.472 106.178 122.267 105.517 121.349C104.855 120.432 103.885 119.973 102.605 119.973C101.346 119.973 100.354 120.453 99.6288 121.413C98.9248 122.352 98.5728 123.483 98.5728 124.805C98.5728 126.213 98.9248 127.376 99.6288 128.293C100.354 129.211 101.346 129.669 102.605 129.669ZM144.783 127.301C144.783 129.264 144.079 130.768 142.671 131.813C141.284 132.837 139.46 133.349 137.199 133.349C134.618 133.349 132.612 132.677 131.183 131.333C129.775 129.989 129.05 128.229 129.007 126.053H132.463C132.506 127.355 132.911 128.4 133.679 129.189C134.468 129.957 135.652 130.341 137.231 130.341C138.426 130.341 139.396 130.085 140.143 129.573C140.89 129.061 141.263 128.304 141.263 127.301C141.263 126.341 140.89 125.541 140.143 124.901C139.418 124.261 138.127 123.632 136.271 123.013C134.18 122.309 132.559 121.477 131.407 120.517C130.255 119.536 129.679 118.213 129.679 116.549C129.679 114.651 130.34 113.136 131.663 112.005C133.007 110.875 134.714 110.309 136.783 110.309C139.087 110.309 140.911 110.96 142.255 112.261C143.599 113.563 144.292 115.141 144.335 116.997H141.103C141.039 115.995 140.644 115.131 139.919 114.405C139.194 113.68 138.148 113.317 136.783 113.317C135.695 113.317 134.82 113.605 134.159 114.181C133.498 114.736 133.167 115.451 133.167 116.325C133.167 117.2 133.519 117.915 134.223 118.469C134.948 119.024 136.164 119.6 137.871 120.197C140.196 121.029 141.924 121.989 143.055 123.077C144.207 124.144 144.783 125.552 144.783 127.301ZM162.705 127.493C162.47 129.221 161.67 130.629 160.305 131.717C158.939 132.805 157.275 133.349 155.313 133.349C152.795 133.349 150.811 132.571 149.361 131.013C147.931 129.456 147.217 127.472 147.217 125.061C147.217 122.693 147.985 120.709 149.521 119.109C151.057 117.509 152.966 116.709 155.249 116.709C157.233 116.709 158.918 117.285 160.305 118.437C161.691 119.589 162.47 121.072 162.641 122.885H159.345C159.195 121.989 158.758 121.232 158.033 120.613C157.307 119.973 156.358 119.653 155.185 119.653C153.798 119.653 152.667 120.165 151.793 121.189C150.939 122.192 150.513 123.483 150.513 125.061C150.513 126.683 150.918 127.995 151.729 128.997C152.561 129.979 153.745 130.469 155.281 130.469C156.326 130.469 157.201 130.192 157.905 129.637C158.63 129.083 159.121 128.368 159.377 127.493H162.705ZM178.562 128.773C178.562 129.349 178.669 129.755 178.882 129.989C179.117 130.203 179.48 130.309 179.97 130.309V133.029H179.362C177.613 133.029 176.536 132.325 176.13 130.917C174.786 132.539 172.952 133.349 170.626 133.349C169.005 133.349 167.682 132.955 166.658 132.165C165.656 131.376 165.154 130.256 165.154 128.805C165.154 125.648 167.554 123.877 172.354 123.493L175.394 123.269V122.885C175.394 121.776 175.117 120.901 174.562 120.261C174.029 119.6 173.272 119.269 172.29 119.269C171.288 119.269 170.509 119.557 169.954 120.133C169.421 120.709 169.101 121.392 168.994 122.181H165.858C166.008 120.581 166.648 119.269 167.778 118.245C168.909 117.221 170.402 116.709 172.258 116.709C174.136 116.709 175.65 117.275 176.802 118.405C177.976 119.515 178.562 121.083 178.562 123.109V128.773ZM171.01 130.693C172.184 130.693 173.208 130.32 174.082 129.573C174.957 128.827 175.394 127.792 175.394 126.469V125.637L172.962 125.829C169.954 126.064 168.45 126.992 168.45 128.613C168.45 129.296 168.685 129.819 169.154 130.181C169.645 130.523 170.264 130.693 171.01 130.693ZM182.517 110.309H185.845V133.029H182.517V110.309ZM196.679 116.709C198.961 116.709 200.817 117.477 202.247 119.013C203.676 120.549 204.295 122.821 204.103 125.829H192.135C192.263 127.301 192.732 128.464 193.543 129.317C194.353 130.149 195.495 130.565 196.967 130.565C197.863 130.565 198.663 130.373 199.367 129.989C200.092 129.584 200.615 128.997 200.935 128.229H204.103C203.719 129.851 202.865 131.109 201.543 132.005C200.22 132.901 198.684 133.349 196.935 133.349C194.481 133.349 192.54 132.592 191.111 131.077C189.681 129.541 188.967 127.504 188.967 124.965C188.967 122.555 189.692 120.581 191.143 119.045C192.615 117.488 194.46 116.709 196.679 116.709ZM192.263 123.365H201.031C200.988 122.256 200.583 121.317 199.815 120.549C199.047 119.76 198.033 119.365 196.775 119.365C195.601 119.365 194.609 119.728 193.799 120.453C193.009 121.157 192.497 122.128 192.263 123.365Z" fill="url(#paint0_linear_292_25164)"/>
<path d="M23.616 154.579C23.616 155.419 23.3127 156.063 22.706 156.511C22.1087 156.95 21.3247 157.169 20.354 157.169C19.234 157.169 18.366 156.88 17.75 156.301C17.134 155.723 16.812 154.976 16.784 154.061H18.1C18.128 154.649 18.324 155.125 18.688 155.489C19.052 155.853 19.6073 156.035 20.354 156.035C20.9233 156.035 21.3853 155.914 21.74 155.671C22.104 155.419 22.286 155.051 22.286 154.565C22.286 154.117 22.118 153.744 21.782 153.445C21.446 153.137 20.8487 152.843 19.99 152.563C19.066 152.255 18.3473 151.896 17.834 151.485C17.33 151.075 17.078 150.505 17.078 149.777C17.078 148.965 17.3673 148.317 17.946 147.831C18.5247 147.337 19.262 147.089 20.158 147.089C21.1567 147.089 21.9453 147.374 22.524 147.943C23.112 148.503 23.4153 149.18 23.434 149.973H22.202C22.1647 149.497 21.9733 149.091 21.628 148.755C21.292 148.41 20.7973 148.237 20.144 148.237C19.6213 148.237 19.2013 148.377 18.884 148.657C18.5667 148.928 18.408 149.273 18.408 149.693C18.408 150.123 18.576 150.468 18.912 150.729C19.248 150.981 19.808 151.238 20.592 151.499C21.6093 151.845 22.3653 152.255 22.86 152.731C23.364 153.207 23.616 153.823 23.616 154.579ZM28.0958 149.889C29.0851 149.889 29.8831 150.225 30.4898 150.897C31.0964 151.56 31.3578 152.526 31.2738 153.795H25.9678C26.0144 154.505 26.2244 155.069 26.5978 155.489C26.9711 155.9 27.5078 156.105 28.2078 156.105C28.6278 156.105 29.0011 156.012 29.3278 155.825C29.6638 155.639 29.9111 155.363 30.0698 154.999H31.2598C31.0824 155.699 30.7138 156.236 30.1538 156.609C29.5938 156.983 28.9451 157.169 28.2078 157.169C27.1531 157.169 26.3131 156.838 25.6878 156.175C25.0718 155.503 24.7638 154.607 24.7638 153.487C24.7638 152.442 25.0764 151.583 25.7018 150.911C26.3364 150.23 27.1344 149.889 28.0958 149.889ZM26.0098 152.843H30.1118C30.0931 152.302 29.9064 151.845 29.5518 151.471C29.1971 151.098 28.7258 150.911 28.1378 150.911C27.5684 150.911 27.0971 151.089 26.7238 151.443C26.3504 151.789 26.1124 152.255 26.0098 152.843ZM36.2834 149.889C37.2074 149.889 37.9727 150.23 38.5794 150.911C39.186 151.583 39.4894 152.456 39.4894 153.529C39.4894 154.603 39.1814 155.48 38.5654 156.161C37.9494 156.833 37.1747 157.169 36.2414 157.169C35.1867 157.169 34.454 156.782 34.0434 156.007V159.829H32.8114V150.029H33.7214L33.9314 151.023H34.0714C34.594 150.267 35.3314 149.889 36.2834 149.889ZM36.1154 156.049C36.75 156.049 37.2634 155.816 37.6554 155.349C38.0567 154.873 38.2574 154.267 38.2574 153.529C38.2574 152.792 38.0567 152.19 37.6554 151.723C37.254 151.247 36.7407 151.009 36.1154 151.009C35.49 151.009 34.986 151.243 34.6034 151.709C34.2207 152.176 34.0294 152.783 34.0294 153.529C34.0294 154.285 34.2207 154.897 34.6034 155.363C34.986 155.821 35.49 156.049 36.1154 156.049ZM44.4787 156.847C44.1427 157.062 43.7601 157.169 43.3307 157.169C42.1827 157.169 41.6087 156.544 41.6087 155.293V151.051H40.2507V150.141H40.6567C41.3754 150.141 41.7347 149.815 41.7347 149.161V148.265H42.8407V150.029H44.5067V151.051H42.8407V155.181C42.8407 155.769 43.0741 156.063 43.5407 156.063C43.7647 156.063 43.9701 155.998 44.1567 155.867L44.4787 156.847ZM48.5489 149.889C49.5382 149.889 50.3362 150.225 50.9429 150.897C51.5496 151.56 51.8109 152.526 51.7269 153.795H46.4209C46.4676 154.505 46.6776 155.069 47.0509 155.489C47.4242 155.9 47.9609 156.105 48.6609 156.105C49.0809 156.105 49.4542 156.012 49.7809 155.825C50.1169 155.639 50.3642 155.363 50.5229 154.999H51.7129C51.5356 155.699 51.1669 156.236 50.6069 156.609C50.0469 156.983 49.3982 157.169 48.6609 157.169C47.6062 157.169 46.7662 156.838 46.1409 156.175C45.5249 155.503 45.2169 154.607 45.2169 153.487C45.2169 152.442 45.5296 151.583 46.1549 150.911C46.7896 150.23 47.5876 149.889 48.5489 149.889ZM46.4629 152.843H50.5649C50.5462 152.302 50.3596 151.845 50.0049 151.471C49.6502 151.098 49.1789 150.911 48.5909 150.911C48.0216 150.911 47.5502 151.089 47.1769 151.443C46.8036 151.789 46.5656 152.255 46.4629 152.843ZM60.7265 149.903C61.4638 149.903 62.0472 150.146 62.4765 150.631C62.9152 151.107 63.1345 151.817 63.1345 152.759V157.029H61.8605V152.829C61.8605 152.241 61.7252 151.798 61.4545 151.499C61.1838 151.191 60.8292 151.037 60.3905 151.037C59.9705 151.037 59.6065 151.201 59.2985 151.527C58.9905 151.854 58.8365 152.307 58.8365 152.885V157.029H57.5625V152.927C57.5625 152.321 57.4225 151.854 57.1425 151.527C56.8718 151.201 56.5265 151.037 56.1065 151.037C55.6958 151.037 55.3318 151.196 55.0145 151.513C54.6972 151.821 54.5385 152.265 54.5385 152.843V157.029H53.2645V150.029H54.2305L54.4265 150.911H54.5385C54.7158 150.622 54.9725 150.379 55.3085 150.183C55.6445 149.987 56.0365 149.889 56.4845 149.889C56.9885 149.889 57.4132 150.025 57.7585 150.295C58.1038 150.557 58.3465 150.86 58.4865 151.205H58.5985C58.7758 150.841 59.0418 150.533 59.3965 150.281C59.7605 150.029 60.2038 149.903 60.7265 149.903ZM68.3703 149.889C69.3036 149.889 70.0783 150.23 70.6943 150.911C71.3103 151.583 71.6183 152.456 71.6183 153.529C71.6183 154.603 71.3149 155.48 70.7083 156.161C70.1016 156.833 69.3363 157.169 68.4123 157.169C67.4603 157.169 66.7229 156.791 66.2003 156.035H66.0603L65.8503 157.029H64.9403V147.061H66.1723V151.051C66.5829 150.277 67.3156 149.889 68.3703 149.889ZM66.7323 155.349C67.1149 155.816 67.6189 156.049 68.2443 156.049C68.8696 156.049 69.3829 155.816 69.7843 155.349C70.1856 154.873 70.3863 154.267 70.3863 153.529C70.3863 152.792 70.1856 152.19 69.7843 151.723C69.3923 151.247 68.8789 151.009 68.2443 151.009C67.6189 151.009 67.1149 151.243 66.7323 151.709C66.3496 152.167 66.1583 152.773 66.1583 153.529C66.1583 154.276 66.3496 154.883 66.7323 155.349ZM76.0567 149.889C77.0461 149.889 77.8441 150.225 78.4507 150.897C79.0574 151.56 79.3187 152.526 79.2347 153.795H73.9287C73.9754 154.505 74.1854 155.069 74.5587 155.489C74.9321 155.9 75.4687 156.105 76.1687 156.105C76.5887 156.105 76.9621 156.012 77.2887 155.825C77.6247 155.639 77.8721 155.363 78.0307 154.999H79.2207C79.0434 155.699 78.6747 156.236 78.1147 156.609C77.5547 156.983 76.9061 157.169 76.1687 157.169C75.1141 157.169 74.2741 156.838 73.6487 156.175C73.0327 155.503 72.7247 154.607 72.7247 153.487C72.7247 152.442 73.0374 151.583 73.6627 150.911C74.2974 150.23 75.0954 149.889 76.0567 149.889ZM73.9707 152.843H78.0727C78.0541 152.302 77.8674 151.845 77.5127 151.471C77.1581 151.098 76.6867 150.911 76.0987 150.911C75.5294 150.911 75.0581 151.089 74.6847 151.443C74.3114 151.789 74.0734 152.255 73.9707 152.843ZM84.1043 149.889H84.5523V151.149C84.4216 151.112 84.2303 151.093 83.9783 151.093C83.437 151.093 82.9796 151.289 82.6063 151.681C82.233 152.064 82.0463 152.638 82.0463 153.403V157.029H80.7723V150.029H81.7383L81.9343 151.009H82.0463C82.5596 150.263 83.2456 149.889 84.1043 149.889ZM91.0011 157.029V150.519H89.2371V149.497H90.0631C90.7817 149.497 91.1411 149.166 91.1411 148.503V148.069H92.2751V157.029H91.0011ZM95.7042 157.029V150.519H93.9402V149.497H94.7662C95.4849 149.497 95.8442 149.166 95.8442 148.503V148.069H96.9782V157.029H95.7042ZM98.6023 152.143H103.642V153.207H98.6023V152.143ZM106.3 157.029V150.519H104.536V149.497H105.362C106.081 149.497 106.44 149.166 106.44 148.503V148.069H107.574V157.029H106.3ZM113.352 153.375C112.036 154.225 111.345 155.055 111.28 155.867H115.55V157.029H109.712V156.511C109.712 155.018 110.524 153.749 112.148 152.703C113.062 152.115 113.632 151.714 113.856 151.499C114.164 151.182 114.318 150.837 114.318 150.463C114.318 150.043 114.178 149.703 113.898 149.441C113.618 149.171 113.24 149.035 112.764 149.035C112.194 149.035 111.765 149.227 111.476 149.609C111.196 149.983 111.042 150.435 111.014 150.967H109.726C109.726 150.473 109.824 150.006 110.02 149.567C110.225 149.119 110.566 148.732 111.042 148.405C111.527 148.079 112.106 147.915 112.778 147.915C113.608 147.915 114.29 148.149 114.822 148.615C115.354 149.073 115.62 149.689 115.62 150.463C115.62 151.089 115.428 151.611 115.046 152.031C114.672 152.442 114.108 152.89 113.352 153.375ZM118.265 155.447C118.545 155.447 118.76 155.55 118.909 155.755C119.068 155.961 119.147 156.231 119.147 156.567C119.147 157.071 119.007 157.51 118.727 157.883C118.456 158.257 118.134 158.537 117.761 158.723L117.467 158.345C117.99 157.944 118.256 157.529 118.265 157.099C118.032 157.127 117.831 157.067 117.663 156.917C117.495 156.768 117.411 156.563 117.411 156.301C117.411 156.049 117.49 155.844 117.649 155.685C117.808 155.527 118.013 155.447 118.265 155.447ZM128.199 153.375C126.883 154.225 126.193 155.055 126.127 155.867H130.397V157.029H124.559V156.511C124.559 155.018 125.371 153.749 126.995 152.703C127.91 152.115 128.479 151.714 128.703 151.499C129.011 151.182 129.165 150.837 129.165 150.463C129.165 150.043 129.025 149.703 128.745 149.441C128.465 149.171 128.087 149.035 127.611 149.035C127.042 149.035 126.613 149.227 126.323 149.609C126.043 149.983 125.889 150.435 125.861 150.967H124.573C124.573 150.473 124.671 150.006 124.867 149.567C125.073 149.119 125.413 148.732 125.889 148.405C126.375 148.079 126.953 147.915 127.625 147.915C128.456 147.915 129.137 148.149 129.669 148.615C130.201 149.073 130.467 149.689 130.467 150.463C130.467 151.089 130.276 151.611 129.893 152.031C129.52 152.442 128.955 152.89 128.199 153.375ZM137.764 156.007C137.176 156.782 136.378 157.169 135.37 157.169C134.362 157.169 133.555 156.777 132.948 155.993C132.341 155.209 132.038 154.057 132.038 152.535C132.038 151.033 132.341 149.889 132.948 149.105C133.555 148.312 134.362 147.915 135.37 147.915C136.378 147.915 137.176 148.312 137.764 149.105C138.361 149.889 138.66 151.037 138.66 152.549C138.66 154.071 138.361 155.223 137.764 156.007ZM133.97 155.125C134.315 155.695 134.782 155.979 135.37 155.979C135.958 155.979 136.425 155.69 136.77 155.111C137.115 154.533 137.288 153.679 137.288 152.549C137.288 151.42 137.111 150.566 136.756 149.987C136.411 149.399 135.949 149.105 135.37 149.105C134.782 149.105 134.315 149.395 133.97 149.973C133.625 150.552 133.452 151.411 133.452 152.549C133.452 153.688 133.625 154.547 133.97 155.125ZM143.977 153.375C142.661 154.225 141.97 155.055 141.905 155.867H146.175V157.029H140.337V156.511C140.337 155.018 141.149 153.749 142.773 152.703C143.687 152.115 144.257 151.714 144.481 151.499C144.789 151.182 144.943 150.837 144.943 150.463C144.943 150.043 144.803 149.703 144.523 149.441C144.243 149.171 143.865 149.035 143.389 149.035C142.819 149.035 142.39 149.227 142.101 149.609C141.821 149.983 141.667 150.435 141.639 150.967H140.351C140.351 150.473 140.449 150.006 140.645 149.567C140.85 149.119 141.191 148.732 141.667 148.405C142.152 148.079 142.731 147.915 143.403 147.915C144.233 147.915 144.915 148.149 145.447 148.615C145.979 149.073 146.245 149.689 146.245 150.463C146.245 151.089 146.053 151.611 145.671 152.031C145.297 152.442 144.733 152.89 143.977 153.375ZM154.081 153.963V155.041H152.499V157.029H151.295V155.041H147.165V154.229L150.945 148.069H152.499V153.963H154.081ZM148.593 153.963H151.295V149.553H151.169L148.593 153.963ZM25.576 177.047C25.38 177.99 24.904 178.746 24.148 179.315C23.392 179.885 22.5007 180.169 21.474 180.169C20.0553 180.169 18.9167 179.707 18.058 178.783C17.2087 177.85 16.784 176.637 16.784 175.143C16.784 173.687 17.204 172.483 18.044 171.531C18.8933 170.57 19.9853 170.089 21.32 170.089C22.356 170.089 23.2473 170.365 23.994 170.915C24.75 171.457 25.2213 172.241 25.408 173.267H24.05C23.882 172.661 23.5647 172.185 23.098 171.839C22.6313 171.485 22.048 171.307 21.348 171.307C20.396 171.307 19.626 171.681 19.038 172.427C18.45 173.165 18.156 174.065 18.156 175.129C18.156 176.268 18.4547 177.192 19.052 177.901C19.6587 178.601 20.466 178.951 21.474 178.951C22.1273 178.951 22.7013 178.779 23.196 178.433C23.6907 178.079 24.0313 177.617 24.218 177.047H25.576ZM30.3159 180.169C29.2892 180.169 28.4399 179.824 27.7679 179.133C27.0959 178.443 26.7599 177.57 26.7599 176.515C26.7599 175.479 27.0912 174.616 27.7539 173.925C28.4259 173.235 29.2752 172.889 30.3019 172.889C31.3285 172.889 32.1779 173.235 32.8499 173.925C33.5219 174.616 33.8579 175.484 33.8579 176.529C33.8579 177.584 33.5265 178.457 32.8639 179.147C32.2012 179.829 31.3519 180.169 30.3159 180.169ZM30.3019 179.063C30.9832 179.063 31.5385 178.821 31.9679 178.335C32.3972 177.841 32.6119 177.239 32.6119 176.529C32.6119 175.829 32.3925 175.232 31.9539 174.737C31.5245 174.243 30.9739 173.995 30.3019 173.995C29.6299 173.995 29.0792 174.243 28.6499 174.737C28.2299 175.232 28.0199 175.829 28.0199 176.529C28.0199 177.239 28.2299 177.841 28.6499 178.335C29.0792 178.821 29.6299 179.063 30.3019 179.063ZM42.7206 172.903C43.458 172.903 44.0413 173.146 44.4706 173.631C44.9093 174.107 45.1286 174.817 45.1286 175.759V180.029H43.8546V175.829C43.8546 175.241 43.7193 174.798 43.4486 174.499C43.178 174.191 42.8233 174.037 42.3846 174.037C41.9646 174.037 41.6006 174.201 41.2926 174.527C40.9846 174.854 40.8306 175.307 40.8306 175.885V180.029H39.5566V175.927C39.5566 175.321 39.4166 174.854 39.1366 174.527C38.866 174.201 38.5206 174.037 38.1006 174.037C37.69 174.037 37.326 174.196 37.0086 174.513C36.6913 174.821 36.5326 175.265 36.5326 175.843V180.029H35.2586V173.029H36.2246L36.4206 173.911H36.5326C36.71 173.622 36.9666 173.379 37.3026 173.183C37.6386 172.987 38.0306 172.889 38.4786 172.889C38.9826 172.889 39.4073 173.025 39.7526 173.295C40.098 173.557 40.3406 173.86 40.4806 174.205H40.5926C40.77 173.841 41.036 173.533 41.3906 173.281C41.7546 173.029 42.198 172.903 42.7206 172.903ZM50.297 172.889C51.221 172.889 51.9864 173.23 52.593 173.911C53.1997 174.583 53.503 175.456 53.503 176.529C53.503 177.603 53.195 178.48 52.579 179.161C51.963 179.833 51.1884 180.169 50.255 180.169C49.2004 180.169 48.4677 179.782 48.057 179.007V182.829H46.825V173.029H47.735L47.945 174.023H48.085C48.6077 173.267 49.345 172.889 50.297 172.889ZM50.129 179.049C50.7637 179.049 51.277 178.816 51.669 178.349C52.0704 177.873 52.271 177.267 52.271 176.529C52.271 175.792 52.0704 175.19 51.669 174.723C51.2677 174.247 50.7544 174.009 50.129 174.009C49.5037 174.009 48.9997 174.243 48.617 174.709C48.2344 175.176 48.043 175.783 48.043 176.529C48.043 177.285 48.2344 177.897 48.617 178.363C48.9997 178.821 49.5037 179.049 50.129 179.049ZM57.4528 180.169C56.6968 180.169 56.0761 179.913 55.5908 179.399C55.1148 178.886 54.8768 178.158 54.8768 177.215V173.029H56.1648V176.977C56.1648 177.649 56.3188 178.163 56.6268 178.517C56.9441 178.863 57.3595 179.035 57.8728 179.035C58.3488 179.035 58.7501 178.872 59.0768 178.545C59.4035 178.209 59.5668 177.71 59.5668 177.047V173.029H60.8548V180.029H59.8888L59.6928 179.147H59.5808C59.1235 179.829 58.4141 180.169 57.4528 180.169ZM66.1076 179.847C65.7716 180.062 65.389 180.169 64.9596 180.169C63.8116 180.169 63.2376 179.544 63.2376 178.293V174.051H61.8796V173.141H62.2856C63.0043 173.141 63.3636 172.815 63.3636 172.161V171.265H64.4696V173.029H66.1356V174.051H64.4696V178.181C64.4696 178.769 64.703 179.063 65.1696 179.063C65.3936 179.063 65.599 178.998 65.7856 178.867L66.1076 179.847ZM70.1778 172.889C71.1671 172.889 71.9651 173.225 72.5718 173.897C73.1785 174.56 73.4398 175.526 73.3558 176.795H68.0498C68.0965 177.505 68.3065 178.069 68.6798 178.489C69.0531 178.9 69.5898 179.105 70.2898 179.105C70.7098 179.105 71.0831 179.012 71.4098 178.825C71.7458 178.639 71.9931 178.363 72.1518 177.999H73.3418C73.1645 178.699 72.7958 179.236 72.2358 179.609C71.6758 179.983 71.0271 180.169 70.2898 180.169C69.2351 180.169 68.3951 179.838 67.7698 179.175C67.1538 178.503 66.8458 177.607 66.8458 176.487C66.8458 175.442 67.1585 174.583 67.7838 173.911C68.4185 173.23 69.2165 172.889 70.1778 172.889ZM68.0918 175.843H72.1938C72.1751 175.302 71.9885 174.845 71.6338 174.471C71.2791 174.098 70.8078 173.911 70.2198 173.911C69.6505 173.911 69.1791 174.089 68.8058 174.443C68.4325 174.789 68.1945 175.255 68.0918 175.843ZM78.2254 172.889H78.6734V174.149C78.5427 174.112 78.3514 174.093 78.0994 174.093C77.5581 174.093 77.1007 174.289 76.7274 174.681C76.3541 175.064 76.1674 175.638 76.1674 176.403V180.029H74.8934V173.029H75.8594L76.0554 174.009H76.1674C76.6807 173.263 77.3667 172.889 78.2254 172.889ZM89.9942 170.229H91.2822V180.029H89.9942V175.661H85.2342V180.029H83.9322V170.229H85.2342V174.485H89.9942V170.229ZM94.3777 171.699C94.219 171.858 94.023 171.937 93.7897 171.937C93.5564 171.937 93.3557 171.858 93.1877 171.699C93.0197 171.531 92.9357 171.331 92.9357 171.097C92.9357 170.864 93.0197 170.668 93.1877 170.509C93.3557 170.341 93.5564 170.257 93.7897 170.257C94.023 170.257 94.219 170.341 94.3777 170.509C94.5457 170.668 94.6297 170.864 94.6297 171.097C94.6297 171.331 94.5457 171.531 94.3777 171.699ZM94.3917 173.029V180.029H93.1457V173.029H94.3917ZM101.123 178.223C101.123 178.83 100.88 179.306 100.395 179.651C99.9185 179.997 99.3118 180.169 98.5745 180.169C97.7438 180.169 97.0765 179.95 96.5725 179.511C96.0778 179.063 95.8258 178.485 95.8165 177.775H97.0205C97.0298 178.242 97.1932 178.597 97.5105 178.839C97.8278 179.073 98.1918 179.189 98.6025 179.189C98.9665 179.189 99.2698 179.105 99.5125 178.937C99.7645 178.76 99.8905 178.517 99.8905 178.209C99.8905 177.883 99.7505 177.626 99.4705 177.439C99.1905 177.243 98.7845 177.066 98.2525 176.907C97.9538 176.814 97.6925 176.721 97.4685 176.627C97.2445 176.525 97.0158 176.394 96.7825 176.235C96.5492 176.077 96.3672 175.881 96.2365 175.647C96.1152 175.414 96.0545 175.153 96.0545 174.863C96.0545 174.266 96.2832 173.79 96.7405 173.435C97.1978 173.071 97.7812 172.889 98.4905 172.889C99.2278 172.889 99.8158 173.095 100.255 173.505C100.693 173.907 100.922 174.397 100.941 174.975H99.7785C99.7598 174.649 99.6245 174.383 99.3725 174.177C99.1205 173.972 98.8032 173.869 98.4205 173.869C98.1032 173.869 97.8325 173.953 97.6085 174.121C97.3938 174.28 97.2865 174.499 97.2865 174.779C97.2865 175.069 97.4078 175.302 97.6505 175.479C97.8932 175.657 98.2712 175.829 98.7845 175.997C99.5405 176.24 100.119 176.525 100.521 176.851C100.922 177.169 101.123 177.626 101.123 178.223ZM105.934 179.847C105.598 180.062 105.215 180.169 104.786 180.169C103.638 180.169 103.064 179.544 103.064 178.293V174.051H101.706V173.141H102.112C102.83 173.141 103.19 172.815 103.19 172.161V171.265H104.296V173.029H105.962V174.051H104.296V178.181C104.296 178.769 104.529 179.063 104.996 179.063C105.22 179.063 105.425 178.998 105.612 178.867L105.934 179.847ZM110.228 180.169C109.201 180.169 108.352 179.824 107.68 179.133C107.008 178.443 106.672 177.57 106.672 176.515C106.672 175.479 107.003 174.616 107.666 173.925C108.338 173.235 109.187 172.889 110.214 172.889C111.241 172.889 112.09 173.235 112.762 173.925C113.434 174.616 113.77 175.484 113.77 176.529C113.77 177.584 113.439 178.457 112.776 179.147C112.113 179.829 111.264 180.169 110.228 180.169ZM110.214 179.063C110.895 179.063 111.451 178.821 111.88 178.335C112.309 177.841 112.524 177.239 112.524 176.529C112.524 175.829 112.305 175.232 111.866 174.737C111.437 174.243 110.886 173.995 110.214 173.995C109.542 173.995 108.991 174.243 108.562 174.737C108.142 175.232 107.932 175.829 107.932 176.529C107.932 177.239 108.142 177.841 108.562 178.335C108.991 178.821 109.542 179.063 110.214 179.063ZM118.503 172.889H118.951V174.149C118.82 174.112 118.629 174.093 118.377 174.093C117.835 174.093 117.378 174.289 117.005 174.681C116.631 175.064 116.445 175.638 116.445 176.403V180.029H115.171V173.029H116.137L116.333 174.009H116.445C116.958 173.263 117.644 172.889 118.503 172.889ZM125.421 173.029H126.709L124.007 180.939C123.792 181.593 123.498 182.092 123.125 182.437C122.752 182.792 122.238 182.969 121.585 182.969C120.876 182.969 120.344 182.769 119.989 182.367L120.507 181.485C120.824 181.765 121.17 181.905 121.543 181.905C121.832 181.905 122.089 181.793 122.313 181.569C122.537 181.345 122.71 181.061 122.831 180.715L123.055 180.029H122.565L119.807 173.029H121.151L123.363 178.769H123.489L125.421 173.029ZM141.79 170.229V180.029H140.516V172.161H140.404L137.548 179.189H136.162L133.306 172.161H133.18V180.029H131.92V170.229H133.754L136.806 177.607H136.918L139.942 170.229H141.79ZM146.252 180.169C145.496 180.169 144.875 179.913 144.39 179.399C143.914 178.886 143.676 178.158 143.676 177.215V173.029H144.964V176.977C144.964 177.649 145.118 178.163 145.426 178.517C145.743 178.863 146.158 179.035 146.672 179.035C147.148 179.035 147.549 178.872 147.876 178.545C148.202 178.209 148.366 177.71 148.366 177.047V173.029H149.654V180.029H148.688L148.492 179.147H148.38C147.922 179.829 147.213 180.169 146.252 180.169ZM156.343 178.223C156.343 178.83 156.101 179.306 155.615 179.651C155.139 179.997 154.533 180.169 153.795 180.169C152.965 180.169 152.297 179.95 151.793 179.511C151.299 179.063 151.047 178.485 151.037 177.775H152.241C152.251 178.242 152.414 178.597 152.731 178.839C153.049 179.073 153.413 179.189 153.823 179.189C154.187 179.189 154.491 179.105 154.733 178.937C154.985 178.76 155.111 178.517 155.111 178.209C155.111 177.883 154.971 177.626 154.691 177.439C154.411 177.243 154.005 177.066 153.473 176.907C153.175 176.814 152.913 176.721 152.689 176.627C152.465 176.525 152.237 176.394 152.003 176.235C151.77 176.077 151.588 175.881 151.457 175.647C151.336 175.414 151.275 175.153 151.275 174.863C151.275 174.266 151.504 173.79 151.961 173.435C152.419 173.071 153.002 172.889 153.711 172.889C154.449 172.889 155.037 173.095 155.475 173.505C155.914 173.907 156.143 174.397 156.161 174.975H154.999C154.981 174.649 154.845 174.383 154.593 174.177C154.341 173.972 154.024 173.869 153.641 173.869C153.324 173.869 153.053 173.953 152.829 174.121C152.615 174.28 152.507 174.499 152.507 174.779C152.507 175.069 152.629 175.302 152.871 175.479C153.114 175.657 153.492 175.829 154.005 175.997C154.761 176.24 155.34 176.525 155.741 176.851C156.143 177.169 156.343 177.626 156.343 178.223ZM160.795 172.889C161.784 172.889 162.582 173.225 163.189 173.897C163.796 174.56 164.057 175.526 163.973 176.795H158.667C158.714 177.505 158.924 178.069 159.297 178.489C159.67 178.9 160.207 179.105 160.907 179.105C161.327 179.105 161.7 179.012 162.027 178.825C162.363 178.639 162.61 178.363 162.769 177.999H163.959C163.782 178.699 163.413 179.236 162.853 179.609C162.293 179.983 161.644 180.169 160.907 180.169C159.852 180.169 159.012 179.838 158.387 179.175C157.771 178.503 157.463 177.607 157.463 176.487C157.463 175.442 157.776 174.583 158.401 173.911C159.036 173.23 159.834 172.889 160.795 172.889ZM158.709 175.843H162.811C162.792 175.302 162.606 174.845 162.251 174.471C161.896 174.098 161.425 173.911 160.837 173.911C160.268 173.911 159.796 174.089 159.423 174.443C159.05 174.789 158.812 175.255 158.709 175.843ZM167.881 180.169C167.125 180.169 166.504 179.913 166.019 179.399C165.543 178.886 165.305 178.158 165.305 177.215V173.029H166.593V176.977C166.593 177.649 166.747 178.163 167.055 178.517C167.372 178.863 167.787 179.035 168.301 179.035C168.777 179.035 169.178 178.872 169.505 178.545C169.831 178.209 169.995 177.71 169.995 177.047V173.029H171.283V180.029H170.317L170.121 179.147H170.009C169.551 179.829 168.842 180.169 167.881 180.169ZM180.506 172.903C181.243 172.903 181.826 173.146 182.256 173.631C182.694 174.107 182.914 174.817 182.914 175.759V180.029H181.64V175.829C181.64 175.241 181.504 174.798 181.234 174.499C180.963 174.191 180.608 174.037 180.17 174.037C179.75 174.037 179.386 174.201 179.078 174.527C178.77 174.854 178.616 175.307 178.616 175.885V180.029H177.342V175.927C177.342 175.321 177.202 174.854 176.922 174.527C176.651 174.201 176.306 174.037 175.886 174.037C175.475 174.037 175.111 174.196 174.794 174.513C174.476 174.821 174.318 175.265 174.318 175.843V180.029H173.044V173.029H174.01L174.206 173.911H174.318C174.495 173.622 174.752 173.379 175.088 173.183C175.424 172.987 175.816 172.889 176.264 172.889C176.768 172.889 177.192 173.025 177.538 173.295C177.883 173.557 178.126 173.86 178.266 174.205H178.378C178.555 173.841 178.821 173.533 179.176 173.281C179.54 173.029 179.983 172.903 180.506 172.903ZM185.517 178.447C185.797 178.447 186.012 178.55 186.161 178.755C186.32 178.961 186.399 179.231 186.399 179.567C186.399 180.071 186.259 180.51 185.979 180.883C185.708 181.257 185.386 181.537 185.013 181.723L184.719 181.345C185.242 180.944 185.508 180.529 185.517 180.099C185.284 180.127 185.083 180.067 184.915 179.917C184.747 179.768 184.663 179.563 184.663 179.301C184.663 179.049 184.742 178.844 184.901 178.685C185.06 178.527 185.265 178.447 185.517 178.447ZM26.892 190.229V200.029H25.618V192.161H25.506L22.65 199.189H21.264L18.408 192.161H18.282V200.029H17.022V190.229H18.856L21.908 197.607H22.02L25.044 190.229H26.892ZM31.9155 200.169C30.8888 200.169 30.0395 199.824 29.3675 199.133C28.6955 198.443 28.3595 197.57 28.3595 196.515C28.3595 195.479 28.6908 194.616 29.3535 193.925C30.0255 193.235 30.8748 192.889 31.9015 192.889C32.9282 192.889 33.7775 193.235 34.4495 193.925C35.1215 194.616 35.4575 195.484 35.4575 196.529C35.4575 197.584 35.1262 198.457 34.4635 199.147C33.8008 199.829 32.9515 200.169 31.9155 200.169ZM31.9015 199.063C32.5828 199.063 33.1382 198.821 33.5675 198.335C33.9968 197.841 34.2115 197.239 34.2115 196.529C34.2115 195.829 33.9922 195.232 33.5535 194.737C33.1242 194.243 32.5735 193.995 31.9015 193.995C31.2295 193.995 30.6788 194.243 30.2495 194.737C29.8295 195.232 29.6195 195.829 29.6195 196.529C29.6195 197.239 29.8295 197.841 30.2495 198.335C30.6788 198.821 31.2295 199.063 31.9015 199.063ZM39.4059 200.169C38.6499 200.169 38.0293 199.913 37.5439 199.399C37.0679 198.886 36.8299 198.158 36.8299 197.215V193.029H38.1179V196.977C38.1179 197.649 38.2719 198.163 38.5799 198.517C38.8973 198.863 39.3126 199.035 39.8259 199.035C40.3019 199.035 40.7033 198.872 41.0299 198.545C41.3566 198.209 41.5199 197.71 41.5199 197.047V193.029H42.8079V200.029H41.8419L41.6459 199.147H41.5339C41.0766 199.829 40.3673 200.169 39.4059 200.169ZM47.9852 192.889C48.7412 192.889 49.3619 193.146 49.8472 193.659C50.3325 194.173 50.5752 194.901 50.5752 195.843V200.029H49.2872V196.081C49.2872 195.409 49.1285 194.901 48.8112 194.555C48.5032 194.201 48.0879 194.023 47.5652 194.023C47.0892 194.023 46.6832 194.191 46.3472 194.527C46.0205 194.854 45.8572 195.349 45.8572 196.011V200.029H44.5692V193.029H45.5352L45.7312 193.911H45.8432C46.3005 193.23 47.0145 192.889 47.9852 192.889ZM55.6213 199.847C55.2853 200.062 54.9026 200.169 54.4733 200.169C53.3253 200.169 52.7513 199.544 52.7513 198.293V194.051H51.3933V193.141H51.7993C52.518 193.141 52.8773 192.815 52.8773 192.161V191.265H53.9833V193.029H55.6493V194.051H53.9833V198.181C53.9833 198.769 54.2166 199.063 54.6833 199.063C54.9073 199.063 55.1126 198.998 55.2993 198.867L55.6213 199.847ZM62.1532 198.307C62.1532 198.569 62.2045 198.751 62.3072 198.853C62.4099 198.956 62.5732 199.007 62.7972 199.007V200.029H62.5732C61.8359 200.029 61.3832 199.712 61.2152 199.077C60.9445 199.413 60.5945 199.679 60.1652 199.875C59.7452 200.071 59.2925 200.169 58.8072 200.169C58.1259 200.169 57.5612 200.001 57.1132 199.665C56.6745 199.329 56.4552 198.844 56.4552 198.209C56.4552 197.509 56.7352 196.968 57.2952 196.585C57.8552 196.203 58.6345 195.974 59.6332 195.899L60.9632 195.787V195.619C60.9632 195.087 60.8372 194.663 60.5852 194.345C60.3332 194.028 59.9692 193.869 59.4932 193.869C59.0265 193.869 58.6672 194.005 58.4152 194.275C58.1632 194.546 58.0092 194.868 57.9532 195.241H56.7772C56.8332 194.56 57.1039 194 57.5892 193.561C58.0745 193.113 58.7045 192.889 59.4792 192.889C60.2819 192.889 60.9259 193.137 61.4112 193.631C61.9059 194.117 62.1532 194.793 62.1532 195.661V198.307ZM58.9472 199.147C59.4885 199.147 59.9599 198.979 60.3612 198.643C60.7625 198.307 60.9632 197.827 60.9632 197.201V196.711L59.8012 196.795C59.1292 196.851 58.6112 196.996 58.2472 197.229C57.8832 197.463 57.7012 197.766 57.7012 198.139C57.7012 198.475 57.8179 198.727 58.0512 198.895C58.2939 199.063 58.5925 199.147 58.9472 199.147ZM65.325 191.699C65.1663 191.858 64.9703 191.937 64.737 191.937C64.5036 191.937 64.303 191.858 64.135 191.699C63.967 191.531 63.883 191.331 63.883 191.097C63.883 190.864 63.967 190.668 64.135 190.509C64.303 190.341 64.5036 190.257 64.737 190.257C64.9703 190.257 65.1663 190.341 65.325 190.509C65.493 190.668 65.577 190.864 65.577 191.097C65.577 191.331 65.493 191.531 65.325 191.699ZM65.339 193.029V200.029H64.093V193.029H65.339ZM70.6805 192.889C71.4365 192.889 72.0572 193.146 72.5425 193.659C73.0278 194.173 73.2705 194.901 73.2705 195.843V200.029H71.9825V196.081C71.9825 195.409 71.8238 194.901 71.5065 194.555C71.1985 194.201 70.7832 194.023 70.2605 194.023C69.7845 194.023 69.3785 194.191 69.0425 194.527C68.7158 194.854 68.5525 195.349 68.5525 196.011V200.029H67.2645V193.029H68.2305L68.4265 193.911H68.5385C68.9958 193.23 69.7098 192.889 70.6805 192.889ZM85.3399 190.229H86.7259L83.3799 200.029H81.5599L78.2279 190.229H79.6139L82.4279 198.601H82.5399L85.3399 190.229ZM89.1003 191.699C88.9417 191.858 88.7457 191.937 88.5123 191.937C88.279 191.937 88.0783 191.858 87.9103 191.699C87.7423 191.531 87.6583 191.331 87.6583 191.097C87.6583 190.864 87.7423 190.668 87.9103 190.509C88.0783 190.341 88.279 190.257 88.5123 190.257C88.7457 190.257 88.9417 190.341 89.1003 190.509C89.2683 190.668 89.3523 190.864 89.3523 191.097C89.3523 191.331 89.2683 191.531 89.1003 191.699ZM89.1143 193.029V200.029H87.8683V193.029H89.1143ZM94.0079 192.889C94.9972 192.889 95.7952 193.225 96.4019 193.897C97.0086 194.56 97.2699 195.526 97.1859 196.795H91.8799C91.9266 197.505 92.1366 198.069 92.5099 198.489C92.8832 198.9 93.4199 199.105 94.1199 199.105C94.5399 199.105 94.9132 199.012 95.2399 198.825C95.5759 198.639 95.8232 198.363 95.9819 197.999H97.1719C96.9946 198.699 96.6259 199.236 96.0659 199.609C95.5059 199.983 94.8572 200.169 94.1199 200.169C93.0652 200.169 92.2252 199.838 91.5999 199.175C90.9839 198.503 90.6759 197.607 90.6759 196.487C90.6759 195.442 90.9886 194.583 91.6139 193.911C92.2486 193.23 93.0466 192.889 94.0079 192.889ZM91.9219 195.843H96.0239C96.0052 195.302 95.8186 194.845 95.4639 194.471C95.1092 194.098 94.6379 193.911 94.0499 193.911C93.4806 193.911 93.0092 194.089 92.6359 194.443C92.2626 194.789 92.0246 195.255 91.9219 195.843ZM106.272 193.029H107.448L105.796 200.029H104.214L102.828 194.821H102.716L101.316 200.029H99.7478L98.0958 193.029H99.2718L100.532 198.741H100.644L102.044 193.533H103.5L104.914 198.741H105.026L106.272 193.029ZM108.599 198.447C108.879 198.447 109.094 198.55 109.243 198.755C109.402 198.961 109.481 199.231 109.481 199.567C109.481 200.071 109.341 200.51 109.061 200.883C108.79 201.257 108.468 201.537 108.095 201.723L107.801 201.345C108.324 200.944 108.59 200.529 108.599 200.099C108.366 200.127 108.165 200.067 107.997 199.917C107.829 199.768 107.745 199.563 107.745 199.301C107.745 199.049 107.824 198.844 107.983 198.685C108.142 198.527 108.347 198.447 108.599 198.447ZM123.685 197.047C123.489 197.99 123.013 198.746 122.257 199.315C121.501 199.885 120.61 200.169 119.583 200.169C118.165 200.169 117.026 199.707 116.167 198.783C115.318 197.85 114.893 196.637 114.893 195.143C114.893 193.687 115.313 192.483 116.153 191.531C117.003 190.57 118.095 190.089 119.429 190.089C120.465 190.089 121.357 190.365 122.103 190.915C122.859 191.457 123.331 192.241 123.517 193.267H122.159C121.991 192.661 121.674 192.185 121.207 191.839C120.741 191.485 120.157 191.307 119.457 191.307C118.505 191.307 117.735 191.681 117.147 192.427C116.559 193.165 116.265 194.065 116.265 195.129C116.265 196.268 116.564 197.192 117.161 197.901C117.768 198.601 118.575 198.951 119.583 198.951C120.237 198.951 120.811 198.779 121.305 198.433C121.8 198.079 122.141 197.617 122.327 197.047H123.685ZM131.59 200.029L130.75 197.509H126.76L125.934 200.029H124.548L127.908 190.229H129.616L132.962 200.029H131.59ZM127.138 196.375H130.372L128.818 191.671H128.692L127.138 196.375Z" fill="#3D4143"/>
<path d="M16 219.029C16 214.611 19.5817 211.029 24 211.029H115C119.418 211.029 123 214.611 123 219.029V235.029C123 239.448 119.418 243.029 115 243.029H24C19.5817 243.029 16 239.448 16 235.029V219.029Z" fill="url(#paint1_linear_292_25164)"/>
<path d="M35.994 232.029H34.356L32.144 228.165H30.408V232.029H28.966V222.229H32.396C33.3667 222.229 34.146 222.495 34.734 223.027C35.322 223.559 35.616 224.273 35.616 225.169C35.616 225.813 35.4387 226.383 35.084 226.877C34.7293 227.363 34.244 227.713 33.628 227.927L35.994 232.029ZM30.408 223.601V226.793H32.214C32.802 226.793 33.2593 226.649 33.586 226.359C33.922 226.061 34.09 225.669 34.09 225.183C34.09 224.689 33.922 224.301 33.586 224.021C33.2593 223.741 32.802 223.601 32.214 223.601H30.408ZM39.9044 224.889C40.903 224.889 41.715 225.225 42.3404 225.897C42.9657 226.569 43.2364 227.563 43.1524 228.879H37.9164C37.9724 229.523 38.1777 230.032 38.5324 230.405C38.887 230.769 39.3864 230.951 40.0304 230.951C40.4224 230.951 40.7724 230.867 41.0804 230.699C41.3977 230.522 41.6264 230.265 41.7664 229.929H43.1524C42.9844 230.639 42.611 231.189 42.0324 231.581C41.4537 231.973 40.7817 232.169 40.0164 232.169C38.943 232.169 38.0937 231.838 37.4684 231.175C36.843 230.503 36.5304 229.612 36.5304 228.501C36.5304 227.447 36.8477 226.583 37.4824 225.911C38.1264 225.23 38.9337 224.889 39.9044 224.889ZM37.9724 227.801H41.8084C41.7897 227.316 41.6124 226.905 41.2764 226.569C40.9404 226.224 40.497 226.051 39.9464 226.051C39.433 226.051 38.999 226.21 38.6444 226.527C38.299 226.835 38.075 227.26 37.9724 227.801ZM50.8763 225.337C50.643 225.608 50.2743 225.851 49.7703 226.065C50.013 226.448 50.1343 226.882 50.1343 227.367C50.1343 228.058 49.873 228.613 49.3503 229.033C48.837 229.453 48.1743 229.663 47.3623 229.663C46.9983 229.663 46.639 229.612 46.2843 229.509C45.9483 229.659 45.7803 229.836 45.7803 230.041C45.7803 230.433 46.149 230.629 46.8863 230.629H48.0343C48.8557 230.629 49.481 230.811 49.9103 231.175C50.349 231.539 50.5683 232.043 50.5683 232.687C50.5683 233.378 50.2883 233.929 49.7283 234.339C49.1683 234.759 48.4123 234.969 47.4603 234.969C46.4523 234.969 45.6683 234.722 45.1083 234.227C44.5483 233.742 44.273 233.154 44.2823 232.463L45.3323 231.609C44.763 231.376 44.4783 230.97 44.4783 230.391C44.4783 229.822 44.8003 229.379 45.4443 229.061C44.8937 228.632 44.6183 228.053 44.6183 227.325C44.6183 226.616 44.8657 226.033 45.3603 225.575C45.855 225.118 46.5037 224.889 47.3063 224.889C48.0063 224.889 48.599 225.053 49.0843 225.379C49.4763 225.165 49.8357 224.847 50.1623 224.427L50.8763 225.337ZM46.3963 228.235C46.6577 228.487 46.989 228.613 47.3903 228.613C47.7917 228.613 48.1183 228.487 48.3703 228.235C48.6223 227.974 48.7483 227.652 48.7483 227.269C48.7483 226.887 48.6223 226.569 48.3703 226.317C48.1277 226.056 47.8057 225.925 47.4043 225.925C46.9937 225.925 46.6577 226.056 46.3963 226.317C46.1443 226.569 46.0183 226.891 46.0183 227.283C46.0183 227.657 46.1443 227.974 46.3963 228.235ZM49.1543 232.743C49.1543 232.417 49.0283 232.174 48.7763 232.015C48.5337 231.847 48.207 231.763 47.7963 231.763H46.6903L45.6823 232.561C45.841 233.392 46.457 233.807 47.5303 233.807C48.0157 233.807 48.4077 233.714 48.7063 233.527C49.005 233.341 49.1543 233.079 49.1543 232.743ZM53.2514 223.755C53.0741 223.942 52.8547 224.035 52.5934 224.035C52.3321 224.035 52.1034 223.942 51.9074 223.755C51.7207 223.569 51.6274 223.345 51.6274 223.083C51.6274 222.822 51.7207 222.598 51.9074 222.411C52.1034 222.225 52.3321 222.131 52.5934 222.131C52.8547 222.131 53.0741 222.225 53.2514 222.411C53.4381 222.598 53.5314 222.822 53.5314 223.083C53.5314 223.345 53.4381 223.569 53.2514 223.755ZM53.3074 225.029V232.029H51.8654V225.029H53.3074ZM60.1196 230.181C60.1196 230.807 59.8723 231.297 59.3776 231.651C58.8829 231.997 58.2529 232.169 57.4876 232.169C56.6383 232.169 55.9569 231.945 55.4436 231.497C54.9303 231.049 54.6643 230.466 54.6456 229.747H56.0456C56.0549 230.177 56.2043 230.499 56.4936 230.713C56.7923 230.928 57.1329 231.035 57.5156 231.035C57.8516 231.035 58.1316 230.961 58.3556 230.811C58.5796 230.662 58.6916 230.452 58.6916 230.181C58.6916 229.883 58.5609 229.645 58.2996 229.467C58.0383 229.29 57.6556 229.127 57.1516 228.977C56.9089 228.912 56.6943 228.847 56.5076 228.781C56.3303 228.707 56.1296 228.613 55.9056 228.501C55.6909 228.38 55.5136 228.254 55.3736 228.123C55.2336 227.983 55.1123 227.811 55.0096 227.605C54.9163 227.391 54.8696 227.162 54.8696 226.919C54.8696 226.313 55.1076 225.823 55.5836 225.449C56.0596 225.076 56.6616 224.889 57.3896 224.889C58.1549 224.889 58.7663 225.095 59.2236 225.505C59.6809 225.916 59.9236 226.42 59.9516 227.017H58.5936C58.5749 226.719 58.4489 226.476 58.2156 226.289C57.9823 226.103 57.6883 226.009 57.3336 226.009C57.0443 226.009 56.8016 226.084 56.6056 226.233C56.4096 226.373 56.3116 226.569 56.3116 226.821C56.3116 227.083 56.4236 227.297 56.6476 227.465C56.8809 227.624 57.2543 227.783 57.7676 227.941C58.5236 228.165 59.1023 228.445 59.5036 228.781C59.9143 229.117 60.1196 229.584 60.1196 230.181ZM65.0826 231.833C64.7093 232.057 64.2986 232.169 63.8506 232.169C62.6093 232.169 61.9886 231.502 61.9886 230.167V226.205H60.6166V225.141H61.0366C61.7646 225.141 62.1286 224.815 62.1286 224.161V223.265H63.4306V225.029H65.1246V226.205H63.4306V230.027C63.4306 230.606 63.6593 230.895 64.1166 230.895C64.3313 230.895 64.5366 230.83 64.7326 230.699L65.0826 231.833ZM69.1348 224.889C70.1335 224.889 70.9455 225.225 71.5708 225.897C72.1962 226.569 72.4668 227.563 72.3828 228.879H67.1468C67.2028 229.523 67.4082 230.032 67.7628 230.405C68.1175 230.769 68.6168 230.951 69.2608 230.951C69.6528 230.951 70.0028 230.867 70.3108 230.699C70.6282 230.522 70.8568 230.265 70.9968 229.929H72.3828C72.2148 230.639 71.8415 231.189 71.2628 231.581C70.6842 231.973 70.0122 232.169 69.2468 232.169C68.1735 232.169 67.3242 231.838 66.6988 231.175C66.0735 230.503 65.7608 229.612 65.7608 228.501C65.7608 227.447 66.0782 226.583 66.7128 225.911C67.3568 225.23 68.1642 224.889 69.1348 224.889ZM67.2028 227.801H71.0388C71.0202 227.316 70.8428 226.905 70.5068 226.569C70.1708 226.224 69.7275 226.051 69.1768 226.051C68.6635 226.051 68.2295 226.21 67.8748 226.527C67.5295 226.835 67.3055 227.26 67.2028 227.801ZM77.3784 224.889H77.8404V226.345C77.6724 226.299 77.4624 226.275 77.2104 226.275C76.6691 226.275 76.2118 226.471 75.8384 226.863C75.4651 227.246 75.2784 227.825 75.2784 228.599V232.029H73.7944V225.029H74.9284L75.1524 226.009H75.2784C75.7824 225.263 76.4824 224.889 77.3784 224.889ZM89.4933 222.229H90.9493V232.029H89.4093L84.5793 224.861H84.4533V232.029H82.9973V222.229H84.6213L89.3533 229.355H89.4933V222.229ZM95.937 232.169C94.9103 232.169 94.0516 231.824 93.361 231.133C92.6796 230.443 92.339 229.57 92.339 228.515C92.339 227.47 92.6796 226.607 93.361 225.925C94.0423 225.235 94.8963 224.889 95.923 224.889C96.9496 224.889 97.8083 225.235 98.499 225.925C99.1896 226.607 99.535 227.475 99.535 228.529C99.535 229.584 99.1943 230.457 98.513 231.147C97.8316 231.829 96.973 232.169 95.937 232.169ZM94.383 230.209C94.7843 230.657 95.3023 230.881 95.937 230.881C96.5716 230.881 97.085 230.657 97.477 230.209C97.8783 229.752 98.079 229.192 98.079 228.529C98.079 227.876 97.8783 227.321 97.477 226.863C97.0756 226.406 96.5576 226.177 95.923 226.177C95.2976 226.177 94.7843 226.406 94.383 226.863C93.991 227.311 93.795 227.867 93.795 228.529C93.795 229.192 93.991 229.752 94.383 230.209ZM108.593 225.029H109.937L108.271 232.029H106.493L105.191 227.031H105.065L103.735 232.029H101.971L100.305 225.029H101.663L102.867 230.503H102.993L104.309 225.519H105.947L107.277 230.503H107.403L108.593 225.029Z" fill="white"/>
<defs>
<linearGradient id="paint0_linear_292_25164" x1="16" y1="102.529" x2="242" y2="102.529" gradientUnits="userSpaceOnUse">
<stop stop-color="#C788E3"/>
<stop offset="1" stop-color="#752C97"/>
</linearGradient>
<linearGradient id="paint1_linear_292_25164" x1="16" y1="227.029" x2="123" y2="227.029" gradientUnits="userSpaceOnUse">
<stop stop-color="#C9B7F7"/>
<stop offset="0.485" stop-color="#AC5BE3"/>
<stop offset="1" stop-color="#623FC2"/>
</linearGradient>
</defs>
</svg>
