<svg width="258" height="260" viewBox="0 0 258 260" fill="none" xmlns="http://www.w3.org/2000/svg">
<rect width="258" height="259.029" fill="#F9F4FA"/>
<path d="M26.2957 16H30.2787V33.5352H26.2957V26.4209H20.008V33.5352H16V16H20.008V22.8638H26.2957V16Z" fill="#200B28"/>
<path d="M46.8518 16V19.6573H42.1173V33.5352H38.1593V19.6573H33.4499V16H46.8518Z" fill="#200B28"/>
<path d="M59.8028 33.5352L58.7256 30.0282H52.3378L51.2606 33.5352H47.0522L52.939 16H58.1495L64.0363 33.5352H59.8028ZM53.415 26.6213H57.6485L55.6946 20.2836H55.3689L53.415 26.6213Z" fill="#200B28"/>
<path d="M73.8126 16C75.7665 16 77.2862 16.5344 78.3717 17.6032C79.4572 18.672 80 20.0832 80 21.8367C80 23.657 79.4572 25.0933 78.3717 26.1454C77.2862 27.1808 75.7498 27.6985 73.7625 27.6985H70.7063V33.5352H66.8736V16H73.8126ZM73.512 24.1413C74.347 24.1413 74.9649 23.9326 75.3657 23.5151C75.7832 23.0976 75.9919 22.5381 75.9919 21.8367C75.9919 21.1687 75.7832 20.626 75.3657 20.2085C74.9482 19.7742 74.347 19.5571 73.5621 19.5571H70.7063V24.1413H73.512Z" fill="#200B28"/>
<path d="M23.4625 45.1143C23.4625 46.0568 23.1272 46.7807 22.4568 47.286C21.796 47.7815 20.9167 48.0293 19.8187 48.0293C18.6332 48.0293 17.7004 47.6989 17.0203 47.0382C16.3401 46.3775 16 45.5127 16 44.4438H18.2591C18.2591 44.9491 18.3952 45.3475 18.6672 45.639C18.949 45.9208 19.3571 46.0617 19.8916 46.0617C20.2414 46.0617 20.528 45.9791 20.7515 45.8139C20.9847 45.6487 21.1013 45.4106 21.1013 45.0997C21.1013 44.7693 20.9604 44.5021 20.6786 44.2981C20.4065 44.094 19.9256 43.8657 19.2357 43.613C18.3126 43.273 17.5935 42.8697 17.0786 42.4033C16.5636 41.9369 16.3061 41.315 16.3061 40.5377C16.3061 39.6049 16.6219 38.8713 17.2535 38.3368C17.8948 37.8024 18.7061 37.5352 19.6875 37.5352C20.7661 37.5352 21.6211 37.8413 22.2527 38.4534C22.8843 39.0559 23.2001 39.8041 23.2001 40.698H21.0867C21.0576 40.3385 20.9215 40.047 20.6786 39.8235C20.4454 39.6 20.1199 39.4883 19.7021 39.4883C19.3814 39.4883 19.1191 39.566 18.915 39.7215C18.7207 39.877 18.6235 40.0907 18.6235 40.3628C18.6235 40.6349 18.745 40.8729 18.9879 41.077C19.2308 41.2713 19.6632 41.4948 20.2851 41.7474C21.3636 42.1847 22.1604 42.6414 22.6754 43.1175C23.2001 43.5936 23.4625 44.2592 23.4625 45.1143Z" fill="#200B28"/>
<path d="M34.8308 37.681V43.5402C34.8308 45.0463 34.4324 46.1734 33.6357 46.9216C32.8486 47.6601 31.8235 48.0293 30.5603 48.0293C29.2874 48.0293 28.2526 47.6601 27.4558 46.9216C26.659 46.1734 26.2607 45.0463 26.2607 43.5402V37.681H28.6801V43.6713C28.6801 44.3224 28.8453 44.8471 29.1757 45.2455C29.506 45.6341 29.9724 45.8285 30.5749 45.8285C31.1676 45.8285 31.6194 45.6341 31.9304 45.2455C32.251 44.8471 32.4113 44.3224 32.4113 43.6713V37.681H34.8308Z" fill="#200B28"/>
<path d="M49.3887 37.681V47.8835H47.1587V41.4851H46.9693L44.8704 47.009H42.6696L40.5708 41.4851H40.3813V47.8835H38.1513V37.681H41.1246L43.6899 44.0649H43.8793L46.4008 37.681H49.3887Z" fill="#200B28"/>
<path d="M63.9126 37.681V47.8835H61.6826V41.4851H61.4931L59.3943 47.009H57.1935L55.0947 41.4851H54.9052V47.8835H52.6752V37.681H55.6485L58.2137 44.0649H58.4032L60.9247 37.681H63.9126Z" fill="#200B28"/>
<path d="M69.6185 37.681V47.8835H67.1991V37.681H69.6185Z" fill="#200B28"/>
<path d="M80 37.681V39.8089H77.2453V47.8835H74.9424V39.8089H72.2023V37.681H80Z" fill="#200B28"/>
<path d="M18.9802 55.6874C18.7199 55.8387 18.5327 55.9537 18.4184 56.0323C18.3042 56.111 18.1963 56.2048 18.0947 56.3137C17.9995 56.4166 17.936 56.5255 17.9043 56.6405H20.4274V57.9385H16V57.4574C16 56.3984 16.5237 55.5603 17.571 54.9431C18.1931 54.5739 18.5581 54.3409 18.666 54.2441C18.8437 54.0928 18.9326 53.9385 18.9326 53.7812C18.9326 53.6239 18.8723 53.4968 18.7517 53.3999C18.6374 53.3031 18.4819 53.2547 18.2851 53.2547C18.0566 53.2547 17.8757 53.3273 17.7424 53.4726C17.6155 53.6178 17.5488 53.8084 17.5425 54.0444H16.0095C16.0095 53.5301 16.2063 53.0671 16.5998 52.6556C16.9997 52.2381 17.5742 52.0293 18.3232 52.0293C18.9516 52.0293 19.4658 52.1866 19.8657 52.5013C20.2719 52.8099 20.475 53.2487 20.475 53.8175C20.475 54.1927 20.3512 54.5255 20.1037 54.816C19.8561 55.1004 19.4816 55.3909 18.9802 55.6874Z" fill="#200B28"/>
<path d="M37.984 58.0293C37.2096 58.0293 36.597 57.7721 36.1464 57.2577C35.6957 56.7434 35.4704 55.999 35.4704 55.0248C35.4704 54.0505 35.6925 53.3092 36.1368 52.8009C36.5875 52.2865 37.2001 52.0293 37.9745 52.0293C38.7425 52.0293 39.3455 52.2865 39.7835 52.8009C40.2278 53.3092 40.45 54.0535 40.45 55.0338C40.45 56.0142 40.231 56.7585 39.793 57.2668C39.3551 57.7751 38.752 58.0293 37.984 58.0293ZM37.984 56.7313C38.2569 56.7313 38.4569 56.5981 38.5838 56.3319C38.7171 56.0656 38.7838 55.636 38.7838 55.0429C38.7838 54.4378 38.7171 54.0021 38.5838 53.7358C38.4505 53.4635 38.2474 53.3273 37.9745 53.3273C37.4159 53.3273 37.1366 53.8962 37.1366 55.0338C37.1366 56.1655 37.4191 56.7313 37.984 56.7313Z" fill="#200B28"/>
<path d="M58.4137 55.6874C58.1534 55.8387 57.9662 55.9537 57.8519 56.0323C57.7377 56.111 57.6298 56.2048 57.5282 56.3137C57.433 56.4166 57.3695 56.5255 57.3378 56.6405H59.8609V57.9385H55.4335V57.4574C55.4335 56.3984 55.9572 55.5603 57.0045 54.9431C57.6266 54.5739 57.9916 54.3409 58.0995 54.2441C58.2772 54.0928 58.3661 53.9385 58.3661 53.7812C58.3661 53.6239 58.3058 53.4968 58.1852 53.3999C58.0709 53.3031 57.9154 53.2547 57.7186 53.2547C57.4901 53.2547 57.3092 53.3273 57.1759 53.4726C57.049 53.6178 56.9823 53.8084 56.976 54.0444H55.443C55.443 53.5301 55.6398 53.0671 56.0334 52.6556C56.4333 52.2381 57.0077 52.0293 57.7567 52.0293C58.3851 52.0293 58.8993 52.1866 59.2992 52.5013C59.7054 52.8099 59.9085 53.2487 59.9085 53.8175C59.9085 54.1927 59.7848 54.5255 59.5372 54.816C59.2896 55.1004 58.9151 55.3909 58.4137 55.6874Z" fill="#200B28"/>
<path d="M80 55.5785V56.7676H78.9431V57.9385H77.534V56.7676H74.649V56.0232L77.2959 52.1201H78.9431V55.5785H80ZM76.42 55.5785H77.534V53.881H77.4102L76.42 55.5785Z" fill="#200B28"/>
<path d="M23.2 96.0293L17.216 73.6293H20.192L24.992 91.6773H25.184L29.536 76.8293H33.088L37.408 91.6773H37.6L42.368 73.6293H45.344L39.424 96.0293H35.776L31.392 81.0213H31.2L26.848 96.0293H23.2ZM59.2398 86.6213C59.2398 84.0613 57.8958 82.5253 55.6238 82.5253C53.2558 82.5253 51.7838 84.1893 51.7838 86.9413V96.0293H48.7438V72.9893H51.7838V81.7253H51.9758C52.9038 80.4773 54.2478 79.6773 56.3278 79.6773C59.9118 79.6773 62.2798 82.1733 62.2798 86.0453V96.0293H59.2398V86.6213ZM71.0295 96.3813C67.9255 96.3813 65.8775 94.4933 65.8775 91.7093C65.8775 88.3813 68.7895 86.5253 73.9415 86.1733L75.7335 86.0453V85.5333C75.7335 83.6453 74.6135 82.4613 72.6615 82.4613C70.9655 82.4613 69.6855 83.3253 69.3975 84.8613H66.2295C66.4215 81.8533 69.1095 79.6773 72.6615 79.6773C76.3735 79.6773 78.7735 82.0133 78.7735 85.6613V92.5733C78.7735 93.4373 79.2215 93.8853 79.9895 93.8853C80.1815 93.8853 80.2775 93.8533 80.5335 93.7893L80.8215 96.0293C80.3735 96.1893 79.7655 96.2853 79.2535 96.2853C77.5575 96.2853 76.3735 95.2933 76.1175 93.7893H75.9255C74.8055 95.5173 73.1415 96.3813 71.0295 96.3813ZM69.0455 91.6133C69.0455 92.7973 69.8455 93.5973 71.3495 93.5973C73.8455 93.5973 75.7335 91.5813 75.7335 88.6373V88.3813L73.7495 88.5413C70.8375 88.7653 69.0455 89.8213 69.0455 91.6133ZM89.582 96.3813C86.67 96.3813 84.686 94.7813 84.686 91.6773V82.7493H81.582V80.0293H82.222C84.046 80.0293 84.814 79.0373 84.942 76.9573L85.038 75.3573H87.726V80.0293H91.502V82.7493H87.726V91.4533C87.726 92.7973 88.622 93.6613 89.902 93.6613C90.35 93.6613 90.862 93.5653 91.278 93.4373L91.758 95.9653C91.15 96.2213 90.478 96.3813 89.582 96.3813ZM93.4148 80.4773C94.4068 79.7413 95.1748 78.5893 95.4948 77.4373C94.5668 77.3733 93.7348 76.6053 93.7348 75.4853C93.7348 74.2693 94.5668 73.4373 95.7188 73.4373C96.9348 73.4373 97.7028 74.3973 97.7028 75.9013C97.7028 77.9493 96.2628 80.3493 94.3428 81.5653L93.4148 80.4773ZM104.723 96.3813C100.883 96.3813 98.3545 94.1733 98.2585 91.0053H101.427C101.619 92.6373 102.611 93.6613 104.755 93.6613C106.291 93.6613 107.667 93.1493 107.667 91.8053C107.667 90.8133 107.091 90.1093 105.523 89.6293L103.091 88.9253C100.211 88.0933 98.7705 86.4293 98.7705 84.3173C98.7705 81.5013 101.266 79.6773 104.531 79.6773C107.827 79.6773 110.227 81.6293 110.419 84.3493H107.251C107.027 83.1333 105.907 82.3013 104.435 82.3013C102.995 82.3013 101.939 83.1013 101.939 84.3173C101.939 85.2453 102.547 85.8533 104.307 86.3333L106.739 87.0053C109.459 87.7733 110.835 89.4373 110.835 91.6133C110.835 94.5573 108.243 96.3813 104.723 96.3813ZM123.821 96.0293V73.6293H127.053L138.317 90.5253H138.509V73.6293H141.581V96.0293H138.349L127.053 79.1333H126.861V96.0293H123.821ZM153.759 96.3813C149.055 96.3813 145.727 92.8613 145.727 88.0293C145.727 83.1973 149.055 79.6773 153.727 79.6773C157.951 79.6773 161.119 82.6533 161.119 87.3253C161.119 87.8053 161.087 88.3493 161.023 88.7973H148.927C149.215 91.7093 151.071 93.5333 153.727 93.5333C155.647 93.5333 157.311 92.5733 157.759 91.2933H160.927C160.351 94.2693 157.407 96.3813 153.759 96.3813ZM149.055 86.3333H157.855C157.663 84.0613 156.095 82.4933 153.791 82.4933C151.487 82.4933 149.631 84.0613 149.055 86.3333ZM162.804 96.0293L168.212 87.7413L163.22 80.0293H166.804L170.132 85.3093H170.324L173.62 80.0293H177.204L172.212 87.7413L177.62 96.0293H174.036L170.324 90.1413H170.132L166.388 96.0293H162.804ZM187.145 96.3813C184.233 96.3813 182.249 94.7813 182.249 91.6773V82.7493H179.145V80.0293H179.785C181.609 80.0293 182.377 79.0373 182.505 76.9573L182.601 75.3573H185.289V80.0293H189.065V82.7493H185.289V91.4533C185.289 92.7973 186.185 93.6613 187.465 93.6613C187.913 93.6613 188.425 93.5653 188.841 93.4373L189.321 95.9653C188.713 96.2213 188.041 96.3813 187.145 96.3813ZM202.187 96.0293V82.7493H199.051V80.0293H202.187V77.7893C202.187 74.8133 204.107 72.6373 206.987 72.6373C208.043 72.6373 209.259 72.9253 209.771 73.4053L208.843 75.8373C208.459 75.6133 207.947 75.4853 207.467 75.4853C206.155 75.4853 205.227 76.4133 205.227 77.7893V80.0293H208.971V82.7493H205.227V96.0293H202.187ZM219.138 96.3813C214.466 96.3813 210.946 92.7653 210.946 88.0293C210.946 83.2933 214.466 79.6773 219.138 79.6773C223.81 79.6773 227.33 83.2933 227.33 88.0293C227.33 92.7653 223.81 96.3813 219.138 96.3813ZM219.138 93.5333C222.05 93.5333 224.162 91.1973 224.162 88.0293C224.162 84.8613 222.05 82.5253 219.138 82.5253C216.226 82.5253 214.114 84.8613 214.114 88.0293C214.114 91.1973 216.226 93.5333 219.138 93.5333ZM231.431 96.0293V80.0293H234.119L234.279 82.1413H234.471C235.335 80.7013 237.095 79.8373 239.175 79.8373C239.559 79.8373 239.911 79.8693 240.167 79.9333V83.0053C239.751 82.9413 239.559 82.9413 239.143 82.9413C236.167 82.9413 234.471 84.9253 234.471 88.4133V96.0293H231.431ZM25.664 131.381C21.184 131.381 17.952 128.757 17.696 124.629H21.056C21.44 127.125 23.136 128.469 25.664 128.469C28.064 128.469 30.08 127.285 30.08 125.141C30.08 123.477 28.928 122.197 26.432 121.397L23.584 120.469C20.16 119.349 18.464 117.109 18.464 114.357C18.464 110.677 21.536 108.277 25.504 108.277C29.472 108.277 32.736 110.965 32.896 114.389H29.536C29.312 112.533 27.68 111.189 25.504 111.189C23.392 111.189 21.696 112.469 21.696 114.357C21.696 115.861 22.72 116.885 25.184 117.685L27.616 118.453C31.456 119.669 33.312 122.197 33.312 125.141C33.312 129.077 29.888 131.381 25.664 131.381ZM48.536 128.469C53.336 128.469 56.728 124.917 56.728 119.829C56.728 114.741 53.336 111.189 48.536 111.189C43.704 111.189 40.344 114.741 40.344 119.829C40.344 124.917 43.704 128.469 48.536 128.469ZM54.168 135.797C51.32 135.797 48.856 134.357 48.28 131.381C41.784 131.253 37.112 126.453 37.112 119.829C37.112 113.109 41.912 108.277 48.536 108.277C55.16 108.277 59.96 113.109 59.96 119.829C59.96 125.557 56.472 129.909 51.32 131.093C51.768 132.533 52.92 133.205 54.36 133.205C55.288 133.205 56.12 132.949 56.664 132.565L57.784 134.805C57.016 135.381 55.48 135.797 54.168 135.797ZM65.0705 131.029V108.629H68.2385V128.181H79.2145V131.029H65.0705ZM105.575 137.781C97.0953 137.781 91.1432 131.637 91.1432 122.997C91.1432 114.293 97.1593 108.277 105.863 108.277C113.927 108.277 119.431 113.717 119.431 121.685C119.431 127.253 116.999 130.805 113.191 130.805C111.335 130.805 109.863 129.941 109.383 128.565H109.191C108.231 129.973 106.567 130.805 104.743 130.805C100.903 130.805 98.3753 127.765 98.3753 123.157C98.3753 118.549 100.935 115.477 104.711 115.477C106.343 115.477 107.879 116.245 108.551 117.397H108.743L108.807 115.701H111.303V125.365C111.303 127.093 112.071 128.085 113.351 128.085C115.239 128.085 116.295 125.877 116.295 121.941C116.295 115.509 112.071 111.093 105.863 111.093C99.0473 111.093 94.2793 116.021 94.2793 122.997C94.2793 129.973 99.0473 134.965 105.735 134.965C108.423 134.965 110.919 134.293 112.711 133.173L114.055 135.637C111.783 137.013 108.807 137.781 105.575 137.781ZM104.839 128.053C106.951 128.053 108.327 126.101 108.327 123.125C108.327 120.213 106.983 118.325 104.871 118.325C102.823 118.325 101.543 120.181 101.543 123.157C101.543 126.133 102.823 128.053 104.839 128.053ZM139.508 131.381C135.028 131.381 131.796 128.757 131.54 124.629H134.9C135.284 127.125 136.98 128.469 139.508 128.469C141.908 128.469 143.924 127.285 143.924 125.141C143.924 123.477 142.772 122.197 140.276 121.397L137.428 120.469C134.004 119.349 132.308 117.109 132.308 114.357C132.308 110.677 135.38 108.277 139.348 108.277C143.316 108.277 146.58 110.965 146.74 114.389H143.38C143.156 112.533 141.524 111.189 139.348 111.189C137.236 111.189 135.54 112.469 135.54 114.357C135.54 115.861 136.564 116.885 139.028 117.685L141.46 118.453C145.3 119.669 147.156 122.197 147.156 125.141C147.156 129.077 143.732 131.381 139.508 131.381ZM158.636 131.381C153.9 131.381 150.54 127.861 150.54 123.029C150.54 118.197 153.9 114.677 158.636 114.677C162.476 114.677 165.452 116.981 165.932 120.405H162.732C162.316 118.677 160.716 117.525 158.636 117.525C155.724 117.525 153.708 119.797 153.708 123.029C153.708 126.229 155.724 128.533 158.636 128.533C160.716 128.533 162.316 127.381 162.732 125.653H165.932C165.452 129.077 162.476 131.381 158.636 131.381ZM174.061 131.381C170.957 131.381 168.909 129.493 168.909 126.709C168.909 123.381 171.821 121.525 176.973 121.173L178.765 121.045V120.533C178.765 118.645 177.645 117.461 175.693 117.461C173.997 117.461 172.717 118.325 172.429 119.861H169.261C169.453 116.853 172.141 114.677 175.693 114.677C179.405 114.677 181.805 117.013 181.805 120.661V127.573C181.805 128.437 182.253 128.885 183.021 128.885C183.213 128.885 183.309 128.853 183.565 128.789L183.853 131.029C183.405 131.189 182.797 131.285 182.285 131.285C180.589 131.285 179.405 130.293 179.149 128.789H178.957C177.837 130.517 176.173 131.381 174.061 131.381ZM172.077 126.613C172.077 127.797 172.877 128.597 174.381 128.597C176.877 128.597 178.765 126.581 178.765 123.637V123.381L176.781 123.541C173.869 123.765 172.077 124.821 172.077 126.613ZM186.588 131.029V107.989H189.628V131.029H186.588ZM201.728 131.381C197.024 131.381 193.696 127.861 193.696 123.029C193.696 118.197 197.024 114.677 201.696 114.677C205.92 114.677 209.088 117.653 209.088 122.325C209.088 122.805 209.056 123.349 208.992 123.797H196.896C197.184 126.709 199.04 128.533 201.696 128.533C203.616 128.533 205.28 127.573 205.728 126.293H208.896C208.32 129.269 205.376 131.381 201.728 131.381ZM197.024 121.333H205.824C205.632 119.061 204.064 117.493 201.76 117.493C199.456 117.493 197.6 119.061 197.024 121.333Z" fill="url(#paint0_linear_1349_52820)"/>
<path d="M20.186 157.169C18.282 157.169 16.91 156.049 16.77 154.285H17.974C18.142 155.461 18.954 156.119 20.186 156.119C21.32 156.119 22.272 155.545 22.272 154.481C22.272 153.683 21.74 153.081 20.494 152.661L19.374 152.283C17.834 151.765 17.12 150.841 17.12 149.679C17.12 148.111 18.408 147.089 20.102 147.089C21.782 147.089 23.154 148.209 23.252 149.679H22.062C21.936 148.769 21.138 148.139 20.102 148.139C19.094 148.139 18.282 148.755 18.282 149.679C18.282 150.393 18.758 150.883 19.976 151.289L20.942 151.597C22.622 152.157 23.42 153.207 23.42 154.481C23.42 156.161 21.992 157.169 20.186 157.169ZM28.4445 157.169C26.4285 157.169 25.0005 155.657 25.0005 153.543C25.0005 151.457 26.4145 149.931 28.4165 149.931C30.2365 149.931 31.5945 151.233 31.5945 153.263C31.5945 153.417 31.5805 153.627 31.5525 153.795H26.1485C26.2325 155.223 27.1425 156.147 28.4305 156.147C29.3405 156.147 30.1525 155.685 30.3625 155.041H31.4965C31.2305 156.287 29.9845 157.169 28.4445 157.169ZM26.1905 152.899H30.4325C30.3625 151.751 29.5645 150.953 28.4305 150.953C27.2965 150.953 26.4005 151.751 26.1905 152.899ZM33.4572 159.829V150.071H34.4092L34.4792 151.107H34.5632C35.0112 150.365 35.8932 149.931 36.8872 149.931C38.7632 149.931 40.1212 151.471 40.1212 153.543C40.1212 155.629 38.7772 157.169 36.8872 157.169C35.9492 157.169 35.0952 156.777 34.6332 156.077H34.5492V159.829H33.4572ZM36.7472 156.147C38.0772 156.147 39.0012 155.069 39.0012 153.543C39.0012 152.031 38.0772 150.953 36.7472 150.953C35.4452 150.953 34.5492 151.989 34.5492 153.543C34.5492 155.111 35.4452 156.147 36.7472 156.147ZM44.3871 157.169C43.2531 157.169 42.4551 156.511 42.4551 155.293V151.051H41.0831V150.071H41.3911C42.1611 150.071 42.4831 149.665 42.5391 148.783L42.5811 148.027H43.5471V150.071H45.1711V151.051H43.5471V155.209C43.5471 155.811 43.9391 156.189 44.4991 156.189C44.6951 156.189 44.9051 156.147 45.1011 156.077L45.2831 156.987C45.0171 157.099 44.7511 157.169 44.3871 157.169ZM49.6359 157.169C47.6199 157.169 46.1919 155.657 46.1919 153.543C46.1919 151.457 47.6059 149.931 49.6079 149.931C51.4279 149.931 52.7859 151.233 52.7859 153.263C52.7859 153.417 52.7719 153.627 52.7439 153.795H47.3399C47.4239 155.223 48.3339 156.147 49.6219 156.147C50.5319 156.147 51.3439 155.685 51.5539 155.041H52.6879C52.4219 156.287 51.1759 157.169 49.6359 157.169ZM47.3819 152.899H51.6239C51.5539 151.751 50.7559 150.953 49.6219 150.953C48.4879 150.953 47.5919 151.751 47.3819 152.899ZM58.8766 152.745C58.8766 151.597 58.3026 150.953 57.3926 150.953C56.3706 150.953 55.7406 151.765 55.7406 152.969V157.029H54.6486V150.071H55.6006L55.6706 150.925H55.7546C56.0486 150.323 56.7486 149.931 57.6166 149.931C58.4706 149.931 59.2686 150.323 59.5906 151.009H59.6746C60.1226 150.323 60.8646 149.931 61.7886 149.931C63.2586 149.931 64.2106 150.953 64.2106 152.591V157.029H63.1186V152.731C63.1186 151.583 62.5026 150.953 61.5786 150.953C60.5286 150.953 59.9686 151.723 59.9686 152.969V157.029H58.8766V152.745ZM69.8228 157.169C68.8148 157.169 67.9468 156.735 67.4988 155.979H67.4148L67.3448 157.029H66.3928V146.949H67.4848V151.023H67.5688C68.0308 150.323 68.8568 149.931 69.8228 149.931C71.6848 149.931 73.0568 151.471 73.0568 153.543C73.0568 155.629 71.6848 157.169 69.8228 157.169ZM69.6828 156.147C70.9988 156.147 71.9368 155.069 71.9368 153.543C71.9368 152.031 70.9988 150.953 69.6828 150.953C68.3668 150.953 67.4848 151.989 67.4848 153.543C67.4848 155.111 68.3668 156.147 69.6828 156.147ZM78.1007 157.169C76.0847 157.169 74.6567 155.657 74.6567 153.543C74.6567 151.457 76.0707 149.931 78.0727 149.931C79.8927 149.931 81.2507 151.233 81.2507 153.263C81.2507 153.417 81.2367 153.627 81.2087 153.795H75.8047C75.8887 155.223 76.7987 156.147 78.0867 156.147C78.9967 156.147 79.8087 155.685 80.0187 155.041H81.1527C80.8867 156.287 79.6407 157.169 78.1007 157.169ZM75.8467 152.899H80.0887C80.0187 151.751 79.2207 150.953 78.0867 150.953C76.9527 150.953 76.0567 151.751 75.8467 152.899ZM83.1135 157.029V150.071H84.0655L84.1215 151.079H84.2055C84.5695 150.393 85.2975 149.987 86.2495 149.987C86.3755 149.987 86.5155 150.001 86.6415 150.029V151.135C86.4735 151.107 86.4035 151.107 86.2355 151.107C84.9475 151.107 84.2055 152.003 84.2055 153.543V157.029H83.1135ZM93.5881 157.029V150.715H91.6281V149.735H92.1321C93.2241 149.735 93.7141 149.259 93.7141 148.181V148.069H94.6801V157.029H93.5881ZM98.6467 157.029V150.715H96.6867V149.735H97.1907C98.2827 149.735 98.7727 149.259 98.7727 148.181V148.069H99.7387V157.029H98.6467ZM101.206 153.151V152.199H105.826V153.151H101.206ZM108.572 157.029V150.715H106.612V149.735H107.116C108.208 149.735 108.698 149.259 108.698 148.181V148.069H109.664V157.029H108.572ZM111.999 156.553C111.999 155.013 112.797 153.669 114.183 152.885L115.345 152.227C116.297 151.681 116.689 151.177 116.689 150.533C116.689 149.567 115.933 148.951 114.995 148.951C114.015 148.951 113.147 149.637 113.133 150.645H111.999C112.013 149.077 113.371 147.929 114.981 147.929C116.549 147.929 117.823 148.853 117.823 150.547C117.823 151.471 117.305 152.255 116.045 152.997L114.883 153.669C113.847 154.285 113.315 155.013 113.203 156.007H117.739V157.029H111.999V156.553ZM119.017 158.401C119.465 158.079 119.787 157.603 119.913 157.113C119.535 157.085 119.199 156.791 119.199 156.343C119.199 155.881 119.535 155.545 119.997 155.545C120.473 155.545 120.781 155.923 120.781 156.511C120.781 157.351 120.193 158.317 119.367 158.821L119.017 158.401ZM126.136 156.553C126.136 155.013 126.934 153.669 128.32 152.885L129.482 152.227C130.434 151.681 130.826 151.177 130.826 150.533C130.826 149.567 130.07 148.951 129.132 148.951C128.152 148.951 127.284 149.637 127.27 150.645H126.136C126.15 149.077 127.508 147.929 129.118 147.929C130.686 147.929 131.96 148.853 131.96 150.547C131.96 151.471 131.442 152.255 130.182 152.997L129.02 153.669C127.984 154.285 127.452 155.013 127.34 156.007H131.876V157.029H126.136V156.553ZM136.905 157.169C134.805 157.169 133.601 155.489 133.601 152.563C133.601 149.609 134.805 147.929 136.905 147.929C139.019 147.929 140.223 149.609 140.223 152.563C140.223 155.489 139.019 157.169 136.905 157.169ZM136.905 156.147C138.305 156.147 139.089 154.845 139.089 152.563C139.089 150.253 138.291 148.951 136.905 148.951C135.519 148.951 134.735 150.253 134.735 152.563C134.735 154.845 135.519 156.147 136.905 156.147ZM142.036 156.553C142.036 155.013 142.834 153.669 144.22 152.885L145.382 152.227C146.334 151.681 146.726 151.177 146.726 150.533C146.726 149.567 145.97 148.951 145.032 148.951C144.052 148.951 143.184 149.637 143.17 150.645H142.036C142.05 149.077 143.408 147.929 145.018 147.929C146.586 147.929 147.86 148.853 147.86 150.547C147.86 151.471 147.342 152.255 146.082 152.997L144.92 153.669C143.884 154.285 143.352 155.013 143.24 156.007H147.776V157.029H142.036V156.553ZM153.409 157.029V154.831H149.153V154.201L153.227 148.069H154.501V153.851H156.125V154.831H154.501V157.029H153.409ZM150.609 153.851H153.409V149.777H153.325L150.609 153.851ZM21.684 180.169C18.912 180.169 16.966 178.055 16.966 175.143C16.966 172.231 18.954 170.089 21.684 170.089C23.798 170.089 25.52 171.363 25.87 173.225H24.708C24.302 171.909 23.154 171.139 21.684 171.139C19.556 171.139 18.128 172.735 18.128 175.129C18.128 177.425 19.472 179.119 21.684 179.119C23.14 179.119 24.316 178.377 24.722 177.033H25.87C25.534 178.909 23.826 180.169 21.684 180.169ZM30.8117 180.169C28.7957 180.169 27.2837 178.615 27.2837 176.543C27.2837 174.485 28.7957 172.931 30.8117 172.931C32.8277 172.931 34.3397 174.485 34.3397 176.543C34.3397 178.615 32.8277 180.169 30.8117 180.169ZM30.8117 179.147C32.1837 179.147 33.2057 178.041 33.2057 176.543C33.2057 175.059 32.1837 173.953 30.8117 173.953C29.4257 173.953 28.4177 175.059 28.4177 176.543C28.4177 178.041 29.4257 179.147 30.8117 179.147ZM40.4333 175.745C40.4333 174.597 39.8593 173.953 38.9493 173.953C37.9273 173.953 37.2973 174.765 37.2973 175.969V180.029H36.2053V173.071H37.1573L37.2273 173.925H37.3113C37.6053 173.323 38.3053 172.931 39.1733 172.931C40.0273 172.931 40.8253 173.323 41.1473 174.009H41.2313C41.6793 173.323 42.4213 172.931 43.3453 172.931C44.8153 172.931 45.7673 173.953 45.7673 175.591V180.029H44.6753V175.731C44.6753 174.583 44.0593 173.953 43.1353 173.953C42.0853 173.953 41.5253 174.723 41.5253 175.969V180.029H40.4333V175.745ZM47.9494 182.829V173.071H48.9014L48.9714 174.107H49.0554C49.5034 173.365 50.3854 172.931 51.3794 172.931C53.2554 172.931 54.6134 174.471 54.6134 176.543C54.6134 178.629 53.2694 180.169 51.3794 180.169C50.4414 180.169 49.5874 179.777 49.1254 179.077H49.0414V182.829H47.9494ZM51.2394 179.147C52.5694 179.147 53.4934 178.069 53.4934 176.543C53.4934 175.031 52.5694 173.953 51.2394 173.953C49.9374 173.953 49.0414 174.989 49.0414 176.543C49.0414 178.111 49.9374 179.147 51.2394 179.147ZM59.0157 180.169C57.5457 180.169 56.4397 179.119 56.4397 177.537V173.071H57.5317V177.355C57.5317 178.475 58.1757 179.147 59.1557 179.147C60.2337 179.147 60.9197 178.335 60.9197 177.159V173.071H62.0117V180.029H61.0597L61.0037 179.147H60.9197C60.5137 179.791 59.8977 180.169 59.0157 180.169ZM66.7953 180.169C65.6613 180.169 64.8633 179.511 64.8633 178.293V174.051H63.4913V173.071H63.7993C64.5693 173.071 64.8913 172.665 64.9473 171.783L64.9893 171.027H65.9553V173.071H67.5793V174.051H65.9553V178.209C65.9553 178.811 66.3473 179.189 66.9073 179.189C67.1033 179.189 67.3133 179.147 67.5093 179.077L67.6913 179.987C67.4253 180.099 67.1593 180.169 66.7953 180.169ZM72.0441 180.169C70.0281 180.169 68.6001 178.657 68.6001 176.543C68.6001 174.457 70.0141 172.931 72.0161 172.931C73.8361 172.931 75.1941 174.233 75.1941 176.263C75.1941 176.417 75.1801 176.627 75.1521 176.795H69.7481C69.8321 178.223 70.7421 179.147 72.0301 179.147C72.9401 179.147 73.7521 178.685 73.9621 178.041H75.0961C74.8301 179.287 73.5841 180.169 72.0441 180.169ZM69.7901 175.899H74.0321C73.9621 174.751 73.1641 173.953 72.0301 173.953C70.8961 173.953 70.0001 174.751 69.7901 175.899ZM77.0568 180.029V173.071H78.0088L78.0648 174.079H78.1488C78.5128 173.393 79.2408 172.987 80.1928 172.987C80.3188 172.987 80.4588 173.001 80.5848 173.029V174.135C80.4168 174.107 80.3468 174.107 80.1788 174.107C78.8908 174.107 78.1488 175.003 78.1488 176.543V180.029H77.0568ZM92.0675 180.029V175.591H87.1115V180.029H85.9775V170.229H87.1115V174.555H92.0675V170.229H93.2015V180.029H92.0675ZM95.5139 180.029V173.071H96.6059V180.029H95.5139ZM96.0599 172.021C95.6399 172.021 95.3039 171.699 95.3039 171.265C95.3039 170.831 95.6399 170.523 96.0599 170.523C96.4799 170.523 96.8159 170.831 96.8159 171.265C96.8159 171.699 96.4799 172.021 96.0599 172.021ZM101.149 180.169C99.5528 180.169 98.4608 179.231 98.4048 177.901H99.5388C99.6228 178.685 100.155 179.189 101.163 179.189C101.905 179.189 102.549 178.895 102.549 178.223C102.549 177.719 102.255 177.355 101.457 177.117L100.477 176.837C99.2308 176.487 98.6288 175.787 98.6288 174.891C98.6288 173.701 99.6928 172.931 101.065 172.931C102.451 172.931 103.431 173.743 103.515 174.877H102.381C102.283 174.289 101.765 173.883 101.023 173.883C100.309 173.883 99.7628 174.275 99.7628 174.891C99.7628 175.353 100.071 175.661 100.925 175.899L101.905 176.165C103.095 176.515 103.683 177.215 103.683 178.153C103.683 179.399 102.605 180.169 101.149 180.169ZM107.934 180.169C106.8 180.169 106.002 179.511 106.002 178.293V174.051H104.63V173.071H104.938C105.708 173.071 106.03 172.665 106.086 171.783L106.128 171.027H107.094V173.071H108.718V174.051H107.094V178.209C107.094 178.811 107.486 179.189 108.046 179.189C108.242 179.189 108.452 179.147 108.648 179.077L108.83 179.987C108.564 180.099 108.298 180.169 107.934 180.169ZM113.267 180.169C111.251 180.169 109.739 178.615 109.739 176.543C109.739 174.485 111.251 172.931 113.267 172.931C115.283 172.931 116.795 174.485 116.795 176.543C116.795 178.615 115.283 180.169 113.267 180.169ZM113.267 179.147C114.639 179.147 115.661 178.041 115.661 176.543C115.661 175.059 114.639 173.953 113.267 173.953C111.881 173.953 110.873 175.059 110.873 176.543C110.873 178.041 111.881 179.147 113.267 179.147ZM118.66 180.029V173.071H119.612L119.668 174.079H119.752C120.116 173.393 120.844 172.987 121.796 172.987C121.922 172.987 122.062 173.001 122.188 173.029V174.135C122.02 174.107 121.95 174.107 121.782 174.107C120.494 174.107 119.752 175.003 119.752 176.543V180.029H118.66ZM124.586 182.969C124.152 182.969 123.718 182.871 123.382 182.675L123.732 181.821C124.012 181.961 124.278 182.003 124.544 182.003C125.202 182.003 125.636 181.681 125.86 180.995L126.196 180.029H125.818L123.116 173.071H124.306L126.518 178.937H126.602L128.548 173.071H129.71L126.924 181.219C126.532 182.325 125.678 182.969 124.586 182.969ZM135.155 180.029V170.229H136.555L139.887 177.243H139.971L143.289 170.229H144.689V180.029H143.583V172.357H143.499L140.503 178.587H139.341L136.345 172.357H136.261V180.029H135.155ZM149.496 180.169C148.026 180.169 146.92 179.119 146.92 177.537V173.071H148.012V177.355C148.012 178.475 148.656 179.147 149.636 179.147C150.714 179.147 151.4 178.335 151.4 177.159V173.071H152.492V180.029H151.54L151.484 179.147H151.4C150.994 179.791 150.378 180.169 149.496 180.169ZM156.985 180.169C155.389 180.169 154.297 179.231 154.241 177.901H155.375C155.459 178.685 155.991 179.189 156.999 179.189C157.741 179.189 158.385 178.895 158.385 178.223C158.385 177.719 158.091 177.355 157.293 177.117L156.313 176.837C155.067 176.487 154.465 175.787 154.465 174.891C154.465 173.701 155.529 172.931 156.901 172.931C158.287 172.931 159.267 173.743 159.351 174.877H158.217C158.119 174.289 157.601 173.883 156.859 173.883C156.145 173.883 155.599 174.275 155.599 174.891C155.599 175.353 155.907 175.661 156.761 175.899L157.741 176.165C158.931 176.515 159.519 177.215 159.519 178.153C159.519 179.399 158.441 180.169 156.985 180.169ZM164.411 180.169C162.395 180.169 160.967 178.657 160.967 176.543C160.967 174.457 162.381 172.931 164.383 172.931C166.203 172.931 167.561 174.233 167.561 176.263C167.561 176.417 167.547 176.627 167.519 176.795H162.115C162.199 178.223 163.109 179.147 164.397 179.147C165.307 179.147 166.119 178.685 166.329 178.041H167.463C167.197 179.287 165.951 180.169 164.411 180.169ZM162.157 175.899H166.399C166.329 174.751 165.531 173.953 164.397 173.953C163.263 173.953 162.367 174.751 162.157 175.899ZM171.918 180.169C170.448 180.169 169.342 179.119 169.342 177.537V173.071H170.434V177.355C170.434 178.475 171.078 179.147 172.058 179.147C173.136 179.147 173.822 178.335 173.822 177.159V173.071H174.914V180.029H173.962L173.906 179.147H173.822C173.416 179.791 172.8 180.169 171.918 180.169ZM181.336 175.745C181.336 174.597 180.762 173.953 179.852 173.953C178.83 173.953 178.2 174.765 178.2 175.969V180.029H177.108V173.071H178.06L178.13 173.925H178.214C178.508 173.323 179.208 172.931 180.076 172.931C180.93 172.931 181.728 173.323 182.05 174.009H182.134C182.582 173.323 183.324 172.931 184.248 172.931C185.718 172.931 186.67 173.953 186.67 175.591V180.029H185.578V175.731C185.578 174.583 184.962 173.953 184.038 173.953C182.988 173.953 182.428 174.723 182.428 175.969V180.029H181.336V175.745ZM187.965 181.401C188.413 181.079 188.735 180.603 188.861 180.113C188.483 180.085 188.147 179.791 188.147 179.343C188.147 178.881 188.483 178.545 188.945 178.545C189.421 178.545 189.729 178.923 189.729 179.511C189.729 180.351 189.141 181.317 188.315 181.821L187.965 181.401ZM17.372 200.029V190.229H18.772L22.104 197.243H22.188L25.506 190.229H26.906V200.029H25.8V192.357H25.716L22.72 198.587H21.558L18.562 192.357H18.478V200.029H17.372ZM32.3703 200.169C30.3543 200.169 28.8423 198.615 28.8423 196.543C28.8423 194.485 30.3543 192.931 32.3703 192.931C34.3863 192.931 35.8983 194.485 35.8983 196.543C35.8983 198.615 34.3863 200.169 32.3703 200.169ZM32.3703 199.147C33.7423 199.147 34.7643 198.041 34.7643 196.543C34.7643 195.059 33.7423 193.953 32.3703 193.953C30.9843 193.953 29.9763 195.059 29.9763 196.543C29.9763 198.041 30.9843 199.147 32.3703 199.147ZM40.2852 200.169C38.8152 200.169 37.7092 199.119 37.7092 197.537V193.071H38.8012V197.355C38.8012 198.475 39.4452 199.147 40.4252 199.147C41.5032 199.147 42.1892 198.335 42.1892 197.159V193.071H43.2812V200.029H42.3292L42.2732 199.147H42.1892C41.7832 199.791 41.1672 200.169 40.2852 200.169ZM50.0948 195.843C50.0948 194.639 49.4508 193.953 48.4008 193.953C47.2668 193.953 46.5668 194.765 46.5668 196.039V200.029H45.4748V193.071H46.4268L46.4968 193.925H46.5808C46.9448 193.323 47.7008 192.931 48.6388 192.931C50.1788 192.931 51.1868 193.981 51.1868 195.661V200.029H50.0948V195.843ZM55.7347 200.169C54.6007 200.169 53.8027 199.511 53.8027 198.293V194.051H52.4307V193.071H52.7387C53.5087 193.071 53.8307 192.665 53.8867 191.783L53.9287 191.027H54.8947V193.071H56.5187V194.051H54.8947V198.209C54.8947 198.811 55.2867 199.189 55.8467 199.189C56.0427 199.189 56.2527 199.147 56.4487 199.077L56.6307 199.987C56.3647 200.099 56.0987 200.169 55.7347 200.169ZM59.8029 200.169C58.5009 200.169 57.6189 199.371 57.6189 198.181C57.6189 196.753 58.8509 195.955 61.0769 195.787L61.9729 195.717V195.451C61.9729 194.499 61.4409 193.925 60.4889 193.925C59.6629 193.925 59.0469 194.373 58.9069 195.115H57.7869C57.8849 193.841 59.0049 192.931 60.5029 192.931C62.0429 192.931 63.0509 193.911 63.0509 195.465V198.685C63.0509 199.049 63.2469 199.259 63.5969 199.259C63.6809 199.259 63.7509 199.245 63.8769 199.217L63.9889 200.029C63.8349 200.099 63.5969 200.127 63.3869 200.127C62.6589 200.127 62.1689 199.707 62.0849 199.035V199.021H62.0009C61.5249 199.763 60.7549 200.169 59.8029 200.169ZM58.7529 198.153C58.7529 198.769 59.1729 199.175 59.9289 199.175C61.1189 199.175 61.9729 198.223 61.9729 196.837V196.585L61.0489 196.655C59.5789 196.781 58.7529 197.285 58.7529 198.153ZM65.2717 200.029V193.071H66.3637V200.029H65.2717ZM65.8177 192.021C65.3977 192.021 65.0617 191.699 65.0617 191.265C65.0617 190.831 65.3977 190.523 65.8177 190.523C66.2377 190.523 66.5737 190.831 66.5737 191.265C66.5737 191.699 66.2377 192.021 65.8177 192.021ZM73.1729 195.843C73.1729 194.639 72.5289 193.953 71.4789 193.953C70.3449 193.953 69.6449 194.765 69.6449 196.039V200.029H68.5529V193.071H69.5049L69.5749 193.925H69.6589C70.0229 193.323 70.7789 192.931 71.7169 192.931C73.2569 192.931 74.2649 193.981 74.2649 195.661V200.029H73.1729V195.843ZM82.7237 200.029L79.5597 190.229H80.7497L83.4377 198.615H83.5217L86.1957 190.229H87.3857L84.2217 200.029H82.7237ZM88.9377 200.029V193.071H90.0297V200.029H88.9377ZM89.4837 192.021C89.0637 192.021 88.7277 191.699 88.7277 191.265C88.7277 190.831 89.0637 190.523 89.4837 190.523C89.9037 190.523 90.2397 190.831 90.2397 191.265C90.2397 191.699 89.9037 192.021 89.4837 192.021ZM95.341 200.169C93.325 200.169 91.897 198.657 91.897 196.543C91.897 194.457 93.311 192.931 95.313 192.931C97.133 192.931 98.491 194.233 98.491 196.263C98.491 196.417 98.477 196.627 98.449 196.795H93.045C93.129 198.223 94.039 199.147 95.327 199.147C96.237 199.147 97.049 198.685 97.259 198.041H98.393C98.127 199.287 96.881 200.169 95.341 200.169ZM93.087 195.899H97.329C97.259 194.751 96.461 193.953 95.327 193.953C94.193 193.953 93.297 194.751 93.087 195.899ZM101.491 200.029L99.5727 193.071H100.637L102.093 198.573H102.177L103.647 193.925H104.809L106.279 198.573H106.363L107.819 193.071H108.883L106.965 200.029H105.803L104.263 195.255H104.179L102.653 200.029H101.491ZM108.859 201.401C109.307 201.079 109.629 200.603 109.755 200.113C109.377 200.085 109.041 199.791 109.041 199.343C109.041 198.881 109.377 198.545 109.839 198.545C110.315 198.545 110.623 198.923 110.623 199.511C110.623 200.351 110.035 201.317 109.209 201.821L108.859 201.401ZM120.696 200.169C117.924 200.169 115.978 198.055 115.978 195.143C115.978 192.231 117.966 190.089 120.696 190.089C122.81 190.089 124.532 191.363 124.882 193.225H123.72C123.314 191.909 122.166 191.139 120.696 191.139C118.568 191.139 117.14 192.735 117.14 195.129C117.14 197.425 118.484 199.119 120.696 199.119C122.152 199.119 123.328 198.377 123.734 197.033H124.882C124.546 198.909 122.838 200.169 120.696 200.169ZM126.14 200.029L129.612 190.229H131.138L134.596 200.029H133.406L132.468 197.327H128.282L127.344 200.029H126.14ZM128.646 196.305H132.104L130.41 191.489H130.326L128.646 196.305Z" fill="#3D4143"/>
<rect width="110" height="32" transform="translate(16 211.029)" fill="url(#paint1_linear_1349_52820)"/>
<path d="M29.316 232.029V222.229H33.012C34.692 222.229 35.91 223.447 35.91 225.071C35.91 226.373 35.14 227.353 33.88 227.731L36.26 232.029H34.706L32.48 227.983H30.702V232.029H29.316ZM32.872 226.737C33.782 226.737 34.496 226.009 34.496 225.099C34.496 224.203 33.782 223.475 32.872 223.475H30.702V226.737H32.872ZM40.6369 232.183C38.5789 232.183 37.1229 230.643 37.1229 228.529C37.1229 226.415 38.5789 224.875 40.6229 224.875C42.4709 224.875 43.8569 226.177 43.8569 228.221C43.8569 228.431 43.8429 228.669 43.8149 228.865H38.5229C38.6489 230.139 39.4609 230.937 40.6229 230.937C41.4629 230.937 42.1909 230.517 42.3869 229.957H43.7729C43.5209 231.259 42.2329 232.183 40.6369 232.183ZM38.5789 227.787H42.4289C42.3449 226.793 41.6589 226.107 40.6509 226.107C39.6429 226.107 38.8309 226.793 38.5789 227.787ZM48.4529 234.983C46.8289 234.983 45.4849 234.129 45.0509 232.883L46.2969 231.609C45.6809 231.329 45.2469 230.769 45.2469 230.139C45.2469 229.537 45.6389 228.991 46.2129 228.683C45.8209 228.277 45.5969 227.773 45.5969 227.199C45.5969 225.897 46.8009 224.875 48.3549 224.875C48.8449 224.875 49.2929 224.973 49.6989 225.155C50.1189 224.735 50.4829 224.203 50.7349 223.783L51.7989 224.567C51.5749 224.973 51.0989 225.435 50.6089 225.813C50.9309 226.205 51.1269 226.681 51.1269 227.199C51.1269 228.501 49.9229 229.523 48.3549 229.523C47.8929 229.523 47.4589 229.425 47.0809 229.271C46.7589 229.411 46.6049 229.635 46.6049 229.943C46.6049 230.377 46.9269 230.643 47.4309 230.643H49.1109C50.5949 230.643 51.5469 231.539 51.5469 232.687C51.5469 234.059 50.1469 234.983 48.4529 234.983ZM48.3549 228.375C49.1529 228.375 49.7409 227.871 49.7409 227.199C49.7409 226.527 49.1529 226.023 48.3549 226.023C47.5569 226.023 46.9829 226.527 46.9829 227.199C46.9829 227.871 47.5569 228.375 48.3549 228.375ZM46.5069 232.883C46.9269 233.457 47.6129 233.821 48.4669 233.821C49.3489 233.821 50.1609 233.443 50.1609 232.771C50.1609 232.239 49.6989 231.791 48.9429 231.791H47.5569L46.5069 232.883ZM53.0852 232.029V225.029H54.4152V232.029H53.0852ZM53.7432 224.063C53.2672 224.063 52.8752 223.699 52.8752 223.195C52.8752 222.677 53.2672 222.313 53.7432 222.313C54.2192 222.313 54.6252 222.677 54.6252 223.195C54.6252 223.699 54.2192 224.063 53.7432 224.063ZM58.9274 232.183C57.2474 232.183 56.1414 231.217 56.0994 229.831H57.4854C57.5694 230.545 58.0034 230.993 58.9414 230.993C59.6134 230.993 60.2154 230.769 60.2154 230.181C60.2154 229.747 59.9634 229.439 59.2774 229.229L58.2134 228.921C56.9534 228.557 56.3234 227.829 56.3234 226.905C56.3234 225.673 57.4154 224.875 58.8434 224.875C60.2854 224.875 61.3354 225.729 61.4194 226.919H60.0334C59.9354 226.387 59.4454 226.023 58.8014 226.023C58.1714 226.023 57.7094 226.373 57.7094 226.905C57.7094 227.311 57.9754 227.577 58.7454 227.787L59.8094 228.081C60.9994 228.417 61.6014 229.145 61.6014 230.097C61.6014 231.385 60.4674 232.183 58.9274 232.183ZM65.948 232.183C64.674 232.183 63.806 231.483 63.806 230.125V226.219H62.448V225.029H62.728C63.526 225.029 63.862 224.595 63.918 223.685L63.96 222.985H65.136V225.029H66.788V226.219H65.136V230.027C65.136 230.615 65.528 230.993 66.088 230.993C66.284 230.993 66.508 230.951 66.69 230.895L66.9 232.001C66.634 232.113 66.34 232.183 65.948 232.183ZM71.2755 232.183C69.2175 232.183 67.7615 230.643 67.7615 228.529C67.7615 226.415 69.2175 224.875 71.2615 224.875C73.1095 224.875 74.4955 226.177 74.4955 228.221C74.4955 228.431 74.4815 228.669 74.4535 228.865H69.1615C69.2875 230.139 70.0995 230.937 71.2615 230.937C72.1015 230.937 72.8295 230.517 73.0255 229.957H74.4115C74.1595 231.259 72.8715 232.183 71.2755 232.183ZM69.2175 227.787H73.0675C72.9835 226.793 72.2975 226.107 71.2895 226.107C70.2815 226.107 69.4695 226.793 69.2175 227.787ZM76.2863 232.029V225.029H77.4623L77.5323 225.953H77.6163C77.9943 225.323 78.7643 224.945 79.6743 224.945C79.8423 224.945 79.9963 224.959 80.1083 224.987V226.331C79.9263 226.303 79.8423 226.303 79.6603 226.303C78.3583 226.303 77.6163 227.171 77.6163 228.697V232.029H76.2863ZM85.4117 232.029V222.229H86.8257L91.7537 229.621H91.8377V222.229H93.1817V232.029H91.7677L86.8257 224.637H86.7417V232.029H85.4117ZM98.5799 232.183C96.5359 232.183 94.9959 230.601 94.9959 228.529C94.9959 226.457 96.5359 224.875 98.5799 224.875C100.624 224.875 102.164 226.457 102.164 228.529C102.164 230.601 100.624 232.183 98.5799 232.183ZM98.5799 230.937C99.8539 230.937 100.778 229.915 100.778 228.529C100.778 227.143 99.8539 226.121 98.5799 226.121C97.3059 226.121 96.3819 227.143 96.3819 228.529C96.3819 229.915 97.3059 230.937 98.5799 230.937ZM105.055 232.029L103.109 225.029H104.397L105.797 230.279H105.881L107.211 225.869H108.625L109.969 230.279H110.053L111.439 225.029H112.727L110.781 232.029H109.395L107.967 227.451H107.883L106.441 232.029H105.055Z" fill="white"/>
<defs>
<linearGradient id="paint0_linear_1349_52820" x1="16" y1="102.529" x2="242" y2="102.529" gradientUnits="userSpaceOnUse">
<stop stop-color="#C788E3"/>
<stop offset="1" stop-color="#752C97"/>
</linearGradient>
<linearGradient id="paint1_linear_1349_52820" x1="0" y1="16" x2="110" y2="16" gradientUnits="userSpaceOnUse">
<stop stop-color="#C9B7F7"/>
<stop offset="0.485" stop-color="#AC5BE3"/>
<stop offset="1" stop-color="#623FC2"/>
</linearGradient>
</defs>
</svg>
