<svg width="533" height="237" viewBox="0 0 533 237" fill="none" xmlns="http://www.w3.org/2000/svg">
<path d="M253 115L169 163M169 163L85 211M169 163L253 211M421 19L337 67L421 115M421 19L505 -29M421 19L505 67M421 115L337 163L421 211M421 115L505 67M421 115L505 163M505 -29L589 -77V19M505 -29L589 19M505 67L589 19M505 67L589 115M589 19V115M589 115L505 163M589 115V211M505 163L421 211M505 163L589 211M85 211L1 259L85 307M85 211L169 259M85 307L169 259M85 307L169 355L253 307M169 259L253 211M169 259L253 307M253 211L337 259M253 307L337 259M253 307L337 355L421 307M337 259L421 211M337 259L421 307M421 211L505 259M421 307L505 259M421 307L505 355L589 307M505 259L589 211M505 259L589 307M589 211V307" stroke="#FBFDFD" stroke-opacity="0.5" stroke-width="0.5"/>
<path d="M253 115V211V307M169 163V259V355M421 19V115V211V307M505 -29V67V163V259V355M589 -77V19V115V211V307M85 211V307M337 259V355" stroke="#FBFDFD" stroke-opacity="0.15" stroke-width="0.5"/>
</svg>
