<svg width="533" height="261" viewBox="0 0 533 261" fill="none" xmlns="http://www.w3.org/2000/svg">
<g clip-path="url(#clip0_146_28626)">
<path d="M289.408 149.499C280.098 150.135 273.686 157.676 273.142 170.412C262.52 166.167 254.371 172.054 254.371 184.858V185.382C254.371 199.526 264.289 216.722 276.544 223.81L333.336 256.58C345.596 263.66 355.557 257.912 355.557 243.772" stroke="#9E4EC4" stroke-width="1.01333" stroke-linejoin="round"/>
<path d="M376.808 231.505V230.993C376.808 218.92 369.525 204.618 359.79 196.294C359.206 195.797 358.618 195.316 358.018 194.859C357.191 174.92 343.262 151.391 326.177 141.521C321.737 138.965 317.515 137.586 313.679 137.264C309.887 136.946 306.477 137.677 303.614 139.347L282.936 151.292C287.046 149.129 292.206 148.831 297.962 150.668C300.204 151.383 302.529 152.409 304.922 153.788C307.069 155.029 309.168 156.487 311.195 158.125C325.303 169.518 336.039 189.695 336.763 207.13C341.759 210.91 346.212 216.305 349.531 222.291C352.949 228.464 355.163 235.262 355.505 241.57C355.537 242.139 355.557 242.703 355.557 243.26V243.772C355.557 250.55 353.263 255.392 349.531 257.824V257.832L362.378 250.415L369.971 246.034L370.193 245.903L370.619 245.657C374.451 243.26 376.808 238.374 376.808 231.501V231.505Z" fill="#9E4EC4" stroke="#9E4EC4" stroke-width="1.01333" stroke-miterlimit="10"/>
<path d="M273.142 170.412C273.257 167.697 273.642 165.221 274.263 162.995L261.101 170.341L261.145 170.368C264.365 168.643 268.519 168.568 273.142 170.416V170.412Z" fill="#9E4EC4" stroke="#9E4EC4" stroke-linejoin="round"/>
<path d="M273.141 88.6763C273.257 85.9614 273.642 83.4849 274.262 81.2588L261.101 88.6048L261.145 88.6326C264.364 86.9074 268.518 86.8319 273.141 88.6803V88.6763Z" fill="#1AA8A8" stroke="#1AA8A8" stroke-width="1.01333" stroke-linejoin="round"/>
<path d="M369.967 164.302L370.19 164.171L370.615 163.925C374.447 161.528 376.804 156.646 376.804 149.769V149.257C376.804 137.184 369.522 122.882 359.787 114.558C359.202 114.061 358.61 113.58 358.014 113.123C357.187 93.1841 343.258 69.6555 326.173 59.7853C321.733 57.2294 317.512 55.85 313.676 55.528C309.883 55.21 306.473 55.9414 303.611 57.611L282.932 69.5561C287.043 67.3937 292.202 67.0955 297.958 68.932C300.2 69.6475 302.526 70.6731 304.919 72.0525C307.065 73.2927 309.164 74.7516 311.191 76.3893C325.299 87.7819 336.036 107.959 336.759 125.394C341.756 129.175 346.208 134.569 349.527 140.555C352.946 146.729 355.16 153.526 355.502 159.834C355.533 160.403 355.553 160.967 355.553 161.524V162.037C355.553 166.66 354.484 170.38 352.624 173.052C352.771 173.39 352.918 173.723 353.057 174.061L362.375 168.683L369.967 164.302Z" fill="#1AA8A8" stroke="#1AA8A8" stroke-width="1.01333" stroke-miterlimit="10"/>
<path d="M304.923 72.0604C287.846 62.23 273.953 69.6635 273.142 88.6803C262.52 84.4349 254.371 90.322 254.371 103.126V103.65C254.371 117.794 264.289 134.99 276.544 142.078L287.675 148.569" stroke="#1AA8A8" stroke-width="1.01333" stroke-linejoin="round"/>
</g>
<path d="M253 115L169 163M169 163L85 211M169 163L253 211M421 19L337 67L421 115M421 19L505 -29M421 19L505 67M421 115L337 163L421 211M421 115L505 67M421 115L505 163M505 -29L589 -77V19M505 -29L589 19M505 67L589 19M505 67L589 115M589 19V115M589 115L505 163M589 115V211M505 163L421 211M505 163L589 211M85 211L1 259L85 307M85 211L169 259M85 307L169 259M85 307L169 355L253 307M169 259L253 211M169 259L253 307M253 211L337 259M253 307L337 259M253 307L337 355L421 307M337 259L421 211M337 259L421 307M421 211L505 259M421 307L505 259M421 307L505 355L589 307M505 259L589 211M505 259L589 307M589 211V307" stroke="#FBFDFD" stroke-opacity="0.5" stroke-width="0.5"/>
<path d="M253 115V211V307M169 163V259V355M421 19V115V211V307M505 -29V67V163V259V355M589 -77V19V115V211V307M85 211V307M337 259V355" stroke="#FBFDFD" stroke-opacity="0.15" stroke-width="0.5"/>
<defs>
<clipPath id="clip0_146_28626">
<rect width="125" height="207" fill="white" transform="translate(253 54)"/>
</clipPath>
</defs>
</svg>
