<svg width="172" height="247" viewBox="0 0 172 247" fill="none" xmlns="http://www.w3.org/2000/svg">
<path d="M85.9999 243.167L2.52295 194.969V170.872L85.9999 219.07V243.167Z" stroke="#2C80CE" stroke-linecap="round" stroke-linejoin="round"/>
<path d="M23.3922 158.823L2.52295 170.872L85.9999 219.058L169.477 170.864L148.612 158.819" fill="#262A2C"/>
<path d="M23.3922 158.823L2.52295 170.872L85.9999 219.058L169.477 170.864L148.612 158.819" stroke="#2C80CE" stroke-linecap="round" stroke-linejoin="round"/>
<path d="M86 219.07L169.477 170.872V194.969L86 243.167V219.07Z" fill="#2C80CE" stroke="#2C80CE" stroke-linejoin="round"/>
<path d="M86 164.826L169.477 116.628V146.775L86 194.969V164.826Z" fill="#2C80CE"/>
<path d="M86 98.5809L169.477 50.3829V80.53L86 128.724V98.5809Z" fill="#2C80CE"/>
<path d="M86 131.701L169.477 83.5074V113.65L86 161.848V131.701Z" fill="#2C80CE"/>
<path d="M85.9999 98.5809L2.52295 50.3829V146.775L85.9999 194.969V98.5809Z" fill="#262A2C" stroke="#2C80CE" stroke-linecap="round" stroke-linejoin="round"/>
<path d="M86 98.5809L169.477 50.3829V146.775L86 194.969V98.5809Z" stroke="#2C80CE" stroke-linecap="round" stroke-linejoin="round"/>
<path d="M85.9999 128.724L2.52295 80.53V83.5073L85.9999 131.701V128.724Z" fill="#2C80CE"/>
<path d="M85.9999 161.872L2.52295 113.678V116.656L85.9999 164.85V161.872Z" fill="#2C80CE"/>
<path d="M75.5817 134.154C78.7498 135.983 81.3138 140.419 81.3019 144.064C81.2899 147.705 78.7101 149.172 75.542 147.343C72.3738 145.515 69.8138 141.079 69.8218 137.437C69.8337 133.792 72.4096 132.325 75.5777 134.154H75.5817Z" fill="#2C80CE"/>
<path d="M59.2795 124.741C62.4476 126.569 65.0115 131.006 64.9996 134.651C64.9877 138.292 62.4079 139.759 59.2397 137.93C56.0716 136.102 53.5116 131.666 53.5195 128.024C53.5315 124.379 56.1073 122.912 59.2755 124.741H59.2795Z" fill="#2C80CE"/>
<path d="M75.5817 101.817C78.7498 103.645 81.3138 108.081 81.3019 111.727C81.2899 115.368 78.7101 116.834 75.542 115.006C72.3738 113.177 69.8138 108.741 69.8218 105.1C69.8337 101.455 72.4096 99.9881 75.5777 101.817H75.5817Z" fill="#2C80CE"/>
<path d="M59.2795 92.3996C62.4476 94.2281 65.0115 98.6644 64.9996 102.31C64.9877 105.951 62.4079 107.418 59.2397 105.589C56.0716 103.76 53.5116 99.3242 53.5195 95.683C53.5315 92.0379 56.1073 90.5711 59.2755 92.3996H59.2795Z" fill="#2C80CE"/>
<path d="M75.5817 166.905C78.7498 168.733 81.3138 173.169 81.3019 176.815C81.2899 180.456 78.7101 181.923 75.542 180.094C72.3738 178.266 69.8138 173.829 69.8218 170.188C69.8337 166.543 72.4096 165.076 75.5777 166.905H75.5817Z" fill="#2C80CE"/>
<path d="M59.2795 157.492C62.4476 159.32 65.0115 163.756 64.9996 167.402C64.9877 171.043 62.4079 172.51 59.2397 170.681C56.0716 168.853 53.5116 164.416 53.5195 160.775C53.5315 157.13 56.1073 155.663 59.2755 157.492H59.2795Z" fill="#2C80CE"/>
<path d="M2.52295 50.3909L85.9999 2.19687L169.477 50.3829" fill="#262A2C"/>
<path d="M2.52295 50.3909L85.9999 2.19687L169.477 50.3829" stroke="#2C80CE" stroke-linecap="round" stroke-linejoin="round"/>
<path d="M2.52295 50L85.9999 98.194L169.477 50.0079" fill="#262A2C"/>
<path d="M2.52295 50L85.9999 98.194L169.477 50.0079" stroke="#2C80CE" stroke-linecap="round" stroke-linejoin="round"/>
</svg>
