<svg width="125" height="207" viewBox="0 0 125 207" fill="none" xmlns="http://www.w3.org/2000/svg">
<g clip-path="url(#clip0_979_51288)">
<path d="M36.4076 95.4991C27.098 96.1352 20.6862 103.676 20.1416 116.412C9.52012 112.167 1.37119 118.054 1.37119 130.858V131.382C1.37119 145.526 11.289 162.722 23.5442 169.81L80.3364 202.58C92.5956 209.66 102.557 203.912 102.557 189.772" stroke="#9E4EC4" stroke-width="1.01333" stroke-linejoin="round"/>
<path d="M123.808 177.505V176.993C123.808 164.92 116.525 150.618 106.79 142.294C106.206 141.797 105.618 141.316 105.018 140.859C104.191 120.92 90.262 97.3913 73.1771 87.5212C68.7369 84.9652 64.5154 83.5858 60.6794 83.2638C56.8872 82.9458 53.4765 83.6772 50.6145 85.3468L29.936 97.2919C34.0463 95.1295 39.2059 94.8313 44.9619 96.6678C47.2038 97.3834 49.5293 98.4089 51.9223 99.7883C54.0688 101.029 56.1677 102.487 58.195 104.125C72.3026 115.518 83.0393 135.695 83.7627 153.13C88.7594 156.91 93.2115 162.305 96.5307 168.291C99.9493 174.464 102.163 181.262 102.505 187.57C102.537 188.139 102.557 188.703 102.557 189.26V189.772C102.557 196.55 100.263 201.392 96.5307 203.824V203.832L109.378 196.415L116.971 192.034L117.193 191.903L117.619 191.657C121.451 189.26 123.808 184.374 123.808 177.501V177.505Z" fill="#9E4EC4" stroke="#9E4EC4" stroke-width="1.01333" stroke-miterlimit="10"/>
<path d="M20.1416 116.412C20.2569 113.697 20.6425 111.221 21.2626 108.995L8.10107 116.341L8.1448 116.368C11.3646 114.643 15.5186 114.568 20.1416 116.416V116.412Z" fill="#9E4EC4" stroke="#9E4EC4" stroke-linejoin="round"/>
<path d="M20.1414 34.6763C20.2567 31.9614 20.6422 29.4849 21.2624 27.2588L8.10083 34.6048L8.14456 34.6326C11.3644 32.9074 15.5184 32.8319 20.1414 34.6803V34.6763Z" fill="#1AA8A8" stroke="#1AA8A8" stroke-width="1.01333" stroke-linejoin="round"/>
<path d="M116.967 110.302L117.19 110.171L117.615 109.925C121.447 107.528 123.804 102.646 123.804 95.7695V95.2567C123.804 83.1844 116.522 68.882 106.787 60.5581C106.202 60.0612 105.61 59.5803 105.014 59.1231C104.187 39.1841 90.2584 15.6555 73.1734 5.78534C68.7332 3.22936 64.5117 1.85 60.6757 1.52802C56.8835 1.21001 53.4729 1.94143 50.6108 3.61097L29.9324 15.5561C34.0426 13.3937 39.2023 13.0955 44.9582 14.932C47.2002 15.6475 49.5256 16.6731 51.9186 18.0525C54.0652 19.2927 56.164 20.7516 58.1913 22.3893C72.2989 33.7819 83.0356 53.9595 83.7591 71.3942C88.7558 75.1745 93.2079 80.5687 96.5271 86.5552C99.9457 92.7286 102.16 99.526 102.502 105.834C102.533 106.403 102.553 106.967 102.553 107.524V108.037C102.553 112.66 101.484 116.38 99.6237 119.052C99.7708 119.39 99.9178 119.723 100.057 120.061L109.375 114.683L116.967 110.302Z" fill="#1AA8A8" stroke="#1AA8A8" stroke-width="1.01333" stroke-miterlimit="10"/>
<path d="M51.9225 18.0604C34.8456 8.23003 20.9526 15.6635 20.1417 34.6803C9.52025 30.4349 1.37131 36.322 1.37131 49.1258V49.6505C1.37131 63.7939 11.2892 80.9901 23.5444 88.0777L34.6746 94.569" stroke="#1AA8A8" stroke-width="1.01333" stroke-linejoin="round"/>
</g>
<defs>
<clipPath id="clip0_979_51288">
<rect width="125" height="207" fill="white"/>
</clipPath>
</defs>
</svg>
