<svg width="371" height="252" viewBox="0 0 371 252" fill="none" xmlns="http://www.w3.org/2000/svg">
<rect x="0.725855" y="0.580811" width="370" height="251" fill="#E3E8EA"/>
<mask id="mask0_389_63345" style="mask-type:alpha" maskUnits="userSpaceOnUse" x="0" y="0" width="371" height="252">
<rect x="0.725842" y="0.580811" width="370" height="251" fill="#EDF0F1"/>
</mask>
<g mask="url(#mask0_389_63345)">
<path opacity="0.4" d="M126.55 146.971L65.5278 181.841L126.55 216.711M126.55 146.971L187.573 181.841M126.55 146.971V216.711M126.55 146.971L187.573 112.101M187.573 181.841L126.55 216.711M187.573 181.841L248.595 146.971M187.573 181.841V112.101M187.573 181.841L248.595 216.711M187.573 181.841V251.581M126.55 216.711L187.573 251.581M187.573 112.101L248.595 146.971M187.573 112.101L248.595 77.2313M248.595 146.971L309.617 112.101M248.595 146.971V77.2313M248.595 146.971L309.617 181.841M248.595 146.971V216.711M248.595 216.711L187.573 251.581M248.595 216.711L309.617 181.841M248.595 77.2313L309.617 112.101M309.617 112.101L370.64 146.971L309.617 181.841M309.617 112.101V181.841" stroke="#829094"/>
<path opacity="0.4" d="M4.50542 77.2307L-56.5169 112.101L4.50542 146.971M4.50542 77.2307L65.5278 112.101M4.50542 77.2307V146.971M4.50542 77.2307L65.5278 42.3608M65.5278 112.101L4.50542 146.971M65.5278 112.101L126.55 77.2307M65.5278 112.101V42.3608M65.5278 112.101L126.55 146.971M65.5278 112.101V181.84M4.50542 146.971L65.5278 181.84M65.5278 42.3608L126.55 77.2307M65.5278 42.3608L126.55 7.49084M126.55 77.2307L187.573 42.3608M126.55 77.2307V7.49084M126.55 77.2307L187.573 112.101M126.55 77.2307V146.971M126.55 146.971L65.5278 181.84M126.55 146.971L187.573 112.101M126.55 7.49084L187.573 42.3608M187.573 42.3608L248.595 77.2307L187.573 112.101M187.573 42.3608V112.101" stroke="#829094"/>
<path d="M145.463 108.786L187.9 84.536L230.338 108.786L187.9 133.036L145.463 108.786Z" fill="#D8A5F1"/>
<path d="M187.9 133.036L145.463 108.786V157.286L187.9 133.036Z" fill="#4B1C5F"/>
<path d="M230.338 157.286L187.9 133.036V181.536L230.338 157.286Z" fill="#9E4EC4"/>
<path d="M187.9 133.036L145.463 157.286L187.9 181.536V133.036Z" fill="#4B1C5F"/>
<path d="M230.338 108.786L187.9 133.036L230.338 157.286V108.786Z" fill="#9E4EC4"/>
<path d="M23.5809 109.786L66.0809 85.536L108.581 109.786L66.0809 134.036L23.5809 109.786Z" fill="#509DEA"/>
<path d="M66.0809 134.036L23.5809 109.786V158.286L66.0809 134.036Z" fill="#10487B"/>
<path d="M108.581 158.286L66.0809 134.036V182.536L108.581 158.286Z" fill="#2C80CE"/>
<path d="M66.0809 134.036L23.5809 158.286L66.0809 182.536V134.036Z" fill="#10487B"/>
<path d="M108.581 109.786L66.0809 134.036L108.581 158.286V109.786Z" fill="#2C80CE"/>
<path opacity="0.4" d="M370.64 77.2307L309.617 112.101L370.64 146.971M370.64 77.2307L431.662 112.101M370.64 77.2307V146.971M370.64 77.2307L431.662 42.3608M431.662 112.101L370.64 146.971M431.662 112.101L492.684 77.2307M431.662 112.101V42.3608M431.662 112.101L492.684 146.971M431.662 112.101V181.84M370.64 146.971L431.662 181.84M431.662 42.3608L492.684 77.2307M431.662 42.3608L492.684 7.49084M492.684 77.2307L553.707 42.3608M492.684 77.2307V7.49084M492.684 77.2307L553.707 112.101M492.684 77.2307V146.971M492.684 146.971L431.662 181.84M492.684 146.971L553.707 112.101M492.684 7.49084L553.707 42.3608M553.707 42.3608L614.729 77.2307L553.707 112.101M553.707 42.3608V112.101" stroke="#829094"/>
<path opacity="0.4" d="M248.595 7.49034L187.573 42.3603L248.595 77.2302M248.595 7.49034L309.617 42.3603M248.595 7.49034V77.2302M248.595 7.49034L309.617 -27.3796M309.617 42.3603L248.595 77.2302M309.617 42.3603L370.64 7.49034M309.617 42.3603V-27.3796M309.617 42.3603L370.64 77.2302M309.617 42.3603V112.1M248.595 77.2302L309.617 112.1M309.617 -27.3796L370.64 7.49034M309.617 -27.3796L370.64 -62.2495M370.64 7.49034L431.662 -27.3796M370.64 7.49034V-62.2495M370.64 7.49034L431.662 42.3603M370.64 7.49034V77.2302M370.64 77.2302L309.617 112.1M370.64 77.2302L431.662 42.3603M370.64 -62.2495L431.662 -27.3796M431.662 -27.3796L492.684 7.49034L431.662 42.3603M431.662 -27.3796V42.3603" stroke="#829094"/>
<path d="M267.128 108.995L309.496 84.7446L351.864 108.995L309.496 133.245L267.128 108.995Z" fill="#50DBD9"/>
<path d="M309.496 133.245L267.128 108.995V157.495L309.496 133.245Z" fill="#0F5353"/>
<path d="M351.864 157.495L309.496 133.245V181.745L351.864 157.495Z" fill="#1AA8A8"/>
<path d="M309.496 133.245L267.128 157.495L309.496 181.745V133.245Z" fill="#0F5353"/>
<path d="M351.864 108.995L309.496 133.245L351.864 157.495V108.995Z" fill="#1AA8A8"/>
</g>
<circle opacity="0.5" cx="185.726" cy="130.074" r="47.7502" fill="#4E4E4E"/>
<path d="M206.538 126.76C208.884 128.347 208.884 131.801 206.538 133.387L179.111 151.937C176.455 153.733 172.87 151.83 172.87 148.623L172.87 111.524C172.87 108.318 176.455 106.415 179.111 108.211L206.538 126.76Z" fill="#FBFBFB"/>
</svg>
