<svg xmlns="http://www.w3.org/2000/svg" viewBox="0 0 203.08 203.08">

<path fill="#082265" d="M100.11,47.34l-88-25.1A9.5,9.5,0,0,0,0,31.38v162.2a9.51,9.51,0,0,0,9.48,9.5,9.35,9.35,0,0,0,2.22-.26l88-21h0a9.48,9.48,0,0,0,7.3-9.25V56.48A9.54,9.54,0,0,0,100.11,47.34Z"/>
<path fill="#00aeef" d="M160.05,41.57a9.55,9.55,0,0,0-6.88-9.11L41.16.37A9.5,9.5,0,0,0,29,9.51V132.59a9.47,9.47,0,0,0,11.72,9.23l112.14-27a9.47,9.47,0,0,0,7.28-9.26Z"/>
<path fill="#303eab" d="M100.11,47.34,29,27.07V132.59a9.47,9.47,0,0,0,11.72,9.23L107,125.88V56.48A9.54,9.54,0,0,0,100.11,47.34Z"/>

</svg>