<svg xmlns="http://www.w3.org/2000/svg" xmlns:xlink="http://www.w3.org/1999/xlink" width="230" height="159" viewBox="0 0 230 159">
  <defs>
    <clipPath id="clip-path">
      <rect id="矩形_5454" data-name="矩形 5454" width="230" height="159" transform="translate(19487 -15997)" fill="#232996"/>
    </clipPath>
  </defs>
  <g id="组_7393" data-name="组 7393" transform="translate(-19997 15623)">
    <g id="蒙版组_26" data-name="蒙版组 26" transform="translate(510 374)" clip-path="url(#clip-path)">
      <g id="组_7386" data-name="组 7386">
        <rect id="矩形_5450" data-name="矩形 5450" width="230" height="159" transform="translate(19487 -15997)" fill="#232996"/>
        <g id="组_7384" data-name="组 7384" transform="translate(-584.804 90.992)">
          <path id="路径_17770" data-name="路径 17770" d="M362.991,385.553h130.36V203.447H362.991Z" transform="translate(19754.393 -16274.492)" fill="#fff"/>
          <g id="组_7381" data-name="组 7381" transform="translate(20128.072 -16047.435)">
            <ellipse id="椭圆_459" data-name="椭圆 459" cx="12.054" cy="12.054" rx="12.054" ry="12.054" transform="translate(0 9.226) rotate(-22.5)" fill="#f8c200"/>
            <path id="路径_17771" data-name="路径 17771" d="M305.05,193.2,295.4,182.847a.487.487,0,0,1,.72-.655l9.037,9.685L323.3,176.928a.482.482,0,1,1,.612.72Z" transform="translate(-291.202 -174.625)" fill="#0e2549"/>
            <path id="路径_17772" data-name="路径 17772" d="M406.614,183.035H341.943a.482.482,0,1,1,0-.965h64.671a.482.482,0,0,1,0,.965Z" transform="translate(-304.129 -176.117)" fill="#0e2549"/>
            <path id="路径_17773" data-name="路径 17773" d="M361.7,201.625h-18.3a.482.482,0,1,1,0-.965h18.3a.482.482,0,1,1,0,.965Z" transform="translate(-304.533 -181.321)" fill="#0e2549"/>
          </g>
          <g id="组_7382" data-name="组 7382" transform="translate(20131.289 -16000.684)">
            <path id="路径_17774" data-name="路径 17774" d="M306.617,289.313a12.537,12.537,0,1,1,12.537-12.537A12.537,12.537,0,0,1,306.617,289.313Zm0-24.108a11.572,11.572,0,1,0,11.572,11.572A11.572,11.572,0,0,0,306.617,265.2Z" transform="translate(-294.08 -264.24)" fill="#0e2549"/>
            <path id="路径_17775" data-name="路径 17775" d="M406.614,269.625H341.943a.482.482,0,1,1,0-.965h64.671a.482.482,0,0,1,0,.965Z" transform="translate(-307.342 -265.477)" fill="#0e2549"/>
            <path id="路径_17776" data-name="路径 17776" d="M361.7,288.245h-18.3a.482.482,0,1,1,0-.965h18.3a.482.482,0,1,1,0,.965Z" transform="translate(-307.747 -270.691)" fill="#0e2549"/>
          </g>
          <g id="组_7383" data-name="组 7383" transform="translate(20131.289 -15960.36)">
            <path id="路径_17777" data-name="路径 17777" d="M306.617,289.313a12.537,12.537,0,1,1,12.537-12.537A12.537,12.537,0,0,1,306.617,289.313Zm0-24.108a11.572,11.572,0,1,0,11.572,11.572A11.572,11.572,0,0,0,306.617,265.2Z" transform="translate(-294.08 -264.24)" fill="#0e2549"/>
            <path id="路径_17778" data-name="路径 17778" d="M406.614,269.625H341.943a.482.482,0,1,1,0-.965h64.671a.482.482,0,0,1,0,.965Z" transform="translate(-307.342 -265.477)" fill="#0e2549"/>
            <path id="路径_17779" data-name="路径 17779" d="M361.7,288.245h-18.3a.482.482,0,1,1,0-.965h18.3a.482.482,0,1,1,0,.965Z" transform="translate(-307.747 -270.691)" fill="#0e2549"/>
          </g>
        </g>
        <rect id="矩形_5451" data-name="矩形 5451" width="230" height="44" transform="translate(19487 -15882)" fill="#4595e0"/>
        <g id="组_7385" data-name="组 7385" transform="translate(-5607.293 -8752.708) rotate(22)">
          <path id="路径_17780" data-name="路径 17780" d="M695.995,387.764l-3.016-1.185a1.62,1.62,0,1,1,1.185-3.016l3.016,1.185a1.62,1.62,0,0,1-1.185,3.016Z" transform="translate(19964.229 -16509.146)" fill="#6c63ff"/>
          <path id="路径_17781" data-name="路径 17781" d="M768.1,407.848l-59.607-23.412a2.541,2.541,0,0,0-2.328.246l-2.385-.937a2.228,2.228,0,0,0-2.889,1.26l-.74,1.884a2.229,2.229,0,0,0,1.26,2.889l1.984.779a2.541,2.541,0,0,0,1.545,2.928L764.545,416.9a2.548,2.548,0,0,0,3.3-1.44l1.692-4.307a2.548,2.548,0,0,0-1.44-3.3Z" transform="translate(19959.289 -16509.232)" fill="#3f3d56"/>
          <path id="路径_17782" data-name="路径 17782" d="M877.246,459.134l-22.409-8.8,4.739-12.065,22.409,8.8a4.016,4.016,0,0,1,2.267,5.2l-1.806,4.6A4.016,4.016,0,0,1,877.246,459.134Z" transform="translate(19864.24 -16542.795)" fill="#2f2e41"/>
          <path id="路径_17783" data-name="路径 17783" d="M902.413,470.328,891.5,466.04a2.239,2.239,0,0,1-1.264-2.9l.339-.862a2.239,2.239,0,0,1,2.9-1.265l10.918,4.288a2.239,2.239,0,0,1,1.264,2.9l-.339.862A2.239,2.239,0,0,1,902.413,470.328Z" transform="translate(19842.609 -16556.662)" fill="#6c63ff"/>
        </g>
      </g>
      <g id="组_7392" data-name="组 7392">
        <rect id="矩形_5452" data-name="矩形 5452" width="230" height="159" transform="translate(19487 -15997)" fill="#232996"/>
        <g id="组_7390" data-name="组 7390" transform="translate(-584.804 90.992)">
          <path id="路径_17784" data-name="路径 17784" d="M362.991,385.553h130.36V203.447H362.991Z" transform="translate(19754.393 -16274.492)" fill="#fff"/>
          <g id="组_7387" data-name="组 7387" transform="translate(20128.072 -16047.435)">
            <ellipse id="椭圆_460" data-name="椭圆 460" cx="12.054" cy="12.054" rx="12.054" ry="12.054" transform="translate(0 9.226) rotate(-22.5)" fill="#f8c200"/>
            <path id="路径_17785" data-name="路径 17785" d="M305.05,193.2,295.4,182.847a.487.487,0,0,1,.72-.655l9.037,9.685L323.3,176.928a.482.482,0,1,1,.612.72Z" transform="translate(-291.202 -174.625)" fill="#0e2549"/>
            <path id="路径_17786" data-name="路径 17786" d="M406.614,183.035H341.943a.482.482,0,1,1,0-.965h64.671a.482.482,0,0,1,0,.965Z" transform="translate(-304.129 -176.117)" fill="#0e2549"/>
            <path id="路径_17787" data-name="路径 17787" d="M361.7,201.625h-18.3a.482.482,0,1,1,0-.965h18.3a.482.482,0,1,1,0,.965Z" transform="translate(-304.533 -181.321)" fill="#0e2549"/>
          </g>
          <g id="组_7388" data-name="组 7388" transform="translate(20131.289 -16000.684)">
            <path id="路径_17788" data-name="路径 17788" d="M306.617,289.313a12.537,12.537,0,1,1,12.537-12.537A12.537,12.537,0,0,1,306.617,289.313Zm0-24.108a11.572,11.572,0,1,0,11.572,11.572A11.572,11.572,0,0,0,306.617,265.2Z" transform="translate(-294.08 -264.24)" fill="#0e2549"/>
            <path id="路径_17789" data-name="路径 17789" d="M406.614,269.625H341.943a.482.482,0,1,1,0-.965h64.671a.482.482,0,0,1,0,.965Z" transform="translate(-307.342 -265.477)" fill="#0e2549"/>
            <path id="路径_17790" data-name="路径 17790" d="M361.7,288.245h-18.3a.482.482,0,1,1,0-.965h18.3a.482.482,0,1,1,0,.965Z" transform="translate(-307.747 -270.691)" fill="#0e2549"/>
          </g>
          <g id="组_7389" data-name="组 7389" transform="translate(20131.289 -15960.36)">
            <path id="路径_17791" data-name="路径 17791" d="M306.617,289.313a12.537,12.537,0,1,1,12.537-12.537A12.537,12.537,0,0,1,306.617,289.313Zm0-24.108a11.572,11.572,0,1,0,11.572,11.572A11.572,11.572,0,0,0,306.617,265.2Z" transform="translate(-294.08 -264.24)" fill="#0e2549"/>
            <path id="路径_17792" data-name="路径 17792" d="M406.614,269.625H341.943a.482.482,0,1,1,0-.965h64.671a.482.482,0,0,1,0,.965Z" transform="translate(-307.342 -265.477)" fill="#0e2549"/>
            <path id="路径_17793" data-name="路径 17793" d="M361.7,288.245h-18.3a.482.482,0,1,1,0-.965h18.3a.482.482,0,1,1,0,.965Z" transform="translate(-307.747 -270.691)" fill="#0e2549"/>
          </g>
        </g>
        <rect id="矩形_5453" data-name="矩形 5453" width="230" height="44" transform="translate(19487 -15882)" fill="#4595e0"/>
        <g id="组_7391" data-name="组 7391" transform="translate(-5607.293 -8752.708) rotate(22)">
          <path id="路径_17794" data-name="路径 17794" d="M695.995,387.764l-3.016-1.185a1.62,1.62,0,1,1,1.185-3.016l3.016,1.185a1.62,1.62,0,0,1-1.185,3.016Z" transform="translate(19964.229 -16509.146)" fill="#6c63ff"/>
          <path id="路径_17795" data-name="路径 17795" d="M768.1,407.848l-59.607-23.412a2.541,2.541,0,0,0-2.328.246l-2.385-.937a2.228,2.228,0,0,0-2.889,1.26l-.74,1.884a2.229,2.229,0,0,0,1.26,2.889l1.984.779a2.541,2.541,0,0,0,1.545,2.928L764.545,416.9a2.548,2.548,0,0,0,3.3-1.44l1.692-4.307a2.548,2.548,0,0,0-1.44-3.3Z" transform="translate(19959.289 -16509.232)" fill="#3f3d56"/>
          <path id="路径_17796" data-name="路径 17796" d="M877.246,459.134l-22.409-8.8,4.739-12.065,22.409,8.8a4.016,4.016,0,0,1,2.267,5.2l-1.806,4.6A4.016,4.016,0,0,1,877.246,459.134Z" transform="translate(19864.24 -16542.795)" fill="#2f2e41"/>
          <path id="路径_17797" data-name="路径 17797" d="M902.413,470.328,891.5,466.04a2.239,2.239,0,0,1-1.264-2.9l.339-.862a2.239,2.239,0,0,1,2.9-1.265l10.918,4.288a2.239,2.239,0,0,1,1.264,2.9l-.339.862A2.239,2.239,0,0,1,902.413,470.328Z" transform="translate(19842.609 -16556.662)" fill="#6c63ff"/>
        </g>
      </g>
    </g>
    <path id="路径_17798" data-name="路径 17798" d="M-85.768,0h4.5c2.944,0,4.752-2.208,4.752-5.84,0-3.616-1.792-5.824-4.752-5.824h-4.5Zm1.488-1.312v-9.04h2.752c2.3,0,3.52,1.552,3.52,4.528,0,2.944-1.216,4.512-3.52,4.512Zm12.656-7.312c-2.352,0-3.776,1.68-3.776,4.5s1.408,4.5,3.792,4.5c2.352,0,3.792-1.68,3.792-4.432C-67.816-6.96-69.208-8.624-71.624-8.624Zm.016,1.232c1.5,0,2.4,1.232,2.4,3.312,0,1.968-.928,3.216-2.4,3.216-1.488,0-2.4-1.232-2.4-3.264C-74.008-6.144-73.1-7.392-71.608-7.392Zm11.792,1.824a3.041,3.041,0,0,0-3.312-3.056c-2.256,0-3.728,1.792-3.728,4.576,0,2.7,1.44,4.416,3.712,4.416A3.213,3.213,0,0,0-59.72-2.88h-1.344c-.224,1.344-.912,2.016-2.048,2.016-1.472,0-2.352-1.2-2.352-3.184,0-2.1.864-3.344,2.32-3.344A1.886,1.886,0,0,1-61.16-5.568ZM-57.288-2.5H-58.7C-58.632-.56-57.544.368-55.352.368c2.112,0,3.456-1.04,3.456-2.656,0-1.248-.7-1.936-2.368-2.336l-1.28-.3c-1.088-.256-1.552-.608-1.552-1.2,0-.768.688-1.264,1.776-1.264,1.072,0,1.648.464,1.68,1.344h1.408c-.016-1.648-1.1-2.576-3.04-2.576-1.952,0-3.216,1.008-3.216,2.56,0,1.312.672,1.936,2.656,2.416l1.248.3c.928.224,1.3.56,1.3,1.168,0,.784-.784,1.312-1.952,1.312C-56.872-.864-57.176-1.68-57.288-2.5ZM-41.88-.944c-2.64,0-3.3-1.5-3.3-2.688v-.08h-1.408C-46.536-.4-43.992.368-41.976.368c3.648,0,4.56-2.144,4.56-3.568A2.982,2.982,0,0,0-39.9-6.128l-2.928-.784c-1.408-.384-1.92-.832-1.92-1.728,0-1.184,1.04-1.968,2.608-1.968,1.856,0,2.9.848,2.912,2.368h1.408c-.016-2.288-1.584-3.616-4.272-3.616-2.56,0-4.144,1.312-4.144,3.424a2.636,2.636,0,0,0,2.288,2.72l2.9.768c1.472.384,2.144.976,2.144,1.888C-38.9-2.224-39.352-.944-41.88-.944Zm6.048-4.96h1.344c.112-1.024.72-1.488,1.968-1.488,1.2,0,1.872.448,1.872,1.248v.352c0,.56-.336.8-1.392.928-2.448.32-4.16.512-4.16,2.752A2.442,2.442,0,0,0-33.448.368,3.978,3.978,0,0,0-30.6-.864,1.208,1.208,0,0,0-29.224.368a3.266,3.266,0,0,0,.912-.144V-.784a1.1,1.1,0,0,1-.288.032c-.464,0-.72-.24-.72-.656V-6.336c0-1.488-1.088-2.288-3.152-2.288C-33.976-8.624-35.752-8.176-35.832-5.9ZM-33.16-.8c-1.04,0-1.648-.5-1.648-1.344,0-1.84,2.8-1.376,4.16-2v1.5A2.283,2.283,0,0,1-33.16-.8Zm9.328-7.584h-1.376v-2.3h-1.328v2.3h-1.136V-7.3h1.136V-.96c0,.848.576,1.328,1.616,1.328A5.96,5.96,0,0,0-23.832.256V-.864a2.467,2.467,0,0,1-.64.064c-.576,0-.736-.16-.736-.752V-7.3h1.376Zm2.72,0H-22.44V0h1.328Zm0-3.28h-1.344v1.68h1.344Zm3.1,9.168h-1.408C-19.352-.56-18.264.368-16.072.368c2.112,0,3.456-1.04,3.456-2.656,0-1.248-.7-1.936-2.368-2.336l-1.28-.3c-1.088-.256-1.552-.608-1.552-1.2,0-.768.688-1.264,1.776-1.264,1.072,0,1.648.464,1.68,1.344h1.408c-.016-1.648-1.1-2.576-3.04-2.576-1.952,0-3.216,1.008-3.216,2.56,0,1.312.672,1.936,2.656,2.416l1.248.3c.928.224,1.3.56,1.3,1.168,0,.784-.784,1.312-1.952,1.312C-17.592-.864-17.9-1.68-18.008-2.5Zm10.1-5.888H-9.3V-9.7c0-.56.32-.848.928-.848.112,0,.16,0,.464.016v-1.1a3.17,3.17,0,0,0-.752-.08,1.776,1.776,0,0,0-1.968,1.9v1.424h-1.12V-7.3h1.12V0H-9.3V-7.3h1.392ZM-6.744-5.9H-5.4c.112-1.024.72-1.488,1.968-1.488,1.2,0,1.872.448,1.872,1.248v.352c0,.56-.336.8-1.392.928-2.448.32-4.16.512-4.16,2.752A2.442,2.442,0,0,0-4.36.368,3.978,3.978,0,0,0-1.512-.864,1.208,1.208,0,0,0-.136.368,3.266,3.266,0,0,0,.776.224V-.784a1.1,1.1,0,0,1-.288.032c-.464,0-.72-.24-.72-.656V-6.336c0-1.488-1.088-2.288-3.152-2.288C-4.888-8.624-6.664-8.176-6.744-5.9ZM-4.072-.8c-1.04,0-1.648-.5-1.648-1.344,0-1.84,2.8-1.376,4.16-2v1.5A2.283,2.283,0,0,1-4.072-.8ZM8.616-5.568A3.041,3.041,0,0,0,5.3-8.624c-2.256,0-3.728,1.792-3.728,4.576,0,2.7,1.44,4.416,3.712,4.416A3.213,3.213,0,0,0,8.712-2.88H7.368C7.144-1.536,6.456-.864,5.32-.864c-1.472,0-2.352-1.2-2.352-3.184,0-2.1.864-3.344,2.32-3.344A1.886,1.886,0,0,1,7.272-5.568Zm4.736-2.816H11.976v-2.3H10.648v2.3H9.512V-7.3h1.136V-.96c0,.848.576,1.328,1.616,1.328A5.96,5.96,0,0,0,13.352.256V-.864a2.467,2.467,0,0,1-.64.064c-.576,0-.736-.16-.736-.752V-7.3h1.376Zm2.72,0H14.744V0h1.328Zm0-3.28H14.728v1.68h1.344Zm5.408,3.04c-2.352,0-3.776,1.68-3.776,4.5S19.112.368,21.5.368c2.352,0,3.792-1.68,3.792-4.432C25.288-6.96,23.9-8.624,21.48-8.624ZM21.5-7.392c1.5,0,2.4,1.232,2.4,3.312,0,1.968-.928,3.216-2.4,3.216-1.488,0-2.4-1.232-2.4-3.264C19.1-6.144,20.008-7.392,21.5-7.392Zm5.232-.992V0h1.344V-4.624c0-1.712.9-2.832,2.272-2.832a1.576,1.576,0,0,1,1.728,1.648V0H33.4V-6.336c0-1.392-1.04-2.288-2.656-2.288A2.99,2.99,0,0,0,27.96-6.976V-8.384Zm17.1,7.44c-2.64,0-3.3-1.5-3.3-2.688v-.08H39.128C39.176-.4,41.72.368,43.736.368c3.648,0,4.56-2.144,4.56-3.568a2.982,2.982,0,0,0-2.48-2.928l-2.928-.784c-1.408-.384-1.92-.832-1.92-1.728,0-1.184,1.04-1.968,2.608-1.968,1.856,0,2.9.848,2.912,2.368H47.9c-.016-2.288-1.584-3.616-4.272-3.616-2.56,0-4.144,1.312-4.144,3.424a2.636,2.636,0,0,0,2.288,2.72l2.9.768c1.472.384,2.144.976,2.144,1.888C46.808-2.224,46.36-.944,43.832-.944ZM56.664,0V-8.384H55.336v4.752c0,1.712-.9,2.832-2.288,2.832A1.576,1.576,0,0,1,51.32-2.448V-8.384H49.992V-1.92c0,1.392,1.04,2.288,2.672,2.288a3.092,3.092,0,0,0,2.8-1.536V0Zm5.952-7.216v-1.36a3.207,3.207,0,0,0-.512-.048c-.864,0-1.52.512-2.288,1.76v-1.52H58.584V0h1.344V-4.352C59.928-6.7,61-7.184,62.616-7.216ZM67.5,0l3.216-8.384h-1.5l-2.368,6.8-2.24-6.8H63.1L66.04,0ZM78.92-3.744c0-3.04-1.136-4.88-3.728-4.88-2.336,0-3.84,1.792-3.84,4.544S72.808.368,75.16.368a3.4,3.4,0,0,0,3.584-2.912H77.4a2.192,2.192,0,0,1-2.192,1.68c-1.552,0-2.432-1.168-2.464-2.88ZM72.776-4.832a2.456,2.456,0,0,1,2.4-2.56,2.374,2.374,0,0,1,2.32,2.56ZM85.448-8.384l-2.32,6.528L80.984-8.384H79.56L82.392.032,81.88,1.36a1.022,1.022,0,0,1-1.072.816,3.306,3.306,0,0,1-.7-.1v1.2a1.808,1.808,0,0,0,.9.208A2.265,2.265,0,0,0,83.16,1.76L86.888-8.384Z" transform="translate(20112 -15481)" fill="#fff"/>
  </g>
</svg>
