<svg xmlns="http://www.w3.org/2000/svg" xmlns:xlink="http://www.w3.org/1999/xlink" width="230" height="159" viewBox="0 0 230 159">
  <defs>
    <clipPath id="clip-path">
      <rect id="矩形_5412" data-name="矩形 5412" width="230" height="159" transform="translate(19487 -15997)" fill="#232996"/>
    </clipPath>
  </defs>
  <g id="组_7322" data-name="组 7322" transform="translate(-19487 15802)">
    <g id="蒙版组_24" data-name="蒙版组 24" transform="translate(0 195)" clip-path="url(#clip-path)">
      <g id="组_7315" data-name="组 7315">
        <rect id="矩形_5408" data-name="矩形 5408" width="230" height="159" transform="translate(19487 -15997)" fill="#232996"/>
        <g id="组_7313" data-name="组 7313" transform="translate(-584.804 90.992)">
          <path id="路径_17663" data-name="路径 17663" d="M362.991,385.553h130.36V203.447H362.991Z" transform="translate(19754.393 -16274.492)" fill="#fff"/>
          <g id="组_7310" data-name="组 7310" transform="translate(20128.072 -16047.435)">
            <ellipse id="椭圆_423" data-name="椭圆 423" cx="12.054" cy="12.054" rx="12.054" ry="12.054" transform="translate(0 9.226) rotate(-22.5)" fill="#f8c200"/>
            <path id="路径_17664" data-name="路径 17664" d="M305.05,193.2,295.4,182.847a.487.487,0,0,1,.72-.655l9.037,9.685L323.3,176.928a.482.482,0,1,1,.612.72Z" transform="translate(-291.202 -174.625)" fill="#0e2549"/>
            <path id="路径_17665" data-name="路径 17665" d="M406.614,183.035H341.943a.482.482,0,1,1,0-.965h64.671a.482.482,0,0,1,0,.965Z" transform="translate(-304.129 -176.117)" fill="#0e2549"/>
            <path id="路径_17666" data-name="路径 17666" d="M361.7,201.625h-18.3a.482.482,0,1,1,0-.965h18.3a.482.482,0,1,1,0,.965Z" transform="translate(-304.533 -181.321)" fill="#0e2549"/>
          </g>
          <g id="组_7311" data-name="组 7311" transform="translate(20131.289 -16000.684)">
            <path id="路径_17667" data-name="路径 17667" d="M306.617,289.313a12.537,12.537,0,1,1,12.537-12.537A12.537,12.537,0,0,1,306.617,289.313Zm0-24.108a11.572,11.572,0,1,0,11.572,11.572A11.572,11.572,0,0,0,306.617,265.2Z" transform="translate(-294.08 -264.24)" fill="#0e2549"/>
            <path id="路径_17668" data-name="路径 17668" d="M406.614,269.625H341.943a.482.482,0,1,1,0-.965h64.671a.482.482,0,0,1,0,.965Z" transform="translate(-307.342 -265.477)" fill="#0e2549"/>
            <path id="路径_17669" data-name="路径 17669" d="M361.7,288.245h-18.3a.482.482,0,1,1,0-.965h18.3a.482.482,0,1,1,0,.965Z" transform="translate(-307.747 -270.691)" fill="#0e2549"/>
          </g>
          <g id="组_7312" data-name="组 7312" transform="translate(20131.289 -15960.36)">
            <path id="路径_17670" data-name="路径 17670" d="M306.617,289.313a12.537,12.537,0,1,1,12.537-12.537A12.537,12.537,0,0,1,306.617,289.313Zm0-24.108a11.572,11.572,0,1,0,11.572,11.572A11.572,11.572,0,0,0,306.617,265.2Z" transform="translate(-294.08 -264.24)" fill="#0e2549"/>
            <path id="路径_17671" data-name="路径 17671" d="M406.614,269.625H341.943a.482.482,0,1,1,0-.965h64.671a.482.482,0,0,1,0,.965Z" transform="translate(-307.342 -265.477)" fill="#0e2549"/>
            <path id="路径_17672" data-name="路径 17672" d="M361.7,288.245h-18.3a.482.482,0,1,1,0-.965h18.3a.482.482,0,1,1,0,.965Z" transform="translate(-307.747 -270.691)" fill="#0e2549"/>
          </g>
        </g>
        <rect id="矩形_5409" data-name="矩形 5409" width="230" height="44" transform="translate(19487 -15882)" fill="#4595e0"/>
        <g id="组_7314" data-name="组 7314" transform="translate(-5607.293 -8752.708) rotate(22)">
          <path id="路径_17673" data-name="路径 17673" d="M695.995,387.764l-3.016-1.185a1.62,1.62,0,1,1,1.185-3.016l3.016,1.185a1.62,1.62,0,0,1-1.185,3.016Z" transform="translate(19964.229 -16509.146)" fill="#6c63ff"/>
          <path id="路径_17674" data-name="路径 17674" d="M768.1,407.848l-59.607-23.412a2.541,2.541,0,0,0-2.328.246l-2.385-.937a2.228,2.228,0,0,0-2.889,1.26l-.74,1.884a2.229,2.229,0,0,0,1.26,2.889l1.984.779a2.541,2.541,0,0,0,1.545,2.928L764.545,416.9a2.548,2.548,0,0,0,3.3-1.44l1.692-4.307a2.548,2.548,0,0,0-1.44-3.3Z" transform="translate(19959.289 -16509.232)" fill="#3f3d56"/>
          <path id="路径_17675" data-name="路径 17675" d="M877.246,459.134l-22.409-8.8,4.739-12.065,22.409,8.8a4.016,4.016,0,0,1,2.267,5.2l-1.806,4.6A4.016,4.016,0,0,1,877.246,459.134Z" transform="translate(19864.24 -16542.795)" fill="#2f2e41"/>
          <path id="路径_17676" data-name="路径 17676" d="M902.413,470.328,891.5,466.04a2.239,2.239,0,0,1-1.264-2.9l.339-.862a2.239,2.239,0,0,1,2.9-1.265l10.918,4.288a2.239,2.239,0,0,1,1.264,2.9l-.339.862A2.239,2.239,0,0,1,902.413,470.328Z" transform="translate(19842.609 -16556.662)" fill="#6c63ff"/>
        </g>
      </g>
      <g id="组_7321" data-name="组 7321">
        <rect id="矩形_5410" data-name="矩形 5410" width="230" height="159" transform="translate(19487 -15997)" fill="#232996"/>
        <g id="组_7319" data-name="组 7319" transform="translate(-584.804 90.992)">
          <path id="路径_17677" data-name="路径 17677" d="M362.991,385.553h130.36V203.447H362.991Z" transform="translate(19754.393 -16274.492)" fill="#fff"/>
          <g id="组_7316" data-name="组 7316" transform="translate(20128.072 -16047.435)">
            <ellipse id="椭圆_424" data-name="椭圆 424" cx="12.054" cy="12.054" rx="12.054" ry="12.054" transform="translate(0 9.226) rotate(-22.5)" fill="#f8c200"/>
            <path id="路径_17678" data-name="路径 17678" d="M305.05,193.2,295.4,182.847a.487.487,0,0,1,.72-.655l9.037,9.685L323.3,176.928a.482.482,0,1,1,.612.72Z" transform="translate(-291.202 -174.625)" fill="#0e2549"/>
            <path id="路径_17679" data-name="路径 17679" d="M406.614,183.035H341.943a.482.482,0,1,1,0-.965h64.671a.482.482,0,0,1,0,.965Z" transform="translate(-304.129 -176.117)" fill="#0e2549"/>
            <path id="路径_17680" data-name="路径 17680" d="M361.7,201.625h-18.3a.482.482,0,1,1,0-.965h18.3a.482.482,0,1,1,0,.965Z" transform="translate(-304.533 -181.321)" fill="#0e2549"/>
          </g>
          <g id="组_7317" data-name="组 7317" transform="translate(20131.289 -16000.684)">
            <path id="路径_17681" data-name="路径 17681" d="M306.617,289.313a12.537,12.537,0,1,1,12.537-12.537A12.537,12.537,0,0,1,306.617,289.313Zm0-24.108a11.572,11.572,0,1,0,11.572,11.572A11.572,11.572,0,0,0,306.617,265.2Z" transform="translate(-294.08 -264.24)" fill="#0e2549"/>
            <path id="路径_17682" data-name="路径 17682" d="M406.614,269.625H341.943a.482.482,0,1,1,0-.965h64.671a.482.482,0,0,1,0,.965Z" transform="translate(-307.342 -265.477)" fill="#0e2549"/>
            <path id="路径_17683" data-name="路径 17683" d="M361.7,288.245h-18.3a.482.482,0,1,1,0-.965h18.3a.482.482,0,1,1,0,.965Z" transform="translate(-307.747 -270.691)" fill="#0e2549"/>
          </g>
          <g id="组_7318" data-name="组 7318" transform="translate(20131.289 -15960.36)">
            <path id="路径_17684" data-name="路径 17684" d="M306.617,289.313a12.537,12.537,0,1,1,12.537-12.537A12.537,12.537,0,0,1,306.617,289.313Zm0-24.108a11.572,11.572,0,1,0,11.572,11.572A11.572,11.572,0,0,0,306.617,265.2Z" transform="translate(-294.08 -264.24)" fill="#0e2549"/>
            <path id="路径_17685" data-name="路径 17685" d="M406.614,269.625H341.943a.482.482,0,1,1,0-.965h64.671a.482.482,0,0,1,0,.965Z" transform="translate(-307.342 -265.477)" fill="#0e2549"/>
            <path id="路径_17686" data-name="路径 17686" d="M361.7,288.245h-18.3a.482.482,0,1,1,0-.965h18.3a.482.482,0,1,1,0,.965Z" transform="translate(-307.747 -270.691)" fill="#0e2549"/>
          </g>
        </g>
        <rect id="矩形_5411" data-name="矩形 5411" width="230" height="44" transform="translate(19487 -15882)" fill="#4595e0"/>
        <g id="组_7320" data-name="组 7320" transform="translate(-5607.293 -8752.708) rotate(22)">
          <path id="路径_17687" data-name="路径 17687" d="M695.995,387.764l-3.016-1.185a1.62,1.62,0,1,1,1.185-3.016l3.016,1.185a1.62,1.62,0,0,1-1.185,3.016Z" transform="translate(19964.229 -16509.146)" fill="#6c63ff"/>
          <path id="路径_17688" data-name="路径 17688" d="M768.1,407.848l-59.607-23.412a2.541,2.541,0,0,0-2.328.246l-2.385-.937a2.228,2.228,0,0,0-2.889,1.26l-.74,1.884a2.229,2.229,0,0,0,1.26,2.889l1.984.779a2.541,2.541,0,0,0,1.545,2.928L764.545,416.9a2.548,2.548,0,0,0,3.3-1.44l1.692-4.307a2.548,2.548,0,0,0-1.44-3.3Z" transform="translate(19959.289 -16509.232)" fill="#3f3d56"/>
          <path id="路径_17689" data-name="路径 17689" d="M877.246,459.134l-22.409-8.8,4.739-12.065,22.409,8.8a4.016,4.016,0,0,1,2.267,5.2l-1.806,4.6A4.016,4.016,0,0,1,877.246,459.134Z" transform="translate(19864.24 -16542.795)" fill="#2f2e41"/>
          <path id="路径_17690" data-name="路径 17690" d="M902.413,470.328,891.5,466.04a2.239,2.239,0,0,1-1.264-2.9l.339-.862a2.239,2.239,0,0,1,2.9-1.265l10.918,4.288a2.239,2.239,0,0,1,1.264,2.9l-.339.862A2.239,2.239,0,0,1,902.413,470.328Z" transform="translate(19842.609 -16556.662)" fill="#6c63ff"/>
        </g>
      </g>
    </g>
    <path id="路径_17691" data-name="路径 17691" d="M5.3-3.952c-.544.224-1.1.448-1.648.64v-5.12H5.44V-9.568H3.648V-13.2H2.5v3.632H.7v1.136H2.5v5.568c-.72.272-1.36.512-1.9.672L1.04-1.008C2.32-1.52,3.952-2.224,5.5-2.9ZM8.56-1.728A14,14,0,0,1,5.12.4a5.723,5.723,0,0,1,.736.832A19.257,19.257,0,0,0,9.584-1.056Zm2.608.7a22.617,22.617,0,0,1,3.12,2.256L15.072.4A22.616,22.616,0,0,0,11.9-1.744ZM7.856-3.872h4.912V-2.8H7.856Zm4.912-5.152V-8H7.856V-9.024Zm0,2.688H7.856V-7.28h4.912ZM7.856-5.6h4.912v.992H7.856Zm6,2.8V-9.856H10.208c.1-.336.192-.688.288-1.072H14.88V-11.9H10.72c.112-.464.208-.944.3-1.376L9.76-13.36c-.048.432-.112.944-.208,1.456H5.984v.976H9.376c-.064.384-.144.736-.224,1.072H6.8V-2.8H5.376v1.04h9.936V-2.8Zm11.392-8.224A13.128,13.128,0,0,0,24-13.472l-1.232.352a12.47,12.47,0,0,1,1.184,2.512Zm2.1,1.616a14.678,14.678,0,0,1-3.3,5.36,16.173,16.173,0,0,1-3.488-5.36Zm3.856,0v-1.168H16.864v1.168h2.464a18.026,18.026,0,0,0,3.84,6.192A17.209,17.209,0,0,1,16.64.1a6.625,6.625,0,0,1,.736,1.1,18.4,18.4,0,0,0,6.656-3.568,16.175,16.175,0,0,0,6.56,3.5,5.473,5.473,0,0,1,.816-1.1,15.714,15.714,0,0,1-6.464-3.248,16.884,16.884,0,0,0,3.744-6.192Zm14.384-2.944a22.947,22.947,0,0,1-1.568,3.84l.96.3c.544-.976,1.232-2.528,1.776-3.808ZM40.816-8.72a34.007,34.007,0,0,0-1.488-3.6l-.976.352A28.326,28.326,0,0,1,39.776-8.32ZM38.288-5.376c-.272-.448-1.568-2.256-2.032-2.832v-.64h2v-1.12h-2v-3.424H35.12v3.424h-2.3v1.12h2.1a17.553,17.553,0,0,1-2.448,6.032A6.4,6.4,0,0,1,33.1-1.76,17.2,17.2,0,0,0,35.12-6.416V1.216h1.136v-8c.48.8,1.056,1.792,1.312,2.3Zm4.768-7.952H41.92V-7.5H38.272v1.136H45.44V-4.3H38.48v1.088h6.96v2.16H37.92V.1h7.52v.992h1.168V-7.5H43.056Zm12.4,3.488h1.12v-1.216H59.2V-9.84h1.12v-1.216h2.752V-12.08H60.32v-1.28H59.2v1.28H56.576v-1.28h-1.12v1.28H52.784v1.024h2.672ZM51.92-7.168a16.849,16.849,0,0,0-2.5-1.5l-.7.832a13.689,13.689,0,0,1,2.464,1.6ZM50.1.864C50.88-.56,51.808-2.464,52.5-4.08l-.928-.752A48.235,48.235,0,0,1,49.04.112ZM49.5-12.224a16.478,16.478,0,0,1,2.384,1.776l.768-.88a17.119,17.119,0,0,0-2.416-1.68Zm7.584,5.312c.032-.448.032-.944.048-1.44H58.96c0,.5-.016.992-.032,1.44Zm6.08-1.44V-9.36H52.7v1.008h3.44c0,.5-.016.992-.032,1.44H53.12v8.08h1.152V-5.856h1.76a6.194,6.194,0,0,1-1.68,4.224,5.841,5.841,0,0,1,.8.7,6.112,6.112,0,0,0,1.408-2.5,8.262,8.262,0,0,1,.784,1.168l.688-.672A8.484,8.484,0,0,0,56.816-4.48c.08-.416.144-.9.192-1.376h1.84a7.416,7.416,0,0,1-1.7,4.672,4.166,4.166,0,0,1,.816.608,6.8,6.8,0,0,0,1.44-2.832A13.277,13.277,0,0,1,60.5-1.472l.8-.624a12.268,12.268,0,0,0-1.632-2.56q.1-.576.144-1.2H61.6V.016c0,.208-.064.256-.288.272-.192.016-.9.016-1.68,0a3.989,3.989,0,0,1,.336.816A8.039,8.039,0,0,0,62.16.96C62.576.8,62.7.576,62.7.016V-6.912H59.888c.016-.448.032-.944.048-1.44ZM66,.8a9.623,9.623,0,0,0,1.92-2.9l-.992-.448A8.112,8.112,0,0,1,65.04.24Zm9.856-6.752H68.208v-1.1h7.648Zm0,1.888H68.208v-1.1h7.648Zm1.168-3.808H67.072v4.624h4.016l-.544.512a13.632,13.632,0,0,1,2.48,1.792l.736-.736a12.6,12.6,0,0,0-2.288-1.568h5.552ZM70.928.1c-.832,0-.976-.08-.976-.448V-2.416H68.784V-.352c0,1.136.432,1.44,2.048,1.44H73.84c1.28,0,1.648-.432,1.776-2.192a3.825,3.825,0,0,1-1.024-.416C74.512-.1,74.416.1,73.728.1ZM75.84-2.272A12.4,12.4,0,0,1,77.872.56L78.88.048a12.882,12.882,0,0,0-2.1-2.736Zm-1.264-8.96a13.823,13.823,0,0,1-.736,1.584h-3.7a7.187,7.187,0,0,0-.7-1.584Zm.48,1.584c.24-.416.5-.88.752-1.376l-.928-.208h3.184v-.976h-5.1a7.875,7.875,0,0,0-.72-1.3l-1.152.24a9.39,9.39,0,0,1,.56,1.056H65.936v.976h3.408l-1.008.224a7.066,7.066,0,0,1,.576,1.36h-3.7v.976H78.88v-.976Zm8.176-1.04H95.12v-1.1H89.568a11.556,11.556,0,0,0-.816-1.68l-1.168.288c.224.416.448.944.64,1.392h-6.16v4.3c0,2.384-.128,5.776-1.424,8.176a4.124,4.124,0,0,1,1.056.544c1.344-2.512,1.536-6.176,1.536-8.72ZM91.2-7.9v1.68H87.328V-7.9Zm1.168,2.64V-7.9h2.576V-8.9H92.368v-1.376H91.2V-8.9H87.328v-1.376H86.192V-8.9h-2.56V-7.9h2.56v2.64Zm-.3,2A7.515,7.515,0,0,1,89.248-1.28a7.388,7.388,0,0,1-2.7-1.984ZM93.1-4.3l-.224.064H83.84v.976h2.1l-.56.224A8.029,8.029,0,0,0,87.952-.784a23.189,23.189,0,0,1-4.864.928,4.5,4.5,0,0,1,.512.992,22.912,22.912,0,0,0,5.6-1.28,19.207,19.207,0,0,0,5.456,1.376A4.356,4.356,0,0,1,95.328.208a20.9,20.9,0,0,1-4.8-.96A7.941,7.941,0,0,0,93.84-3.888Zm4.432,5.536H98.7V-9.792H97.536Zm.176-13.84a35.282,35.282,0,0,1,2.368,2.672l.88-.656a32.9,32.9,0,0,0-2.384-2.576ZM105.6-7.472v3.68h-3.344v-3.68ZM106.752-2.7V-8.56h-5.584v6.9h1.088V-2.7Zm3.712-9.776H101.7v1.1h7.6V-.448c0,.288-.1.384-.384.384-.256.016-1.216.032-2.176,0a4.592,4.592,0,0,1,.4,1.168A7.874,7.874,0,0,0,109.792.88c.5-.176.672-.544.672-1.312Zm6.048,7.3a11.838,11.838,0,0,0,1.6-1.632h3.632a8.883,8.883,0,0,0,1.472,1.632Zm10.5-1.632V-7.888H118.88a11.5,11.5,0,0,0,.96-1.728h6.08v-1.04h-2.512a21.267,21.267,0,0,0,1.376-1.968l-1.1-.352a16.792,16.792,0,0,1-1.456,2.32h-1.968a12.361,12.361,0,0,0,.688-2.64l-1.216-.128a13.1,13.1,0,0,1-.72,2.768h-2l.72-.416a8.666,8.666,0,0,0-1.424-1.936l-.912.48a12.545,12.545,0,0,1,1.312,1.872h-2.656v1.04h4.5a10.992,10.992,0,0,1-1.072,1.728h-4.416v1.072h3.488a12.173,12.173,0,0,1-3.936,2.7,3.43,3.43,0,0,1,.736.944,14.03,14.03,0,0,0,2.784-1.7V-.736c0,1.424.592,1.76,2.624,1.76h4.416c1.776,0,2.16-.528,2.352-2.608a4.54,4.54,0,0,1-1.088-.432c-.112,1.68-.272,1.968-1.312,1.968h-4.352c-1.264,0-1.488-.128-1.488-.7V-4.144H122.1c-.1,1.024-.208,1.472-.368,1.632-.112.112-.24.128-.544.128-.256,0-1.056,0-1.856-.08a2.515,2.515,0,0,1,.3.944,18.356,18.356,0,0,0,2.08.016,1.386,1.386,0,0,0,.992-.352c.3-.32.464-1.088.592-2.864a2.958,2.958,0,0,0,.016-.368,10.407,10.407,0,0,0,3.424,1.952,5.018,5.018,0,0,1,.784-.96,9.6,9.6,0,0,1-4.448-2.72Zm3.5,8.528A3.812,3.812,0,0,0,133.28-1.92c0-1.12-.48-1.84-1.36-1.84A1.125,1.125,0,0,0,130.7-2.608a1.1,1.1,0,0,0,1.2,1.136,1.552,1.552,0,0,0,.272-.016A2.782,2.782,0,0,1,130.16.864Zm16.08-11.568h11.584v-.832H147.584v-.9h11.648v-.848h-6.368c-.176-.336-.432-.768-.656-1.1l-1.12.256c.16.256.336.56.48.848H144.7v.848h1.888Zm6.944,8.448V-6.064h-3.792v4.752h.784v-3.92h2.208v3.824Zm2.7-6.1h-8.48v-.88h8.48Zm1.136-1.648H146.688v2.416h10.688Zm-10.784,6.9c.032-.368.048-.72.048-1.04v-.1h1.52v1.136Zm1.568-3.008v1.072h-1.52V-5.264Zm.9-.816h-3.3v2.768a6.054,6.054,0,0,1-1.1,3.984,2.6,2.6,0,0,1,.752.512,5.38,5.38,0,0,0,1.088-2.64h1.664v1.6c0,.16-.048.208-.208.208-.176.016-.688.016-1.3,0a3.211,3.211,0,0,1,.288.832,4.853,4.853,0,0,0,1.68-.144c.352-.16.432-.416.432-.9Zm4.32,5.872a9.781,9.781,0,0,0-1.552-1.408l-.1.08a13.6,13.6,0,0,0,.336-3.1H151.3c-.08,2.88-.368,4.336-2.24,5.184a2.521,2.521,0,0,1,.5.672,3.784,3.784,0,0,0,1.984-2.064A15.683,15.683,0,0,1,152.8.4ZM155.1-4.08V-5.216h1.776v3.488a15.288,15.288,0,0,0-1.28-2.56ZM158,.352a.2.2,0,0,1-.176-.064,1.946,1.946,0,0,1-.048-.656V-6.08h-3.552v2.624a5.555,5.555,0,0,1-1.44,4.192,3.118,3.118,0,0,1,.752.512A6.5,6.5,0,0,0,155.1-3.44v-.272a15.726,15.726,0,0,1,1.152,2.576l.624-.272V-.48c0,.976.048,1.2.24,1.376a.955.955,0,0,0,.688.24h.528a1,1,0,0,0,.56-.128.749.749,0,0,0,.336-.48,6.868,6.868,0,0,0,.144-1.44,1.98,1.98,0,0,1-.7-.368,10.038,10.038,0,0,1-.048,1.232.74.74,0,0,1-.144.336c-.032.048-.128.064-.208.064Zm7.6-9.36a17.191,17.191,0,0,1-1.376,5.2,20.547,20.547,0,0,0-1.84-1.328c.336-1.136.672-2.48.96-3.872Zm.512-1.152-.224.048h-2.32c.224-1.088.4-2.192.544-3.184l-1.168-.08c-.112,1.008-.3,2.144-.528,3.264h-1.68v1.1h1.472c-.352,1.616-.736,3.184-1.12,4.336a30.078,30.078,0,0,1,2.576,1.936A7.929,7.929,0,0,1,160.48.272a3.321,3.321,0,0,1,.752.944,9.284,9.284,0,0,0,3.328-3.184,15.8,15.8,0,0,1,1.648,1.744l.8-.976a13.461,13.461,0,0,0-1.856-1.856,19.877,19.877,0,0,0,1.68-6.928ZM175.3-6.64h-3.52V-8.176a18.459,18.459,0,0,0,3.04-3.5L174-12.272l-.272.064h-6.144v1.1h5.328a14.359,14.359,0,0,1-2.336,2.64V-6.64h-3.7V-5.5h3.7V-.192c0,.224-.1.3-.352.3-.24.016-1.12.016-2.064-.016a5.58,5.58,0,0,1,.448,1.136,8.087,8.087,0,0,0,2.5-.192c.5-.192.672-.528.672-1.232V-5.5h3.52Zm7.168-4.048-.224.048h-1.584l.9-.576a10.886,10.886,0,0,0-1.648-2.192l-.928.544a10.859,10.859,0,0,1,1.584,2.224h-3.344v1.088h4.4a13.779,13.779,0,0,1-4.992,5.1,4.908,4.908,0,0,1,.512,1.136,15.132,15.132,0,0,0,2.608-2.1V1.2H180.9V-5.632c.7.784,1.6,1.824,2,2.368l.736-.976c-.4-.416-1.856-1.968-2.56-2.624a13.948,13.948,0,0,0,2.032-3.36Zm4.448,10.4c-.7,0-.832-.144-.832-.976V-13.232h-1.168V-1.3c0,1.632.4,2.1,1.888,2.1h2.56c1.456,0,1.776-.9,1.92-3.5a3.115,3.115,0,0,1-1.088-.528c-.1,2.368-.208,2.944-.9,2.944Z" transform="translate(19506 -15660)" fill="#fff"/>
  </g>
</svg>
