<svg id="组_4351" data-name="组 4351" xmlns="http://www.w3.org/2000/svg" width="24" height="20.443" viewBox="0 0 24 20.443">
  <g id="组_4349" data-name="组 4349" transform="translate(0 0)">
    <g id="组_4339" data-name="组 4339" transform="translate(6.256 1.126)">
      <g id="组_4338" data-name="组 4338">
        <path id="路径_13571" data-name="路径 13571" d="M17.621,10.079a3.844,3.844,0,0,1-3.693,2.8H8.818v3.263a3.18,3.18,0,0,1-3.176,3.176H4.284a.866.866,0,0,1-.866-.866v-3.09A6.4,6.4,0,0,0,1.853,11.3L0,9.415,1.234,8.2,3.111,10.1c.016.016.031.032.045.049A8.139,8.139,0,0,1,5.15,15.361v2.223h.491a1.445,1.445,0,0,0,1.444-1.444V12.012a.866.866,0,0,1,.866-.866h5.977a2.114,2.114,0,0,0,2.03-1.554,1.417,1.417,0,0,0,.008-.73L14.72,2.629c-.038-.222-.153-.9-1.543-.9H.5V0H13.177c1.812,0,3,.852,3.246,2.313L17.66,8.5A3.075,3.075,0,0,1,17.621,10.079Z" fill="#172d72"/>
      </g>
    </g>
    <g id="组_4341" data-name="组 4341" transform="translate(0 0)">
      <g id="组_4340" data-name="组 4340">
        <path id="路径_13572" data-name="路径 13572" d="M6.786,13.456H.866A.866.866,0,0,1,0,12.589V.866A.866.866,0,0,1,.866,0H6.786a.866.866,0,0,1,.866.866V12.589A.866.866,0,0,1,6.786,13.456ZM5.919,1.732H1.732v9.991H5.919Z" fill="#172d72"/>
      </g>
    </g>
  </g>
</svg>
