<svg xmlns="http://www.w3.org/2000/svg" width="24" height="20.443" viewBox="0 0 24 20.443">
  <g id="组_4350" data-name="组 4350" transform="translate(10017 1204.688)">
    <g id="组_4349" data-name="组 4349" transform="translate(-10017 -1204.688)">
      <g id="组_4339" data-name="组 4339" transform="translate(6.256)">
        <g id="组_4338" data-name="组 4338">
          <path id="路径_13571" data-name="路径 13571" d="M165.259,135.6a3.844,3.844,0,0,0-3.693-2.8h-5.111v-3.263a3.18,3.18,0,0,0-3.176-3.176h-1.357a.866.866,0,0,0-.866.866v3.09a6.4,6.4,0,0,1-1.565,4.065l-1.853,1.881,1.234,1.216,1.877-1.906c.016-.016.031-.032.045-.049a8.139,8.139,0,0,0,1.995-5.208V128.1h.491a1.445,1.445,0,0,1,1.444,1.444v4.129a.866.866,0,0,0,.866.866h5.977a2.114,2.114,0,0,1,2.03,1.554,1.417,1.417,0,0,1,.008.73l-1.246,6.233c-.038.222-.153.9-1.543.9H148.139v1.732h12.676c1.812,0,3-.852,3.246-2.313l1.236-6.184A3.075,3.075,0,0,0,165.259,135.6Z" transform="translate(-147.638 -126.366)" fill="#172d72"/>
        </g>
      </g>
      <g id="组_4341" data-name="组 4341" transform="translate(0 6.988)">
        <g id="组_4340" data-name="组 4340">
          <path id="路径_13572" data-name="路径 13572" d="M36.425,258.179H30.505a.866.866,0,0,0-.866.866v11.723a.866.866,0,0,0,.866.866h5.919a.866.866,0,0,0,.866-.866V259.045A.866.866,0,0,0,36.425,258.179ZM35.558,269.9H31.371v-9.991h4.187Z" transform="translate(-29.639 -258.179)" fill="#172d72"/>
        </g>
      </g>
    </g>
  </g>
</svg>
