<svg xmlns="http://www.w3.org/2000/svg" width="14" height="14" viewBox="0 0 14 14">
  <path id="Icon_awesome-plus-circle" data-name="Icon awesome-plus-circle" d="M7.563.563a7,7,0,1,0,7,7A7,7,0,0,0,7.563.563Zm4.065,7.79a.34.34,0,0,1-.339.339h-2.6v2.6a.34.34,0,0,1-.339.339H6.772a.34.34,0,0,1-.339-.339v-2.6h-2.6A.34.34,0,0,1,3.5,8.353V6.772a.34.34,0,0,1,.339-.339h2.6v-2.6A.34.34,0,0,1,6.772,3.5H8.353a.34.34,0,0,1,.339.339v2.6h2.6a.34.34,0,0,1,.339.339Z" transform="translate(-0.563 -0.563)" fill="#6c7496"/>
</svg>
