<svg width="44" height="44" viewBox="0 0 44 44" fill="none" xmlns="http://www.w3.org/2000/svg">
<path d="M27.3866 8.55774H16.6137" stroke="#262A2C" stroke-miterlimit="10" stroke-linejoin="round"/>
<path d="M29.7424 24.4568H14.258" stroke="#262A2C" stroke-miterlimit="10" stroke-linejoin="round"/>
<path d="M26.7451 34.304C36.9997 14.9788 22.0001 0.945312 22.0001 0.945312C22.0001 0.945312 7.00089 14.9793 17.2556 34.304" stroke="#262A2C" stroke-miterlimit="10" stroke-linecap="round" stroke-linejoin="round"/>
<path d="M14.1761 27.5899C11.2967 28.6514 9.38409 31.3949 9.38409 34.4638V37.54" stroke="#262A2C" stroke-miterlimit="10" stroke-linecap="round" stroke-linejoin="round"/>
<path d="M29.8238 27.5899C32.7032 28.6514 34.6159 31.3949 34.6159 34.4638V37.54" stroke="#262A2C" stroke-miterlimit="10" stroke-linecap="round" stroke-linejoin="round"/>
<path d="M38.0958 39.9306C37.9466 38.6086 36.8252 37.581 35.4634 37.581C35.2404 37.581 35.024 37.6088 34.8171 37.6607C34.1509 37.236 33.3602 36.9895 32.5113 36.9895C31.9285 36.9895 31.3731 37.106 30.8662 37.3162C29.9208 35.5253 28.0411 34.304 25.8751 34.304C24.3739 34.304 23.0109 34.8915 22.0002 35.8475C20.9895 34.8914 19.6263 34.304 18.1252 34.304C15.9593 34.304 14.0795 35.5253 13.1341 37.3162C12.6272 37.1061 12.0718 36.9895 11.489 36.9895C10.6402 36.9895 9.84937 37.2359 9.18318 37.6607C8.97625 37.6088 8.75986 37.581 8.53693 37.581C7.17508 37.581 6.05377 38.6085 5.9045 39.9303C5.07262 40.5142 4.52881 41.4805 4.52881 42.5741V43.0547H39.4711V42.5741C39.4712 41.4807 38.9275 40.5145 38.0958 39.9306Z" stroke="#262A2C" stroke-miterlimit="10" stroke-linecap="round" stroke-linejoin="round"/>
<path d="M22.0003 19.1571C23.4637 19.1571 24.6501 17.9707 24.6501 16.5073C24.6501 15.0439 23.4637 13.8575 22.0003 13.8575C20.5368 13.8575 19.3505 15.0439 19.3505 16.5073C19.3505 17.9707 20.5368 19.1571 22.0003 19.1571Z" stroke="#9E4EC4" stroke-miterlimit="10" stroke-linecap="round" stroke-linejoin="round"/>
</svg>
