<svg width="44" height="44" viewBox="0 0 44 44" fill="none" xmlns="http://www.w3.org/2000/svg">
<g clip-path="url(#clip0_1473_5844)">
<path d="M14.0758 10.1284C21.3202 10.1284 27.1929 8.0855 27.1929 5.56545C27.1929 3.0454 21.3202 1.0025 14.0758 1.0025C6.83149 1.0025 0.958801 3.0454 0.958801 5.56545C0.958801 8.0855 6.83149 10.1284 14.0758 10.1284Z" stroke="#262A2C" stroke-miterlimit="10" stroke-linecap="round" stroke-linejoin="round"/>
<path d="M22.5082 35.8351C20.1855 36.561 17.4439 36.903 14.0758 36.903C6.83149 36.903 0.958803 34.8601 0.958803 32.3401H0.958374L0.958803 5.57861" stroke="#262A2C" stroke-miterlimit="10" stroke-linecap="round" stroke-linejoin="round"/>
<path d="M27.1929 5.57861L27.193 16.6975" stroke="#262A2C" stroke-miterlimit="10" stroke-linecap="round" stroke-linejoin="round"/>
<path d="M19.9577 27.3459C18.1887 27.6552 16.1906 27.8293 14.0758 27.8293C6.83149 27.8293 0.958801 25.7864 0.958801 23.2664" stroke="#262A2C" stroke-miterlimit="10" stroke-linejoin="round"/>
<path d="M27.1929 14.4159C27.1929 16.9359 21.3202 18.9788 14.0758 18.9788C6.83149 18.9788 0.958801 16.9359 0.958801 14.4159" stroke="#262A2C" stroke-miterlimit="10" stroke-linecap="round" stroke-linejoin="round"/>
<path d="M19.9596 28.4892V19.1724L31.2615 15.9216C31.4171 15.8768 31.5842 15.8768 31.7397 15.9216L43.0417 19.1724V28.4892C43.0417 35.626 34.0594 41.5707 31.9433 42.8721C31.6763 43.0363 31.325 43.0363 31.058 42.8721C28.9419 41.5707 19.9596 35.626 19.9596 28.4892Z" stroke="#9E4EC4" stroke-miterlimit="10" stroke-linecap="round" stroke-linejoin="round"/>
<path d="M31.5006 15.9216V42.9975" stroke="#9E4EC4" stroke-miterlimit="10" stroke-linecap="round" stroke-linejoin="round"/>
</g>
<defs>
<clipPath id="clip0_1473_5844">
<rect width="44" height="44" fill="white"/>
</clipPath>
</defs>
</svg>
