<svg width="44" height="44" viewBox="0 0 44 44" fill="none" xmlns="http://www.w3.org/2000/svg">
<path d="M12.9915 31.6631L10.3131 33.0781V36.5135" stroke="#9E4EC4" stroke-miterlimit="10" stroke-linejoin="round"/>
<path d="M30.9148 31.6136L33.6869 33.0781V36.4275" stroke="#9E4EC4" stroke-miterlimit="10" stroke-linejoin="round"/>
<path d="M22 33.5334V38.1563" stroke="#9E4EC4" stroke-miterlimit="10" stroke-linejoin="round"/>
<path d="M32.5273 23.6241C34.7377 23.6241 36.948 22.7809 38.6344 21.0945C42.0073 17.7216 42.0073 12.2531 38.6344 8.88027C36.7346 6.98045 34.1699 6.15089 31.6893 6.39126C29.6988 3.1258 26.1041 0.945312 22 0.945312C17.8959 0.945312 14.3012 3.1258 12.3106 6.39134C9.83004 6.15098 7.26541 6.98053 5.3655 8.88035C1.99263 12.2532 1.99263 17.7217 5.3655 21.0946C7.05194 22.781 9.26225 23.6242 11.4726 23.6242" stroke="#9E4EC4" stroke-miterlimit="10" stroke-linejoin="round"/>
<path d="M10.3131 41.326C11.642 41.326 12.7194 40.2487 12.7194 38.9197C12.7194 37.5908 11.642 36.5135 10.3131 36.5135C8.98418 36.5135 7.90686 37.5908 7.90686 38.9197C7.90686 40.2487 8.98418 41.326 10.3131 41.326Z" stroke="#262A2C" stroke-miterlimit="10" stroke-linecap="round" stroke-linejoin="round"/>
<path d="M36.0932 38.9197C36.0932 40.2487 35.0159 41.326 33.6869 41.326C32.358 41.326 31.2807 40.2487 31.2807 38.9197C31.2807 37.5908 32.358 36.5135 33.6869 36.5135C35.0159 36.5135 36.0932 37.5908 36.0932 38.9197Z" stroke="#262A2C" stroke-miterlimit="10" stroke-linecap="round" stroke-linejoin="round"/>
<path d="M22 43.0547C23.3289 43.0547 24.4062 41.9774 24.4062 40.6485C24.4062 39.3195 23.3289 38.2422 22 38.2422C20.6711 38.2422 19.5938 39.3195 19.5938 40.6485C19.5938 41.9774 20.6711 43.0547 22 43.0547Z" stroke="#262A2C" stroke-miterlimit="10" stroke-linecap="round" stroke-linejoin="round"/>
<path d="M22 16.8916C27.7429 16.8916 32.3984 15.1987 32.3984 13.1104C32.3984 11.0221 27.7429 9.32913 22 9.32913C16.2571 9.32913 11.6016 11.0221 11.6016 13.1104C11.6016 15.1987 16.2571 16.8916 22 16.8916Z" stroke="#262A2C" stroke-miterlimit="10" stroke-linecap="round" stroke-linejoin="round"/>
<path d="M32.3984 21.3883C32.3984 23.4767 27.7429 25.1696 22 25.1696C16.2571 25.1696 11.6016 23.4767 11.6016 21.3883" stroke="#262A2C" stroke-miterlimit="10" stroke-linecap="round" stroke-linejoin="round"/>
<path d="M32.3984 13.1104V29.6662C32.3984 31.7546 27.7429 33.4475 22 33.4475C16.2571 33.4475 11.6016 31.7546 11.6016 29.6662V13.1104" stroke="#262A2C" stroke-miterlimit="10" stroke-linecap="round" stroke-linejoin="round"/>
<circle cx="15.4375" cy="28.4935" r="1" fill="#262A2C"/>
<circle cx="19.2285" cy="29.2339" r="1" fill="#262A2C"/>
<circle cx="15.4375" cy="20.2396" r="1" fill="#262A2C"/>
<circle cx="19.2285" cy="20.9801" r="1" fill="#262A2C"/>
</svg>
