<svg width="44" height="44" viewBox="0 0 44 44" fill="none" xmlns="http://www.w3.org/2000/svg">
<g clip-path="url(#clip0_1473_4793)">
<path fill-rule="evenodd" clip-rule="evenodd" d="M21.4863 22.5136L0.94165 30.0547L9.40015 34.5999L13.9453 43.0584L21.4863 22.5136Z" stroke="#9E4EC4" stroke-miterlimit="10" stroke-linecap="round" stroke-linejoin="round"/>
<path fill-rule="evenodd" clip-rule="evenodd" d="M12.1028 5.24842C13.2445 4.94248 14.418 5.62002 14.7239 6.76171C15.0299 7.90339 14.3523 9.07684 13.2106 9.38278C12.0689 9.68864 10.8955 9.01118 10.5895 7.86949C10.2837 6.72781 10.9612 5.55428 12.1028 5.24842Z" stroke="#262A2C" stroke-miterlimit="22.9256" stroke-linecap="round" stroke-linejoin="round"/>
<path fill-rule="evenodd" clip-rule="evenodd" d="M25.5052 7.63929C26.6469 7.33335 27.8203 8.01089 28.1262 9.15258C28.4321 10.2943 27.7546 11.4677 26.613 11.7736C25.4713 12.0795 24.2978 11.402 23.9919 10.2604C23.686 9.11868 24.3636 7.94515 25.5052 7.63929Z" stroke="#262A2C" stroke-miterlimit="22.9256" stroke-linecap="round" stroke-linejoin="round"/>
<path fill-rule="evenodd" clip-rule="evenodd" d="M36.3357 1.01509C37.4773 0.709141 38.6509 1.38669 38.9567 2.52829C39.2627 3.66997 38.5851 4.84341 37.4434 5.14936C36.3018 5.4553 35.1283 4.77776 34.8225 3.63607C34.5166 2.49447 35.1941 1.32094 36.3357 1.01509Z" stroke="#262A2C" stroke-miterlimit="22.9256" stroke-linecap="round" stroke-linejoin="round"/>
<path fill-rule="evenodd" clip-rule="evenodd" d="M40.3638 16.0481C41.5055 15.7422 42.679 16.4197 42.9849 17.5614C43.2908 18.7031 42.6133 19.8765 41.4716 20.1825C40.3299 20.4884 39.1565 19.8109 38.8505 18.6692C38.5447 17.5275 39.2221 16.354 40.3638 16.0481Z" stroke="#262A2C" stroke-miterlimit="22.9256" stroke-linecap="round" stroke-linejoin="round"/>
<path d="M14.7639 7.69143L23.9519 9.33046M27.8851 8.58957L35.0637 4.19901M37.4435 5.14937L40.3639 16.0481M39.4339 19.6578L33.6127 25.7088" stroke="#262A2C" stroke-miterlimit="22.9256" stroke-linejoin="round"/>
<path fill-rule="evenodd" clip-rule="evenodd" d="M31.575 25.1842C32.7166 24.8783 33.8901 25.5558 34.196 26.6975C34.502 27.8392 33.8244 29.0126 32.6827 29.3185C31.5411 29.6245 30.3676 28.9469 30.0618 27.8053C29.7558 26.6636 30.4333 25.4901 31.575 25.1842Z" stroke="#262A2C" stroke-miterlimit="22.9256" stroke-linecap="round" stroke-linejoin="round"/>
</g>
<defs>
<clipPath id="clip0_1473_4793">
<rect width="44" height="44" fill="white"/>
</clipPath>
</defs>
</svg>
