<svg width="44" height="44" viewBox="0 0 45 46" fill="none" xmlns="http://www.w3.org/2000/svg">
<path d="M19.7499 16.0044V22.1384L14.2555 18.9987C14.0652 19.2715 13.8937 19.5585 13.7432 19.8577L19.2422 23L13.7432 26.1423C13.8937 26.4415 14.0652 26.7285 14.2555 27.0013L19.7499 23.8616V29.9956C19.8329 29.9985 19.9163 30 19.9999 30C20.2533 30 20.5035 29.9865 20.7499 29.9603V23.8616L25.8831 26.7948C26.0635 26.5156 26.2246 26.2228 26.3645 25.9182L21.2577 23L26.3645 20.0818C26.2246 19.7772 26.0635 19.4844 25.8831 19.2052L20.7499 22.1384V16.0397C20.5035 16.0135 20.2533 16 19.9999 16C19.9163 16 19.8329 16.0015 19.7499 16.0044Z" fill="#262A2C"/>
<path d="M19.75 10.0024C19.8332 10.0008 19.9165 10 20 10C20.2518 10 20.5018 10.0072 20.75 10.0213V1H19.75V10.0024Z" fill="#9E4EC4"/>
<path d="M31.0975 16.2255C31.2712 16.5094 31.4343 16.8004 31.5862 17.0981L39.7481 12.4341L39.2519 11.5659L31.0975 16.2255Z" fill="#9E4EC4"/>
<path d="M31.5862 28.9019C31.4343 29.1996 31.2712 29.4906 31.0975 29.7745L39.2519 34.4341L39.7481 33.5659L31.5862 28.9019Z" fill="#9E4EC4"/>
<path d="M20.75 35.9787C20.5018 35.9928 20.2518 36 20 36C19.9165 36 19.8332 35.9992 19.75 35.9976V45H20.75V35.9787Z" fill="#9E4EC4"/>
<path d="M9.03407 29.985C8.855 29.7045 8.68641 29.4166 8.52883 29.1219L0.751953 33.5659L1.24809 34.4341L9.03407 29.985Z" fill="#9E4EC4"/>
<path d="M9.03407 16.015L1.24809 11.5659L0.751953 12.4341L8.52883 16.8781C8.6864 16.5834 8.855 16.2955 9.03407 16.015Z" fill="#9E4EC4"/>
<path d="M20.25 0.424133L13.7343 4.14737L14.2343 5.0134L20.25 1.57588L25.8897 4.79858L26.3897 3.93254L20.25 0.424133Z" fill="#9E4EC4"/>
<path d="M33.3357 7.90169L32.8357 8.76773L39 12.2902V19H40V11.7098L33.3357 7.90169Z" fill="#9E4EC4"/>
<path d="M40 27H39V33.7098L32.8359 37.2322L33.3359 38.0982L40 34.2902V27Z" fill="#9E4EC4"/>
<path d="M26.3899 42.0674L25.8899 41.2014L20.25 44.4241L14.2342 40.9865L13.7342 41.8526L20.25 45.5759L26.3899 42.0674Z" fill="#9E4EC4"/>
<path d="M6.78817 37.8834L7.28817 37.0174L1.5 33.7098V27H0.5V34.2902L6.78817 37.8834Z" fill="#9E4EC4"/>
<path d="M0.5 19H1.5V12.2902L7.28833 8.98255L6.78832 8.11652L0.5 11.7098V19Z" fill="#9E4EC4"/>
</svg>
