<svg xmlns="http://www.w3.org/2000/svg" width="60" height="60" viewBox="0 0 60 60">
  <g id="组_5402" data-name="组 5402" transform="translate(-544 -1155)">
    <g id="组_5400" data-name="组 5400" transform="translate(544 1155)">
      <rect id="矩形_4524" data-name="矩形 4524" width="60" height="60" fill="none"/>
    </g>
    <g id="组_5401" data-name="组 5401" transform="translate(554.897 1163.572)">
      <rect id="矩形_4525" data-name="矩形 4525" width="38.571" height="12.857" fill="#2c2c2c"/>
      <rect id="矩形_4526" data-name="矩形 4526" width="38.571" height="12.857" transform="translate(0 15)" fill="#2c2c2c"/>
      <rect id="矩形_4527" data-name="矩形 4527" width="38.571" height="12.857" transform="translate(0 30)" fill="#2c2c2c"/>
      <rect id="矩形_4528" data-name="矩形 4528" width="8.754" height="4.286" transform="translate(25.519 4.286)" fill="#00aeef"/>
      <circle id="椭圆_343" data-name="椭圆 343" cx="2.143" cy="2.143" r="2.143" transform="translate(3.869 4.286)" fill="#5b62e8"/>
      <circle id="椭圆_344" data-name="椭圆 344" cx="2.143" cy="2.143" r="2.143" transform="translate(10.506 4.286)" fill="#5b62e8"/>
      <rect id="矩形_4529" data-name="矩形 4529" width="8.754" height="4.286" transform="translate(25.727 19.286)" fill="#00aeef"/>
      <circle id="椭圆_345" data-name="椭圆 345" cx="2.143" cy="2.143" r="2.143" transform="translate(4.077 19.286)" fill="#5b62e8"/>
      <circle id="椭圆_346" data-name="椭圆 346" cx="2.143" cy="2.143" r="2.143" transform="translate(10.714 19.286)" fill="#5b62e8"/>
      <rect id="矩形_4530" data-name="矩形 4530" width="8.754" height="4.286" transform="translate(25.519 34.286)" fill="#00aeef"/>
      <circle id="椭圆_347" data-name="椭圆 347" cx="2.143" cy="2.143" r="2.143" transform="translate(3.869 34.286)" fill="#5b62e8"/>
      <circle id="椭圆_348" data-name="椭圆 348" cx="2.143" cy="2.143" r="2.143" transform="translate(10.506 34.286)" fill="#5b62e8"/>
    </g>
  </g>
</svg>
