<svg width="44" height="44" viewBox="0 0 44 44" fill="none" xmlns="http://www.w3.org/2000/svg">
<path fill-rule="evenodd" clip-rule="evenodd" d="M3.09375 43.0547V4.38281C3.09375 2.49219 4.64062 0.945312 6.53125 0.945312H30.5938C28.7031 0.945312 27.1562 2.49219 27.1562 4.38281V43.0547L24.1484 40.9062L21.1406 43.0547L18.1328 40.9062L15.125 43.0547L12.1172 40.9062L9.10938 43.0547L6.10156 40.9062L3.09375 43.0547Z" stroke="#262A2C" stroke-miterlimit="22.9256" stroke-linecap="round" stroke-linejoin="round"/>
<path d="M30.5938 0.945312C32.4844 0.945312 34.0312 2.49219 34.0312 4.38281V25.0078C34.0312 26.8984 35.5781 28.4453 37.4688 28.4453M37.4688 28.4453C39.3594 28.4453 40.9062 26.8984 40.9062 25.0078V14.6953H34.4609M37.4688 28.4453H27.5859" stroke="#262A2C" stroke-miterlimit="22.9256" stroke-linecap="round" stroke-linejoin="round"/>
<path d="M16.435 6.37637L15.9719 6.18455C15.1021 5.8243 14.0958 6.2411 13.7356 7.11096C13.3753 7.98065 13.7921 8.98698 14.6618 9.34731L15.125 9.53904L15.5881 9.73085C16.4578 10.0911 16.8746 11.0974 16.5143 11.9672C16.1541 12.8371 15.1478 13.2538 14.278 12.8936L13.8149 12.7018" stroke="#262A2C" stroke-miterlimit="22.9256" stroke-linecap="round" stroke-linejoin="round"/>
<path d="M15.125 5.77088V4.8125" stroke="#262A2C" stroke-miterlimit="22.9256" stroke-linecap="round" stroke-linejoin="round"/>
<path d="M15.125 14.2656V13.2213" stroke="#262A2C" stroke-miterlimit="22.9256" stroke-linecap="round" stroke-linejoin="round"/>
<path d="M22.8594 18.9922H7.39072" stroke="#9E4EC4" stroke-miterlimit="22.9256" stroke-linecap="round" stroke-linejoin="round"/>
<path d="M15.1251 23.2891H7.39062" stroke="#9E4EC4" stroke-miterlimit="22.9256" stroke-linecap="round" stroke-linejoin="round"/>
<path d="M22.8594 27.5859H7.39072" stroke="#9E4EC4" stroke-miterlimit="22.9256" stroke-linecap="round" stroke-linejoin="round"/>
<path d="M15.1251 31.8828H7.39062" stroke="#9E4EC4" stroke-miterlimit="22.9256" stroke-linecap="round" stroke-linejoin="round"/>
<path d="M22.8594 36.1796H7.39062" stroke="#9E4EC4" stroke-miterlimit="22.9256" stroke-linecap="round" stroke-linejoin="round"/>
</svg>
