<svg width="44" height="44" viewBox="0 0 44 44" fill="none" xmlns="http://www.w3.org/2000/svg">
<g clip-path="url(#clip0_1473_7150)">
<path d="M16.2443 22H22V27.7584C22.3832 27.576 22.8113 27.4742 23.2633 27.4742C24.8901 27.4742 26.2109 28.7951 26.2109 30.4219C26.2109 32.0487 24.8901 33.3695 23.2633 33.3695C22.8113 33.3695 22.3832 33.2678 22 33.0853V38.8438H16.2443C16.4268 38.4606 16.5285 38.0324 16.5285 37.5805C16.5285 35.9537 15.2078 34.6328 13.5809 34.6328C11.954 34.6328 10.6332 35.9537 10.6332 37.5805C10.6332 38.0324 10.735 38.4606 10.9174 38.8438H5.15625V33.0853C4.77305 33.2677 4.34491 33.3694 3.89297 33.3694C2.26617 33.3695 0.945312 32.0487 0.945312 30.4219C0.945312 28.7951 2.26617 27.4742 3.89297 27.4742C4.34491 27.4742 4.77305 27.576 5.15625 27.7584V22H10.9175C10.7351 22.3832 10.6333 22.8113 10.6333 23.2633C10.6333 24.8901 11.9541 26.2109 13.581 26.2109C15.2078 26.2109 16.5286 24.8901 16.5286 23.2633C16.5285 22.8113 16.4269 22.3832 16.2443 22Z" stroke="#9E4EC4" stroke-miterlimit="10" stroke-linecap="round" stroke-linejoin="round"/>
<path d="M33.0881 5.15625H38.8438V10.9147C39.2269 10.7322 39.6551 10.6304 40.107 10.6304C41.7338 10.6304 43.0547 11.9512 43.0547 13.578C43.0547 15.2048 41.7338 16.5257 40.107 16.5257C39.6551 16.5257 39.2269 16.4239 38.8438 16.2415V22H33.0881C33.2705 21.6168 33.3723 21.1887 33.3723 20.7367C33.3723 19.1099 32.0515 17.7891 30.4246 17.7891C28.7977 17.7891 27.477 19.1099 27.477 20.7367C27.477 21.1887 27.5787 21.6168 27.7612 22H22V16.2415C21.6168 16.4239 21.1887 16.5257 20.7367 16.5257C19.1099 16.5257 17.7891 15.2048 17.7891 13.578C17.7891 11.9512 19.1099 10.6304 20.7367 10.6304C21.1887 10.6304 21.6168 10.7321 22 10.9147V5.15625H27.7613C27.5788 5.53945 27.4771 5.96759 27.4771 6.41953C27.4771 8.04633 28.7978 9.36719 30.4247 9.36719C32.0515 9.36719 33.3724 8.04633 33.3724 6.41953C33.3723 5.96759 33.2706 5.53945 33.0881 5.15625Z" stroke="#9E4EC4" stroke-miterlimit="10" stroke-linecap="round" stroke-linejoin="round"/>
<path d="M22 16.2443V22H16.2415C16.4239 22.3832 16.5258 22.8113 16.5258 23.2633C16.5258 24.8901 15.2049 26.2109 13.5781 26.2109C11.9513 26.2109 10.6305 24.8901 10.6305 23.2633C10.6305 22.8113 10.7322 22.3832 10.9148 22H5.15625V16.2443C5.53945 16.4268 5.96759 16.5286 6.41953 16.5286C8.04633 16.5286 9.36719 15.2078 9.36719 13.581C9.36719 11.9542 8.04633 10.6333 6.41953 10.6333C5.96759 10.6333 5.53945 10.7351 5.15625 10.9176V5.15625H10.9148C10.7323 4.77305 10.6305 4.34491 10.6305 3.89297C10.6305 2.26617 11.9513 0.945312 13.5781 0.945312C15.2049 0.945312 16.5258 2.26617 16.5258 3.89297C16.5258 4.34491 16.424 4.77305 16.2415 5.15625H22V10.9175C21.6168 10.7351 21.1887 10.6332 20.7367 10.6332C19.1099 10.6332 17.7891 11.9541 17.7891 13.5809C17.7891 15.2077 19.1099 16.5285 20.7367 16.5285C21.1887 16.5286 21.6168 16.4268 22 16.2443Z" stroke="#262A2C" stroke-miterlimit="10" stroke-linecap="round" stroke-linejoin="round"/>
<path d="M38.8438 33.0881V38.8438H33.0853C33.2677 39.2269 33.3695 39.6551 33.3695 40.107C33.3695 41.7338 32.0487 43.0547 30.4219 43.0547C28.7951 43.0547 27.4742 41.7338 27.4742 40.107C27.4742 39.6551 27.576 39.2269 27.7585 38.8438H22V33.0881C22.3832 33.2705 22.8113 33.3723 23.2633 33.3723C24.8901 33.3723 26.2109 32.0514 26.2109 30.4246C26.2109 28.7978 24.8901 27.477 23.2633 27.477C22.8113 27.477 22.3832 27.5787 22 27.7612V22H27.7585C27.5761 21.6168 27.4742 21.1887 27.4742 20.7367C27.4742 19.1099 28.7951 17.7891 30.4219 17.7891C32.0487 17.7891 33.3695 19.1099 33.3695 20.7367C33.3695 21.1887 33.2678 21.6168 33.0853 22H38.8438V27.7613C38.4606 27.5788 38.0324 27.4771 37.5805 27.4771C35.9537 27.4771 34.6328 28.7979 34.6328 30.4247C34.6328 32.0515 35.9537 33.3724 37.5805 33.3724C38.0324 33.3723 38.4606 33.2705 38.8438 33.0881Z" stroke="#262A2C" stroke-miterlimit="10" stroke-linecap="round" stroke-linejoin="round"/>
</g>
<defs>
<clipPath id="clip0_1473_7150">
<rect width="44" height="44" fill="white"/>
</clipPath>
</defs>
</svg>
