<svg xmlns="http://www.w3.org/2000/svg" width="60" height="60" viewBox="0 0 60 60">
  <g id="组_747" data-name="组 747" transform="translate(-541 -555)">
    <g id="组_746" data-name="组 746" transform="translate(541 555)">
      <g id="组_745" data-name="组 745" transform="translate(4.661 13.544)">
        <rect id="矩形_59" data-name="矩形 59" width="46.337" height="26.557" transform="translate(4.341)" fill="#484dd3"/>
        <rect id="矩形_60" data-name="矩形 60" width="46.337" height="26.557" transform="translate(0 6.355)" fill="#2c2c2c"/>
        <g id="组_744" data-name="组 744" transform="translate(18.309 11.13)">
          <path id="路径_3922" data-name="路径 3922" d="M820.568,906.917h1.159v1.532a4.611,4.611,0,0,1,2.672.934,4.3,4.3,0,0,1,1.421,2.934h-1.982a2.422,2.422,0,0,0-.876-1.719,2.464,2.464,0,0,0-1.234-.45v4.281c1.382.525,2.186.84,2.372.915a3.59,3.59,0,0,1,.469,6.094,5.8,5.8,0,0,1-2.841.842v1.644h-1.159v-1.644a4.418,4.418,0,0,1-2.917-1.1,5,5,0,0,1-1.326-3.4h2.019a3.272,3.272,0,0,0,.765,2.169,2.385,2.385,0,0,0,1.459.617V916l-2.113-.782a3.322,3.322,0,0,1-1.963-3.1,3.214,3.214,0,0,1,1.4-2.8,4.767,4.767,0,0,1,2.672-.859Zm0,3.214a2.494,2.494,0,0,0-1.271.411,1.716,1.716,0,0,0-.767,1.568c0,.767.656,1.384,1.963,1.871.019,0,.039.017.075.017Zm1.159,10.429a3.519,3.519,0,0,0,1.5-.506,1.8,1.8,0,0,0,.8-1.532c0-.859-.656-1.532-1.963-1.982-.114-.036-.225-.092-.336-.129Z" transform="translate(-816.325 -906.917)" fill="#00aeef"/>
        </g>
      </g>
      <rect id="矩形_61" data-name="矩形 61" width="60" height="60" fill="none"/>
    </g>
  </g>
</svg>
