<?xml version="1.0" standalone="no"?><!DOCTYPE svg PUBLIC "-//W3C//DTD SVG 1.1//EN" "http://www.w3.org/Graphics/SVG/1.1/DTD/svg11.dtd"><svg t="1658325887560" class="icon" viewBox="0 0 1024 1024" version="1.1" xmlns="http://www.w3.org/2000/svg" p-id="3318" xmlns:xlink="http://www.w3.org/1999/xlink" width="200" height="200"><defs><style type="text/css">@font-face { font-family: feedback-iconfont; src: url("//at.alicdn.com/t/font_1031158_u69w8yhxdu.woff2?t=1630033759944") format("woff2"), url("//at.alicdn.com/t/font_1031158_u69w8yhxdu.woff?t=1630033759944") format("woff"), url("//at.alicdn.com/t/font_1031158_u69w8yhxdu.ttf?t=1630033759944") format("truetype"); }
</style></defs><path d="M512 146.285714a256 256 0 0 0-256 256h512a256 256 0 0 0-256-256z" fill="#5B62E8" p-id="3319"></path><path d="M512 402.285714m-182.857143 0a182.857143 182.857143 0 1 0 365.714286 0 182.857143 182.857143 0 1 0-365.714286 0Z" fill="#172D72" p-id="3320"></path><path d="M512 402.285714m-182.857143 0a182.857143 182.857143 0 1 0 365.714286 0 182.857143 182.857143 0 1 0-365.714286 0Z" fill="#172D72" p-id="3321"></path><path d="M743.131429 512a256 256 0 0 1-462.262858 0H146.285714v365.714286h731.428572V512z" fill="#E2E5EE" p-id="3322"></path></svg>