<svg xmlns="http://www.w3.org/2000/svg" width="60" height="60" viewBox="0 0 60 60">
  <g id="组_5409" data-name="组 5409" transform="translate(-1161 -1722)">
    <g id="组_1092" data-name="组 1092" transform="translate(1161 1722)">
      <rect id="矩形_72" data-name="矩形 72" width="60" height="60" fill="none"/>
    </g>
    <g id="组_5409-2" data-name="组 5409" transform="translate(1007.429 966.85)">
      <g id="组_1095" data-name="组 1095" transform="translate(162.571 763.7)">
        <g id="组_1094" data-name="组 1094">
          <g id="组_1093" data-name="组 1093">
            <path id="路径_4746" data-name="路径 4746" d="M115.252,136.118H89.562v42.857h34.285V144.723Z" transform="translate(-89.562 -136.118)" fill="#2c2c2c"/>
          </g>
          <rect id="矩形_73" data-name="矩形 73" width="10.82" height="4.299" transform="translate(4.26 8.464)" fill="#484dd3"/>
          <rect id="矩形_74" data-name="矩形 74" width="21.454" height="4.299" transform="translate(4.26 17.062)" fill="#484dd3"/>
          <rect id="矩形_75" data-name="矩形 75" width="10.82" height="4.299" transform="translate(4.26 25.66)" fill="#00aeef"/>
          <path id="路径_4747" data-name="路径 4747" d="M101.551,136.118l8.6,8.6h-8.571Z" transform="translate(-77.361 -134.618)" fill="#f7f8f9"/>
        </g>
        <line id="直线_3" data-name="直线 3" x2="8.595" y2="8.605" transform="translate(25.69)" fill="#172d72"/>
      </g>
      <g id="组_1101" data-name="组 1101" transform="translate(183.571 788.15)">
        <path id="路径_4736" data-name="路径 4736" d="M741.992,472.1a6.885,6.885,0,0,0-12.748,2.245,4.586,4.586,0,0,0,1.039,9.055c.157,0,.312-.008.465-.024h9.405c.154.012.308.024.466.024a5.732,5.732,0,0,0,1.373-11.3Z" transform="translate(-725.69 -468.646)" fill="#484dd3"/>
      </g>
      <g id="组_1102" data-name="组 1102" transform="translate(191.071 792.65)">
        <path id="路径_4737" data-name="路径 4737" d="M736.474,472.991l-3.119,1.8v1.8l1.56-.9v3.621l1.559.9h0v-5.418l1.559-.9Z" transform="translate(-733.355 -472.991)" fill="#f7f8f9"/>
        <path id="路径_4738" data-name="路径 4738" d="M738.3,475.8v3.61l1.566-.9v-3.61Z" transform="translate(-733.612 -473.089)" fill="#f7f8f9"/>
      </g>
    </g>
  </g>
</svg>
