<svg xmlns="http://www.w3.org/2000/svg" width="60" height="60" viewBox="0 0 60 60">
  <g id="组_1096" data-name="组 1096" transform="translate(-83.562 -132.128)">
    <g id="组_1092" data-name="组 1092" transform="translate(83.562 132.128)">
      <rect id="矩形_72" data-name="矩形 72" width="60" height="60" fill="none"/>
    </g>
    <g id="组_1095" data-name="组 1095" transform="translate(96.419 140.678)">
      <g id="组_1094" data-name="组 1094">
        <g id="组_1093" data-name="组 1093">
          <path id="路径_4746" data-name="路径 4746" d="M115.253,136.118H89.562v42.857h34.286V144.723Z" transform="translate(-89.562 -136.118)" fill="#2c2c2c"/>
        </g>
        <rect id="矩形_73" data-name="矩形 73" width="10.82" height="4.299" transform="translate(4.26 8.464)" fill="#484dd3"/>
        <rect id="矩形_74" data-name="矩形 74" width="21.454" height="4.299" transform="translate(4.26 17.062)" fill="#484dd3"/>
        <rect id="矩形_75" data-name="矩形 75" width="10.82" height="4.299" transform="translate(4.26 25.661)" fill="#00aeef"/>
        <path id="路径_4747" data-name="路径 4747" d="M101.551,136.118l8.6,8.6h-8.571Z" transform="translate(-77.361 -134.618)" fill="#f7f8f9"/>
        <g id="组_1098" data-name="组 1098" transform="translate(23.65 33.551)">
          <path id="路径_4743" data-name="路径 4743" d="M2060.438,153.729V156.6l2.488,1.436,2.488-1.436v-2.873l-2.488-1.436Z" transform="translate(-2060.438 -152.292)" fill="#f7f8f9"/>
          <g id="组_1098-2" data-name="组 1098" transform="translate(0.834 0.959)">
            <path id="路径_4744" data-name="路径 4744" d="M2098.3,193.923l-1.652.954v.954l.827-.477v1.921l.826.476h0v-2.874l.826-.477Z" transform="translate(-2096.644 -193.923)" fill="#2c2c2c"/>
            <path id="路径_4745" data-name="路径 4745" d="M2204.435,235.913v1.915l.829-.479v-1.915Z" transform="translate(-2201.952 -234.477)" fill="#2c2c2c"/>
          </g>
        </g>
      </g>
      <line id="直线_3" data-name="直线 3" x2="8.595" y2="8.605" transform="translate(25.69)" fill="#172d72"/>
    </g>
  </g>
</svg>
