<?xml version="1.0" standalone="no"?><!DOCTYPE svg PUBLIC "-//W3C//DTD SVG 1.1//EN" "http://www.w3.org/Graphics/SVG/1.1/DTD/svg11.dtd"><svg t="1658460432403" class="icon" viewBox="0 0 1024 1024" version="1.1" xmlns="http://www.w3.org/2000/svg" p-id="3318" xmlns:xlink="http://www.w3.org/1999/xlink" width="200" height="200"><defs><style type="text/css">@font-face { font-family: feedback-iconfont; src: url("//at.alicdn.com/t/font_1031158_u69w8yhxdu.woff2?t=1630033759944") format("woff2"), url("//at.alicdn.com/t/font_1031158_u69w8yhxdu.woff?t=1630033759944") format("woff"), url("//at.alicdn.com/t/font_1031158_u69w8yhxdu.ttf?t=1630033759944") format("truetype"); }
</style></defs><path d="M292.571429 731.428571m-146.285715 0a146.285714 146.285714 0 1 0 292.571429 0 146.285714 146.285714 0 1 0-292.571429 0Z" fill="#5B62E8" p-id="3319"></path><path d="M730.331429 220.16m-73.142858 0a73.142857 73.142857 0 1 0 146.285715 0 73.142857 73.142857 0 1 0-146.285715 0Z" fill="#5B62E8" p-id="3320"></path><path d="M521.142857 146.285714l110.08 223.451429 246.491429 35.84-178.468572 173.714286 42.057143 245.394285-220.16-115.931428-220.525714 115.931428 42.057143-245.394285-178.468572-173.714286 246.491429-35.84L521.142857 146.285714z" fill="#E2E5EE" p-id="3321"></path><path d="M438.857143 731.428571a146.285714 146.285714 0 0 0-98.742857-137.508571l-39.497143 230.765714 136.411428-73.142857A139.337143 139.337143 0 0 0 438.857143 731.428571z" fill="#172D72" p-id="3322"></path></svg>