<svg width="252" height="208" viewBox="0 0 252 208" fill="none" xmlns="http://www.w3.org/2000/svg">
<g clip-path="url(#clip0_1473_5010)">
<path fill-rule="evenodd" clip-rule="evenodd" d="M128.075 138.846L128.088 138.816L110.767 128.816L110.754 128.846L128.075 138.846Z" fill="#C8CED0"/>
<path fill-rule="evenodd" clip-rule="evenodd" d="M128.088 138.816L127.816 143.438C127.278 154.755 122.55 167.349 115.259 178.67C115.083 178.947 114.899 179.228 114.715 179.51C114.664 179.583 114.627 179.656 114.57 179.732C114.286 180.159 114 180.58 113.703 181.006C106.647 191.278 97.5016 200.307 87.4894 206.088C77.4774 211.868 68.9528 213.297 62.0036 211.477V211.484L44.6831 201.484V201.477C51.6323 203.297 60.1569 201.868 70.1689 196.088C80.1811 190.307 89.3262 181.278 96.3826 171.006C96.6796 170.58 96.9654 170.159 97.2495 169.732C97.3066 169.656 97.3439 169.583 97.395 169.51C97.5786 169.228 97.7621 168.947 97.9388 168.67C105.23 157.349 109.958 144.755 110.495 133.438L110.767 128.816L128.088 138.816Z" fill="#C8CED0"/>
<path fill-rule="evenodd" clip-rule="evenodd" d="M62.0037 211.484C62.0037 211.484 61.3459 211.309 60.6744 211.133C60.0039 210.958 59.3324 210.782 59.3261 210.778L42.0056 200.778C42.0119 200.782 42.6834 200.958 43.3539 201.133C44.0254 201.309 44.6832 201.484 44.6832 201.484L62.0037 211.484Z" fill="#C8CED0"/>
<path fill-rule="evenodd" clip-rule="evenodd" d="M59.326 210.778C58.2272 210.489 56.9452 209.877 55.6477 209.129L38.3271 199.129C39.6247 199.877 40.9067 200.489 42.0054 200.778L59.326 210.778Z" fill="#C8CED0"/>
<path fill-rule="evenodd" clip-rule="evenodd" d="M55.6476 209.129C53.7013 208.006 51.7199 206.573 50.2697 205.455L32.9492 195.455C34.3994 196.573 36.3808 198.006 38.3271 199.129L55.6476 209.129Z" fill="#C8CED0"/>
<path fill-rule="evenodd" clip-rule="evenodd" d="M50.2698 205.455C49.2194 204.695 48.1746 203.843 47.1559 202.875L34.986 191.881L32.549 189.867L19.455 179.07C16.1703 176.37 16.74 169.178 20.727 163.09C22.4671 160.427 24.575 158.407 26.6758 157.194C28.5748 156.097 30.4539 155.663 32.0429 156.017L14.7224 146.017C13.1334 145.663 11.2543 146.097 9.35533 147.194C7.25451 148.407 5.14659 150.427 3.40654 153.09C-0.580491 159.178 -1.15018 166.37 2.13447 169.07L15.2285 179.867L17.6654 181.881L29.8354 192.875C30.8541 193.843 31.8989 194.695 32.9493 195.455L50.2698 205.455Z" fill="#C8CED0"/>
<path fill-rule="evenodd" clip-rule="evenodd" d="M32.0429 156.017C32.0557 156.024 32.081 156.032 32.1065 156.039C32.2138 156.08 32.41 156.149 32.5872 156.237C32.637 156.257 32.6846 156.281 32.7291 156.307L15.4086 146.307C15.3641 146.281 15.3165 146.257 15.2667 146.237C15.0895 146.149 14.8933 146.08 14.786 146.039C14.7605 146.032 14.7351 146.024 14.7224 146.017L32.0429 156.017Z" fill="#C8CED0"/>
<path fill-rule="evenodd" clip-rule="evenodd" d="M32.7292 156.307C32.7642 156.327 32.7973 156.348 32.8281 156.369L15.5075 146.369C15.4768 146.348 15.4437 146.327 15.4087 146.307L32.7292 156.307Z" fill="#C8CED0"/>
<path fill-rule="evenodd" clip-rule="evenodd" d="M32.8281 156.369L39.2075 160.052L21.887 150.052L15.5076 146.369L32.8281 156.369Z" fill="#C8CED0"/>
<path fill-rule="evenodd" clip-rule="evenodd" d="M39.2075 160.052L39.6127 160.286L22.2922 150.286L21.887 150.052L39.2075 160.052Z" fill="#C8CED0"/>
<path fill-rule="evenodd" clip-rule="evenodd" d="M39.6125 160.286L46.2517 164.205L28.9312 154.205L22.292 150.286L39.6125 160.286Z" fill="#C8CED0"/>
<path fill-rule="evenodd" clip-rule="evenodd" d="M46.2519 164.205C46.9479 164.615 48.1381 163.358 48.1381 162.217V76.0075C48.1381 70.4898 52.0497 63.723 56.8336 60.961L57.0744 60.822C59.365 59.4995 61.4556 59.3314 63.0106 60.1243L45.6901 50.1243C44.1351 49.3314 42.0444 49.4995 39.7539 50.822L39.5131 50.961C34.7292 53.723 30.8176 60.4898 30.8176 66.0075V152.217C30.8176 153.358 29.6274 154.615 28.9314 154.205L46.2519 164.205Z" fill="#C8CED0"/>
<path fill-rule="evenodd" clip-rule="evenodd" d="M63.0105 60.1244C64.695 60.9834 65.7507 62.9701 65.7507 65.8388V116.76L48.4302 106.76V55.8388C48.4302 52.9701 47.3744 50.9834 45.6899 50.1244L63.0105 60.1244Z" fill="#C8CED0"/>
<path fill-rule="evenodd" clip-rule="evenodd" d="M65.7507 116.76L65.7761 116.745L48.4556 106.745L48.4302 106.76L65.7507 116.76Z" fill="#C8CED0"/>
<path fill-rule="evenodd" clip-rule="evenodd" d="M65.7761 116.745V118.426C65.7761 118.893 65.93 119.232 66.1824 119.411L48.8619 109.411C48.6095 109.232 48.4556 108.893 48.4556 108.426V106.745L65.7761 116.745Z" fill="#C8CED0"/>
<path fill-rule="evenodd" clip-rule="evenodd" d="M66.1826 119.411C66.5611 119.678 67.1611 119.585 67.7951 119.022C68.4912 118.408 68.9472 117.363 68.9472 116.53V114.915L68.9599 114.908V44.2119C68.9599 38.6943 72.8715 31.9275 77.6427 29.1729L77.8899 29.0302C80.1835 27.706 82.2772 27.5361 83.8345 28.3276L66.514 18.3276C64.9567 17.5361 62.863 17.706 60.5694 19.0302L60.3222 19.1729C55.551 21.9275 51.6394 28.6943 51.6394 34.2119V104.908L51.6267 104.915V106.53C51.6267 107.363 51.1707 108.408 50.4746 109.022C49.8406 109.585 49.2406 109.678 48.8621 109.411L66.1826 119.411Z" fill="#C8CED0"/>
<path fill-rule="evenodd" clip-rule="evenodd" d="M83.8344 28.3276C85.5215 29.1851 86.5789 31.1709 86.5789 34.0395V106.65C86.6218 107.017 86.7742 107.285 87.0007 107.429L69.6802 97.4295C69.4537 97.2845 69.3013 97.017 69.2584 96.6503V24.0395C69.2584 21.1709 68.201 19.1851 66.5139 18.3276L83.8344 28.3276Z" fill="#C8CED0"/>
<path fill-rule="evenodd" clip-rule="evenodd" d="M87.0007 107.43C87.3405 107.647 87.8472 107.589 88.4016 107.177C89.193 106.589 89.7436 105.423 89.7436 104.495V46.646C89.7436 41.1283 93.6607 34.3511 98.4263 31.5997L98.6734 31.457C100.964 30.1345 103.056 29.9673 104.612 30.7611L87.292 20.7611C85.7356 19.9673 83.6435 20.1345 81.3529 21.457L81.1058 21.5997C76.3402 24.3511 72.4231 31.1284 72.4231 36.646V94.4947C72.4231 95.4231 71.8724 96.5888 71.0811 97.1768C70.5266 97.5889 70.02 97.647 69.6802 97.4295L87.0007 107.43Z" fill="#C8CED0"/>
<path fill-rule="evenodd" clip-rule="evenodd" d="M104.613 30.761C106.299 31.6209 107.356 33.6087 107.356 36.4774V94.4206C107.356 94.8881 107.511 95.2265 107.764 95.4044L90.4438 85.4044C90.1905 85.2265 90.0355 84.8881 90.0355 84.4206V26.4774C90.0355 23.6087 88.9781 21.6209 87.292 20.761L104.613 30.761Z" fill="#C8CED0"/>
<path fill-rule="evenodd" clip-rule="evenodd" d="M107.764 95.4044C108.144 95.6713 108.745 95.5771 109.376 95.0161C110.078 94.3987 110.533 93.354 110.533 92.521V90.9062L110.559 90.8912V54.0634C110.559 48.5458 114.47 41.7721 119.254 39.0101L119.489 38.8746C121.786 37.5486 123.878 37.3811 125.433 38.1757L108.113 28.1757C106.558 27.3811 104.465 27.5486 102.169 28.8746L101.934 29.0101C97.1499 31.7721 93.2389 38.5458 93.2389 44.0634V80.8912L93.2129 80.9062V82.521C93.2129 83.354 92.7574 84.3987 92.0551 85.0161C91.4248 85.5771 90.8238 85.6713 90.4438 85.4044L107.764 95.4044Z" fill="#C8CED0"/>
<path fill-rule="evenodd" clip-rule="evenodd" d="M125.433 38.1758C127.118 39.0365 128.172 41.0263 128.172 43.8949V135.831L128.169 135.831C128.169 136.825 128.131 137.834 128.075 138.846L110.754 128.846C110.81 127.834 110.849 126.825 110.849 125.831L110.851 125.831V33.8949C110.851 31.0263 109.797 29.0365 108.113 28.1758L125.433 38.1758Z" fill="#C8CED0"/>
<path d="M126.873 44.645V134.502L126.87 134.502V136.582C126.87 137.532 126.834 138.505 126.779 139.495L126.576 143.132L126.52 144.082L126.519 144.092L126.519 144.103C126.003 154.948 121.472 167.06 114.421 178.008L114.415 178.018C114.252 178.273 114.083 178.532 113.903 178.807C113.87 178.857 113.843 178.899 113.823 178.931C113.818 178.94 113.812 178.948 113.808 178.956L113.807 178.956L113.757 179.031C113.483 179.443 113.211 179.845 112.928 180.25L112.922 180.259L112.917 180.267C106.089 190.206 97.2203 198.969 87.4895 204.588C77.7541 210.208 69.4964 211.585 62.7675 209.822L60.7047 209.282V209.287C60.6377 209.269 60.5742 209.253 60.5153 209.237C60.3892 209.204 60.2844 209.177 60.211 209.157L60.1754 209.148L60.1728 209.146L60.0907 209.124C57.4876 208.439 53.6908 205.787 51.2566 203.909L51.249 203.903L51.2413 203.898C50.211 203.153 49.1882 202.319 48.1923 201.372L48.1864 201.367L48.1804 201.361L36.0104 190.367L35.9999 190.357L35.9892 190.348L33.5523 188.335L33.5518 188.335L20.4577 177.537L20.457 177.536C17.6288 175.212 18.1208 169.012 21.5521 163.773L21.5541 163.77C23.051 161.479 24.8631 159.74 26.6758 158.694C28.2997 157.756 29.9002 157.382 31.2548 157.667C31.2604 157.669 31.2647 157.67 31.2674 157.671C31.2791 157.675 31.2908 157.678 31.301 157.681C31.3157 157.687 31.3306 157.693 31.3459 157.698C31.4581 157.74 31.5854 157.788 31.7035 157.846L31.7223 157.856L31.7419 157.864C31.783 157.881 31.8274 157.906 31.8704 157.935L31.8895 157.948L31.9094 157.959L38.2888 161.643L38.6889 161.874L38.6941 161.877L45.3281 165.794L45.3291 165.794C46.8471 166.687 49.4371 163.939 49.4371 161.468V75.2575C49.4371 70.5706 52.7651 64.8101 56.8336 62.4612L57.0743 62.3222C61.1282 59.9817 64.4517 61.8998 64.4517 66.5889V117.51V119.01L64.4772 118.995V119.176C64.4772 121.304 66.2266 121.966 68.1296 120.278C69.4719 119.092 70.2463 117.195 70.2463 115.78V115.665L70.259 115.658V114.158V43.462C70.259 38.7736 73.5882 33.0138 77.6427 30.673L77.8898 30.5303C81.9519 28.1851 85.2799 30.1027 85.2799 34.7897V107.4V107.495L85.2902 107.583C85.4865 109.261 86.9274 109.788 88.5863 108.555C90.1134 107.42 91.0427 105.301 91.0427 103.745V45.896C91.0427 41.2068 94.3782 35.4369 98.4264 33.0997L98.6735 32.957C102.727 30.6165 106.057 32.5383 106.057 37.2274V95.1705C106.057 97.2993 107.813 97.9558 109.709 96.2737C111.056 95.086 111.833 93.1888 111.833 91.7709V91.6562L111.858 91.6415V90.1415V53.3137C111.858 48.6253 115.187 42.8582 119.255 40.51L119.489 40.3747C123.554 38.0275 126.873 39.9545 126.873 44.645ZM113.776 179.007C113.772 179.013 113.773 179.012 113.777 179.006L113.776 179.007Z" stroke="#F5F8FA" stroke-width="3"/>
<path fill-rule="evenodd" clip-rule="evenodd" d="M142.097 171.846L142.084 171.816L159.405 161.816L159.417 161.846L142.097 171.846Z" fill="#EDF0F1"/>
<path fill-rule="evenodd" clip-rule="evenodd" d="M142.084 171.816L142.356 176.438C142.894 187.755 147.621 200.349 154.912 211.67C155.089 211.947 155.273 212.228 155.456 212.51C155.507 212.583 155.545 212.656 155.602 212.732C155.886 213.159 156.172 213.58 156.469 214.006C163.525 224.278 172.67 233.307 182.682 239.088C192.694 244.868 201.219 246.297 208.168 244.477V244.484C208.168 244.484 208.826 244.309 209.497 244.132C210.168 243.958 210.839 243.782 210.846 243.778L228.166 233.778C228.16 233.782 227.488 233.958 226.818 234.132C226.146 234.309 225.489 234.484 225.489 234.484V234.477C218.54 236.297 210.015 234.868 200.003 229.088C189.991 223.307 180.846 214.278 173.789 204.006C173.492 203.58 173.207 203.159 172.922 202.732C172.865 202.656 172.828 202.583 172.777 202.51C172.593 202.228 172.41 201.947 172.233 201.67C164.942 190.349 160.214 177.755 159.676 166.438L159.405 161.816L142.084 171.816Z" fill="#EDF0F1"/>
<path fill-rule="evenodd" clip-rule="evenodd" d="M219.902 238.455C220.952 237.695 221.997 236.843 223.016 235.875L235.186 224.881L250.717 212.069C254.001 209.37 253.432 202.178 249.444 196.09C247.705 193.427 245.597 191.406 243.496 190.193C241.597 189.097 239.718 188.663 238.129 189.017C238.116 189.024 238.091 189.032 238.066 189.039C237.958 189.08 237.762 189.149 237.585 189.237C237.535 189.257 237.487 189.281 237.443 189.307L254.763 179.307C254.808 179.281 254.856 179.257 254.906 179.237C255.082 179.149 255.279 179.08 255.386 179.039C255.411 179.032 255.436 179.024 255.449 179.017C257.039 178.663 258.918 179.097 260.816 180.193C262.917 181.406 265.025 183.427 266.765 186.09C270.752 192.178 271.322 199.37 268.037 202.069L252.507 214.881L240.336 225.875C239.318 226.843 238.273 227.695 237.222 228.455L219.902 238.455Z" fill="#EDF0F1"/>
<path fill-rule="evenodd" clip-rule="evenodd" d="M237.443 189.307C237.408 189.327 237.375 189.348 237.344 189.369L254.665 179.369C254.695 179.348 254.728 179.327 254.763 179.307L237.443 189.307Z" fill="#EDF0F1"/>
<path fill-rule="evenodd" clip-rule="evenodd" d="M237.344 189.369L230.559 193.285L247.879 183.285L254.665 179.369L237.344 189.369Z" fill="#EDF0F1"/>
<path fill-rule="evenodd" clip-rule="evenodd" d="M230.559 193.285L223.92 197.205L241.24 187.205L247.879 183.285L230.559 193.285Z" fill="#EDF0F1"/>
<path fill-rule="evenodd" clip-rule="evenodd" d="M223.92 197.205C223.224 197.615 222.034 196.358 222.034 195.217V109.007C222.034 103.49 218.122 96.723 213.338 93.961L213.097 93.822C210.807 92.4995 208.716 92.3314 207.161 93.1243L224.482 83.1243C226.037 82.3314 228.127 82.4995 230.418 83.822L230.659 83.961C235.443 86.723 239.354 93.4898 239.354 99.0075V185.217C239.354 186.358 240.544 187.615 241.24 187.205L223.92 197.205Z" fill="#EDF0F1"/>
<path fill-rule="evenodd" clip-rule="evenodd" d="M207.161 93.1243C205.477 93.9832 204.421 95.97 204.421 98.8387V149.76L221.742 139.76V88.8387C221.742 85.97 222.797 83.9832 224.482 83.1243L207.161 93.1243Z" fill="#EDF0F1"/>
<path fill-rule="evenodd" clip-rule="evenodd" d="M204.421 149.76L204.396 149.745L221.716 139.745L221.742 139.76L204.421 149.76Z" fill="#EDF0F1"/>
<path fill-rule="evenodd" clip-rule="evenodd" d="M204.396 149.745V151.426C204.396 151.893 204.242 152.232 203.989 152.411L221.31 142.411C221.562 142.232 221.716 141.893 221.716 141.426V139.745L204.396 149.745Z" fill="#EDF0F1"/>
<path fill-rule="evenodd" clip-rule="evenodd" d="M203.989 152.411C203.611 152.678 203.011 152.585 202.377 152.022C201.681 151.408 201.225 150.363 201.225 149.53V147.915L201.212 147.908V77.2119C201.212 71.6943 197.3 64.9275 192.529 62.1729L192.282 62.0302C189.988 60.706 187.895 60.5361 186.337 61.3276L203.658 51.3276C205.215 50.5361 207.309 50.706 209.603 52.0302L209.85 52.1729C214.621 54.9275 218.532 61.6943 218.532 67.2119V137.908L218.545 137.915V139.53C218.545 140.363 219.001 141.408 219.697 142.022C220.331 142.585 220.931 142.678 221.31 142.411L203.989 152.411Z" fill="#EDF0F1"/>
<path fill-rule="evenodd" clip-rule="evenodd" d="M186.337 61.3276C184.65 62.1851 183.593 64.1709 183.593 67.0395V139.65C183.55 140.017 183.398 140.285 183.171 140.429L200.492 130.429C200.718 130.285 200.87 130.017 200.913 129.65V57.0395C200.913 54.1709 201.971 52.1851 203.658 51.3276L186.337 61.3276Z" fill="#EDF0F1"/>
<path fill-rule="evenodd" clip-rule="evenodd" d="M183.171 140.429C182.831 140.647 182.325 140.589 181.77 140.177C180.979 139.589 180.428 138.423 180.428 137.495V79.6459C180.428 74.1283 176.511 67.351 171.745 64.5996L171.498 64.4569C169.208 63.1344 167.116 62.9672 165.559 63.7609L182.88 53.7609C184.436 52.9672 186.528 53.1344 188.819 54.4569L189.066 54.5996C193.831 57.351 197.749 64.1283 197.749 69.6459V127.495C197.749 128.423 198.299 129.589 199.091 130.177C199.645 130.589 200.152 130.647 200.491 130.429L183.171 140.429Z" fill="#EDF0F1"/>
<path fill-rule="evenodd" clip-rule="evenodd" d="M165.559 63.761C163.873 64.6209 162.816 66.6086 162.816 69.4773V127.42C162.816 127.888 162.661 128.226 162.407 128.404L179.728 118.404C179.981 118.226 180.136 117.888 180.136 117.42V59.4773C180.136 56.6086 181.193 54.6209 182.88 53.761L165.559 63.761Z" fill="#EDF0F1"/>
<path fill-rule="evenodd" clip-rule="evenodd" d="M162.407 128.404C162.028 128.671 161.427 128.577 160.797 128.016C160.094 127.399 159.638 126.354 159.638 125.521V123.906L159.613 123.891V87.0635C159.613 81.5459 155.701 74.7719 150.917 72.0099L150.683 71.8745C148.386 70.5486 146.294 70.3812 144.739 71.1757L162.059 61.1757C163.614 60.3812 165.707 60.5486 168.003 61.8745L168.238 62.0099C173.022 64.7719 176.933 71.5459 176.933 77.0635V113.891L176.959 113.906V115.521C176.959 116.354 177.415 117.399 178.117 118.016C178.747 118.577 179.348 118.671 179.728 118.404L162.407 128.404Z" fill="#EDF0F1"/>
<path fill-rule="evenodd" clip-rule="evenodd" d="M144.739 71.1758C143.054 72.0365 142 74.0262 142 76.8949V168.831L142.002 168.831C142.002 169.825 142.041 170.834 142.097 171.846L159.417 161.846C159.361 160.834 159.323 159.825 159.323 158.831L159.321 158.831V66.8949C159.321 64.0262 160.375 62.0365 162.059 61.1758L144.739 71.1758Z" fill="#EDF0F1"/>
<path d="M143.301 169.582V167.502L143.299 167.502V77.645C143.299 72.9545 146.617 71.0275 150.683 73.3747L150.917 73.51C154.984 75.8582 158.314 81.6253 158.314 86.3137V123.142V124.642L158.339 124.656V124.771C158.339 126.189 159.115 128.086 160.463 129.273C162.358 130.956 164.115 130.299 164.115 128.171V70.2274C164.115 65.5383 167.444 63.6165 171.498 65.957L171.745 66.0997C175.794 68.4369 179.129 74.2069 179.129 78.896V136.745C179.129 138.301 180.058 140.42 181.586 141.555C183.244 142.788 184.685 142.261 184.882 140.583L184.892 140.495V140.4V67.7897C184.892 63.1027 188.22 61.1851 192.282 63.5303L192.529 63.673C196.584 66.0138 199.913 71.7736 199.913 76.462V147.158V148.658L199.926 148.665V148.78C199.926 150.196 200.7 152.093 202.043 153.279C203.946 154.966 205.695 154.304 205.695 152.176V151.995L205.72 152.01V150.51V99.5889C205.72 94.8998 209.044 92.9817 213.097 95.3222L213.338 95.4612C217.407 97.8101 220.735 103.571 220.735 108.258V194.468C220.735 196.939 223.325 199.687 224.843 198.794L224.844 198.794L231.478 194.877L231.483 194.874L238.262 190.959L238.282 190.948L238.301 190.935C238.344 190.906 238.389 190.881 238.43 190.864L238.449 190.856L238.468 190.846C238.586 190.788 238.714 190.74 238.826 190.698C238.841 190.692 238.856 190.687 238.871 190.681C238.881 190.678 238.893 190.675 238.904 190.671L238.906 190.67C238.908 190.67 238.912 190.668 238.917 190.667C240.272 190.382 241.872 190.756 243.496 191.694C245.309 192.74 247.121 194.479 248.618 196.77L248.62 196.773C252.051 202.012 252.543 208.212 249.715 210.536L249.714 210.537L234.183 223.348L234.172 223.357L234.161 223.367L221.991 234.361L221.985 234.367L221.979 234.372C220.984 235.319 219.961 236.153 218.931 236.898L218.923 236.903L218.915 236.909C216.481 238.787 212.684 241.439 210.081 242.124L209.999 242.146L209.996 242.148L209.961 242.157C209.887 242.177 209.783 242.204 209.657 242.237C209.598 242.253 209.534 242.269 209.467 242.287V242.282L207.404 242.822C200.675 244.585 192.418 243.208 182.682 237.588C172.952 231.969 164.083 223.206 157.255 213.267L157.249 213.259L157.244 213.25C156.961 212.845 156.689 212.443 156.414 212.031L156.365 211.957L156.364 211.956C156.36 211.948 156.354 211.94 156.349 211.931C156.329 211.899 156.302 211.856 156.268 211.807C156.089 211.532 155.919 211.273 155.757 211.018L155.75 211.008C148.699 200.06 144.168 187.948 143.653 177.103L143.652 177.092L143.652 177.082L143.596 176.131L143.393 172.495C143.338 171.505 143.301 170.532 143.301 169.582ZM156.396 212.007L156.395 212.006C156.399 212.012 156.399 212.013 156.396 212.007Z" stroke="#C8CED0" stroke-width="3"/>
</g>
<defs>
<clipPath id="clip0_1473_5010">
<rect width="271" height="279.6" fill="white"/>
</clipPath>
</defs>
</svg>
