<svg width="44" height="44" viewBox="0 0 44 44" fill="none" xmlns="http://www.w3.org/2000/svg">
<path d="M39.2735 6.01562H43.0547V38.7822H25.3118C24.8473 40.1664 23.5406 41.1641 22 41.1641C20.4594 41.1641 19.1527 40.1664 18.6882 38.7822H0.945312V6.01562H4.72639" stroke="#262A2C" stroke-miterlimit="10" stroke-linecap="round" stroke-linejoin="round"/>
<path d="M39.1874 30.881V34.8907H22.0107" stroke="#262A2C" stroke-miterlimit="10" stroke-linejoin="round"/>
<path d="M4.79077 29.7345V34.8907H22.0108" stroke="#262A2C" stroke-miterlimit="10" stroke-linejoin="round"/>
<path d="M39.1876 34.8906V29.7344H27.2669C24.3826 29.7344 22.0547 32.0071 21.9893 34.8906" stroke="#262A2C" stroke-miterlimit="10" stroke-linejoin="round"/>
<path d="M4.79077 29.7344H16.7115C19.5958 29.7344 21.9237 32.0071 21.9892 34.8906" stroke="#262A2C" stroke-miterlimit="10" stroke-linejoin="round"/>
<path d="M4.79077 29.7344V2.83594H16.7115C19.5958 2.83594 21.9237 5.10864 21.9892 7.99219C22.0547 5.10864 24.3825 2.83594 27.2669 2.83594H39.1875V29.7344" stroke="#262A2C" stroke-miterlimit="10" stroke-linecap="round" stroke-linejoin="round"/>
<path d="M21.9893 7.99219V34.8906" stroke="#262A2C" stroke-miterlimit="10" stroke-linejoin="round"/>
<path d="M35.0626 8.41345H26.1143" stroke="#DC150B" stroke-miterlimit="10" stroke-linecap="round" stroke-linejoin="round"/>
<path d="M35.0626 12.3666H26.1143" stroke="#DC150B" stroke-miterlimit="10" stroke-linecap="round" stroke-linejoin="round"/>
<path d="M35.0626 16.3197H26.1143" stroke="#DC150B" stroke-miterlimit="10" stroke-linecap="round" stroke-linejoin="round"/>
<path d="M35.0626 20.2728H26.1143" stroke="#DC150B" stroke-miterlimit="10" stroke-linecap="round" stroke-linejoin="round"/>
<path d="M35.0626 24.226H26.1143" stroke="#DC150B" stroke-miterlimit="10" stroke-linecap="round" stroke-linejoin="round"/>
<path d="M8.91577 8.41345H17.8641" stroke="#DC150B" stroke-miterlimit="10" stroke-linecap="round" stroke-linejoin="round"/>
<path d="M8.91577 12.3666H17.8641" stroke="#DC150B" stroke-miterlimit="10" stroke-linecap="round" stroke-linejoin="round"/>
<path d="M8.91577 16.3197H17.8641" stroke="#DC150B" stroke-miterlimit="10" stroke-linecap="round" stroke-linejoin="round"/>
<path d="M8.91577 20.2728H17.8641" stroke="#DC150B" stroke-miterlimit="10" stroke-linecap="round" stroke-linejoin="round"/>
<path d="M8.91577 24.226H17.8641" stroke="#DC150B" stroke-miterlimit="10" stroke-linecap="round" stroke-linejoin="round"/>
</svg>
