<svg width="44" height="44" viewBox="0 0 44 44" fill="none" xmlns="http://www.w3.org/2000/svg">
<g clip-path="url(#clip0_1473_4998)">
<path d="M15.5477 19.6625C13.4302 19.6625 11.708 21.5875 11.708 23.9525C11.708 26.3175 13.4268 28.239 15.5477 28.239C17.6686 28.239 19.3839 26.3175 19.3839 23.9525C19.3839 21.5875 17.6618 19.6625 15.5477 19.6625ZM15.5477 26.8812C14.1727 26.8812 13.083 25.575 13.083 23.9697C13.083 22.3644 14.1864 21.0547 15.5477 21.0547C16.9089 21.0547 18.0089 22.3609 18.0089 23.9697C18.0089 25.5784 16.9055 26.864 15.5477 26.864V26.8812Z" fill="#DC150B"/>
<path d="M41.8791 20.4807C40.9385 16.7989 39.6111 13.2269 37.9191 9.82441C37.8615 9.71698 37.7775 9.62592 37.6751 9.55972C36.0137 8.57102 34.2604 7.7456 32.4398 7.09503C29.0641 5.86785 27.4691 5.84378 27.4038 5.84378C27.237 5.84214 27.0753 5.90122 26.9488 6.01C26.8223 6.11878 26.7397 6.26984 26.7163 6.43503L26.5101 7.86847C23.5062 7.57055 20.4802 7.57055 17.4763 7.86847L17.2701 6.43503C17.2467 6.26984 17.1641 6.11878 17.0376 6.01C16.9111 5.90122 16.7494 5.84214 16.5826 5.84378C16.5173 5.84378 14.9223 5.84378 11.5466 7.08472C9.73038 7.7394 7.98172 8.56826 6.32508 9.55972C6.22268 9.62592 6.13871 9.71698 6.08102 9.82441C4.38888 13.2269 3.0615 16.7989 2.12102 20.4807C0.343834 27.6582 8.38232e-05 31.2503 8.38232e-05 31.3982C-0.00827774 31.491 0.00234285 31.5846 0.0312995 31.6733C0.0602561 31.7619 0.106943 31.8438 0.168521 31.9138C1.9356 33.7825 4.06411 35.2724 6.42477 36.2932C8.59817 37.2176 10.8865 37.8443 13.2276 38.1563C13.359 38.1684 13.4911 38.1424 13.6081 38.0814C13.7251 38.0205 13.8222 37.9271 13.8876 37.8125L15.7438 34.6328C17.8104 34.9848 19.9038 35.1562 22.0001 35.145C24.0966 35.1539 26.1899 34.9802 28.2563 34.626L30.1126 37.8125C30.1726 37.9164 30.2587 38.0028 30.3624 38.0631C30.4662 38.1235 30.5839 38.1556 30.7038 38.1563H30.7726C33.1119 37.8484 35.399 37.2263 37.572 36.3069C39.9326 35.2862 42.0611 33.7962 43.8282 31.9275C43.8898 31.8575 43.9365 31.7757 43.9654 31.687C43.9944 31.5984 44.005 31.5048 43.9966 31.4119C44.0001 31.2503 43.6735 27.6582 41.8791 20.4807ZM37.046 35.0247C35.127 35.8219 33.1205 36.3896 31.0682 36.716L29.6657 34.3097C31.2745 33.8835 34.6226 32.7766 37.1698 30.4597C37.2375 30.399 37.2926 30.3255 37.3319 30.2435C37.3712 30.1615 37.394 30.0726 37.399 29.9818C37.4039 29.891 37.3909 29.8001 37.3607 29.7143C37.3306 29.6285 37.2838 29.5495 37.2231 29.4818C37.1623 29.414 37.0889 29.3589 37.0069 29.3196C36.9249 29.2803 36.8359 29.2575 36.7451 29.2526C36.6543 29.2476 36.5634 29.2606 36.4776 29.2908C36.3918 29.321 36.3128 29.3678 36.2451 29.4285C33.1513 32.2575 28.5245 33.1547 28.4763 33.165H28.4557C26.3287 33.5768 24.1665 33.7795 22.0001 33.77C19.8343 33.7863 17.6721 33.5905 15.5445 33.1857H15.5238C15.4757 33.1857 10.866 32.2782 7.75508 29.4491C7.61833 29.3265 7.43847 29.2632 7.25506 29.2732C7.07166 29.2832 6.89974 29.3656 6.77712 29.5024C6.65449 29.6391 6.59122 29.819 6.60121 30.0024C6.6112 30.1858 6.69364 30.3577 6.8304 30.4803C9.37758 32.7972 12.7257 33.9178 14.3345 34.3303L12.932 36.7366C10.8792 36.4124 8.87248 35.8446 6.95415 35.0453C4.87811 34.1299 2.99435 32.8294 1.40258 31.2125C1.51602 30.2122 1.98008 26.7197 3.46508 20.8175C4.36895 17.3032 5.62662 13.8895 7.21883 10.6288C8.75436 9.74238 10.3647 8.99242 12.0313 8.38753C13.3191 7.89269 14.6524 7.52541 16.012 7.29097L16.1323 8.11253C14.7573 8.45628 11.3713 9.43941 8.69008 11.3885C8.61718 11.4417 8.55548 11.5088 8.50851 11.586C8.46154 11.6631 8.43022 11.7487 8.41633 11.8379C8.38829 12.0181 8.43297 12.202 8.54055 12.3493C8.64813 12.4965 8.80979 12.595 8.98997 12.623C9.07919 12.6369 9.17027 12.6331 9.25801 12.6118C9.34575 12.5904 9.42843 12.5521 9.50133 12.4988C12.5332 10.2953 16.7201 9.38441 17.0157 9.3191C18.6697 9.12093 20.3343 9.0245 22.0001 9.03035C23.6671 9.0237 25.3328 9.12013 26.9879 9.3191C27.3007 9.38441 31.4566 10.2919 34.5023 12.4988C34.6495 12.6064 34.8335 12.651 35.0136 12.623C35.1938 12.595 35.3555 12.4965 35.4631 12.3493C35.5706 12.202 35.6153 12.0181 35.5873 11.8379C35.5592 11.6577 35.4608 11.496 35.3135 11.3885C32.6323 9.43941 29.2601 8.45972 27.8713 8.11253L27.9916 7.29097C29.3498 7.52648 30.6819 7.89374 31.9688 8.38753C33.6355 8.99242 35.2458 9.74238 36.7813 10.6288C38.383 13.8885 39.6499 17.3022 40.5626 20.8175C42.0373 26.7197 42.5013 30.2122 42.6251 31.2125C41.0234 32.8249 39.1302 34.1185 37.046 35.0247Z" fill="#262A2C"/>
<path d="M28.4522 19.6625C26.3382 19.6625 24.616 21.5875 24.616 23.9525C24.616 26.3175 26.3347 28.239 28.4522 28.239C30.5697 28.239 32.2919 26.3175 32.2919 23.9525C32.2919 21.5875 30.5697 19.6625 28.4522 19.6625ZM28.4522 26.8812C27.0772 26.8812 25.991 25.575 25.991 23.9697C25.991 22.3644 27.0944 21.0547 28.4522 21.0547C29.81 21.0547 30.9169 22.3609 30.9169 23.9697C30.9169 25.5784 29.8135 26.864 28.4522 26.864V26.8812Z" fill="#DC150B"/>
</g>
<defs>
<clipPath id="clip0_1473_4998">
<rect width="44" height="44" fill="white"/>
</clipPath>
</defs>
</svg>
