<svg width="44" height="44" viewBox="0 0 44 44" fill="none" xmlns="http://www.w3.org/2000/svg">
<path d="M11.8374 43.0547C11.9429 41.6527 12.2562 40.2578 12.7823 38.9167C13.7918 36.3433 14.0186 33.5719 13.4953 30.9319" stroke="#262A2C" stroke-miterlimit="10" stroke-linecap="round" stroke-linejoin="round"/>
<path d="M30.2155 43.0548C30.5749 41.2235 30.5694 39.3475 30.21 37.5334" stroke="#262A2C" stroke-miterlimit="10" stroke-linecap="round" stroke-linejoin="round"/>
<path d="M15.6436 26.8069L16.7363 30.9319H10.5488L11.6415 26.8069" stroke="#DC150B" stroke-miterlimit="10" stroke-linecap="round" stroke-linejoin="round"/>
<path d="M19.2812 25.3939C17.6051 26.3953 15.6843 26.9641 13.6427 26.9641C7.10955 26.9641 1.81348 21.1396 1.81348 13.9547C1.81348 6.76981 7.10955 0.945312 13.6427 0.945312C18.6163 0.945312 22.8731 4.32102 24.6218 9.10276" stroke="#DC150B" stroke-miterlimit="10" stroke-linecap="round" stroke-linejoin="round"/>
<path d="M32.3585 33.4086L33.4512 37.5336H27.2637L28.3564 33.4086" stroke="#262A2C" stroke-miterlimit="10" stroke-linecap="round" stroke-linejoin="round"/>
<path d="M30.3575 33.5658C36.8906 33.5658 42.1867 27.7413 42.1867 20.5564C42.1867 13.3715 36.8906 7.547 30.3575 7.547C23.8244 7.547 18.5283 13.3715 18.5283 20.5564C18.5283 27.7413 23.8244 33.5658 30.3575 33.5658Z" stroke="#262A2C" stroke-miterlimit="10" stroke-linecap="round" stroke-linejoin="round"/>
<path d="M36.0396 19.1409C35.6961 18.0837 34.1568 17.6216 32.5043 18.0325C32.3845 16.3339 31.4693 15.0127 30.3577 15.0127C29.2461 15.0127 28.331 16.3339 28.2112 18.0325C26.5586 17.6216 25.0193 18.0837 24.6758 19.1409C24.3323 20.1981 25.306 21.4767 26.8845 22.1156C25.9831 23.5603 25.9468 25.1671 26.8461 25.8205C27.7455 26.4738 29.2624 25.9428 30.3578 24.6391C31.4532 25.9429 32.9701 26.4739 33.8695 25.8205C34.7688 25.167 34.7325 23.5603 33.831 22.1156C35.4094 21.4767 36.3831 20.1981 36.0396 19.1409Z" stroke="#DC150B" stroke-miterlimit="10" stroke-linecap="round" stroke-linejoin="round"/>
</svg>
