<svg width="44" height="44" viewBox="0 0 44 44" fill="none" xmlns="http://www.w3.org/2000/svg">
<g clip-path="url(#clip0_1558_5048)">
<path d="M31.4286 14.1473L40.3964 8.47214C42.1774 4.201 43.0398 0.960449 43.0398 0.960449C43.0398 0.960449 30.4672 3.05691 20.6464 12.8777L13.9221 19.602C12.2981 21.2259 11.0996 23.2253 10.4327 25.4231L6.88477 37.1154L18.5771 33.5674C20.7748 32.9005 22.7742 31.702 24.3982 30.0781L31.1225 23.3537C33.7723 20.704 35.9618 17.3983 37.7094 14.1472L31.4286 14.1473Z" stroke="#DC150B" stroke-miterlimit="10" stroke-linecap="round" stroke-linejoin="round"/>
<path d="M26.1705 17.8291L0.960205 43.0394" stroke="#262A2C" stroke-miterlimit="10" stroke-linecap="round" stroke-linejoin="round"/>
<path d="M22.311 29.3936H25.0823" stroke="#DC150B" stroke-miterlimit="10" stroke-linecap="round" stroke-linejoin="round"/>
<path d="M17.8113 15.7124V17.6783" stroke="#DC150B" stroke-miterlimit="10" stroke-linecap="round" stroke-linejoin="round"/>
<path d="M12.2948 38.6019H5.39795V31.7051" stroke="#262A2C" stroke-miterlimit="10" stroke-linecap="round" stroke-linejoin="round"/>
</g>
<defs>
<clipPath id="clip0_1558_5048">
<rect width="44" height="44" fill="white"/>
</clipPath>
</defs>
</svg>
