<svg width="44" height="44" viewBox="0 0 44 44" fill="none" xmlns="http://www.w3.org/2000/svg">
<g clip-path="url(#clip0_1558_2976)">
<path d="M12.7078 26.8984V20.2374L14.2251 18.9429C16.0504 17.3857 17.1017 15.1068 17.1017 12.7075" stroke="#262A2C" stroke-miterlimit="10" stroke-linejoin="round"/>
<path d="M16.0703 4.30799V2.88125C16.0703 1.8561 15.2732 0.982977 14.2486 0.94654C13.173 0.908297 12.2891 1.76888 12.2891 2.83596C12.2891 1.79182 11.4426 0.945336 10.3984 0.945336C9.3543 0.945336 8.50781 1.79182 8.50781 2.83596C8.50781 1.79182 7.66133 0.945336 6.61719 0.945336C5.57305 0.945336 4.72656 1.79182 4.72656 2.83596C4.72656 1.76888 3.84261 0.908297 2.76702 0.94654C1.74247 0.982977 0.945312 1.8561 0.945312 2.88125V12.4512C0.945312 13.9674 1.3658 15.4537 2.16012 16.7451L4.30796 20.2374V27.9297" stroke="#262A2C" stroke-miterlimit="10" stroke-linejoin="round"/>
<path d="M27.9297 39.692V41.1188C27.9297 42.1439 28.7268 43.017 29.7514 43.0535C30.827 43.0917 31.7109 42.2311 31.7109 41.1641C31.7109 42.2082 32.5574 43.0547 33.6016 43.0547C34.6457 43.0547 35.4922 42.2082 35.4922 41.1641C35.4922 42.2082 36.3387 43.0547 37.3828 43.0547C38.427 43.0547 39.2734 42.2082 39.2734 41.1641C39.2734 42.2311 40.1574 43.0917 41.233 43.0535C42.2575 43.017 43.0547 42.1439 43.0547 41.1188V31.5488C43.0547 30.0327 42.6342 28.5463 41.8399 27.2548L39.692 23.7626V16.0703" stroke="#262A2C" stroke-miterlimit="10" stroke-linejoin="round"/>
<path d="M31.2923 17.1016V23.7626L29.775 25.0571C27.9497 26.6142 26.8984 28.8931 26.8984 31.2924" stroke="#262A2C" stroke-miterlimit="10" stroke-linejoin="round"/>
<path d="M12.7076 27.9297H2.88125C1.8561 27.9297 0.982977 28.7268 0.94654 29.7514C0.908297 30.827 1.76888 31.7109 2.83596 31.7109C1.79182 31.7109 0.945336 32.5574 0.945336 33.6016C0.945336 34.6457 1.79182 35.4922 2.83596 35.4922C1.79182 35.4922 0.945336 36.3387 0.945336 37.3828C0.945336 38.427 1.79182 39.2734 2.83596 39.2734C1.76888 39.2734 0.908297 40.1574 0.94654 41.233C0.982977 42.2575 1.8561 43.0547 2.88125 43.0547H12.4512C13.9674 43.0547 15.4537 42.6342 16.7451 41.8399L20.2374 39.692H27.9297V31.2923H20.2374L18.943 29.775C17.3858 27.9497 15.1069 26.8984 12.7076 26.8984V27.9297Z" stroke="#DC150B" stroke-miterlimit="10" stroke-linejoin="round"/>
<path d="M31.2924 16.0703H41.1188C42.1439 16.0703 43.017 15.2732 43.0535 14.2486C43.0917 13.173 42.2311 12.2891 41.1641 12.2891C42.2082 12.2891 43.0547 11.4426 43.0547 10.3984C43.0547 9.3543 42.2082 8.50781 41.1641 8.50781C42.2082 8.50781 43.0547 7.66133 43.0547 6.61719C43.0547 5.57305 42.2082 4.72656 41.1641 4.72656C42.2311 4.72656 43.0917 3.84261 43.0535 2.76702C43.017 1.74247 42.1439 0.945312 41.1188 0.945312H31.5488C30.0327 0.945312 28.5463 1.3658 27.2549 2.16012L23.7626 4.30796H16.0703V12.7077H23.7626L25.0571 14.225C26.6142 16.0503 28.8931 17.1016 31.2924 17.1016V16.0703Z" stroke="#DC150B" stroke-miterlimit="10" stroke-linejoin="round"/>
</g>
<defs>
<clipPath id="clip0_1558_2976">
<rect width="44" height="44" fill="white"/>
</clipPath>
</defs>
</svg>
