<svg width="44" height="44" viewBox="0 0 44 44" fill="none" xmlns="http://www.w3.org/2000/svg">
<path d="M22.2804 11.7102H20.7395C19.2895 11.7102 18.114 12.8857 18.114 14.3357V20.2484C18.114 21.6984 19.2895 22.8739 20.7395 22.8739H22.2804C23.7304 22.8739 24.9059 21.6984 24.9059 20.2484V14.3357C24.9059 12.8857 23.7304 11.7102 22.2804 11.7102Z" fill="white"/>
<path d="M37.4085 20.7991L36.9159 20.8849L37.0312 21.547L37.6323 21.2463L37.4085 20.7991ZM37.5219 29.3689L37.7239 28.9116L37.0219 28.6014V29.3689H37.5219ZM6.61358 29.215H7.11358V28.3287L6.35501 28.787L6.61358 29.215ZM6.70143 20.9552L6.42614 21.3726L7.07783 21.8025L7.19569 21.0307L6.70143 20.9552ZM29.8918 13.9867H14.2437V14.9867H29.8918V13.9867ZM37.9011 20.7134C37.2359 16.892 33.9036 13.9867 29.8918 13.9867V14.9867C33.4092 14.9867 36.3327 17.5342 36.9159 20.8849L37.9011 20.7134ZM37.6323 21.2463C37.9175 21.1036 38.2395 21.0231 38.5818 21.0231V20.0231C38.0807 20.0231 37.6058 20.1414 37.1848 20.352L37.6323 21.2463ZM38.5818 21.0231H38.8478V20.0231H38.5818V21.0231ZM38.8478 21.0231C40.0217 21.0231 40.9733 21.9747 40.9733 23.1486H41.9733C41.9733 21.4224 40.574 20.0231 38.8478 20.0231V21.0231ZM40.9733 23.1486V26.9662H41.9733V23.1486H40.9733ZM40.9733 26.9662C40.9733 28.14 40.0217 29.0917 38.8478 29.0917V30.0917C40.574 30.0917 41.9733 28.6923 41.9733 26.9662H40.9733ZM38.8478 29.0917H38.5818V30.0917H38.8478V29.0917ZM38.5818 29.0917C38.2755 29.0917 37.9857 29.0272 37.7239 28.9116L37.3198 29.8263C37.7064 29.9971 38.1337 30.0917 38.5818 30.0917V29.0917ZM38.0219 33.3854V29.3689H37.0219V33.3854H38.0219ZM29.8918 41.5155C34.3819 41.5155 38.0219 37.8755 38.0219 33.3854H37.0219C37.0219 37.3232 33.8296 40.5155 29.8918 40.5155V41.5155ZM14.2437 41.5155H29.8918V40.5155H14.2437V41.5155ZM6.11358 33.3854C6.11358 37.8755 9.75354 41.5155 14.2437 41.5155V40.5155C10.3058 40.5155 7.11358 37.3232 7.11358 33.3854H6.11358ZM6.11358 29.215V33.3854H7.11358V29.215H6.11358ZM6.35501 28.787C6.03508 28.9803 5.66019 29.0917 5.25776 29.0917V30.0917C5.84754 30.0917 6.40059 29.9278 6.87215 29.6429L6.35501 28.787ZM5.25776 29.0917H4.99171V30.0917H5.25776V29.0917ZM4.99171 29.0917C3.81783 29.0917 2.86621 28.14 2.86621 26.9662H1.86621C1.86621 28.6923 3.26555 30.0917 4.99171 30.0917V29.0917ZM2.86621 26.9662V23.1486H1.86621V26.9662H2.86621ZM2.86621 23.1486C2.86621 21.9747 3.81783 21.0231 4.99171 21.0231V20.0231C3.26555 20.0231 1.86621 21.4224 1.86621 23.1486H2.86621ZM4.99171 21.0231H5.25776V20.0231H4.99171V21.0231ZM5.25776 21.0231C5.69022 21.0231 6.09112 21.1517 6.42614 21.3726L6.97671 20.5379C6.48332 20.2124 5.8919 20.0231 5.25776 20.0231V21.0231ZM14.2437 13.9867C10.1739 13.9867 6.8033 16.9766 6.20716 20.8798L7.19569 21.0307C7.71839 17.6085 10.6753 14.9867 14.2437 14.9867V13.9867Z" fill="#262A2C"/>
<path d="M22.0451 36.0067C26.609 36.0067 30.3088 32.3069 30.3088 27.743C30.3088 23.1791 26.609 19.4794 22.0451 19.4794C17.4813 19.4794 13.7815 23.1791 13.7815 27.743C13.7815 32.3069 17.4813 36.0067 22.0451 36.0067Z" fill="white" stroke="white" stroke-miterlimit="10"/>
<path d="M22.0452 35.4464C26.2997 35.4464 29.7486 31.9974 29.7486 27.743C29.7486 23.4885 26.2997 20.0396 22.0452 20.0396C17.7907 20.0396 14.3418 23.4885 14.3418 27.743C14.3418 31.9974 17.7907 35.4464 22.0452 35.4464Z" stroke="#DC150B" stroke-miterlimit="10"/>
<path d="M22.0451 32.085C24.4432 32.085 26.3872 30.141 26.3872 27.743C26.3872 25.345 24.4432 23.401 22.0451 23.401C19.6471 23.401 17.7031 25.345 17.7031 27.743C17.7031 30.141 19.6471 32.085 22.0451 32.085Z" fill="black" stroke="white" stroke-miterlimit="10"/>
<path d="M17.925 10.1C16.3096 10.1 15 8.79043 15 7.175C15 5.65168 16.1645 4.40034 17.6518 4.26259C17.9561 2.41189 19.5632 1 21.5 1C23.4368 1 25.0439 2.41189 25.3482 4.26259C26.8355 4.40034 28 5.65168 28 7.175C28 8.79043 26.6904 10.1 25.075 10.1C22.2216 10.1 20.4231 10.1 17.925 10.1Z" stroke="black" stroke-linecap="round" stroke-linejoin="round"/>
<line x1="21.5" y1="10" x2="21.5" y2="15" stroke="black"/>
<circle cx="20.5" cy="26.5" r="2.5" fill="white"/>
</svg>
