<svg width="44" height="44" viewBox="0 0 44 44" fill="none" xmlns="http://www.w3.org/2000/svg">
<g clip-path="url(#clip0_1558_5001)">
<path d="M24.4785 6.03613C22.8213 6.03613 22.1874 7.07735 21.9965 7.51245C21.8057 7.07735 21.1765 6.03613 19.5192 6.03613C17.8338 6.03613 16.3511 7.1877 16.3511 9.2905C16.3511 10.1414 16.5243 10.7713 17.0052 11.5848C17.9852 13.2427 21.9962 15.2941 21.9962 15.2941C21.9962 15.2941 26.0085 13.2557 26.9961 11.5848C27.477 10.7712 27.649 10.1414 27.649 9.2905C27.649 7.1877 26.164 6.03613 24.4785 6.03613Z" stroke="#DC150B" stroke-miterlimit="10" stroke-linecap="round" stroke-linejoin="round"/>
<path d="M33.4138 0.95752H10.5863C9.37351 0.95752 8.39038 1.94047 8.39038 3.15296V18.0323C8.39038 19.2448 9.37351 20.2277 10.5863 20.2277H19.885L22 22.3977L24.1705 20.2277H33.4138C34.6266 20.2277 35.6097 19.2448 35.6097 18.0323V3.15296C35.6097 1.94047 34.6266 0.95752 33.4138 0.95752Z" stroke="#262A2C" stroke-miterlimit="10" stroke-linecap="round" stroke-linejoin="round"/>
<path d="M5.12036 22.7566L6.29074 22.0059" stroke="#DC150B" stroke-miterlimit="10" stroke-linecap="round" stroke-linejoin="round"/>
<path d="M4.04248 16.8711L5.40425 17.1656" stroke="#DC150B" stroke-miterlimit="10" stroke-linecap="round" stroke-linejoin="round"/>
<path d="M38.8796 22.7566L37.7092 22.0059" stroke="#DC150B" stroke-miterlimit="10" stroke-linecap="round" stroke-linejoin="round"/>
<path d="M39.9575 16.8711L38.5957 17.1656" stroke="#DC150B" stroke-miterlimit="10" stroke-linecap="round" stroke-linejoin="round"/>
<path d="M22.0242 36.1025H21.9756C19.5714 36.1025 17.6226 34.1536 17.6226 31.7495V30.4804C17.6226 28.0763 19.5714 26.1274 21.9756 26.1274H22.0242C24.4283 26.1274 26.3772 28.0763 26.3772 30.4804V31.7495C26.3772 34.1536 24.4283 36.1025 22.0242 36.1025Z" stroke="#262A2C" stroke-miterlimit="10" stroke-linecap="round" stroke-linejoin="round"/>
<path d="M21.9999 36.1025C18.1239 36.1025 14.9817 39.2099 14.9817 43.0429H29.0181C29.0182 39.2099 25.876 36.1025 21.9999 36.1025Z" stroke="#262A2C" stroke-miterlimit="10" stroke-linecap="round" stroke-linejoin="round"/>
<path d="M36.0608 36.1025H36.0122C33.6081 36.1025 31.6592 34.1536 31.6592 31.7495V30.4804C31.6592 28.0763 33.6081 26.1274 36.0122 26.1274H36.0608C38.4649 26.1274 40.4138 28.0763 40.4138 30.4804V31.7495C40.4137 34.1536 38.4648 36.1025 36.0608 36.1025Z" stroke="#262A2C" stroke-miterlimit="10" stroke-linecap="round" stroke-linejoin="round"/>
<path d="M36.0363 36.1025C32.1603 36.1025 29.0181 39.2099 29.0181 43.0429H43.0546C43.0546 39.2099 39.9124 36.1025 36.0363 36.1025Z" stroke="#262A2C" stroke-miterlimit="10" stroke-linecap="round" stroke-linejoin="round"/>
<path d="M7.98781 36.1025H7.93917C5.53507 36.1025 3.58618 34.1536 3.58618 31.7495V30.4804C3.58618 28.0763 5.53507 26.1274 7.93917 26.1274H7.98781C10.3919 26.1274 12.3408 28.0763 12.3408 30.4804V31.7495C12.3408 34.1536 10.3919 36.1025 7.98781 36.1025Z" stroke="#262A2C" stroke-miterlimit="10" stroke-linecap="round" stroke-linejoin="round"/>
<path d="M7.96357 36.1025C4.08745 36.1025 0.945312 39.2099 0.945312 43.0429H14.9817C14.9817 39.2099 11.8396 36.1025 7.96357 36.1025Z" stroke="#262A2C" stroke-miterlimit="10" stroke-linecap="round" stroke-linejoin="round"/>
</g>
<defs>
<clipPath id="clip0_1558_5001">
<rect width="44" height="44" fill="white"/>
</clipPath>
</defs>
</svg>
