<svg width="44" height="44" viewBox="0 0 44 44" fill="none" xmlns="http://www.w3.org/2000/svg">
<g clip-path="url(#clip0_1473_4939)">
<path d="M39.6172 18.1316V8.68176" stroke="#DC150B" stroke-miterlimit="10" stroke-linecap="round" stroke-linejoin="round"/>
<path d="M39.6172 18.4727C38.1934 18.4727 37.0391 19.627 37.0391 21.0508V24.9232H42.1953V21.0508C42.1954 19.6269 41.0411 18.4727 39.6172 18.4727Z" stroke="#DC150B" stroke-miterlimit="10" stroke-linecap="round" stroke-linejoin="round"/>
<path d="M22 35.9983L17.7206 42.8646L16.5651 39.9119L12.6067 40.511L15.5285 36.5244" stroke="#DC150B" stroke-miterlimit="10" stroke-linecap="round" stroke-linejoin="round"/>
<path d="M22 35.9983L26.2794 42.8646L27.4349 39.9119L31.3933 40.511L28.4715 36.5244" stroke="#DC150B" stroke-miterlimit="10" stroke-linecap="round" stroke-linejoin="round"/>
<path d="M22 1.13538L4.38281 8.67261L22 16.1676L39.6172 8.67261L22 1.13538Z" stroke="#262A2C" stroke-miterlimit="10" stroke-linecap="round" stroke-linejoin="round"/>
<path d="M32.7422 11.9457V20.6507L32.3892 20.8757C26.0528 24.9145 17.9419 24.9115 11.6056 20.8724C11.4904 20.799 11.3745 20.7251 11.2578 20.6507V11.8993" stroke="#262A2C" stroke-miterlimit="10" stroke-linecap="round" stroke-linejoin="round"/>
<path d="M28.1706 29.5054L43.0548 28.2953V37.7099L27.8625 36.4748" stroke="#262A2C" stroke-miterlimit="10" stroke-linecap="round" stroke-linejoin="round"/>
<path d="M16.089 36.4788L0.945312 37.7099V28.2953L16.0401 29.5225" stroke="#262A2C" stroke-miterlimit="10" stroke-linecap="round" stroke-linejoin="round"/>
<path d="M16.3083 36.461L22 35.9983L27.6916 36.461V29.5444L22 30.0071L16.3083 29.5444V36.461Z" stroke="#DC150B" stroke-miterlimit="10" stroke-linecap="round" stroke-linejoin="round"/>
</g>
<defs>
<clipPath id="clip0_1473_4939">
<rect width="44" height="44" fill="white"/>
</clipPath>
</defs>
</svg>
