<svg width="44" height="44" viewBox="0 0 44 44" fill="none" xmlns="http://www.w3.org/2000/svg">
<path d="M11.623 25.4375C13.7588 25.4375 15.4902 23.7061 15.4902 21.5703C15.4902 19.4345 13.7588 17.7031 11.623 17.7031C9.48726 17.7031 7.75586 19.4345 7.75586 21.5703C7.75586 23.7061 9.48726 25.4375 11.623 25.4375Z" stroke="#DC150B" stroke-miterlimit="22.9256" stroke-linecap="round" stroke-linejoin="round"/>
<path d="M8.61523 33.1719H14.6309" stroke="#DC150B" stroke-miterlimit="22.9256" stroke-linecap="round" stroke-linejoin="round"/>
<path d="M8.61523 37.0391H14.6309" stroke="#DC150B" stroke-miterlimit="22.9256" stroke-linecap="round" stroke-linejoin="round"/>
<path d="M0.945312 40.9062H43.0547" stroke="#262A2C" stroke-miterlimit="22.9256" stroke-linecap="round" stroke-linejoin="round"/>
<path fill-rule="evenodd" clip-rule="evenodd" d="M11.623 3.09387L21.0762 13.8361H2.16992L11.623 3.09387Z" stroke="#262A2C" stroke-miterlimit="22.9256" stroke-linecap="round" stroke-linejoin="round"/>
<path d="M3.88867 14.2657V40.4765" stroke="#262A2C" stroke-miterlimit="22.9256" stroke-linecap="round" stroke-linejoin="round"/>
<path d="M19.3574 14.2657V40.4765" stroke="#262A2C" stroke-miterlimit="22.9256" stroke-linecap="round" stroke-linejoin="round"/>
<path d="M18.9277 29.3047H4.31836" stroke="#262A2C" stroke-miterlimit="22.9256" stroke-linecap="round" stroke-linejoin="round"/>
<path d="M15.0605 29.7344V40.4765" stroke="#262A2C" stroke-miterlimit="22.9256" stroke-linecap="round" stroke-linejoin="round"/>
<path d="M8.18555 29.7344V40.4765" stroke="#262A2C" stroke-miterlimit="22.9256" stroke-linecap="round" stroke-linejoin="round"/>
<path d="M19.7871 25.0078H23.8049C24.4055 25.0078 24.9484 25.2543 25.3382 25.6516L36.296 36.6093H39.6817C40.8683 36.6093 41.8302 37.5712 41.8302 38.7577C41.8302 39.9443 40.8683 40.9062 39.6817 40.9062M35.4064 40.9062C34.8349 40.9062 34.2916 40.6809 33.8874 40.2768L22.9154 29.3047H19.7871" stroke="#262A2C" stroke-miterlimit="22.9256" stroke-linecap="round" stroke-linejoin="round"/>
</svg>
