<svg width="1920" height="577" viewBox="0 0 1920 577" fill="none" xmlns="http://www.w3.org/2000/svg">
<path d="M-216 0L-300 48L-216 96M-216 0L-132 48M-216 0V96M-216 0L-132 -48M-132 48L-216 96M-132 48L-48 0M-132 48V-48M-132 48L-48 96M-132 48V144M-216 96L-300 144M-216 96L-132 144M-216 96V192M-300 144L-216 192M-300 144L-384 192M-300 144V240M-132 144L-216 192M-132 144L-48 96M-132 144L-48 192M-132 144V240M-216 192L-132 240M-216 192L-300 240M-216 192V288M-132 -48L-48 0M-48 0L36 48M-48 0V96M-48 0L36 -48M-48 96L36 48M-48 96L36 144M-48 96V192M-48 192L-132 240M-48 192L36 144M-48 192L36 240M-48 192V288M-132 240L-216 288M-132 240L-48 288M-132 240V336M36 48L120 0M36 48V-48M36 48L120 96M36 48V144M36 144L120 96M36 144L120 192M36 144V240M36 -48L120 0M120 0L204 48M120 0V96M120 0L204 -48M120 96L204 48M120 96L204 144M120 96V192M120 192L36 240M120 192L204 144M120 192L204 240M120 192V288M36 240L-48 288M36 240L120 288M36 240V336M204 48L288 0M204 48V-48M204 48L288 96M204 48V144M204 144L288 96M204 144L288 192M204 144V240M204 -48L288 0M288 0L372 48M288 0V96M288 0L372 -48M288 96L372 48M288 96L372 144M288 96V192M288 192L204 240M288 192L372 144M288 192L372 240M288 192V288M204 240L120 288M204 240L288 288M204 240V336M372 48L456 0M372 48V-48M372 48L456 96M372 48V144M372 144L456 96M372 144L456 192M372 144V240M372 -48L456 0M456 0L540 48M456 0V96M456 0L540 -48M456 96L540 48M456 96L540 144M456 96V192M456 192L372 240M456 192L540 144M456 192L540 240M456 192V288M372 240L288 288M372 240L456 288M372 240V336M540 48L624 0M540 48V-48M540 48L624 96M540 48V144M540 144L624 96M540 144L624 192M540 144V240M540 -48L624 0M624 0L708 48M624 0V96M624 0L708 -48M624 96L708 48M624 96L708 144M624 96V192M624 192L540 240M624 192L708 144M624 192L708 240M624 192V288M540 240L456 288M540 240L624 288M540 240V336M708 48L792 0M708 48V-48M708 48L792 96M708 48V144M708 144L792 96M708 144L792 192M708 144V240M708 -48L792 0M792 0L876 48M792 0V96M792 0L876 -48M792 96L876 48M792 96L876 144M792 96V192M792 192L708 240M792 192L876 144M792 192L876 240M792 192V288M708 240L624 288M708 240L792 288M708 240V336M876 48L960 0M876 48V-48M876 48L960 96M876 48V144M876 144L960 96M876 144L960 192M876 144V240M876 -48L960 0M960 0L1044 48M960 0V96M960 0L1044 -48M960 96L1044 48M960 96L1044 144M960 96V192M960 192L876 240M960 192L1044 144M960 192L1044 240M960 192V288M876 240L792 288M876 240L960 288M876 240V336M1044 48L1128 0M1044 48V-48M1044 48L1128 96M1044 48V144M1044 144L1128 96M1044 144L1128 192M1044 144V240M1044 -48L1128 0M1128 0L1212 48M1128 0V96M1128 0L1212 -48M1128 96L1212 48M1128 96L1212 144M1128 96V192M1128 192L1044 240M1128 192L1212 144M1128 192L1212 240M1128 192V288M1044 240L960 288M1044 240L1128 288M1044 240V336M1212 48L1296 0M1212 48V-48M1212 48L1296 96M1212 48V144M1212 144L1296 96M1212 144L1296 192M1212 144V240M1212 -48L1296 0M1296 0L1380 48M1296 0V96M1296 0L1380 -48M1296 96L1380 48M1296 96L1380 144M1296 96V192M1296 192L1212 240M1296 192L1380 144M1296 192L1380 240M1296 192V288M1212 240L1128 288M1212 240L1296 288M1212 240V336M1380 48L1464 0M1380 48V-48M1380 48L1464 96M1380 48V144M1380 144L1464 96M1380 144L1464 192M1380 144V240M1380 -48L1464 0M1464 0L1548 48M1464 0V96M1464 0L1548 -48M1464 96L1548 48M1464 96L1548 144M1464 96V192M1464 192L1380 240M1464 192L1548 144M1464 192L1548 240M1464 192V288M1380 240L1296 288M1380 240L1464 288M1380 240V336M1548 48L1632 0M1548 48V-48M1548 48L1632 96M1548 48V144M1548 144L1632 96M1548 144L1632 192M1548 144V240M1548 -48L1632 0M1632 0L1716 48M1632 0V96M1632 0L1716 -48M1632 96L1716 48M1632 96L1716 144M1632 96V192M1632 192L1548 240M1632 192L1716 144M1632 192L1716 240M1632 192V288M1548 240L1464 288M1548 240L1632 288M1548 240V336M1716 48L1800 0M1716 48V-48M1716 48L1800 96M1716 48V144M1716 144L1800 96M1716 144L1800 192M1716 144V240M1716 -48L1800 0M1800 0L1884 48M1800 0V96M1800 0L1884 -48M1800 96L1884 48M1800 96L1884 144M1800 96V192M1800 192L1716 240M1800 192L1884 144M1800 192L1884 240M1800 192V288M1716 240L1632 288M1716 240L1800 288M1884 48L1968 0M1884 48V-48M1884 48L1968 96M1884 48V144M1884 144L1968 96M1884 144L1968 192M1884 144V240M1884 -48L1968 0M1968 0L2052 48M1968 0V96M1968 0L2052 -48M1968 96L2052 48M1968 96L2052 144M1968 96V192M1968 192L1884 240M1968 192L2052 144M1968 192L2052 240M1968 192V288M1884 240L1800 288M1884 240L1968 288M2052 48L2136 0M2052 48V-48M2052 48L2136 96M2052 48V144M2052 144L2136 96M2052 144L2136 192M2052 144V240M2052 -48L2136 0M2136 0L2220 48L2136 96M2136 0V96M2136 96L2220 144M2136 96V192M2136 192L2052 240M2136 192L2220 144M2136 192L2220 240M2136 192V288M2052 240L1968 288M2052 240L2136 288M2052 240V336M2220 144L2304 192M2220 144V240M-384 192L-468 240L-384 288M-384 192L-300 240M-384 192V288M-300 240L-384 288M-300 240L-216 288M-300 240V336M-384 288L-468 336L-384 384M-384 288L-300 336M-384 288V384M-300 336L-384 384M-300 336L-216 288M-300 336L-216 384M-300 336V432M-384 384L-300 432M-216 288L-132 336M-216 288V384M-216 384L-300 432M-216 384L-132 336M-216 384L-132 432M-132 336L-48 288M-132 336L-48 384M-132 336V432M-48 288L36 336M-48 288V384M-48 384L-132 432M-48 384L36 336M-48 384L36 432M-48 384V480M-132 432L-48 480M36 336L120 288M36 336L120 384M36 336V432M120 288L204 336M120 288V384M120 384L36 432M120 384L204 336M120 384L204 432M120 384V480M36 432L-48 480M36 432L120 480M36 432V528M204 336L288 288M204 336L288 384M204 336V432M288 288L372 336M288 288V384M288 384L204 432M288 384L372 336M288 384L372 432M288 384V480M204 432L120 480M204 432L288 480M204 432V528M372 336L456 288M372 336L456 384M372 336V432M456 288L540 336M456 288V384M456 384L372 432M456 384L540 336M456 384L540 432M456 384V480M372 432L288 480M372 432L456 480M372 432V528M540 336L624 288M540 336L624 384M540 336V432M624 288L708 336M624 288V384M624 384L540 432M624 384L708 336M624 384L708 432M624 384V480M540 432L456 480M540 432L624 480M540 432V528M708 336L792 288M708 336L792 384M708 336V432M792 288L876 336M792 288V384M792 384L708 432M792 384L876 336M792 384L876 432M792 384V480M708 432L624 480M708 432L792 480M708 432V528M876 336L960 288M876 336L960 384M876 336V432M960 288L1044 336M960 288V384M960 384L876 432M960 384L1044 336M960 384L1044 432M960 384V480M876 432L792 480M876 432L960 480M1044 336L1128 288M1044 336L1128 384M1044 336V432M1128 288L1212 336M1128 288V384M1128 384L1044 432M1128 384L1212 336M1128 384L1212 432M1128 384V480M1044 432L960 480M1044 432L1128 480M1044 432V528M1212 336L1296 288M1212 336L1296 384M1212 336V432M1296 288L1380 336M1296 288V384M1296 384L1212 432M1296 384L1380 336M1296 384L1380 432M1296 384V480M1212 432L1128 480M1212 432L1296 480M1212 432V528M1380 336L1464 288M1380 336L1464 384M1380 336V432M1464 288L1548 336M1464 288V384M1464 384L1380 432M1464 384L1548 336M1380 432L1296 480M1548 336L1632 288M1968 288L2052 336M1968 288V384M2052 336L1968 384M2052 336L2136 288M2052 336L2136 384M2052 336V432M1968 384L2052 432M2136 288L2220 240M2136 288L2220 336M2136 288V384M2136 384L2052 432M2136 384L2220 336M2136 384L2220 432M2220 240L2304 192M2220 240L2304 288M2220 240V336M2220 336L2304 288M2220 336L2304 384M2220 336V432M2304 192L2388 240L2304 288M2304 192V288M2304 288L2388 336L2304 384M2304 288V384M2304 384L2220 432M-48 480L-132 528L-48 576M-48 480L36 528M-48 480V576M36 528L-48 576M36 528L120 480M36 528L120 576M120 480L204 528M120 480V576M204 528L120 576M204 528L288 480M288 480L372 528M456 480L372 528M456 480L540 528M624 480L540 528M624 480L708 528M624 480V576M540 528L624 576M708 528L624 576M708 528L792 480M960 480L1044 528M1128 480L1044 528M1128 480L1212 528M1128 480V576M1044 528L1128 576M1212 528L1128 576M1212 528L1296 480" stroke="url(#paint0_linear_1349_41421)" stroke-width="0.5" stroke-dasharray="4 4"/>
<defs>
<linearGradient id="paint0_linear_1349_41421" x1="662" y1="555" x2="662" y2="19" gradientUnits="userSpaceOnUse">
<stop stop-color="#FFE1DA"/>
<stop offset="0.507533" stop-color="#FF948F"/>
<stop offset="0.88806" stop-color="#6C7679"/>
<stop offset="1" stop-color="#DC150B"/>
</linearGradient>
</defs>
</svg>
