<?xml version="1.0" standalone="no"?><!DOCTYPE svg PUBLIC "-//W3C//DTD SVG 1.1//EN" "http://www.w3.org/Graphics/SVG/1.1/DTD/svg11.dtd"><svg t="1657866301143" class="icon" viewBox="0 0 1024 1024" version="1.1" xmlns="http://www.w3.org/2000/svg" p-id="8265" xmlns:xlink="http://www.w3.org/1999/xlink" width="200" height="200"><defs><style type="text/css">@font-face { font-family: feedback-iconfont; src: url("//at.alicdn.com/t/font_1031158_u69w8yhxdu.woff2?t=1630033759944") format("woff2"), url("//at.alicdn.com/t/font_1031158_u69w8yhxdu.woff?t=1630033759944") format("woff"), url("//at.alicdn.com/t/font_1031158_u69w8yhxdu.ttf?t=1630033759944") format("truetype"); }
</style></defs><path d="M537.6 369.005714a171.885714 171.885714 0 0 0 20.48 49.371429l-27.428571 32.914286 40.594285 40.228571 33.28-27.062857a139.337143 139.337143 0 0 0 49.371429 20.114286l4.388571 42.422857h57.417143l4.022857-42.422857A154.331429 154.331429 0 0 0 768 464.457143l33.645714 27.062857 40.228572-40.228571-27.062857-32.914286a130.56 130.56 0 0 0 20.114285-49.371429L877.714286 365.714286V307.931429l-42.422857-4.022858A163.108571 163.108571 0 0 0 815.177143 256l27.062857-32.914286-40.228571-40.228571-34.011429 25.965714a137.508571 137.508571 0 0 0-49.005714-20.114286L715.337143 146.285714H658.285714l-4.022857 42.422857a152.868571 152.868571 0 0 0-49.371428 20.114286L570.88 182.857143 530.285714 221.988571l27.428572 32.914286a146.285714 146.285714 0 0 0-20.48 49.005714l-42.422857 4.022858V365.714286z m56.32-32.914285a92.525714 92.525714 0 1 1 92.525714 92.525714 92.16 92.16 0 0 1-92.525714-92.525714z" fill="#5B62E8" p-id="8266"></path><path d="M300.982857 562.468571a164.571429 164.571429 0 1 0 164.571429-164.205714 165.302857 165.302857 0 0 0-164.571429 164.205714z m64.731429 0a100.571429 100.571429 0 1 1 100.571428 100.205715A99.84 99.84 0 0 1 365.714286 562.468571z" fill="#172D72" p-id="8267"></path><path d="M219.428571 614.765714a276.845714 276.845714 0 0 0 33.645715 81.92l-47.177143 55.222857 67.291428 66.925715L329.142857 773.851429a239.177143 239.177143 0 0 0 82.285714 33.28l6.217143 70.582857H512l6.582857-70.582857a272.457143 272.457143 0 0 0 82.285714-33.28L658.285714 818.834286l67.291429-66.925715-45.348572-55.222857a228.205714 228.205714 0 0 0 33.645715-81.92l70.582857-6.582857V512l-70.582857-6.582857a275.017143 275.017143 0 0 0-33.645715-81.92l45.348572-54.857143L658.285714 302.08 602.331429 347.428571a239.908571 239.908571 0 0 0-82.285715-33.645714L512 243.2h-95.085714l-6.582857 70.582857A275.017143 275.017143 0 0 0 329.142857 347.428571L272.457143 302.08 205.165714 369.371429l45.348572 54.857142a238.08 238.08 0 0 0-33.645715 81.92L146.285714 512v95.451429z m93.988572-54.857143a153.965714 153.965714 0 1 1 153.965714 153.6 153.234286 153.234286 0 0 1-155.794286-153.6z" fill="#E2E5EE" p-id="8268"></path></svg>