<svg width="44" height="44" viewBox="0 0 44 44" fill="none" xmlns="http://www.w3.org/2000/svg">
<path d="M14.418 10.2575V6.52069C14.418 5.57529 15.1844 4.8089 16.1298 4.8089H27.9741C28.9195 4.8089 29.6859 5.57529 29.6859 6.52069V10.2574" stroke="#2C80CE" stroke-miterlimit="10" stroke-linecap="round" stroke-linejoin="round"/>
<path d="M30.5595 24.798H13.8429" stroke="#262A2C" stroke-miterlimit="10" stroke-linecap="round" stroke-linejoin="round"/>
<path d="M8.20041 24.7981H2.32341C1.56226 24.7981 0.945312 24.181 0.945312 23.42V20.9773C0.945312 20.2161 1.56234 19.5992 2.32341 19.5992H41.6765C42.4377 19.5992 43.0546 20.2162 43.0546 20.9773V23.42C43.0546 24.1811 42.4376 24.7981 41.6765 24.7981H35.991" stroke="#262A2C" stroke-miterlimit="10" stroke-linecap="round" stroke-linejoin="round"/>
<path d="M2.17737 24.798V36.6234C2.17737 38.0414 3.32695 39.191 4.74501 39.191H39.2551C40.6732 39.191 41.8227 38.0414 41.8227 36.6234V24.798" stroke="#262A2C" stroke-miterlimit="10" stroke-linecap="round" stroke-linejoin="round"/>
<path d="M36.1415 10.2575H7.96449C7.55886 10.2575 7.16604 10.3998 6.85452 10.6596L2.80024 14.0413C2.40553 14.3705 2.17737 14.8579 2.17737 15.372V19.5991H41.8227V15.2702C41.8227 14.755 41.5935 14.2665 41.1971 13.9374L37.2486 10.6574C36.9376 10.399 36.5459 10.2575 36.1415 10.2575Z" stroke="#262A2C" stroke-miterlimit="10" stroke-linecap="round" stroke-linejoin="round"/>
<path d="M12.1152 27.7521H9.82531C9.18972 27.7521 8.67444 27.2368 8.67444 26.6012V19.5991H13.266V26.6012C13.2661 27.2368 12.7508 27.7521 12.1152 27.7521Z" stroke="#262A2C" stroke-miterlimit="10" stroke-linecap="round" stroke-linejoin="round"/>
<path d="M34.2785 27.7521H31.9886C31.353 27.7521 30.8378 27.2368 30.8378 26.6012V19.5991H35.4293V26.6012C35.4294 27.2368 34.9141 27.7521 34.2785 27.7521Z" stroke="#262A2C" stroke-miterlimit="10" stroke-linecap="round" stroke-linejoin="round"/>
<path d="M17.7328 31.9945H26.2672" stroke="#262A2C" stroke-miterlimit="10" stroke-linecap="round" stroke-linejoin="round"/>
</svg>
