<svg width="44" height="44" viewBox="0 0 44 44" fill="none" xmlns="http://www.w3.org/2000/svg">
<g clip-path="url(#clip0_1473_4885)">
<path fill-rule="evenodd" clip-rule="evenodd" d="M21.4863 22.5137L0.94165 30.0548L9.40015 34.5999L13.9453 43.0584L21.4863 22.5137Z" stroke="#2C80CE" stroke-miterlimit="10" stroke-linecap="round" stroke-linejoin="round"/>
<path fill-rule="evenodd" clip-rule="evenodd" d="M12.1028 5.24839C13.2445 4.94245 14.418 5.61999 14.7239 6.76168C15.0299 7.90336 14.3523 9.07681 13.2106 9.38275C12.0689 9.68861 10.8955 9.01115 10.5895 7.86946C10.2837 6.72778 10.9612 5.55425 12.1028 5.24839Z" stroke="#262A2C" stroke-miterlimit="22.9256" stroke-linecap="round" stroke-linejoin="round"/>
<path fill-rule="evenodd" clip-rule="evenodd" d="M25.5052 7.63926C26.6469 7.33332 27.8203 8.01086 28.1262 9.15255C28.4321 10.2942 27.7546 11.4677 26.613 11.7736C25.4713 12.0795 24.2978 11.402 23.9919 10.2603C23.686 9.11865 24.3636 7.94512 25.5052 7.63926Z" stroke="#262A2C" stroke-miterlimit="22.9256" stroke-linecap="round" stroke-linejoin="round"/>
<path fill-rule="evenodd" clip-rule="evenodd" d="M36.3357 1.01512C37.4773 0.709172 38.6509 1.38672 38.9567 2.52832C39.2627 3.67 38.5851 4.84344 37.4434 5.14939C36.3018 5.45533 35.1283 4.77779 34.8225 3.6361C34.5166 2.4945 35.1941 1.32098 36.3357 1.01512Z" stroke="#262A2C" stroke-miterlimit="22.9256" stroke-linecap="round" stroke-linejoin="round"/>
<path fill-rule="evenodd" clip-rule="evenodd" d="M40.3638 16.0481C41.5055 15.7421 42.679 16.4197 42.9849 17.5614C43.2908 18.703 42.6133 19.8765 41.4716 20.1824C40.3299 20.4883 39.1565 19.8108 38.8505 18.6691C38.5447 17.5275 39.2221 16.3539 40.3638 16.0481Z" stroke="#262A2C" stroke-miterlimit="22.9256" stroke-linecap="round" stroke-linejoin="round"/>
<path d="M14.7639 7.6914L23.9519 9.33043M27.8851 8.58954L35.0637 4.19897M37.4435 5.14934L40.3639 16.048M39.4339 19.6577L33.6127 25.7088" stroke="#262A2C" stroke-miterlimit="22.9256" stroke-linejoin="round"/>
<path fill-rule="evenodd" clip-rule="evenodd" d="M31.575 25.1842C32.7166 24.8783 33.8901 25.5558 34.196 26.6974C34.502 27.8391 33.8244 29.0126 32.6827 29.3185C31.5411 29.6245 30.3676 28.9469 30.0618 27.8052C29.7558 26.6635 30.4333 25.4901 31.575 25.1842Z" stroke="#262A2C" stroke-miterlimit="22.9256" stroke-linecap="round" stroke-linejoin="round"/>
</g>
<defs>
<clipPath id="clip0_1473_4885">
<rect width="44" height="44" fill="white"/>
</clipPath>
</defs>
</svg>
