<svg width="44" height="44" viewBox="0 0 44 44" fill="none" xmlns="http://www.w3.org/2000/svg">
<path d="M22.0034 11.9937C22.0926 9.82848 24.1112 8.45409 26.3695 7.849C30.0772 6.85548 33.7849 5.86204 37.4926 4.86852V8.65183" stroke="#2C80CE" stroke-miterlimit="22.9256" stroke-linecap="round" stroke-linejoin="round"/>
<path d="M21.9965 11.9937C21.9073 9.82848 19.8887 8.45409 17.6305 7.849C13.9228 6.85548 10.215 5.86204 6.50732 4.86852V8.70476" stroke="#2C80CE" stroke-miterlimit="22.9256" stroke-linecap="round" stroke-linejoin="round"/>
<path d="M34.9415 28.539L24.5676 31.3151H19.4323L9.06946 28.5126" stroke="#2C80CE" stroke-miterlimit="22.9256" stroke-linecap="round" stroke-linejoin="round"/>
<path fill-rule="evenodd" clip-rule="evenodd" d="M3.93972 21.9861H5.86661C6.92579 21.9861 7.7923 22.8527 7.7923 23.9118V23.9118C7.7923 24.9709 6.9257 25.8375 5.86661 25.8375H7.32162C8.38071 25.8375 9.2473 26.7041 9.2473 27.7632V27.7633C9.2473 28.8224 8.38071 29.689 7.32162 29.689H5.86661C6.92579 29.689 7.7923 30.5556 7.7923 31.6147V31.6148C7.7923 32.6739 6.9257 33.5405 5.86661 33.5405H5.22363C6.2828 33.5405 7.14931 34.407 7.14931 35.4661V35.4662C7.14931 36.5253 6.28272 37.3919 5.22363 37.3919H3.93972C2.88054 37.3919 2.01403 36.5253 2.01403 35.4662V35.4661C2.01403 34.407 2.88063 33.5405 3.93972 33.5405C2.88054 33.5405 2.01403 32.6739 2.01403 31.6148V31.6147C2.01403 30.5556 2.88063 29.689 3.93972 29.689H2.871C1.81191 29.6889 0.945312 28.8223 0.945312 27.7632C0.945312 26.7041 1.81191 25.8374 2.871 25.8374H3.93972C2.88054 25.8374 2.01403 24.9709 2.01403 23.9118V23.9117C2.01403 22.8526 2.88063 21.9861 3.93972 21.9861Z" stroke="#262A2C" stroke-miterlimit="22.9256" stroke-linecap="round" stroke-linejoin="round"/>
<path d="M3.9397 25.8374H5.86659" stroke="#262A2C" stroke-miterlimit="22.9256" stroke-linecap="round" stroke-linejoin="round"/>
<path d="M3.9397 29.6889H5.86659" stroke="#262A2C" stroke-miterlimit="22.9256" stroke-linecap="round" stroke-linejoin="round"/>
<path d="M3.9397 33.5404H5.2236" stroke="#262A2C" stroke-miterlimit="22.9256" stroke-linecap="round" stroke-linejoin="round"/>
<path fill-rule="evenodd" clip-rule="evenodd" d="M40.0601 21.9861H38.1333C37.0741 21.9861 36.2076 22.8527 36.2076 23.9118V23.9118C36.2076 24.9709 37.0742 25.8375 38.1333 25.8375H36.6783C35.6192 25.8375 34.7526 26.7041 34.7526 27.7632V27.7633C34.7526 28.8224 35.6192 29.689 36.6783 29.689H38.1333C37.0741 29.689 36.2076 30.5556 36.2076 31.6147V31.6148C36.2076 32.6739 37.0742 33.5405 38.1333 33.5405H38.7762C37.7171 33.5405 36.8506 34.407 36.8506 35.4661V35.4662C36.8506 36.5253 37.7171 37.3919 38.7762 37.3919H40.0601C41.1192 37.3919 41.9858 36.5253 41.9858 35.4662V35.4661C41.9858 34.407 41.1192 33.5405 40.0601 33.5405C41.1192 33.5405 41.9858 32.6739 41.9858 31.6148V31.6147C41.9858 30.5556 41.1192 29.689 40.0601 29.689H41.1289C42.188 29.689 43.0546 28.8224 43.0546 27.7633V27.7632C43.0546 26.7041 42.188 25.8375 41.1289 25.8375H40.0601C41.1192 25.8375 41.9858 24.9709 41.9858 23.9118V23.9118C41.9859 22.8526 41.1193 21.9861 40.0601 21.9861Z" stroke="#262A2C" stroke-miterlimit="22.9256" stroke-linecap="round" stroke-linejoin="round"/>
<path d="M40.0602 25.8374H38.1334" stroke="#262A2C" stroke-miterlimit="22.9256" stroke-linecap="round" stroke-linejoin="round"/>
<path d="M40.0602 29.6889H38.1334" stroke="#262A2C" stroke-miterlimit="22.9256" stroke-linecap="round" stroke-linejoin="round"/>
<path d="M40.0602 33.5404H38.7764" stroke="#262A2C" stroke-miterlimit="22.9256" stroke-linecap="round" stroke-linejoin="round"/>
<path d="M7.08338 35.7949L19.4323 39.1036H24.5676L36.954 35.7684M40.0602 21.9983V7.99219L24.5675 12.1435H19.4323L3.9397 7.99219V21.9983" stroke="#262A2C" stroke-miterlimit="22.9256" stroke-linecap="round" stroke-linejoin="round"/>
<path d="M19.4324 12.1435V39.1314" stroke="#262A2C" stroke-miterlimit="22.9256" stroke-linecap="round" stroke-linejoin="round"/>
<path d="M24.5676 12.1435V39.1314" stroke="#262A2C" stroke-miterlimit="22.9256" stroke-linecap="round" stroke-linejoin="round"/>
</svg>
