<svg width="44" height="44" viewBox="0 0 44 44" fill="none" xmlns="http://www.w3.org/2000/svg">
<path d="M35.6965 23.25V20.2252C35.6965 15.7737 32.0878 12.165 27.6363 12.165H21.8699" stroke="#2C80CE" stroke-miterlimit="22.9256" stroke-linecap="round" stroke-linejoin="round"/>
<path d="M23.5553 9.97546L21.8699 12.1649L23.5553 14.3544" stroke="#2C80CE" stroke-miterlimit="22.9256" stroke-linecap="round" stroke-linejoin="round"/>
<path d="M8.15283 20.7501V23.7748C8.15283 28.2264 11.7615 31.8351 16.2131 31.8351H21.9795" stroke="#2C80CE" stroke-miterlimit="22.9256" stroke-linecap="round" stroke-linejoin="round"/>
<path d="M20.2941 34.0246L21.9795 31.8351L20.2941 29.6456" stroke="#2C80CE" stroke-miterlimit="22.9256" stroke-linecap="round" stroke-linejoin="round"/>
<path d="M15.6307 15.0336H0.945312V20.7501H15.6307V15.0336Z" stroke="#262A2C" stroke-miterlimit="10" stroke-linecap="round" stroke-linejoin="round"/>
<path d="M15.6307 9.31308H0.945312V15.0296H15.6307V9.31308Z" stroke="#262A2C" stroke-miterlimit="10" stroke-linecap="round" stroke-linejoin="round"/>
<path d="M15.6307 3.59256H0.945312V9.30904H15.6307V3.59256Z" stroke="#262A2C" stroke-miterlimit="10" stroke-linecap="round" stroke-linejoin="round"/>
<path d="M43.0547 34.691H28.3693V40.4075H43.0547V34.691Z" stroke="#262A2C" stroke-miterlimit="10" stroke-linecap="round" stroke-linejoin="round"/>
<path d="M43.0547 28.9705H28.3693V34.687H43.0547V28.9705Z" stroke="#262A2C" stroke-miterlimit="10" stroke-linecap="round" stroke-linejoin="round"/>
<path d="M43.0547 23.25H28.3693V28.9665H43.0547V23.25Z" stroke="#262A2C" stroke-miterlimit="10" stroke-linecap="round" stroke-linejoin="round"/>
</svg>
