<svg width="44" height="44" viewBox="0 0 44 44" fill="none" xmlns="http://www.w3.org/2000/svg">
<g clip-path="url(#clip0_1473_4899)">
<path d="M43.0834 43.0833C41.4151 40.7183 36.5567 38.9583 35.7501 35.75C38.5001 35.2916 43.0834 33.9166 43.0834 33.9166C40.0745 30.6061 36.2966 28.0875 32.0834 26.5833C29.6817 22.11 25.1534 5.49996 8.25008 3.66663C8.25008 3.66663 4.23508 0.916626 2.75008 0.916626C1.26508 0.916626 0.916748 1.37496 0.916748 2.74996C0.916748 4.12496 4.58341 7.79163 4.58341 9.16663C5.09883 12.1793 6.35927 15.0153 8.25008 17.4166C6.96402 19.641 6.32878 22.182 6.41675 24.75C6.41675 28.82 8.25008 31.1666 10.0834 31.1666C11.9167 31.1666 11.9167 24.75 11.9167 24.75C11.9167 24.75 14.3734 32.3216 19.2501 35.75" stroke="#262A2C" stroke-linecap="round" stroke-linejoin="round"/>
<path d="M11.0001 9.16659C11.0001 8.68036 10.8069 8.21404 10.4631 7.87022C10.1193 7.52641 9.65298 7.33325 9.16675 7.33325" stroke="#2C80CE" stroke-linecap="round" stroke-linejoin="round"/>
</g>
<defs>
<clipPath id="clip0_1473_4899">
<rect width="44" height="44" fill="white"/>
</clipPath>
</defs>
</svg>
