<svg width="44" height="44" viewBox="0 0 44 44" fill="none" xmlns="http://www.w3.org/2000/svg">
<g clip-path="url(#clip0_1473_6023)">
<path d="M14.9062 23.8346H29.0925" stroke="#2C80CE" stroke-miterlimit="22.9256"/>
<path d="M12.8812 32.5709H31.1179" stroke="#2C80CE" stroke-miterlimit="22.9256"/>
<path d="M17.1952 6.44935V5.42282C17.1952 2.96029 19.21 0.94548 21.6725 0.94548H22.3277C24.7903 0.94548 26.8051 2.96037 26.8051 5.42282V6.44935" stroke="#262A2C" stroke-miterlimit="22.9256" stroke-linecap="round" stroke-linejoin="round"/>
<path d="M16.9332 6.44934V15.0983H27.0673V6.44934" stroke="#262A2C" stroke-miterlimit="22.9256" stroke-linecap="round" stroke-linejoin="round"/>
<path d="M15.2018 6.44934H28.7987" stroke="#2C80CE" stroke-miterlimit="22.9256" stroke-linecap="round" stroke-linejoin="round"/>
<path d="M14.3123 15.0984H29.6881" stroke="#262A2C" stroke-miterlimit="22.9256" stroke-linecap="round" stroke-linejoin="round"/>
<path d="M10.8412 41.372L16.9312 15.0984H27.0669L33.1586 41.3719" stroke="#262A2C" stroke-miterlimit="22.9256" stroke-linecap="round" stroke-linejoin="round"/>
<path d="M22.0002 12.5212V15.0984" stroke="#262A2C" stroke-miterlimit="22.9256" stroke-linecap="round" stroke-linejoin="round"/>
<path d="M0.945312 41.3072C2.6999 41.8896 4.3603 43.0545 6.20898 43.0545C8.05767 43.0545 9.62397 41.3072 11.4727 41.3072C13.3213 41.3072 14.8876 43.0545 16.7363 43.0545C18.585 43.0545 20.1513 41.3072 22 41.3072C23.8487 41.3072 25.415 43.0545 27.2637 43.0545C29.1124 43.0545 30.6787 41.3072 32.5273 41.3072C34.376 41.3072 35.9423 43.0545 37.791 43.0545C39.6397 43.0545 41.3001 41.8897 43.0547 41.3072" stroke="#2C80CE" stroke-miterlimit="22.9256" stroke-linecap="round" stroke-linejoin="round"/>
</g>
<defs>
<clipPath id="clip0_1473_6023">
<rect width="44" height="44" fill="white"/>
</clipPath>
</defs>
</svg>
