<svg width="44" height="44" viewBox="0 0 44 44" fill="none" xmlns="http://www.w3.org/2000/svg">
<path d="M11.4297 39.2734C12.4739 39.2734 13.3203 38.427 13.3203 37.3828C13.3203 36.3386 12.4739 35.4922 11.4297 35.4922C10.3855 35.4922 9.53906 36.3386 9.53906 37.3828C9.53906 38.427 10.3855 39.2734 11.4297 39.2734Z" stroke="#262A2C" stroke-miterlimit="10" stroke-linecap="round" stroke-linejoin="round"/>
<path d="M18.9922 39.2734C20.0364 39.2734 20.8828 38.427 20.8828 37.3828C20.8828 36.3386 20.0364 35.4922 18.9922 35.4922C17.948 35.4922 17.1016 36.3386 17.1016 37.3828C17.1016 38.427 17.948 39.2734 18.9922 39.2734Z" stroke="#262A2C" stroke-miterlimit="10" stroke-linecap="round" stroke-linejoin="round"/>
<path d="M11.4297 27.9297C12.4739 27.9297 13.3203 27.0832 13.3203 26.0391C13.3203 24.9949 12.4739 24.1484 11.4297 24.1484C10.3855 24.1484 9.53906 24.9949 9.53906 26.0391C9.53906 27.0832 10.3855 27.9297 11.4297 27.9297Z" stroke="#262A2C" stroke-miterlimit="10" stroke-linecap="round" stroke-linejoin="round"/>
<path d="M18.9922 27.9297C20.0364 27.9297 20.8828 27.0832 20.8828 26.0391C20.8828 24.9949 20.0364 24.1484 18.9922 24.1484C17.948 24.1484 17.1016 24.9949 17.1016 26.0391C17.1016 27.0832 17.948 27.9297 18.9922 27.9297Z" stroke="#262A2C" stroke-miterlimit="10" stroke-linecap="round" stroke-linejoin="round"/>
<path d="M26.2695 7.37275L23.9766 9.66565V0.945312H20.0235V9.66565L17.7306 7.37275L14.9353 10.168L20.6024 15.8351C20.9884 16.221 21.4942 16.4141 22.0001 16.4141C22.5059 16.4141 23.0117 16.221 23.3977 15.8352L29.0648 10.1681L26.2695 7.37275Z" stroke="#2C80CE" stroke-miterlimit="10" stroke-linecap="round" stroke-linejoin="round"/>
<path d="M36.3516 31.7109H7.64844C6.6043 31.7109 5.75781 32.5574 5.75781 33.6016V41.1641C5.75781 42.2082 6.6043 43.0547 7.64844 43.0547H36.3516C37.3957 43.0547 38.2422 42.2082 38.2422 41.1641V33.6016C38.2422 32.5574 37.3957 31.7109 36.3516 31.7109Z" stroke="#262A2C" stroke-miterlimit="10" stroke-linecap="round" stroke-linejoin="round"/>
<path d="M34.4609 37.3828H24.6641" stroke="#262A2C" stroke-miterlimit="10" stroke-linecap="round" stroke-linejoin="round"/>
<path d="M36.3516 20.3672H7.64844C6.6043 20.3672 5.75781 21.2137 5.75781 22.2578V29.8203C5.75781 30.8645 6.6043 31.7109 7.64844 31.7109H36.3516C37.3957 31.7109 38.2422 30.8645 38.2422 29.8203V22.2578C38.2422 21.2137 37.3957 20.3672 36.3516 20.3672Z" stroke="#262A2C" stroke-miterlimit="10" stroke-linecap="round" stroke-linejoin="round"/>
<path d="M34.4609 26.0391H24.6641" stroke="#262A2C" stroke-miterlimit="10" stroke-linecap="round" stroke-linejoin="round"/>
</svg>
