<?xml version="1.0" standalone="no"?><!DOCTYPE svg PUBLIC "-//W3C//DTD SVG 1.1//EN" "http://www.w3.org/Graphics/SVG/1.1/DTD/svg11.dtd"><svg t="1657868895676" class="icon" viewBox="0 0 1024 1024" version="1.1" xmlns="http://www.w3.org/2000/svg" p-id="3433" xmlns:xlink="http://www.w3.org/1999/xlink" width="200" height="200"><defs><style type="text/css">@font-face { font-family: feedback-iconfont; src: url("//at.alicdn.com/t/font_1031158_u69w8yhxdu.woff2?t=1630033759944") format("woff2"), url("//at.alicdn.com/t/font_1031158_u69w8yhxdu.woff?t=1630033759944") format("woff"), url("//at.alicdn.com/t/font_1031158_u69w8yhxdu.ttf?t=1630033759944") format("truetype"); }
</style></defs><path d="M673.645714 219.428571A204.8 204.8 0 0 0 512 297.325714 204.434286 204.434286 0 0 0 353.645714 219.428571 206.994286 206.994286 0 0 0 146.285714 428.251429C146.285714 654.628571 512 804.571429 512 804.571429s365.714286-149.942857 365.714286-375.588572A206.994286 206.994286 0 0 0 673.645714 219.428571z" fill="#E2E5EE" p-id="3434"></path><path d="M841.142857 478.354286h-204.8l-24.502857-48.64a33.28 33.28 0 0 0-29.622857-18.651429 32.914286 32.914286 0 0 0-29.622857 18.285714l-19.748572 36.571429-53.76-134.217143a33.645714 33.645714 0 0 0-31.085714-21.211428 34.011429 34.011429 0 0 0-31.085714 22.308571l-51.565715 146.285714H73.142857v66.925715h313.417143a33.645714 33.645714 0 0 0 31.817143-22.308572l31.085714-84.845714 32.182857 82.651428a33.645714 33.645714 0 0 0 31.451429 21.211429h36.571428a33.28 33.28 0 0 0 29.622858-18.285714l3.291428-6.217143 4.022857 7.68a33.28 33.28 0 0 0 29.988572 18.651428H950.857143v-66.194285z" fill="#172D72" p-id="3435"></path><path d="M841.142857 478.354286h-204.8l-24.502857-48.64a33.28 33.28 0 0 0-29.622857-18.651429 32.914286 32.914286 0 0 0-29.622857 18.285714l-19.748572 36.571429-53.76-134.217143a33.645714 33.645714 0 0 0-31.085714-21.211428 34.011429 34.011429 0 0 0-31.085714 22.308571l-51.565715 146.285714H153.965714a256 256 0 0 0 26.697143 66.925715h207.36a33.645714 33.645714 0 0 0 31.817143-22.308572l29.622857-84.845714 32.182857 82.651428a33.645714 33.645714 0 0 0 31.451429 21.211429h36.571428a33.28 33.28 0 0 0 29.622858-18.285714l3.291428-6.217143 4.022857 7.68a33.28 33.28 0 0 0 29.988572 18.651428h231.131428a256 256 0 0 0 26.331429-66.925714z" fill="#5B62E8" p-id="3436"></path></svg>