<svg xmlns="http://www.w3.org/2000/svg" width="66.312" height="51.785" viewBox="0 0 66.312 51.785">
  <g id="_003-cloud-computing" data-name="003-cloud-computing" transform="translate(0 0)">
    <path id="Path_10454" data-name="Path 10454" d="M66.312,22.875c0,6.247-5.239,10.906-11.546,10.906h-42.7C5.392,33.781,0,28.832,0,22.288A11.519,11.519,0,0,1,15.661,11.554a.8.8,0,0,0,1.041-.462,16.9,16.9,0,0,1,32.265,1.694.8.8,0,0,0,1.159.518A10.935,10.935,0,0,1,66.312,22.875Zm0,0" transform="translate(0 0)" fill="#3f3d56"/>
    <path id="Path_10456" data-name="Path 10456" d="M150.136,132.713h-2.748a1.327,1.327,0,0,1-1.262-.929,13.657,13.657,0,0,0-.853-2.058,1.33,1.33,0,0,1,.236-1.551l1.942-1.943a1.324,1.324,0,0,0,0-1.872l-2.688-2.688a1.322,1.322,0,0,0-1.872,0l-1.943,1.942a1.33,1.33,0,0,1-1.551.236,13.6,13.6,0,0,0-2.058-.852,1.328,1.328,0,0,1-.929-1.263v-2.746a1.324,1.324,0,0,0-1.324-1.324h-3.8a1.324,1.324,0,0,0-1.324,1.324v2.746a1.328,1.328,0,0,1-.929,1.263,13.6,13.6,0,0,0-2.058.852,1.33,1.33,0,0,1-1.551-.236l-1.943-1.942a1.322,1.322,0,0,0-1.872,0l-2.688,2.688a1.324,1.324,0,0,0,0,1.872l1.942,1.943a1.33,1.33,0,0,1,.236,1.551,13.655,13.655,0,0,0-.853,2.058,1.328,1.328,0,0,1-1.262.929h-2.748a1.324,1.324,0,0,0-1.324,1.324v3.8a1.325,1.325,0,0,0,1.324,1.324h2.748a1.327,1.327,0,0,1,1.262.928,13.61,13.61,0,0,0,.853,2.058,1.332,1.332,0,0,1-.236,1.552l-1.942,1.943a1.325,1.325,0,0,0,0,1.872l2.688,2.688a1.325,1.325,0,0,0,1.872,0l1.943-1.943a1.328,1.328,0,0,1,1.551-.236,13.6,13.6,0,0,0,2.058.853,1.326,1.326,0,0,1,.929,1.262v2.748a1.324,1.324,0,0,0,1.324,1.324h3.8a1.324,1.324,0,0,0,1.324-1.324v-2.748a1.326,1.326,0,0,1,.929-1.262,13.6,13.6,0,0,0,2.058-.853,1.328,1.328,0,0,1,1.551.236l1.943,1.943a1.325,1.325,0,0,0,1.872,0l2.688-2.688a1.325,1.325,0,0,0,0-1.872l-1.942-1.943a1.332,1.332,0,0,1-.236-1.552,13.612,13.612,0,0,0,.853-2.058,1.327,1.327,0,0,1,1.262-.928h2.748a1.325,1.325,0,0,0,1.324-1.324v-3.8A1.324,1.324,0,0,0,150.136,132.713Zm-16.949,9.561a6.338,6.338,0,1,1,6.337-6.337A6.338,6.338,0,0,1,133.187,142.274Zm0,0" transform="translate(-100.031 -102.425)" fill="#6c63ff"/>
    <path id="Path_10457" data-name="Path 10457" d="M274.273,134.037v3.8a1.325,1.325,0,0,1-1.324,1.324H270.2a1.327,1.327,0,0,0-1.262.928,13.609,13.609,0,0,1-.853,2.058,1.332,1.332,0,0,0,.236,1.552l1.942,1.943a1.325,1.325,0,0,1,0,1.872l-2.688,2.688a1.325,1.325,0,0,1-1.872,0l-1.943-1.943a1.328,1.328,0,0,0-1.551-.236,13.6,13.6,0,0,1-2.058.853,1.326,1.326,0,0,0-.929,1.262v2.748a1.324,1.324,0,0,1-1.324,1.324H256V142.274a6.338,6.338,0,0,0,0-12.676V117.664h1.9a1.324,1.324,0,0,1,1.324,1.324v2.746a1.328,1.328,0,0,0,.929,1.263,13.6,13.6,0,0,1,2.058.852,1.33,1.33,0,0,0,1.551-.236l1.943-1.942a1.322,1.322,0,0,1,1.872,0l2.688,2.688a1.324,1.324,0,0,1,0,1.872l-1.942,1.943a1.33,1.33,0,0,0-.236,1.551,13.654,13.654,0,0,1,.853,2.058,1.327,1.327,0,0,0,1.262.929h2.748A1.324,1.324,0,0,1,274.273,134.037Zm0,0" transform="translate(-222.844 -102.425)" fill="#6c63ff"/>
  </g>
</svg>
