<svg xmlns="http://www.w3.org/2000/svg" width="57.224" height="57.224" viewBox="0 0 57.224 57.224">
  <g id="_002-processor" data-name="002-processor" transform="translate(0 -0.5)">
    <path id="Path_10502" data-name="Path 10502" d="M139.678.5a1.76,1.76,0,0,0-1.76,1.76v8.512a1.76,1.76,0,1,0,3.52,0V2.26A1.76,1.76,0,0,0,139.678.5Zm0,0" transform="translate(-122.503)" fill="#6c63ff"/>
    <path id="Path_10503" data-name="Path 10503" d="M207.9.5a1.76,1.76,0,0,0-1.759,1.76v8.512a1.76,1.76,0,1,0,3.519,0V2.26A1.76,1.76,0,0,0,207.9.5Zm0,0" transform="translate(-183.105)" fill="#6c63ff"/>
    <path id="Path_10504" data-name="Path 10504" d="M276.127.5a1.76,1.76,0,0,0-1.76,1.76v8.512a1.76,1.76,0,1,0,3.519,0V2.26A1.76,1.76,0,0,0,276.127.5Zm0,0" transform="translate(-243.702)" fill="#6c63ff"/>
    <path id="Path_10505" data-name="Path 10505" d="M344.35.5a1.76,1.76,0,0,0-1.76,1.76v8.512a1.76,1.76,0,1,0,3.52,0V2.26A1.76,1.76,0,0,0,344.35.5Zm0,0" transform="translate(-304.3)" fill="#6c63ff"/>
    <path id="Path_10506" data-name="Path 10506" d="M139.678,404.852a1.76,1.76,0,0,0-1.76,1.76v8.512a1.76,1.76,0,0,0,3.52,0v-8.512A1.76,1.76,0,0,0,139.678,404.852Zm0,0" transform="translate(-122.503 -359.159)" fill="#6c63ff"/>
    <path id="Path_10507" data-name="Path 10507" d="M207.9,404.852a1.76,1.76,0,0,0-1.759,1.76v8.512a1.76,1.76,0,1,0,3.519,0v-8.512A1.76,1.76,0,0,0,207.9,404.852Zm0,0" transform="translate(-183.105 -359.159)" fill="#6c63ff"/>
    <g id="Group_2408" data-name="Group 2408" transform="translate(30.665 15.915)">
      <path id="Path_10508" data-name="Path 10508" d="M276.127,404.852a1.76,1.76,0,0,0-1.76,1.76v8.512a1.76,1.76,0,1,0,3.519,0v-8.512A1.76,1.76,0,0,0,276.127,404.852Zm0,0" transform="translate(-274.367 -375.073)" fill="#6c63ff"/>
      <path id="Path_10509" data-name="Path 10509" d="M344.35,404.852a1.76,1.76,0,0,0-1.76,1.76v8.512a1.76,1.76,0,0,0,3.52,0v-8.512A1.76,1.76,0,0,0,344.35,404.852Zm0,0" transform="translate(-334.965 -375.073)" fill="#6c63ff"/>
      <path id="Path_10510" data-name="Path 10510" d="M406.111,141.938h8.512a1.76,1.76,0,1,0,0-3.52h-8.512a1.76,1.76,0,1,0,0,3.52Zm0,0" transform="translate(-389.824 -138.418)" fill="#6c63ff"/>
      <path id="Path_10511" data-name="Path 10511" d="M414.623,206.645h-8.512a1.76,1.76,0,1,0,0,3.519h8.512a1.76,1.76,0,1,0,0-3.519Zm0,0" transform="translate(-389.824 -199.019)" fill="#6c63ff"/>
      <path id="Path_10512" data-name="Path 10512" d="M414.623,274.867h-8.512a1.76,1.76,0,1,0,0,3.519h8.512a1.76,1.76,0,1,0,0-3.519Zm0,0" transform="translate(-389.824 -259.617)" fill="#6c63ff"/>
      <path id="Path_10513" data-name="Path 10513" d="M414.623,343.09h-8.512a1.76,1.76,0,1,0,0,3.52h8.512a1.76,1.76,0,1,0,0-3.52Zm0,0" transform="translate(-389.824 -320.215)" fill="#6c63ff"/>
    </g>
    <path id="Path_10514" data-name="Path 10514" d="M10.272,138.418H1.76a1.76,1.76,0,1,0,0,3.52h8.512a1.76,1.76,0,1,0,0-3.52Zm0,0" transform="translate(0 -122.503)" fill="#6c63ff"/>
    <path id="Path_10515" data-name="Path 10515" d="M10.272,206.645H1.76a1.76,1.76,0,1,0,0,3.519h8.512a1.76,1.76,0,1,0,0-3.519Zm0,0" transform="translate(0 -183.105)" fill="#6c63ff"/>
    <path id="Path_10516" data-name="Path 10516" d="M10.272,274.867H1.76a1.76,1.76,0,1,0,0,3.519h8.512a1.76,1.76,0,1,0,0-3.519Zm0,0" transform="translate(0 -243.702)" fill="#6c63ff"/>
    <path id="Path_10517" data-name="Path 10517" d="M10.272,343.09H1.76a1.76,1.76,0,1,0,0,3.52h8.512a1.76,1.76,0,1,0,0-3.52Zm0,0" transform="translate(0 -304.3)" fill="#6c63ff"/>
    <path id="Path_10518" data-name="Path 10518" d="M128.229,92.635V125.9a1.76,1.76,0,0,1-1.76,1.76H93.205a1.76,1.76,0,0,1-1.76-1.76V92.635a1.76,1.76,0,0,1,1.76-1.76h33.263A1.76,1.76,0,0,1,128.229,92.635Zm0,0" transform="translate(-81.225 -80.274)" fill="#3f3d56"/>
    <path id="Path_10520" data-name="Path 10520" d="M159.023,138.451v11.965a1.174,1.174,0,0,1-1.173,1.173h-1.857a3.715,3.715,0,0,0-3.714,3.714v1.976a1.173,1.173,0,0,1-1.173,1.173H139.023a1.173,1.173,0,0,1-1.173-1.173V155.3a3.715,3.715,0,0,0-3.714-3.714h-1.857a1.174,1.174,0,0,1-1.173-1.173V138.451a1.173,1.173,0,0,1,1.173-1.173h1.857a3.714,3.714,0,0,0,3.714-3.714v-1.856a1.173,1.173,0,0,1,1.173-1.173h12.082a1.173,1.173,0,0,1,1.173,1.173v1.856a3.714,3.714,0,0,0,3.714,3.714h1.857A1.173,1.173,0,0,1,159.023,138.451Zm0,0" transform="translate(-116.452 -115.502)" fill="#c9cedd"/>
  </g>
</svg>
