<svg id="_004-data-transfer" data-name="004-data-transfer" xmlns="http://www.w3.org/2000/svg" width="65" height="46.436" viewBox="0 0 65 46.436">
  <path id="Path_10458" data-name="Path 10458" d="M161.2,2.3V44.14a2.187,2.187,0,0,1-2.058,2.3H131a2.186,2.186,0,0,1-2.057-2.3V2.3A2.186,2.186,0,0,1,131,0h28.147A2.187,2.187,0,0,1,161.2,2.3Zm0,0" transform="translate(-112.572)" fill="#3f3d56"/>
  <path id="Path_10460" data-name="Path 10460" d="M128.941,121.922H161.2V137.4H128.941Zm0,0" transform="translate(-112.572 -106.444)" fill="#c9cedd"/>
  <path id="Path_10462" data-name="Path 10462" d="M181.975,50.132a1.957,1.957,0,0,1-1.956,1.957H170.14a1.957,1.957,0,1,1,0-3.913h9.878A1.956,1.956,0,0,1,181.975,50.132Zm0,0" transform="translate(-146.832 -42.06)" fill="#6c63ff"/>
  <path id="Path_10464" data-name="Path 10464" d="M297.547,52.085h1.737a1.957,1.957,0,0,0,0-3.913h-1.737a1.957,1.957,0,1,0,0,3.913Zm0,0" transform="translate(-258.064 -42.056)" fill="#6c63ff"/>
  <path id="Path_10465" data-name="Path 10465" d="M181.975,171.159a1.956,1.956,0,0,1-1.956,1.956H170.14a1.956,1.956,0,1,1,0-3.913h9.878A1.956,1.956,0,0,1,181.975,171.159Zm0,0" transform="translate(-146.832 -147.722)" fill="#6c63ff"/>
  <path id="Path_10467" data-name="Path 10467" d="M299.283,169.2h-1.737a1.957,1.957,0,1,0,0,3.913h1.737a1.957,1.957,0,0,0,0-3.913Zm0,0" transform="translate(-258.064 -147.722)" fill="#6c63ff"/>
  <path id="Path_10468" data-name="Path 10468" d="M181.975,293.808a1.956,1.956,0,0,1-1.956,1.956H170.14a1.957,1.957,0,1,1,0-3.913h9.878A1.956,1.956,0,0,1,181.975,293.808Zm0,0" transform="translate(-146.832 -254.8)" fill="#6c63ff"/>
  <path id="Path_10470" data-name="Path 10470" d="M299.283,291.848h-1.737a1.957,1.957,0,1,0,0,3.913h1.737a1.957,1.957,0,0,0,0-3.913Zm0,0" transform="translate(-258.064 -254.797)" fill="#6c63ff"/>
  <path id="Path_10471" data-name="Path 10471" d="M413.49,68.387a1.956,1.956,0,0,1-1.956,1.957h-5.72l1.355,1.356a1.956,1.956,0,0,1-2.767,2.767L399.739,69.8a1.982,1.982,0,0,1-.573-1.477,1.96,1.96,0,0,1,.79-1.509l4.51-4.509a1.956,1.956,0,0,1,2.767,2.767l-1.355,1.355h5.655a1.956,1.956,0,0,1,1.955,1.9C413.49,68.347,413.49,68.368,413.49,68.387Zm0,0" transform="translate(-348.49 -53.898)" fill="#6c63ff"/>
  <path id="Path_10472" data-name="Path 10472" d="M14.326,68.387a1.957,1.957,0,0,1-1.957,1.957H6.649L8,71.7a1.956,1.956,0,0,1-2.766,2.767L.574,69.8A1.982,1.982,0,0,1,0,68.327a1.958,1.958,0,0,1,.79-1.509L5.3,62.308A1.956,1.956,0,0,1,8.07,65.075L6.714,66.431h5.654a1.956,1.956,0,0,1,1.955,1.9C14.326,68.347,14.326,68.368,14.326,68.387Zm0,0" transform="translate(-0.001 -53.898)" fill="#6c63ff"/>
  <path id="Path_10475" data-name="Path 10475" d="M0,205.892a1.957,1.957,0,0,0,1.957,1.956H7.676l-1.355,1.357a1.956,1.956,0,1,0,2.767,2.766l4.663-4.663a1.979,1.979,0,0,0,.573-1.476,1.959,1.959,0,0,0-.79-1.509l-4.51-4.509a1.956,1.956,0,1,0-2.767,2.766l1.355,1.355H1.957A1.956,1.956,0,0,0,0,205.832c0,.019,0,.04,0,.06Zm0,0" transform="translate(0 -173.946)" fill="#6c63ff"/>
  <path id="Path_10476" data-name="Path 10476" d="M399.164,205.892a1.957,1.957,0,0,0,1.957,1.956h5.72l-1.355,1.357a1.956,1.956,0,0,0,2.767,2.766l4.663-4.663a1.981,1.981,0,0,0,.572-1.476,1.957,1.957,0,0,0-.79-1.509l-4.511-4.509a1.956,1.956,0,0,0-2.767,2.766l1.355,1.355h-5.654a1.956,1.956,0,0,0-1.955,1.9C399.164,205.851,399.164,205.872,399.164,205.892Zm0,0" transform="translate(-348.489 -173.946)" fill="#6c63ff"/>
</svg>
