<svg id="_045-folder" data-name="045-folder" xmlns="http://www.w3.org/2000/svg" width="56.21" height="47.218" viewBox="0 0 56.21 47.218">
  <path id="Path_10477" data-name="Path 10477" d="M127.36,36.022H83.67a1.764,1.764,0,0,1-1.764-1.764V1.764A1.764,1.764,0,0,1,83.67,0H95.086a1.764,1.764,0,0,1,1.568.956l2.369,4.6a1.765,1.765,0,0,0,1.569.956H127.36a1.764,1.764,0,0,1,1.764,1.764V34.257A1.764,1.764,0,0,1,127.36,36.022Zm0,0" transform="translate(-72.914 0)" fill="#3f3d56"/>
  <path id="Path_10479" data-name="Path 10479" d="M47.217,110.269v25.98a1.764,1.764,0,0,1-1.764,1.764H1.764A1.764,1.764,0,0,1,0,136.249V103.756a1.764,1.764,0,0,1,1.764-1.764H13.179a1.763,1.763,0,0,1,1.569.956l2.368,4.6a1.766,1.766,0,0,0,1.569.956H45.453A1.764,1.764,0,0,1,47.217,110.269Zm0,0" transform="translate(0 -90.795)" fill="#6c63ff"/>
  <path id="Path_10481" data-name="Path 10481" d="M113.95,238.007a4.684,4.684,0,0,1-4.684,4.685H90.443a4.935,4.935,0,1,1,2.113-9.4,7.25,7.25,0,0,1,14.055.854,4.683,4.683,0,0,1,7.339,3.858Zm0,0" transform="translate(-76.12 -203.143)" fill="#c9cedd"/>
</svg>
