<svg width="15" height="15" viewBox="0 0 15 15" fill="none" xmlns="http://www.w3.org/2000/svg">
<path d="M4.75 4.75V2.88333C4.75 2.1366 4.75 1.76323 4.89532 1.47801C5.02316 1.22713 5.22713 1.02316 5.47801 0.895325C5.76323 0.75 6.1366 0.75 6.88333 0.75H11.95C12.6967 0.75 13.0701 0.75 13.3553 0.895325C13.6062 1.02316 13.8102 1.22713 13.938 1.47801C14.0833 1.76323 14.0833 2.1366 14.0833 2.88333V7.95C14.0833 8.69674 14.0833 9.0701 13.938 9.35532C13.8102 9.6062 13.6062 9.81018 13.3553 9.93801C13.0701 10.0833 12.6967 10.0833 11.95 10.0833H10.0833M2.88333 14.0833H7.95C8.69674 14.0833 9.0701 14.0833 9.35532 13.938C9.6062 13.8102 9.81018 13.6062 9.93801 13.3553C10.0833 13.0701 10.0833 12.6967 10.0833 11.95V6.88333C10.0833 6.1366 10.0833 5.76323 9.93801 5.47801C9.81018 5.22713 9.6062 5.02316 9.35532 4.89532C9.0701 4.75 8.69674 4.75 7.95 4.75H2.88333C2.1366 4.75 1.76323 4.75 1.47801 4.89532C1.22713 5.02316 1.02316 5.22713 0.895325 5.47801C0.75 5.76323 0.75 6.1366 0.75 6.88333V11.95C0.75 12.6967 0.75 13.0701 0.895325 13.3553C1.02316 13.6062 1.22713 13.8102 1.47801 13.938C1.76323 14.0833 2.1366 14.0833 2.88333 14.0833Z" stroke="#6F787B" stroke-width="1.5" stroke-linecap="round" stroke-linejoin="round"/>
</svg>
