<svg width="26" height="25" viewBox="0 0 26 25" fill="none" xmlns="http://www.w3.org/2000/svg">
<path fill-rule="evenodd" clip-rule="evenodd" d="M13 0C5.8203 0 0 5.59644 0 12.5C0 19.4036 5.8203 25 13 25C20.1797 25 26 19.4036 26 12.5C26 5.59644 20.1797 0 13 0ZM14.8438 7.58301C15.8318 7.75016 16.7936 8.04606 17.7046 8.46316C19.2741 10.7579 20.0539 13.346 19.766 16.3322C18.7055 17.1163 17.5179 17.7118 16.2552 18.0925C15.9708 17.711 15.7194 17.306 15.5037 16.8819C15.9147 16.7283 16.3114 16.5389 16.6892 16.3158C16.5911 16.2493 16.494 16.1751 16.3991 16.0977C15.3018 16.6137 14.1042 16.8813 12.8916 16.8813C11.679 16.8813 10.4813 16.6137 9.384 16.0977C9.29021 16.1697 9.19314 16.2438 9.09389 16.3158C9.471 16.5385 9.86698 16.7275 10.2773 16.8808C10.0612 17.3051 9.80987 17.7104 9.52579 18.0925C8.26415 17.7102 7.07741 17.1145 6.01714 16.3311C5.77174 13.7561 6.26254 11.144 8.07303 8.46534C8.985 8.04818 9.94742 7.75157 10.936 7.58301C11.0711 7.82471 11.1935 8.07336 11.3025 8.32792C12.3548 8.16934 13.425 8.16934 14.4774 8.32792C14.5863 8.07333 14.7086 7.82468 14.8438 7.58301ZM9.33928 13.3634C9.33928 14.1269 9.90425 14.7475 10.5881 14.7475C11.285 14.7475 11.8238 14.1269 11.8358 13.3634C11.8478 12.6 11.2872 11.974 10.5859 11.974C9.88461 11.974 9.33928 12.6 9.33928 13.3634ZM13.9473 13.3634C13.9473 14.1269 14.5101 14.7475 15.195 14.7475C15.892 14.7475 16.4297 14.1269 16.4417 13.3634C16.4537 12.6 15.8974 11.974 15.195 11.974C14.4926 11.974 13.9473 12.6 13.9473 13.3634Z" fill="white"/>
</svg>
