<svg width="14" height="13" viewBox="0 0 14 13" fill="none" xmlns="http://www.w3.org/2000/svg">
<path d="M6.75011 12.1642H12.7501M0.750122 12.1642H1.86648C2.19261 12.1642 2.35567 12.1642 2.50912 12.1274C2.64516 12.0947 2.77522 12.0408 2.89452 11.9677C3.02908 11.8853 3.14438 11.77 3.37498 11.5394L11.7501 3.16421C12.3024 2.61193 12.3024 1.7165 11.7501 1.16421C11.1979 0.611929 10.3024 0.611929 9.75014 1.16421L1.37496 9.53937C1.14436 9.76998 1.02906 9.88528 0.946602 10.0198C0.873497 10.1391 0.819625 10.2692 0.786962 10.4052C0.750122 10.5587 0.750122 10.7217 0.750122 11.0479V12.1642Z" stroke="#6F787B" stroke-width="1.5" stroke-linecap="round" stroke-linejoin="round"/>
</svg>
