<svg width="13" height="15" viewBox="0 0 13 15" fill="none" xmlns="http://www.w3.org/2000/svg">
<path d="M7.41667 6.75H3.41667M4.75 9.41667H3.41667M8.75 4.08333H3.41667M11.4167 3.95V10.8833C11.4167 12.0034 11.4167 12.5635 11.1987 12.9913C11.0069 13.3676 10.701 13.6736 10.3246 13.8653C9.89682 14.0833 9.33677 14.0833 8.21667 14.0833H3.95C2.8299 14.0833 2.26984 14.0833 1.84202 13.8653C1.46569 13.6736 1.15973 13.3676 0.967987 12.9913C0.75 12.5635 0.75 12.0034 0.75 10.8833V3.95C0.75 2.82989 0.75 2.26984 0.967987 1.84202C1.15973 1.46569 1.46569 1.15973 1.84202 0.967987C2.26984 0.75 2.8299 0.75 3.95 0.75H8.21667C9.33677 0.75 9.89682 0.75 10.3246 0.967987C10.701 1.15973 11.0069 1.46569 11.1987 1.84202C11.4167 2.26984 11.4167 2.82989 11.4167 3.95Z" stroke="#6F787B" stroke-width="1.5" stroke-linecap="round" stroke-linejoin="round"/>
</svg>
