<svg width="26" height="25" viewBox="0 0 26 25" fill="none" xmlns="http://www.w3.org/2000/svg">
<path d="M13.0234 0.09375C5.85795 0.09375 0.0474854 5.77495 0.0474854 12.7836C0.0474854 18.3904 3.76549 23.1472 8.92122 24.8252C9.56972 24.9427 9.8078 24.5499 9.8078 24.2147C9.8078 23.9121 9.79577 22.9125 9.79018 21.8521C6.18026 22.6198 5.41853 20.3548 5.41853 20.3548C4.82826 18.888 3.97778 18.498 3.97778 18.498C2.80048 17.7104 4.06653 17.7266 4.06653 17.7266C5.36954 17.8159 6.05563 19.0343 6.05563 19.0343C7.21296 20.9743 9.09119 20.4135 9.83165 20.0892C9.94811 19.2692 10.2844 18.709 10.6555 18.3923C7.77335 18.0714 4.7436 16.9833 4.7436 12.1208C4.7436 10.7354 5.25049 9.60332 6.08056 8.71463C5.94583 8.3948 5.50168 7.10431 6.20626 5.35635C6.20626 5.35635 7.2959 5.01529 9.77557 6.65713C10.8106 6.37596 11.9207 6.23495 13.0234 6.23012C14.1262 6.23495 15.2371 6.37596 16.2741 6.65713C18.7507 5.01529 19.8389 5.35635 19.8389 5.35635C20.5452 7.10431 20.1008 8.3948 19.9661 8.71463C20.7981 9.60332 21.3015 10.7354 21.3015 12.1208C21.3015 16.9949 18.266 18.0681 15.3765 18.3822C15.8419 18.776 16.2567 19.5483 16.2567 20.7323C16.2567 22.43 16.2416 23.7966 16.2416 24.2147C16.2416 24.5524 16.4752 24.9481 17.1329 24.8235C22.2859 23.1436 25.9991 18.3885 25.9991 12.7836C25.9991 5.77495 20.1895 0.09375 13.0234 0.09375Z" fill="white"/>
<path d="M4.96214 18.3138C4.93356 18.377 4.83214 18.3957 4.73974 18.3524C4.64562 18.311 4.59276 18.2251 4.62328 18.1618C4.65121 18.0969 4.75285 18.079 4.84675 18.1221C4.94108 18.1637 4.9948 18.2505 4.96214 18.3138Z" fill="white"/>
<path d="M5.48764 18.887C5.42576 18.9431 5.30478 18.9171 5.2227 18.8284C5.13782 18.7399 5.12192 18.6216 5.18467 18.5647C5.24848 18.5086 5.36581 18.5348 5.4509 18.6233C5.53577 18.7128 5.55232 18.8303 5.48764 18.887Z" fill="white"/>
<path d="M5.99931 19.6179C5.9198 19.6719 5.7898 19.6213 5.70944 19.5084C5.62994 19.3956 5.62994 19.2603 5.71116 19.206C5.79174 19.1518 5.9198 19.2006 6.00124 19.3126C6.08053 19.4271 6.08053 19.5626 5.99931 19.6179Z" fill="white"/>
<path d="M6.70033 20.3239C6.6292 20.4006 6.47772 20.38 6.36684 20.2753C6.25339 20.173 6.2218 20.0278 6.29314 19.9511C6.36512 19.8742 6.51747 19.8958 6.6292 19.9996C6.7418 20.1017 6.77618 20.248 6.70033 20.3239Z" fill="white"/>
<path d="M7.66729 20.7342C7.63592 20.8336 7.49002 20.8788 7.34304 20.8365C7.19628 20.793 7.10024 20.6766 7.12989 20.5762C7.1604 20.4761 7.30695 20.4291 7.455 20.4743C7.60154 20.5175 7.69781 20.6331 7.66729 20.7342Z" fill="white"/>
<path d="M8.72911 20.8102C8.73277 20.9149 8.60814 21.0017 8.45386 21.0033C8.29872 21.0069 8.17323 20.9222 8.17151 20.8192C8.17151 20.7135 8.29334 20.6276 8.44848 20.6251C8.60277 20.6221 8.72911 20.7062 8.72911 20.8102Z" fill="white"/>
<path d="M9.71731 20.6456C9.73578 20.7477 9.62856 20.8526 9.47535 20.8803C9.32473 20.9074 9.18527 20.8444 9.16615 20.7431C9.14745 20.6384 9.25661 20.5336 9.40702 20.5065C9.56045 20.4804 9.69775 20.5418 9.71731 20.6456Z" fill="white"/>
</svg>
