<svg width="17" height="17" viewBox="0 0 17 17" fill="none" xmlns="http://www.w3.org/2000/svg">
<g clip-path="url(#clip0_100_8051)">
<path d="M8.3632 1.40308C10.0307 3.22864 10.9784 5.59777 11.0299 8.06974C10.9784 10.5417 10.0307 12.9108 8.3632 14.7364M8.3632 1.40308C6.69568 3.22864 5.74803 5.59777 5.69653 8.06974C5.74803 10.5417 6.69568 12.9108 8.3632 14.7364M8.3632 1.40308C4.6813 1.40308 1.69653 4.38784 1.69653 8.06974C1.69653 11.7516 4.6813 14.7364 8.3632 14.7364M8.3632 1.40308C12.0451 1.40308 15.0299 4.38784 15.0299 8.06974C15.0299 11.7516 12.0451 14.7364 8.3632 14.7364M2.02988 6.06974H14.6965M2.02987 10.0697H14.6965" stroke="#383E40" stroke-width="1.5" stroke-linecap="round" stroke-linejoin="round"/>
</g>
<defs>
<clipPath id="clip0_100_8051">
<rect width="16" height="16" fill="white" transform="translate(0.363281 0.0698242)"/>
</clipPath>
</defs>
</svg>
