<svg width="26" height="25" viewBox="0 0 26 25" fill="none" xmlns="http://www.w3.org/2000/svg">
<path fill-rule="evenodd" clip-rule="evenodd" d="M13 0C5.8203 0 0 5.59644 0 12.5C0 19.4036 5.8203 25 13 25C20.1797 25 26 19.4036 26 12.5C26 5.59644 20.1797 0 13 0ZM9.27262 7.72008C9.2535 6.88555 8.63286 6.24992 7.62502 6.24992C6.61718 6.24992 5.95829 6.88555 5.95829 7.72008C5.95829 8.53732 6.59771 9.19125 7.58678 9.19125H7.6056C8.63286 9.19125 9.27262 8.53732 9.27262 7.72008ZM9.07867 10.353H6.13259V18.8643H9.07867V10.353ZM16.3113 10.1531C18.25 10.1531 19.7034 11.3699 19.7034 13.9842L19.7033 18.8643H16.7573V14.3107C16.7573 13.167 16.331 12.3865 15.2645 12.3865C14.4506 12.3865 13.9658 12.9127 13.7528 13.4208C13.6749 13.603 13.6558 13.8567 13.6558 14.1111V18.8645H10.7094C10.7094 18.8645 10.7482 11.1519 10.7094 10.3532H13.6558V11.5588C14.0468 10.9792 14.7471 10.1531 16.3113 10.1531Z" fill="white"/>
</svg>
