<svg width="15" height="15" viewBox="0 0 15 15" fill="none" xmlns="http://www.w3.org/2000/svg">
<path d="M4.30556 9.63889V5.19444L7.50911 8.84185L10.5278 5.19444V9.63889M4.30556 14.0833H10.5278C11.7723 14.0833 12.3946 14.0833 12.87 13.8411C13.2881 13.6281 13.6281 13.2881 13.8411 12.87C14.0833 12.3946 14.0833 11.7723 14.0833 10.5278V4.30556C14.0833 3.06099 14.0833 2.43871 13.8411 1.96335C13.6281 1.54522 13.2881 1.20526 12.87 0.992208C12.3946 0.75 11.7723 0.75 10.5278 0.75H4.30556C3.06099 0.75 2.43871 0.75 1.96335 0.992208C1.54522 1.20526 1.20526 1.54522 0.992208 1.96335C0.75 2.43871 0.75 3.06099 0.75 4.30556V10.5278C0.75 11.7723 0.75 12.3946 0.992208 12.87C1.20526 13.2881 1.54522 13.6281 1.96335 13.8411C2.43871 14.0833 3.06099 14.0833 4.30556 14.0833Z" stroke="#6F787B" stroke-width="1.5" stroke-linecap="round" stroke-linejoin="round"/>
</svg>
