<svg width="26" height="25" viewBox="0 0 26 25" fill="none" xmlns="http://www.w3.org/2000/svg">
<path fill-rule="evenodd" clip-rule="evenodd" d="M13 0C5.8203 0 0 5.59644 0 12.5C0 19.4036 5.8203 25 13 25C20.1797 25 26 19.4036 26 12.5C26 5.59644 20.1797 0 13 0ZM11.0617 8.87138C10.26 8.87138 9.60508 8.21643 9.60508 7.41469C9.60508 6.61295 10.26 5.95801 11.0617 5.95801C11.8634 5.95801 12.5183 6.61295 12.5183 7.41469V8.87138H11.0617ZM7.41487 16.1775C8.21657 16.1775 8.87148 15.5225 8.87148 14.7208V13.2641H7.41487C6.61316 13.2641 5.95825 13.919 5.95825 14.7208C5.95825 15.5225 6.61316 16.1775 7.41487 16.1775ZM11.0617 13.2641C10.26 13.2641 9.60508 13.919 9.60508 14.7208V18.3681C9.60508 19.1699 10.26 19.8248 11.0617 19.8248C11.8634 19.8248 12.5183 19.1699 12.5183 18.3681V14.7208C12.5183 13.919 11.8634 13.2641 11.0617 13.2641ZM12.5187 11.0621C12.5187 10.2603 11.8638 9.60537 11.0621 9.60537H7.41487C6.61316 9.60537 5.95825 10.2603 5.95825 11.0621C5.95825 11.8638 6.61316 12.5187 7.41487 12.5187H11.0621C11.8638 12.5187 12.5187 11.8638 12.5187 11.0621ZM16.9113 11.062C16.9113 10.2603 17.5662 9.60534 18.368 9.60534C19.1697 9.60534 19.8246 10.2603 19.8246 11.062C19.8246 11.8638 19.1697 12.5187 18.368 12.5187H16.9113V11.062ZM14.7211 12.5187C15.5228 12.5187 16.1777 11.8638 16.1777 11.0621V7.41469C16.1777 6.61295 15.5228 5.95801 14.7211 5.95801C13.9194 5.95801 13.2645 6.61295 13.2645 7.41469V11.0621C13.2645 11.8638 13.9194 12.5187 14.7211 12.5187ZM14.7211 16.9115C15.5228 16.9115 16.1777 17.5664 16.1777 18.3682C16.1777 19.1699 15.5228 19.8249 14.7211 19.8249C13.9194 19.8249 13.2645 19.1699 13.2645 18.3682V16.9115H14.7211ZM13.2645 14.7208C13.2645 15.5225 13.9194 16.1775 14.7211 16.1775H18.3683C19.17 16.1775 19.8249 15.5225 19.8249 14.7208C19.8249 13.9191 19.17 13.2641 18.3683 13.2641H14.7211C13.9194 13.2641 13.2645 13.9191 13.2645 14.7208Z" fill="white"/>
</svg>
