<svg width="16" height="16" viewBox="0 0 16 16" fill="none" xmlns="http://www.w3.org/2000/svg">
<g clip-path="url(#clip0_1177_865)">
<path d="M3.00004 14.6666V11.3333M3.00004 4.66665V1.33331M1.33337 2.99998H4.66671M1.33337 13H4.66671M8.66671 1.99998L7.51059 5.00589C7.32258 5.49471 7.22858 5.73912 7.08239 5.9447C6.95283 6.12691 6.79364 6.28611 6.61143 6.41567C6.40584 6.56185 6.16143 6.65585 5.67261 6.84386L2.66671 7.99998L5.67262 9.1561C6.16144 9.34411 6.40585 9.43811 6.61143 9.58429C6.79364 9.71385 6.95283 9.87305 7.08239 10.0553C7.22858 10.2608 7.32258 10.5053 7.51059 10.9941L8.66671 14L9.82283 10.9941C10.0108 10.5053 10.1048 10.2608 10.251 10.0553C10.3806 9.87305 10.5398 9.71385 10.722 9.58429C10.9276 9.43811 11.172 9.34411 11.6608 9.1561L14.6667 7.99998L11.6608 6.84386C11.172 6.65585 10.9276 6.56185 10.722 6.41567C10.5398 6.28611 10.3806 6.12691 10.251 5.9447C10.1048 5.73912 10.0108 5.49471 9.82283 5.00589L8.66671 1.99998Z" stroke="currentColor" stroke-width="1.5" stroke-linecap="round" stroke-linejoin="round"/>
</g>
<defs>
<clipPath id="clip0_1177_865">
<rect width="16" height="16" fill="white"/>
</clipPath>
</defs>
</svg>
