<svg width="26" height="25" viewBox="0 0 26 25" fill="none" xmlns="http://www.w3.org/2000/svg">
<path fill-rule="evenodd" clip-rule="evenodd" d="M13 0C5.8203 0 0 5.59644 0 12.5C0 19.4036 5.8203 25 13 25C20.1797 25 26 19.4036 26 12.5C26 5.59644 20.1797 0 13 0ZM18.4175 8.2028C19.0142 8.36023 19.4841 8.82409 19.6436 9.41316C19.9333 10.4808 19.9333 12.7084 19.9333 12.7084C19.9333 12.7084 19.9333 14.9359 19.6436 16.0036C19.4841 16.5926 19.0142 17.0565 18.4175 17.214C17.3363 17.5 13 17.5 13 17.5C13 17.5 8.66377 17.5 7.5824 17.214C6.98574 17.0565 6.51585 16.5926 6.35638 16.0036C6.06668 14.9359 6.06668 12.7084 6.06668 12.7084C6.06668 12.7084 6.06668 10.4808 6.35638 9.41316C6.51585 8.82409 6.98574 8.36023 7.5824 8.2028C8.66377 7.91669 13 7.91669 13 7.91669C13 7.91669 17.3363 7.91669 18.4175 8.2028Z" fill="white"/>
<path d="M11.7001 14.9999V10.8333L15.1667 12.9167L11.7001 14.9999Z" fill="white"/>
</svg>
